<?xml version="1.0" encoding="UTF-8"?>
<svg xmlns="http://www.w3.org/2000/svg" xmlns:xlink="http://www.w3.org/1999/xlink" width="595.275591pt" height="841.889764pt" viewBox="0 0 595.275591 841.889764" version="1.2">
<g id="surface24801">
<rect x="0" y="0" width="595.275591" height="841.889764" style="fill:rgb(100%,100%,100%);fill-opacity:1;stroke:none;"/>
<path style=" stroke:none;fill-rule:nonzero;fill:rgb(0%,0%,0%);fill-opacity:1;" d="M 378.800781 260.386719 C 378.800781 260.621094 378.609375 260.8125 378.375 260.8125 C 378.140625 260.8125 377.949219 260.621094 377.949219 260.386719 C 377.949219 260.148438 378.140625 259.957031 378.375 259.957031 C 378.609375 259.957031 378.800781 260.148438 378.800781 260.386719 Z M 378.800781 260.386719 "/>
<path style=" stroke:none;fill-rule:nonzero;fill:rgb(0%,0%,0%);fill-opacity:1;" d="M 402.203125 301.425781 C 402.203125 301.660156 402.011719 301.851562 401.773438 301.851562 C 401.539062 301.851562 401.347656 301.660156 401.347656 301.425781 C 401.347656 301.1875 401.539062 300.996094 401.773438 300.996094 C 402.011719 300.996094 402.203125 301.1875 402.203125 301.425781 Z M 402.203125 301.425781 "/>
<path style=" stroke:none;fill-rule:nonzero;fill:rgb(0%,0%,0%);fill-opacity:1;" d="M 421.28125 290.984375 C 421.28125 291.222656 421.089844 291.414062 420.855469 291.414062 C 420.617188 291.414062 420.425781 291.222656 420.425781 290.984375 C 420.425781 290.75 420.617188 290.558594 420.855469 290.558594 C 421.089844 290.558594 421.28125 290.75 421.28125 290.984375 Z M 421.28125 290.984375 "/>
<path style=" stroke:none;fill-rule:nonzero;fill:rgb(0%,0%,0%);fill-opacity:1;" d="M 474.5625 321.945312 C 474.5625 322.179688 474.371094 322.371094 474.136719 322.371094 C 473.898438 322.371094 473.707031 322.179688 473.707031 321.945312 C 473.707031 321.707031 473.898438 321.515625 474.136719 321.515625 C 474.371094 321.515625 474.5625 321.707031 474.5625 321.945312 Z M 474.5625 321.945312 "/>
<path style=" stroke:none;fill-rule:nonzero;fill:rgb(0%,0%,0%);fill-opacity:1;" d="M 305.574219 259.304688 C 305.574219 259.855469 305.125 260.300781 304.574219 260.300781 C 304.023438 260.300781 303.578125 259.855469 303.578125 259.304688 C 303.578125 258.753906 304.023438 258.308594 304.574219 258.308594 C 305.125 258.308594 305.574219 258.753906 305.574219 259.304688 Z M 305.574219 259.304688 "/>
<path style=" stroke:none;fill-rule:nonzero;fill:rgb(0%,0%,0%);fill-opacity:1;" d="M 305.574219 265.785156 C 305.574219 266.335938 305.125 266.78125 304.574219 266.78125 C 304.023438 266.78125 303.578125 266.335938 303.578125 265.785156 C 303.578125 265.234375 304.023438 264.789062 304.574219 264.789062 C 305.125 264.789062 305.574219 265.234375 305.574219 265.785156 Z M 305.574219 265.785156 "/>
<path style=" stroke:none;fill-rule:nonzero;fill:rgb(0%,0%,0%);fill-opacity:1;" d="M 305.574219 306.824219 C 305.574219 307.375 305.125 307.824219 304.574219 307.824219 C 304.023438 307.824219 303.578125 307.375 303.578125 306.824219 C 303.578125 306.273438 304.023438 305.828125 304.574219 305.828125 C 305.125 305.828125 305.574219 306.273438 305.574219 306.824219 Z M 305.574219 306.824219 "/>
<path style=" stroke:none;fill-rule:nonzero;fill:rgb(0%,0%,0%);fill-opacity:1;" d="M 305.574219 321.226562 C 305.574219 321.777344 305.125 322.222656 304.574219 322.222656 C 304.023438 322.222656 303.578125 321.777344 303.578125 321.226562 C 303.578125 320.675781 304.023438 320.226562 304.574219 320.226562 C 305.125 320.226562 305.574219 320.675781 305.574219 321.226562 Z M 305.574219 321.226562 "/>
<path style=" stroke:none;fill-rule:nonzero;fill:rgb(0%,0%,0%);fill-opacity:1;" d="M 319.972656 259.304688 C 319.972656 259.855469 319.527344 260.300781 318.976562 260.300781 C 318.425781 260.300781 317.976562 259.855469 317.976562 259.304688 C 317.976562 258.753906 318.425781 258.308594 318.976562 258.308594 C 319.527344 258.308594 319.972656 258.753906 319.972656 259.304688 Z M 319.972656 259.304688 "/>
<path style=" stroke:none;fill-rule:nonzero;fill:rgb(0%,0%,0%);fill-opacity:1;" d="M 319.972656 265.785156 C 319.972656 266.335938 319.527344 266.78125 318.976562 266.78125 C 318.425781 266.78125 317.976562 266.335938 317.976562 265.785156 C 317.976562 265.234375 318.425781 264.789062 318.976562 264.789062 C 319.527344 264.789062 319.972656 265.234375 319.972656 265.785156 Z M 319.972656 265.785156 "/>
<path style=" stroke:none;fill-rule:nonzero;fill:rgb(0%,0%,0%);fill-opacity:1;" d="M 327.171875 306.824219 C 327.171875 307.375 326.726562 307.824219 326.175781 307.824219 C 325.625 307.824219 325.175781 307.375 325.175781 306.824219 C 325.175781 306.273438 325.625 305.828125 326.175781 305.828125 C 326.726562 305.828125 327.171875 306.273438 327.171875 306.824219 Z M 327.171875 306.824219 "/>
<path style=" stroke:none;fill-rule:nonzero;fill:rgb(0%,0%,0%);fill-opacity:1;" d="M 327.171875 321.226562 C 327.171875 321.777344 326.726562 322.222656 326.175781 322.222656 C 325.625 322.222656 325.175781 321.777344 325.175781 321.226562 C 325.175781 320.675781 325.625 320.226562 326.175781 320.226562 C 326.726562 320.226562 327.171875 320.675781 327.171875 321.226562 Z M 327.171875 321.226562 "/>
<path style=" stroke:none;fill-rule:nonzero;fill:rgb(0%,0%,0%);fill-opacity:1;" d="M 334.371094 306.824219 C 334.371094 307.375 333.925781 307.824219 333.375 307.824219 C 332.824219 307.824219 332.378906 307.375 332.378906 306.824219 C 332.378906 306.273438 332.824219 305.828125 333.375 305.828125 C 333.925781 305.828125 334.371094 306.273438 334.371094 306.824219 Z M 334.371094 306.824219 "/>
<path style=" stroke:none;fill-rule:nonzero;fill:rgb(0%,0%,0%);fill-opacity:1;" d="M 334.371094 321.226562 C 334.371094 321.777344 333.925781 322.222656 333.375 322.222656 C 332.824219 322.222656 332.378906 321.777344 332.378906 321.226562 C 332.378906 320.675781 332.824219 320.226562 333.375 320.226562 C 333.925781 320.226562 334.371094 320.675781 334.371094 321.226562 Z M 334.371094 321.226562 "/>
<path style=" stroke:none;fill-rule:nonzero;fill:rgb(0%,0%,0%);fill-opacity:1;" d="M 347.332031 260.746094 C 347.332031 261.296875 346.886719 261.742188 346.335938 261.742188 C 345.785156 261.742188 345.335938 261.296875 345.335938 260.746094 C 345.335938 260.195312 345.785156 259.746094 346.335938 259.746094 C 346.886719 259.746094 347.332031 260.195312 347.332031 260.746094 Z M 347.332031 260.746094 "/>
<path style=" stroke:none;fill-rule:nonzero;fill:rgb(0%,0%,0%);fill-opacity:1;" d="M 347.332031 267.226562 C 347.332031 267.777344 346.886719 268.222656 346.335938 268.222656 C 345.785156 268.222656 345.335938 267.777344 345.335938 267.226562 C 345.335938 266.675781 345.785156 266.226562 346.335938 266.226562 C 346.886719 266.226562 347.332031 266.675781 347.332031 267.226562 Z M 347.332031 267.226562 "/>
<path style=" stroke:none;fill-rule:nonzero;fill:rgb(0%,0%,0%);fill-opacity:1;" d="M 361.734375 260.746094 C 361.734375 261.296875 361.285156 261.742188 360.734375 261.742188 C 360.183594 261.742188 359.738281 261.296875 359.738281 260.746094 C 359.738281 260.195312 360.183594 259.746094 360.734375 259.746094 C 361.285156 259.746094 361.734375 260.195312 361.734375 260.746094 Z M 361.734375 260.746094 "/>
<path style=" stroke:none;fill-rule:nonzero;fill:rgb(0%,0%,0%);fill-opacity:1;" d="M 361.734375 267.226562 C 361.734375 267.777344 361.285156 268.222656 360.734375 268.222656 C 360.183594 268.222656 359.738281 267.777344 359.738281 267.226562 C 359.738281 266.675781 360.183594 266.226562 360.734375 266.226562 C 361.285156 266.226562 361.734375 266.675781 361.734375 267.226562 Z M 361.734375 267.226562 "/>
<path style=" stroke:none;fill-rule:nonzero;fill:rgb(0%,0%,0%);fill-opacity:1;" d="M 361.734375 306.703125 C 361.734375 307.257812 361.285156 307.703125 360.734375 307.703125 C 360.183594 307.703125 359.738281 307.257812 359.738281 306.703125 C 359.738281 306.152344 360.183594 305.707031 360.734375 305.707031 C 361.285156 305.707031 361.734375 306.152344 361.734375 306.703125 Z M 361.734375 306.703125 "/>
<path style=" stroke:none;fill-rule:nonzero;fill:rgb(0%,0%,0%);fill-opacity:1;" d="M 361.734375 321.105469 C 361.734375 321.65625 361.285156 322.101562 360.734375 322.101562 C 360.183594 322.101562 359.738281 321.65625 359.738281 321.105469 C 359.738281 320.554688 360.183594 320.109375 360.734375 320.109375 C 361.285156 320.109375 361.734375 320.554688 361.734375 321.105469 Z M 361.734375 321.105469 "/>
<path style=" stroke:none;fill-rule:nonzero;fill:rgb(0%,0%,0%);fill-opacity:1;" d="M 368.933594 306.703125 C 368.933594 307.257812 368.484375 307.703125 367.933594 307.703125 C 367.382812 307.703125 366.9375 307.257812 366.9375 306.703125 C 366.9375 306.152344 367.382812 305.707031 367.933594 305.707031 C 368.484375 305.707031 368.933594 306.152344 368.933594 306.703125 Z M 368.933594 306.703125 "/>
<path style=" stroke:none;fill-rule:nonzero;fill:rgb(0%,0%,0%);fill-opacity:1;" d="M 368.933594 321.105469 C 368.933594 321.65625 368.484375 322.101562 367.933594 322.101562 C 367.382812 322.101562 366.9375 321.65625 366.9375 321.105469 C 366.9375 320.554688 367.382812 320.109375 367.933594 320.109375 C 368.484375 320.109375 368.933594 320.554688 368.933594 321.105469 Z M 368.933594 321.105469 "/>
<path style=" stroke:none;fill-rule:nonzero;fill:rgb(0%,0%,0%);fill-opacity:1;" d="M 376.132812 306.703125 C 376.132812 307.257812 375.6875 307.703125 375.136719 307.703125 C 374.585938 307.703125 374.136719 307.257812 374.136719 306.703125 C 374.136719 306.152344 374.585938 305.707031 375.136719 305.707031 C 375.6875 305.707031 376.132812 306.152344 376.132812 306.703125 Z M 376.132812 306.703125 "/>
<path style=" stroke:none;fill-rule:nonzero;fill:rgb(0%,0%,0%);fill-opacity:1;" d="M 376.132812 321.105469 C 376.132812 321.65625 375.6875 322.101562 375.136719 322.101562 C 374.585938 322.101562 374.136719 321.65625 374.136719 321.105469 C 374.136719 320.554688 374.585938 320.109375 375.136719 320.109375 C 375.6875 320.109375 376.132812 320.554688 376.132812 321.105469 Z M 376.132812 321.105469 "/>
<path style=" stroke:none;fill-rule:nonzero;fill:rgb(0%,0%,0%);fill-opacity:1;" d="M 389.09375 260.746094 C 389.09375 261.296875 388.644531 261.742188 388.09375 261.742188 C 387.542969 261.742188 387.097656 261.296875 387.097656 260.746094 C 387.097656 260.195312 387.542969 259.746094 388.09375 259.746094 C 388.644531 259.746094 389.09375 260.195312 389.09375 260.746094 Z M 389.09375 260.746094 "/>
<path style=" stroke:none;fill-rule:nonzero;fill:rgb(0%,0%,0%);fill-opacity:1;" d="M 389.09375 267.226562 C 389.09375 267.777344 388.644531 268.222656 388.09375 268.222656 C 387.542969 268.222656 387.097656 267.777344 387.097656 267.226562 C 387.097656 266.675781 387.542969 266.226562 388.09375 266.226562 C 388.644531 266.226562 389.09375 266.675781 389.09375 267.226562 Z M 389.09375 267.226562 "/>
<path style=" stroke:none;fill-rule:nonzero;fill:rgb(0%,0%,0%);fill-opacity:1;" d="M 403.492188 260.746094 C 403.492188 261.296875 403.046875 261.742188 402.496094 261.742188 C 401.945312 261.742188 401.496094 261.296875 401.496094 260.746094 C 401.496094 260.195312 401.945312 259.746094 402.496094 259.746094 C 403.046875 259.746094 403.492188 260.195312 403.492188 260.746094 Z M 403.492188 260.746094 "/>
<path style=" stroke:none;fill-rule:nonzero;fill:rgb(0%,0%,0%);fill-opacity:1;" d="M 403.492188 267.226562 C 403.492188 267.777344 403.046875 268.222656 402.496094 268.222656 C 401.945312 268.222656 401.496094 267.777344 401.496094 267.226562 C 401.496094 266.675781 401.945312 266.226562 402.496094 266.226562 C 403.046875 266.226562 403.492188 266.675781 403.492188 267.226562 Z M 403.492188 267.226562 "/>
<path style=" stroke:none;fill-rule:nonzero;fill:rgb(0%,0%,0%);fill-opacity:1;" d="M 425.8125 306.105469 C 425.8125 306.65625 425.367188 307.101562 424.816406 307.101562 C 424.265625 307.101562 423.816406 306.65625 423.816406 306.105469 C 423.816406 305.554688 424.265625 305.109375 424.816406 305.109375 C 425.367188 305.109375 425.8125 305.554688 425.8125 306.105469 Z M 425.8125 306.105469 "/>
<path style=" stroke:none;fill-rule:nonzero;fill:rgb(0%,0%,0%);fill-opacity:1;" d="M 425.8125 313.605469 C 425.8125 314.15625 425.367188 314.601562 424.816406 314.601562 C 424.265625 314.601562 423.816406 314.15625 423.816406 313.605469 C 423.816406 313.054688 424.265625 312.609375 424.816406 312.609375 C 425.367188 312.609375 425.8125 313.054688 425.8125 313.605469 Z M 425.8125 313.605469 "/>
<path style=" stroke:none;fill-rule:nonzero;fill:rgb(0%,0%,0%);fill-opacity:1;" d="M 425.8125 328.003906 C 425.8125 328.554688 425.367188 329.003906 424.816406 329.003906 C 424.265625 329.003906 423.816406 328.554688 423.816406 328.003906 C 423.816406 327.453125 424.265625 327.007812 424.816406 327.007812 C 425.367188 327.007812 425.8125 327.453125 425.8125 328.003906 Z M 425.8125 328.003906 "/>
<path style=" stroke:none;fill-rule:nonzero;fill:rgb(0%,0%,0%);fill-opacity:1;" d="M 430.851562 260.746094 C 430.851562 261.296875 430.40625 261.742188 429.855469 261.742188 C 429.304688 261.742188 428.859375 261.296875 428.859375 260.746094 C 428.859375 260.195312 429.304688 259.746094 429.855469 259.746094 C 430.40625 259.746094 430.851562 260.195312 430.851562 260.746094 Z M 430.851562 260.746094 "/>
<path style=" stroke:none;fill-rule:nonzero;fill:rgb(0%,0%,0%);fill-opacity:1;" d="M 430.851562 267.226562 C 430.851562 267.777344 430.40625 268.222656 429.855469 268.222656 C 429.304688 268.222656 428.859375 267.777344 428.859375 267.226562 C 428.859375 266.675781 429.304688 266.226562 429.855469 266.226562 C 430.40625 266.226562 430.851562 266.675781 430.851562 267.226562 Z M 430.851562 267.226562 "/>
<path style=" stroke:none;fill-rule:nonzero;fill:rgb(0%,0%,0%);fill-opacity:1;" d="M 431.707031 327.839844 C 431.707031 328.390625 431.261719 328.835938 430.710938 328.835938 C 430.160156 328.835938 429.710938 328.390625 429.710938 327.839844 C 429.710938 327.289062 430.160156 326.84375 430.710938 326.84375 C 431.261719 326.84375 431.707031 327.289062 431.707031 327.839844 Z M 431.707031 327.839844 "/>
<path style=" stroke:none;fill-rule:nonzero;fill:rgb(0%,0%,0%);fill-opacity:1;" d="M 440.210938 306.105469 C 440.210938 306.65625 439.765625 307.101562 439.214844 307.101562 C 438.664062 307.101562 438.21875 306.65625 438.21875 306.105469 C 438.21875 305.554688 438.664062 305.109375 439.214844 305.109375 C 439.765625 305.109375 440.210938 305.554688 440.210938 306.105469 Z M 440.210938 306.105469 "/>
<path style=" stroke:none;fill-rule:nonzero;fill:rgb(0%,0%,0%);fill-opacity:1;" d="M 445.253906 260.746094 C 445.253906 261.296875 444.804688 261.742188 444.253906 261.742188 C 443.703125 261.742188 443.257812 261.296875 443.257812 260.746094 C 443.257812 260.195312 443.703125 259.746094 444.253906 259.746094 C 444.804688 259.746094 445.253906 260.195312 445.253906 260.746094 Z M 445.253906 260.746094 "/>
<path style=" stroke:none;fill-rule:nonzero;fill:rgb(0%,0%,0%);fill-opacity:1;" d="M 445.253906 267.226562 C 445.253906 267.777344 444.804688 268.222656 444.253906 268.222656 C 443.703125 268.222656 443.257812 267.777344 443.257812 267.226562 C 443.257812 266.675781 443.703125 266.226562 444.253906 266.226562 C 444.804688 266.226562 445.253906 266.675781 445.253906 267.226562 Z M 445.253906 267.226562 "/>
<path style=" stroke:none;fill-rule:nonzero;fill:rgb(0%,0%,0%);fill-opacity:1;" d="M 446.109375 327.839844 C 446.109375 328.390625 445.660156 328.835938 445.109375 328.835938 C 444.558594 328.835938 444.113281 328.390625 444.113281 327.839844 C 444.113281 327.289062 444.558594 326.84375 445.109375 326.84375 C 445.660156 326.84375 446.109375 327.289062 446.109375 327.839844 Z M 446.109375 327.839844 "/>
<path style=" stroke:none;fill-rule:nonzero;fill:rgb(0%,0%,0%);fill-opacity:1;" d="M 457.492188 335.625 C 457.492188 336.175781 457.046875 336.621094 456.496094 336.621094 C 455.945312 336.621094 455.496094 336.175781 455.496094 335.625 C 455.496094 335.074219 455.945312 334.628906 456.496094 334.628906 C 457.046875 334.628906 457.492188 335.074219 457.492188 335.625 Z M 457.492188 335.625 "/>
<path style=" stroke:none;fill-rule:nonzero;fill:rgb(0%,0%,0%);fill-opacity:1;" d="M 471.890625 335.625 C 471.890625 336.175781 471.445312 336.621094 470.894531 336.621094 C 470.34375 336.621094 469.898438 336.175781 469.898438 335.625 C 469.898438 335.074219 470.34375 334.628906 470.894531 334.628906 C 471.445312 334.628906 471.890625 335.074219 471.890625 335.625 Z M 471.890625 335.625 "/>
<path style=" stroke:none;fill-rule:nonzero;fill:rgb(0%,0%,0%);fill-opacity:1;" d="M 472.613281 260.746094 C 472.613281 261.296875 472.164062 261.742188 471.613281 261.742188 C 471.0625 261.742188 470.617188 261.296875 470.617188 260.746094 C 470.617188 260.195312 471.0625 259.746094 471.613281 259.746094 C 472.164062 259.746094 472.613281 260.195312 472.613281 260.746094 Z M 472.613281 260.746094 "/>
<path style=" stroke:none;fill-rule:nonzero;fill:rgb(0%,0%,0%);fill-opacity:1;" d="M 472.613281 275.144531 C 472.613281 275.695312 472.164062 276.140625 471.613281 276.140625 C 471.0625 276.140625 470.617188 275.695312 470.617188 275.144531 C 470.617188 274.59375 471.0625 274.148438 471.613281 274.148438 C 472.164062 274.148438 472.613281 274.59375 472.613281 275.144531 Z M 472.613281 275.144531 "/>
<path style=" stroke:none;fill-rule:nonzero;fill:rgb(0%,0%,0%);fill-opacity:1;" d="M 472.613281 281.625 C 472.613281 282.175781 472.164062 282.621094 471.613281 282.621094 C 471.0625 282.621094 470.617188 282.175781 470.617188 281.625 C 470.617188 281.074219 471.0625 280.628906 471.613281 280.628906 C 472.164062 280.628906 472.613281 281.074219 472.613281 281.625 Z M 472.613281 281.625 "/>
<path style=" stroke:none;fill-rule:nonzero;fill:rgb(0%,0%,0%);fill-opacity:1;" d="M 472.613281 296.023438 C 472.613281 296.574219 472.164062 297.023438 471.613281 297.023438 C 471.0625 297.023438 470.617188 296.574219 470.617188 296.023438 C 470.617188 295.472656 471.0625 295.027344 471.613281 295.027344 C 472.164062 295.027344 472.613281 295.472656 472.613281 296.023438 Z M 472.613281 296.023438 "/>
<path style=" stroke:none;fill-rule:nonzero;fill:rgb(0%,0%,0%);fill-opacity:1;" d="M 485.210938 329.863281 C 485.210938 330.414062 484.765625 330.863281 484.214844 330.863281 C 483.664062 330.863281 483.21875 330.414062 483.21875 329.863281 C 483.21875 329.3125 483.664062 328.867188 484.214844 328.867188 C 484.765625 328.867188 485.210938 329.3125 485.210938 329.863281 Z M 485.210938 329.863281 "/>
<path style=" stroke:none;fill-rule:nonzero;fill:rgb(0%,0%,0%);fill-opacity:1;" d="M 499.613281 329.863281 C 499.613281 330.414062 499.164062 330.863281 498.613281 330.863281 C 498.0625 330.863281 497.617188 330.414062 497.617188 329.863281 C 497.617188 329.3125 498.0625 328.867188 498.613281 328.867188 C 499.164062 328.867188 499.613281 329.3125 499.613281 329.863281 Z M 499.613281 329.863281 "/>
<path style=" stroke:none;fill-rule:nonzero;fill:rgb(0%,0%,0%);fill-opacity:1;" d="M 503.210938 272.265625 C 503.210938 272.816406 502.765625 273.261719 502.214844 273.261719 C 501.664062 273.261719 501.21875 272.816406 501.21875 272.265625 C 501.21875 271.714844 501.664062 271.265625 502.214844 271.265625 C 502.765625 271.265625 503.210938 271.714844 503.210938 272.265625 Z M 503.210938 272.265625 "/>
<path style=" stroke:none;fill-rule:nonzero;fill:rgb(0%,0%,0%);fill-opacity:1;" d="M 503.210938 278.746094 C 503.210938 279.296875 502.765625 279.742188 502.214844 279.742188 C 501.664062 279.742188 501.21875 279.296875 501.21875 278.746094 C 501.21875 278.195312 501.664062 277.746094 502.214844 277.746094 C 502.765625 277.746094 503.210938 278.195312 503.210938 278.746094 Z M 503.210938 278.746094 "/>
<path style=" stroke:none;fill-rule:nonzero;fill:rgb(0%,0%,0%);fill-opacity:1;" d="M 503.210938 285.226562 C 503.210938 285.777344 502.765625 286.222656 502.214844 286.222656 C 501.664062 286.222656 501.21875 285.777344 501.21875 285.226562 C 501.21875 284.675781 501.664062 284.226562 502.214844 284.226562 C 502.765625 284.226562 503.210938 284.675781 503.210938 285.226562 Z M 503.210938 285.226562 "/>
<path style=" stroke:none;fill-rule:nonzero;fill:rgb(0%,0%,0%);fill-opacity:1;" d="M 503.210938 291.703125 C 503.210938 292.257812 502.765625 292.703125 502.214844 292.703125 C 501.664062 292.703125 501.21875 292.257812 501.21875 291.703125 C 501.21875 291.152344 501.664062 290.707031 502.214844 290.707031 C 502.765625 290.707031 503.210938 291.152344 503.210938 291.703125 Z M 503.210938 291.703125 "/>
<path style=" stroke:none;fill-rule:nonzero;fill:rgb(0%,0%,0%);fill-opacity:1;" d="M 506.453125 329.863281 C 506.453125 330.414062 506.007812 330.863281 505.453125 330.863281 C 504.902344 330.863281 504.457031 330.414062 504.457031 329.863281 C 504.457031 329.3125 504.902344 328.867188 505.453125 328.867188 C 506.007812 328.867188 506.453125 329.3125 506.453125 329.863281 Z M 506.453125 329.863281 "/>
<path style=" stroke:none;fill-rule:nonzero;fill:rgb(0%,0%,0%);fill-opacity:1;" d="M 517.613281 272.265625 C 517.613281 272.816406 517.164062 273.261719 516.613281 273.261719 C 516.0625 273.261719 515.617188 272.816406 515.617188 272.265625 C 515.617188 271.714844 516.0625 271.265625 516.613281 271.265625 C 517.164062 271.265625 517.613281 271.714844 517.613281 272.265625 Z M 517.613281 272.265625 "/>
<path style=" stroke:none;fill-rule:nonzero;fill:rgb(0%,0%,0%);fill-opacity:1;" d="M 517.613281 278.746094 C 517.613281 279.296875 517.164062 279.742188 516.613281 279.742188 C 516.0625 279.742188 515.617188 279.296875 515.617188 278.746094 C 515.617188 278.195312 516.0625 277.746094 516.613281 277.746094 C 517.164062 277.746094 517.613281 278.195312 517.613281 278.746094 Z M 517.613281 278.746094 "/>
<path style=" stroke:none;fill-rule:nonzero;fill:rgb(0%,0%,0%);fill-opacity:1;" d="M 517.613281 285.226562 C 517.613281 285.777344 517.164062 286.222656 516.613281 286.222656 C 516.0625 286.222656 515.617188 285.777344 515.617188 285.226562 C 515.617188 284.675781 516.0625 284.226562 516.613281 284.226562 C 517.164062 284.226562 517.613281 284.675781 517.613281 285.226562 Z M 517.613281 285.226562 "/>
<path style=" stroke:none;fill-rule:nonzero;fill:rgb(0%,0%,0%);fill-opacity:1;" d="M 517.613281 291.703125 C 517.613281 292.257812 517.164062 292.703125 516.613281 292.703125 C 516.0625 292.703125 515.617188 292.257812 515.617188 291.703125 C 515.617188 291.152344 516.0625 290.707031 516.613281 290.707031 C 517.164062 290.707031 517.613281 291.152344 517.613281 291.703125 Z M 517.613281 291.703125 "/>
<path style=" stroke:none;fill-rule:nonzero;fill:rgb(0%,0%,0%);fill-opacity:1;" d="M 520.851562 329.863281 C 520.851562 330.414062 520.40625 330.863281 519.855469 330.863281 C 519.304688 330.863281 518.859375 330.414062 518.859375 329.863281 C 518.859375 329.3125 519.304688 328.867188 519.855469 328.867188 C 520.40625 328.867188 520.851562 329.3125 520.851562 329.863281 Z M 520.851562 329.863281 "/>
<path style=" stroke:none;fill-rule:nonzero;fill:rgb(0%,0%,0%);fill-opacity:1;" d="M 524.09375 272.265625 C 524.09375 272.816406 523.644531 273.261719 523.09375 273.261719 C 522.542969 273.261719 522.097656 272.816406 522.097656 272.265625 C 522.097656 271.714844 522.542969 271.265625 523.09375 271.265625 C 523.644531 271.265625 524.09375 271.714844 524.09375 272.265625 Z M 524.09375 272.265625 "/>
<path style=" stroke:none;fill-rule:nonzero;fill:rgb(0%,0%,0%);fill-opacity:1;" d="M 524.09375 278.746094 C 524.09375 279.296875 523.644531 279.742188 523.09375 279.742188 C 522.542969 279.742188 522.097656 279.296875 522.097656 278.746094 C 522.097656 278.195312 522.542969 277.746094 523.09375 277.746094 C 523.644531 277.746094 524.09375 278.195312 524.09375 278.746094 Z M 524.09375 278.746094 "/>
<path style=" stroke:none;fill-rule:nonzero;fill:rgb(0%,0%,0%);fill-opacity:1;" d="M 524.09375 285.226562 C 524.09375 285.777344 523.644531 286.222656 523.09375 286.222656 C 522.542969 286.222656 522.097656 285.777344 522.097656 285.226562 C 522.097656 284.675781 522.542969 284.226562 523.09375 284.226562 C 523.644531 284.226562 524.09375 284.675781 524.09375 285.226562 Z M 524.09375 285.226562 "/>
<path style=" stroke:none;fill-rule:nonzero;fill:rgb(0%,0%,0%);fill-opacity:1;" d="M 524.09375 291.703125 C 524.09375 292.257812 523.644531 292.703125 523.09375 292.703125 C 522.542969 292.703125 522.097656 292.257812 522.097656 291.703125 C 522.097656 291.152344 522.542969 290.707031 523.09375 290.707031 C 523.644531 290.707031 524.09375 291.152344 524.09375 291.703125 Z M 524.09375 291.703125 "/>
<path style=" stroke:none;fill-rule:nonzero;fill:rgb(0%,0%,0%);fill-opacity:1;" d="M 538.492188 272.265625 C 538.492188 272.816406 538.046875 273.261719 537.496094 273.261719 C 536.945312 273.261719 536.496094 272.816406 536.496094 272.265625 C 536.496094 271.714844 536.945312 271.265625 537.496094 271.265625 C 538.046875 271.265625 538.492188 271.714844 538.492188 272.265625 Z M 538.492188 272.265625 "/>
<path style=" stroke:none;fill-rule:nonzero;fill:rgb(0%,0%,0%);fill-opacity:1;" d="M 538.492188 278.746094 C 538.492188 279.296875 538.046875 279.742188 537.496094 279.742188 C 536.945312 279.742188 536.496094 279.296875 536.496094 278.746094 C 536.496094 278.195312 536.945312 277.746094 537.496094 277.746094 C 538.046875 277.746094 538.492188 278.195312 538.492188 278.746094 Z M 538.492188 278.746094 "/>
<path style=" stroke:none;fill-rule:nonzero;fill:rgb(0%,0%,0%);fill-opacity:1;" d="M 538.492188 285.226562 C 538.492188 285.777344 538.046875 286.222656 537.496094 286.222656 C 536.945312 286.222656 536.496094 285.777344 536.496094 285.226562 C 536.496094 284.675781 536.945312 284.226562 537.496094 284.226562 C 538.046875 284.226562 538.492188 284.675781 538.492188 285.226562 Z M 538.492188 285.226562 "/>
<path style=" stroke:none;fill-rule:nonzero;fill:rgb(0%,0%,0%);fill-opacity:1;" d="M 538.492188 291.703125 C 538.492188 292.257812 538.046875 292.703125 537.496094 292.703125 C 536.945312 292.703125 536.496094 292.257812 536.496094 291.703125 C 536.496094 291.152344 536.945312 290.707031 537.496094 290.707031 C 538.046875 290.707031 538.492188 291.152344 538.492188 291.703125 Z M 538.492188 291.703125 "/>
<path style=" stroke:none;fill-rule:nonzero;fill:rgb(0%,0%,0%);fill-opacity:1;" d="M 538.492188 300.34375 C 538.492188 300.894531 538.046875 301.34375 537.496094 301.34375 C 536.945312 301.34375 536.496094 300.894531 536.496094 300.34375 C 536.496094 299.792969 536.945312 299.347656 537.496094 299.347656 C 538.046875 299.347656 538.492188 299.792969 538.492188 300.34375 Z M 538.492188 300.34375 "/>
<path style=" stroke:none;fill-rule:nonzero;fill:rgb(0%,0%,0%);fill-opacity:1;" d="M 538.492188 314.746094 C 538.492188 315.296875 538.046875 315.742188 537.496094 315.742188 C 536.945312 315.742188 536.496094 315.296875 536.496094 314.746094 C 536.496094 314.195312 536.945312 313.746094 537.496094 313.746094 C 538.046875 313.746094 538.492188 314.195312 538.492188 314.746094 Z M 538.492188 314.746094 "/>
<path style=" stroke:none;fill-rule:nonzero;fill:rgb(0%,0%,0%);fill-opacity:1;" d="M 305.722656 277.46875 C 305.722656 278.105469 305.207031 278.617188 304.574219 278.617188 C 303.941406 278.617188 303.425781 278.105469 303.425781 277.46875 C 303.425781 276.835938 303.941406 276.324219 304.574219 276.324219 C 305.207031 276.324219 305.722656 276.835938 305.722656 277.46875 Z M 305.722656 277.46875 "/>
<path style=" stroke:none;fill-rule:nonzero;fill:rgb(0%,0%,0%);fill-opacity:1;" d="M 305.722656 298.726562 C 305.722656 299.359375 305.207031 299.871094 304.574219 299.871094 C 303.941406 299.871094 303.425781 299.359375 303.425781 298.726562 C 303.425781 298.089844 303.941406 297.578125 304.574219 297.578125 C 305.207031 297.578125 305.722656 298.089844 305.722656 298.726562 Z M 305.722656 298.726562 "/>
<path style=" stroke:none;fill-rule:nonzero;fill:rgb(0%,0%,0%);fill-opacity:1;" d="M 305.722656 329.863281 C 305.722656 330.5 305.207031 331.011719 304.574219 331.011719 C 303.941406 331.011719 303.425781 330.5 303.425781 329.863281 C 303.425781 329.230469 303.941406 328.71875 304.574219 328.71875 C 305.207031 328.71875 305.722656 329.230469 305.722656 329.863281 Z M 305.722656 329.863281 "/>
<path style=" stroke:none;fill-rule:nonzero;fill:rgb(0%,0%,0%);fill-opacity:1;" d="M 315.082031 306.824219 C 315.082031 307.457031 314.570312 307.972656 313.933594 307.972656 C 313.300781 307.972656 312.789062 307.457031 312.789062 306.824219 C 312.789062 306.191406 313.300781 305.675781 313.933594 305.675781 C 314.570312 305.675781 315.082031 306.191406 315.082031 306.824219 Z M 315.082031 306.824219 "/>
<path style=" stroke:none;fill-rule:nonzero;fill:rgb(0%,0%,0%);fill-opacity:1;" d="M 315.082031 314.023438 C 315.082031 314.660156 314.570312 315.171875 313.933594 315.171875 C 313.300781 315.171875 312.789062 314.660156 312.789062 314.023438 C 312.789062 313.390625 313.300781 312.878906 313.933594 312.878906 C 314.570312 312.878906 315.082031 313.390625 315.082031 314.023438 Z M 315.082031 314.023438 "/>
<path style=" stroke:none;fill-rule:nonzero;fill:rgb(0%,0%,0%);fill-opacity:1;" d="M 315.082031 321.226562 C 315.082031 321.859375 314.570312 322.371094 313.933594 322.371094 C 313.300781 322.371094 312.789062 321.859375 312.789062 321.226562 C 312.789062 320.589844 313.300781 320.078125 313.933594 320.078125 C 314.570312 320.078125 315.082031 320.589844 315.082031 321.226562 Z M 315.082031 321.226562 "/>
<path style=" stroke:none;fill-rule:nonzero;fill:rgb(0%,0%,0%);fill-opacity:1;" d="M 315.800781 275.144531 C 315.800781 275.777344 315.289062 276.292969 314.65625 276.292969 C 314.019531 276.292969 313.507812 275.777344 313.507812 275.144531 C 313.507812 274.511719 314.019531 273.996094 314.65625 273.996094 C 315.289062 273.996094 315.800781 274.511719 315.800781 275.144531 Z M 315.800781 275.144531 "/>
<path style=" stroke:none;fill-rule:nonzero;fill:rgb(0%,0%,0%);fill-opacity:1;" d="M 315.800781 296.746094 C 315.800781 297.378906 315.289062 297.890625 314.65625 297.890625 C 314.019531 297.890625 313.507812 297.378906 313.507812 296.746094 C 313.507812 296.109375 314.019531 295.597656 314.65625 295.597656 C 315.289062 295.597656 315.800781 296.109375 315.800781 296.746094 Z M 315.800781 296.746094 "/>
<path style=" stroke:none;fill-rule:nonzero;fill:rgb(0%,0%,0%);fill-opacity:1;" d="M 323.003906 275.144531 C 323.003906 275.777344 322.488281 276.292969 321.855469 276.292969 C 321.222656 276.292969 320.707031 275.777344 320.707031 275.144531 C 320.707031 274.511719 321.222656 273.996094 321.855469 273.996094 C 322.488281 273.996094 323.003906 274.511719 323.003906 275.144531 Z M 323.003906 275.144531 "/>
<path style=" stroke:none;fill-rule:nonzero;fill:rgb(0%,0%,0%);fill-opacity:1;" d="M 323.003906 296.746094 C 323.003906 297.378906 322.488281 297.890625 321.855469 297.890625 C 321.222656 297.890625 320.707031 297.378906 320.707031 296.746094 C 320.707031 296.109375 321.222656 295.597656 321.855469 295.597656 C 322.488281 295.597656 323.003906 296.109375 323.003906 296.746094 Z M 323.003906 296.746094 "/>
<path style=" stroke:none;fill-rule:nonzero;fill:rgb(0%,0%,0%);fill-opacity:1;" d="M 326.601562 264.34375 C 326.601562 264.980469 326.089844 265.492188 325.453125 265.492188 C 324.820312 265.492188 324.308594 264.980469 324.308594 264.34375 C 324.308594 263.710938 324.820312 263.199219 325.453125 263.199219 C 326.089844 263.199219 326.601562 263.710938 326.601562 264.34375 Z M 326.601562 264.34375 "/>
<path style=" stroke:none;fill-rule:nonzero;fill:rgb(0%,0%,0%);fill-opacity:1;" d="M 326.976562 329.863281 C 326.976562 330.5 326.464844 331.011719 325.828125 331.011719 C 325.195312 331.011719 324.683594 330.5 324.683594 329.863281 C 324.683594 329.230469 325.195312 328.71875 325.828125 328.71875 C 326.464844 328.71875 326.976562 329.230469 326.976562 329.863281 Z M 326.976562 329.863281 "/>
<path style=" stroke:none;fill-rule:nonzero;fill:rgb(0%,0%,0%);fill-opacity:1;" d="M 330.203125 275.144531 C 330.203125 275.777344 329.6875 276.292969 329.054688 276.292969 C 328.421875 276.292969 327.90625 275.777344 327.90625 275.144531 C 327.90625 274.511719 328.421875 273.996094 329.054688 273.996094 C 329.6875 273.996094 330.203125 274.511719 330.203125 275.144531 Z M 330.203125 275.144531 "/>
<path style=" stroke:none;fill-rule:nonzero;fill:rgb(0%,0%,0%);fill-opacity:1;" d="M 330.203125 296.746094 C 330.203125 297.378906 329.6875 297.890625 329.054688 297.890625 C 328.421875 297.890625 327.90625 297.378906 327.90625 296.746094 C 327.90625 296.109375 328.421875 295.597656 329.054688 295.597656 C 329.6875 295.597656 330.203125 296.109375 330.203125 296.746094 Z M 330.203125 296.746094 "/>
<path style=" stroke:none;fill-rule:nonzero;fill:rgb(0%,0%,0%);fill-opacity:1;" d="M 333.800781 264.34375 C 333.800781 264.980469 333.289062 265.492188 332.65625 265.492188 C 332.019531 265.492188 331.507812 264.980469 331.507812 264.34375 C 331.507812 263.710938 332.019531 263.199219 332.65625 263.199219 C 333.289062 263.199219 333.800781 263.710938 333.800781 264.34375 Z M 333.800781 264.34375 "/>
<path style=" stroke:none;fill-rule:nonzero;fill:rgb(0%,0%,0%);fill-opacity:1;" d="M 337.402344 275.144531 C 337.402344 275.777344 336.890625 276.292969 336.253906 276.292969 C 335.621094 276.292969 335.109375 275.777344 335.109375 275.144531 C 335.109375 274.511719 335.621094 273.996094 336.253906 273.996094 C 336.890625 273.996094 337.402344 274.511719 337.402344 275.144531 Z M 337.402344 275.144531 "/>
<path style=" stroke:none;fill-rule:nonzero;fill:rgb(0%,0%,0%);fill-opacity:1;" d="M 337.402344 296.746094 C 337.402344 297.378906 336.890625 297.890625 336.253906 297.890625 C 335.621094 297.890625 335.109375 297.378906 335.109375 296.746094 C 335.109375 296.109375 335.621094 295.597656 336.253906 295.597656 C 336.890625 295.597656 337.402344 296.109375 337.402344 296.746094 Z M 337.402344 296.746094 "/>
<path style=" stroke:none;fill-rule:nonzero;fill:rgb(0%,0%,0%);fill-opacity:1;" d="M 341.003906 264.34375 C 341.003906 264.980469 340.488281 265.492188 339.855469 265.492188 C 339.222656 265.492188 338.707031 264.980469 338.707031 264.34375 C 338.707031 263.710938 339.222656 263.199219 339.855469 263.199219 C 340.488281 263.199219 341.003906 263.710938 341.003906 264.34375 Z M 341.003906 264.34375 "/>
<path style=" stroke:none;fill-rule:nonzero;fill:rgb(0%,0%,0%);fill-opacity:1;" d="M 341.722656 306.929688 C 341.722656 307.5625 341.207031 308.078125 340.574219 308.078125 C 339.941406 308.078125 339.425781 307.5625 339.425781 306.929688 C 339.425781 306.296875 339.941406 305.78125 340.574219 305.78125 C 341.207031 305.78125 341.722656 306.296875 341.722656 306.929688 Z M 341.722656 306.929688 "/>
<path style=" stroke:none;fill-rule:nonzero;fill:rgb(0%,0%,0%);fill-opacity:1;" d="M 341.722656 314.023438 C 341.722656 314.660156 341.207031 315.171875 340.574219 315.171875 C 339.941406 315.171875 339.425781 314.660156 339.425781 314.023438 C 339.425781 313.390625 339.941406 312.878906 340.574219 312.878906 C 341.207031 312.878906 341.722656 313.390625 341.722656 314.023438 Z M 341.722656 314.023438 "/>
<path style=" stroke:none;fill-rule:nonzero;fill:rgb(0%,0%,0%);fill-opacity:1;" d="M 347.484375 275.144531 C 347.484375 275.777344 346.96875 276.292969 346.335938 276.292969 C 345.703125 276.292969 345.1875 275.777344 345.1875 275.144531 C 345.1875 274.511719 345.703125 273.996094 346.335938 273.996094 C 346.96875 273.996094 347.484375 274.511719 347.484375 275.144531 Z M 347.484375 275.144531 "/>
<path style=" stroke:none;fill-rule:nonzero;fill:rgb(0%,0%,0%);fill-opacity:1;" d="M 347.484375 296.398438 C 347.484375 297.035156 346.96875 297.546875 346.335938 297.546875 C 345.703125 297.546875 345.1875 297.035156 345.1875 296.398438 C 345.1875 295.765625 345.703125 295.253906 346.335938 295.253906 C 346.96875 295.253906 347.484375 295.765625 347.484375 296.398438 Z M 347.484375 296.398438 "/>
<path style=" stroke:none;fill-rule:nonzero;fill:rgb(0%,0%,0%);fill-opacity:1;" d="M 357.5625 275.144531 C 357.5625 275.777344 357.046875 276.292969 356.414062 276.292969 C 355.78125 276.292969 355.265625 275.777344 355.265625 275.144531 C 355.265625 274.511719 355.78125 273.996094 356.414062 273.996094 C 357.046875 273.996094 357.5625 274.511719 357.5625 275.144531 Z M 357.5625 275.144531 "/>
<path style=" stroke:none;fill-rule:nonzero;fill:rgb(0%,0%,0%);fill-opacity:1;" d="M 357.5625 296.746094 C 357.5625 297.378906 357.046875 297.890625 356.414062 297.890625 C 355.78125 297.890625 355.265625 297.378906 355.265625 296.746094 C 355.265625 296.109375 355.78125 295.597656 356.414062 295.597656 C 357.046875 295.597656 357.5625 296.109375 357.5625 296.746094 Z M 357.5625 296.746094 "/>
<path style=" stroke:none;fill-rule:nonzero;fill:rgb(0%,0%,0%);fill-opacity:1;" d="M 364.761719 275.144531 C 364.761719 275.777344 364.25 276.292969 363.613281 276.292969 C 362.980469 276.292969 362.46875 275.777344 362.46875 275.144531 C 362.46875 274.511719 362.980469 273.996094 363.613281 273.996094 C 364.25 273.996094 364.761719 274.511719 364.761719 275.144531 Z M 364.761719 275.144531 "/>
<path style=" stroke:none;fill-rule:nonzero;fill:rgb(0%,0%,0%);fill-opacity:1;" d="M 364.761719 296.746094 C 364.761719 297.378906 364.25 297.890625 363.613281 297.890625 C 362.980469 297.890625 362.46875 297.378906 362.46875 296.746094 C 362.46875 296.109375 362.980469 295.597656 363.613281 295.597656 C 364.25 295.597656 364.761719 296.109375 364.761719 296.746094 Z M 364.761719 296.746094 "/>
<path style=" stroke:none;fill-rule:nonzero;fill:rgb(0%,0%,0%);fill-opacity:1;" d="M 368.363281 264.34375 C 368.363281 264.980469 367.847656 265.492188 367.214844 265.492188 C 366.582031 265.492188 366.066406 264.980469 366.066406 264.34375 C 366.066406 263.710938 366.582031 263.199219 367.214844 263.199219 C 367.847656 263.199219 368.363281 263.710938 368.363281 264.34375 Z M 368.363281 264.34375 "/>
<path style=" stroke:none;fill-rule:nonzero;fill:rgb(0%,0%,0%);fill-opacity:1;" d="M 371.960938 275.144531 C 371.960938 275.777344 371.449219 276.292969 370.816406 276.292969 C 370.179688 276.292969 369.667969 275.777344 369.667969 275.144531 C 369.667969 274.511719 370.179688 273.996094 370.816406 273.996094 C 371.449219 273.996094 371.960938 274.511719 371.960938 275.144531 Z M 371.960938 275.144531 "/>
<path style=" stroke:none;fill-rule:nonzero;fill:rgb(0%,0%,0%);fill-opacity:1;" d="M 371.960938 296.746094 C 371.960938 297.378906 371.449219 297.890625 370.816406 297.890625 C 370.179688 297.890625 369.667969 297.378906 369.667969 296.746094 C 369.667969 296.109375 370.179688 295.597656 370.816406 295.597656 C 371.449219 295.597656 371.960938 296.109375 371.960938 296.746094 Z M 371.960938 296.746094 "/>
<path style=" stroke:none;fill-rule:nonzero;fill:rgb(0%,0%,0%);fill-opacity:1;" d="M 375.5625 264.34375 C 375.5625 264.980469 375.046875 265.492188 374.414062 265.492188 C 373.78125 265.492188 373.265625 264.980469 373.265625 264.34375 C 373.265625 263.710938 373.78125 263.199219 374.414062 263.199219 C 375.046875 263.199219 375.5625 263.710938 375.5625 264.34375 Z M 375.5625 264.34375 "/>
<path style=" stroke:none;fill-rule:nonzero;fill:rgb(0%,0%,0%);fill-opacity:1;" d="M 379.164062 275.144531 C 379.164062 275.777344 378.648438 276.292969 378.015625 276.292969 C 377.382812 276.292969 376.867188 275.777344 376.867188 275.144531 C 376.867188 274.511719 377.382812 273.996094 378.015625 273.996094 C 378.648438 273.996094 379.164062 274.511719 379.164062 275.144531 Z M 379.164062 275.144531 "/>
<path style=" stroke:none;fill-rule:nonzero;fill:rgb(0%,0%,0%);fill-opacity:1;" d="M 379.164062 296.746094 C 379.164062 297.378906 378.648438 297.890625 378.015625 297.890625 C 377.382812 297.890625 376.867188 297.378906 376.867188 296.746094 C 376.867188 296.109375 377.382812 295.597656 378.015625 295.597656 C 378.648438 295.597656 379.164062 296.109375 379.164062 296.746094 Z M 379.164062 296.746094 "/>
<path style=" stroke:none;fill-rule:nonzero;fill:rgb(0%,0%,0%);fill-opacity:1;" d="M 382.761719 264.34375 C 382.761719 264.980469 382.25 265.492188 381.613281 265.492188 C 380.980469 265.492188 380.46875 264.980469 380.46875 264.34375 C 380.46875 263.710938 380.980469 263.199219 381.613281 263.199219 C 382.25 263.199219 382.761719 263.710938 382.761719 264.34375 Z M 382.761719 264.34375 "/>
<path style=" stroke:none;fill-rule:nonzero;fill:rgb(0%,0%,0%);fill-opacity:1;" d="M 383.484375 306.824219 C 383.484375 307.457031 382.96875 307.972656 382.335938 307.972656 C 381.703125 307.972656 381.1875 307.457031 381.1875 306.824219 C 381.1875 306.191406 381.703125 305.675781 382.335938 305.675781 C 382.96875 305.675781 383.484375 306.191406 383.484375 306.824219 Z M 383.484375 306.824219 "/>
<path style=" stroke:none;fill-rule:nonzero;fill:rgb(0%,0%,0%);fill-opacity:1;" d="M 383.484375 313.90625 C 383.484375 314.539062 382.96875 315.050781 382.335938 315.050781 C 381.703125 315.050781 381.1875 314.539062 381.1875 313.90625 C 381.1875 313.269531 381.703125 312.757812 382.335938 312.757812 C 382.96875 312.757812 383.484375 313.269531 383.484375 313.90625 Z M 383.484375 313.90625 "/>
<path style=" stroke:none;fill-rule:nonzero;fill:rgb(0%,0%,0%);fill-opacity:1;" d="M 389.242188 275.144531 C 389.242188 275.777344 388.730469 276.292969 388.09375 276.292969 C 387.460938 276.292969 386.949219 275.777344 386.949219 275.144531 C 386.949219 274.511719 387.460938 273.996094 388.09375 273.996094 C 388.730469 273.996094 389.242188 274.511719 389.242188 275.144531 Z M 389.242188 275.144531 "/>
<path style=" stroke:none;fill-rule:nonzero;fill:rgb(0%,0%,0%);fill-opacity:1;" d="M 389.242188 296.398438 C 389.242188 297.035156 388.730469 297.546875 388.09375 297.546875 C 387.460938 297.546875 386.949219 297.035156 386.949219 296.398438 C 386.949219 295.765625 387.460938 295.253906 388.09375 295.253906 C 388.730469 295.253906 389.242188 295.765625 389.242188 296.398438 Z M 389.242188 296.398438 "/>
<path style=" stroke:none;fill-rule:nonzero;fill:rgb(0%,0%,0%);fill-opacity:1;" d="M 397.882812 306.824219 C 397.882812 307.457031 397.367188 307.972656 396.734375 307.972656 C 396.101562 307.972656 395.585938 307.457031 395.585938 306.824219 C 395.585938 306.191406 396.101562 305.675781 396.734375 305.675781 C 397.367188 305.675781 397.882812 306.191406 397.882812 306.824219 Z M 397.882812 306.824219 "/>
<path style=" stroke:none;fill-rule:nonzero;fill:rgb(0%,0%,0%);fill-opacity:1;" d="M 397.882812 313.90625 C 397.882812 314.539062 397.367188 315.050781 396.734375 315.050781 C 396.101562 315.050781 395.585938 314.539062 395.585938 313.90625 C 395.585938 313.269531 396.101562 312.757812 396.734375 312.757812 C 397.367188 312.757812 397.882812 313.269531 397.882812 313.90625 Z M 397.882812 313.90625 "/>
<path style=" stroke:none;fill-rule:nonzero;fill:rgb(0%,0%,0%);fill-opacity:1;" d="M 399.324219 275.144531 C 399.324219 275.777344 398.808594 276.292969 398.175781 276.292969 C 397.542969 276.292969 397.027344 275.777344 397.027344 275.144531 C 397.027344 274.511719 397.542969 273.996094 398.175781 273.996094 C 398.808594 273.996094 399.324219 274.511719 399.324219 275.144531 Z M 399.324219 275.144531 "/>
<path style=" stroke:none;fill-rule:nonzero;fill:rgb(0%,0%,0%);fill-opacity:1;" d="M 399.324219 296.746094 C 399.324219 297.378906 398.808594 297.890625 398.175781 297.890625 C 397.542969 297.890625 397.027344 297.378906 397.027344 296.746094 C 397.027344 296.109375 397.542969 295.597656 398.175781 295.597656 C 398.808594 295.597656 399.324219 296.109375 399.324219 296.746094 Z M 399.324219 296.746094 "/>
<path style=" stroke:none;fill-rule:nonzero;fill:rgb(0%,0%,0%);fill-opacity:1;" d="M 405.082031 309.703125 C 405.082031 310.339844 404.570312 310.851562 403.933594 310.851562 C 403.300781 310.851562 402.789062 310.339844 402.789062 309.703125 C 402.789062 309.070312 403.300781 308.558594 403.933594 308.558594 C 404.570312 308.558594 405.082031 309.070312 405.082031 309.703125 Z M 405.082031 309.703125 "/>
<path style=" stroke:none;fill-rule:nonzero;fill:rgb(0%,0%,0%);fill-opacity:1;" d="M 405.082031 325.84375 C 405.082031 326.480469 404.570312 326.992188 403.933594 326.992188 C 403.300781 326.992188 402.789062 326.480469 402.789062 325.84375 C 402.789062 325.210938 403.300781 324.699219 403.933594 324.699219 C 404.570312 324.699219 405.082031 325.210938 405.082031 325.84375 Z M 405.082031 325.84375 "/>
<path style=" stroke:none;fill-rule:nonzero;fill:rgb(0%,0%,0%);fill-opacity:1;" d="M 406.523438 275.144531 C 406.523438 275.777344 406.007812 276.292969 405.375 276.292969 C 404.742188 276.292969 404.226562 275.777344 404.226562 275.144531 C 404.226562 274.511719 404.742188 273.996094 405.375 273.996094 C 406.007812 273.996094 406.523438 274.511719 406.523438 275.144531 Z M 406.523438 275.144531 "/>
<path style=" stroke:none;fill-rule:nonzero;fill:rgb(0%,0%,0%);fill-opacity:1;" d="M 406.523438 296.746094 C 406.523438 297.378906 406.007812 297.890625 405.375 297.890625 C 404.742188 297.890625 404.226562 297.378906 404.226562 296.746094 C 404.226562 296.109375 404.742188 295.597656 405.375 295.597656 C 406.007812 295.597656 406.523438 296.109375 406.523438 296.746094 Z M 406.523438 296.746094 "/>
<path style=" stroke:none;fill-rule:nonzero;fill:rgb(0%,0%,0%);fill-opacity:1;" d="M 410.121094 264.34375 C 410.121094 264.980469 409.609375 265.492188 408.976562 265.492188 C 408.339844 265.492188 407.828125 264.980469 407.828125 264.34375 C 407.828125 263.710938 408.339844 263.199219 408.976562 263.199219 C 409.609375 263.199219 410.121094 263.710938 410.121094 264.34375 Z M 410.121094 264.34375 "/>
<path style=" stroke:none;fill-rule:nonzero;fill:rgb(0%,0%,0%);fill-opacity:1;" d="M 412.28125 309.703125 C 412.28125 310.339844 411.769531 310.851562 411.136719 310.851562 C 410.5 310.851562 409.988281 310.339844 409.988281 309.703125 C 409.988281 309.070312 410.5 308.558594 411.136719 308.558594 C 411.769531 308.558594 412.28125 309.070312 412.28125 309.703125 Z M 412.28125 309.703125 "/>
<path style=" stroke:none;fill-rule:nonzero;fill:rgb(0%,0%,0%);fill-opacity:1;" d="M 412.28125 325.84375 C 412.28125 326.480469 411.769531 326.992188 411.136719 326.992188 C 410.5 326.992188 409.988281 326.480469 409.988281 325.84375 C 409.988281 325.210938 410.5 324.699219 411.136719 324.699219 C 411.769531 324.699219 412.28125 325.210938 412.28125 325.84375 Z M 412.28125 325.84375 "/>
<path style=" stroke:none;fill-rule:nonzero;fill:rgb(0%,0%,0%);fill-opacity:1;" d="M 413.722656 275.144531 C 413.722656 275.777344 413.207031 276.292969 412.574219 276.292969 C 411.941406 276.292969 411.425781 275.777344 411.425781 275.144531 C 411.425781 274.511719 411.941406 273.996094 412.574219 273.996094 C 413.207031 273.996094 413.722656 274.511719 413.722656 275.144531 Z M 413.722656 275.144531 "/>
<path style=" stroke:none;fill-rule:nonzero;fill:rgb(0%,0%,0%);fill-opacity:1;" d="M 413.722656 296.746094 C 413.722656 297.378906 413.207031 297.890625 412.574219 297.890625 C 411.941406 297.890625 411.425781 297.378906 411.425781 296.746094 C 411.425781 296.109375 411.941406 295.597656 412.574219 295.597656 C 413.207031 295.597656 413.722656 296.109375 413.722656 296.746094 Z M 413.722656 296.746094 "/>
<path style=" stroke:none;fill-rule:nonzero;fill:rgb(0%,0%,0%);fill-opacity:1;" d="M 417.324219 264.34375 C 417.324219 264.980469 416.808594 265.492188 416.175781 265.492188 C 415.542969 265.492188 415.027344 264.980469 415.027344 264.34375 C 415.027344 263.710938 415.542969 263.199219 416.175781 263.199219 C 416.808594 263.199219 417.324219 263.710938 417.324219 264.34375 Z M 417.324219 264.34375 "/>
<path style=" stroke:none;fill-rule:nonzero;fill:rgb(0%,0%,0%);fill-opacity:1;" d="M 419.484375 309.703125 C 419.484375 310.339844 418.96875 310.851562 418.335938 310.851562 C 417.703125 310.851562 417.1875 310.339844 417.1875 309.703125 C 417.1875 309.070312 417.703125 308.558594 418.335938 308.558594 C 418.96875 308.558594 419.484375 309.070312 419.484375 309.703125 Z M 419.484375 309.703125 "/>
<path style=" stroke:none;fill-rule:nonzero;fill:rgb(0%,0%,0%);fill-opacity:1;" d="M 419.484375 325.84375 C 419.484375 326.480469 418.96875 326.992188 418.335938 326.992188 C 417.703125 326.992188 417.1875 326.480469 417.1875 325.84375 C 417.1875 325.210938 417.703125 324.699219 418.335938 324.699219 C 418.96875 324.699219 419.484375 325.210938 419.484375 325.84375 Z M 419.484375 325.84375 "/>
<path style=" stroke:none;fill-rule:nonzero;fill:rgb(0%,0%,0%);fill-opacity:1;" d="M 420.921875 275.144531 C 420.921875 275.777344 420.410156 276.292969 419.773438 276.292969 C 419.140625 276.292969 418.628906 275.777344 418.628906 275.144531 C 418.628906 274.511719 419.140625 273.996094 419.773438 273.996094 C 420.410156 273.996094 420.921875 274.511719 420.921875 275.144531 Z M 420.921875 275.144531 "/>
<path style=" stroke:none;fill-rule:nonzero;fill:rgb(0%,0%,0%);fill-opacity:1;" d="M 420.921875 296.746094 C 420.921875 297.378906 420.410156 297.890625 419.773438 297.890625 C 419.140625 297.890625 418.628906 297.378906 418.628906 296.746094 C 418.628906 296.109375 419.140625 295.597656 419.773438 295.597656 C 420.410156 295.597656 420.921875 296.109375 420.921875 296.746094 Z M 420.921875 296.746094 "/>
<path style=" stroke:none;fill-rule:nonzero;fill:rgb(0%,0%,0%);fill-opacity:1;" d="M 424.523438 264.34375 C 424.523438 264.980469 424.007812 265.492188 423.375 265.492188 C 422.742188 265.492188 422.226562 264.980469 422.226562 264.34375 C 422.226562 263.710938 422.742188 263.199219 423.375 263.199219 C 424.007812 263.199219 424.523438 263.710938 424.523438 264.34375 Z M 424.523438 264.34375 "/>
<path style=" stroke:none;fill-rule:nonzero;fill:rgb(0%,0%,0%);fill-opacity:1;" d="M 431.003906 275.144531 C 431.003906 275.777344 430.488281 276.292969 429.855469 276.292969 C 429.222656 276.292969 428.707031 275.777344 428.707031 275.144531 C 428.707031 274.511719 429.222656 273.996094 429.855469 273.996094 C 430.488281 273.996094 431.003906 274.511719 431.003906 275.144531 Z M 431.003906 275.144531 "/>
<path style=" stroke:none;fill-rule:nonzero;fill:rgb(0%,0%,0%);fill-opacity:1;" d="M 431.003906 296.398438 C 431.003906 297.035156 430.488281 297.546875 429.855469 297.546875 C 429.222656 297.546875 428.707031 297.035156 428.707031 296.398438 C 428.707031 295.765625 429.222656 295.253906 429.855469 295.253906 C 430.488281 295.253906 431.003906 295.765625 431.003906 296.398438 Z M 431.003906 296.398438 "/>
<path style=" stroke:none;fill-rule:nonzero;fill:rgb(0%,0%,0%);fill-opacity:1;" d="M 434.78125 316.90625 C 434.78125 317.539062 434.269531 318.050781 433.636719 318.050781 C 433 318.050781 432.488281 317.539062 432.488281 316.90625 C 432.488281 316.269531 433 315.757812 433.636719 315.757812 C 434.269531 315.757812 434.78125 316.269531 434.78125 316.90625 Z M 434.78125 316.90625 "/>
<path style=" stroke:none;fill-rule:nonzero;fill:rgb(0%,0%,0%);fill-opacity:1;" d="M 441.082031 275.144531 C 441.082031 275.777344 440.570312 276.292969 439.933594 276.292969 C 439.300781 276.292969 438.789062 275.777344 438.789062 275.144531 C 438.789062 274.511719 439.300781 273.996094 439.933594 273.996094 C 440.570312 273.996094 441.082031 274.511719 441.082031 275.144531 Z M 441.082031 275.144531 "/>
<path style=" stroke:none;fill-rule:nonzero;fill:rgb(0%,0%,0%);fill-opacity:1;" d="M 441.082031 296.746094 C 441.082031 297.378906 440.570312 297.890625 439.933594 297.890625 C 439.300781 297.890625 438.789062 297.378906 438.789062 296.746094 C 438.789062 296.109375 439.300781 295.597656 439.933594 295.597656 C 440.570312 295.597656 441.082031 296.109375 441.082031 296.746094 Z M 441.082031 296.746094 "/>
<path style=" stroke:none;fill-rule:nonzero;fill:rgb(0%,0%,0%);fill-opacity:1;" d="M 441.863281 316.90625 C 441.863281 317.539062 441.347656 318.050781 440.714844 318.050781 C 440.082031 318.050781 439.566406 317.539062 439.566406 316.90625 C 439.566406 316.269531 440.082031 315.757812 440.714844 315.757812 C 441.347656 315.757812 441.863281 316.269531 441.863281 316.90625 Z M 441.863281 316.90625 "/>
<path style=" stroke:none;fill-rule:nonzero;fill:rgb(0%,0%,0%);fill-opacity:1;" d="M 448.28125 275.144531 C 448.28125 275.777344 447.769531 276.292969 447.136719 276.292969 C 446.5 276.292969 445.988281 275.777344 445.988281 275.144531 C 445.988281 274.511719 446.5 273.996094 447.136719 273.996094 C 447.769531 273.996094 448.28125 274.511719 448.28125 275.144531 Z M 448.28125 275.144531 "/>
<path style=" stroke:none;fill-rule:nonzero;fill:rgb(0%,0%,0%);fill-opacity:1;" d="M 448.28125 296.746094 C 448.28125 297.378906 447.769531 297.890625 447.136719 297.890625 C 446.5 297.890625 445.988281 297.378906 445.988281 296.746094 C 445.988281 296.109375 446.5 295.597656 447.136719 295.597656 C 447.769531 295.597656 448.28125 296.109375 448.28125 296.746094 Z M 448.28125 296.746094 "/>
<path style=" stroke:none;fill-rule:nonzero;fill:rgb(0%,0%,0%);fill-opacity:1;" d="M 451.882812 264.34375 C 451.882812 264.980469 451.367188 265.492188 450.734375 265.492188 C 450.101562 265.492188 449.585938 264.980469 449.585938 264.34375 C 449.585938 263.710938 450.101562 263.199219 450.734375 263.199219 C 451.367188 263.199219 451.882812 263.710938 451.882812 264.34375 Z M 451.882812 264.34375 "/>
<path style=" stroke:none;fill-rule:nonzero;fill:rgb(0%,0%,0%);fill-opacity:1;" d="M 455.484375 275.144531 C 455.484375 275.777344 454.96875 276.292969 454.335938 276.292969 C 453.703125 276.292969 453.1875 275.777344 453.1875 275.144531 C 453.1875 274.511719 453.703125 273.996094 454.335938 273.996094 C 454.96875 273.996094 455.484375 274.511719 455.484375 275.144531 Z M 455.484375 275.144531 "/>
<path style=" stroke:none;fill-rule:nonzero;fill:rgb(0%,0%,0%);fill-opacity:1;" d="M 455.484375 296.746094 C 455.484375 297.378906 454.96875 297.890625 454.335938 297.890625 C 453.703125 297.890625 453.1875 297.378906 453.1875 296.746094 C 453.1875 296.109375 453.703125 295.597656 454.335938 295.597656 C 454.96875 295.597656 455.484375 296.109375 455.484375 296.746094 Z M 455.484375 296.746094 "/>
<path style=" stroke:none;fill-rule:nonzero;fill:rgb(0%,0%,0%);fill-opacity:1;" d="M 459.082031 264.34375 C 459.082031 264.980469 458.570312 265.492188 457.933594 265.492188 C 457.300781 265.492188 456.789062 264.980469 456.789062 264.34375 C 456.789062 263.710938 457.300781 263.199219 457.933594 263.199219 C 458.570312 263.199219 459.082031 263.710938 459.082031 264.34375 Z M 459.082031 264.34375 "/>
<path style=" stroke:none;fill-rule:nonzero;fill:rgb(0%,0%,0%);fill-opacity:1;" d="M 462.683594 275.144531 C 462.683594 275.777344 462.167969 276.292969 461.535156 276.292969 C 460.902344 276.292969 460.386719 275.777344 460.386719 275.144531 C 460.386719 274.511719 460.902344 273.996094 461.535156 273.996094 C 462.167969 273.996094 462.683594 274.511719 462.683594 275.144531 Z M 462.683594 275.144531 "/>
<path style=" stroke:none;fill-rule:nonzero;fill:rgb(0%,0%,0%);fill-opacity:1;" d="M 462.683594 296.746094 C 462.683594 297.378906 462.167969 297.890625 461.535156 297.890625 C 460.902344 297.890625 460.386719 297.378906 460.386719 296.746094 C 460.386719 296.109375 460.902344 295.597656 461.535156 295.597656 C 462.167969 295.597656 462.683594 296.109375 462.683594 296.746094 Z M 462.683594 296.746094 "/>
<path style=" stroke:none;fill-rule:nonzero;fill:rgb(0%,0%,0%);fill-opacity:1;" d="M 466.28125 264.34375 C 466.28125 264.980469 465.769531 265.492188 465.136719 265.492188 C 464.5 265.492188 463.988281 264.980469 463.988281 264.34375 C 463.988281 263.710938 464.5 263.199219 465.136719 263.199219 C 465.769531 263.199219 466.28125 263.710938 466.28125 264.34375 Z M 466.28125 264.34375 "/>
<path style=" stroke:none;fill-rule:nonzero;fill:rgb(0%,0%,0%);fill-opacity:1;" d="M 481.867188 306.105469 C 481.867188 306.738281 481.355469 307.253906 480.71875 307.253906 C 480.085938 307.253906 479.574219 306.738281 479.574219 306.105469 C 479.574219 305.472656 480.085938 304.957031 480.71875 304.957031 C 481.355469 304.957031 481.867188 305.472656 481.867188 306.105469 Z M 481.867188 306.105469 "/>
<path style=" stroke:none;fill-rule:nonzero;fill:rgb(0%,0%,0%);fill-opacity:1;" d="M 482.121094 283.785156 C 482.121094 284.417969 481.609375 284.933594 480.976562 284.933594 C 480.339844 284.933594 479.828125 284.417969 479.828125 283.785156 C 479.828125 283.152344 480.339844 282.636719 480.976562 282.636719 C 481.609375 282.636719 482.121094 283.152344 482.121094 283.785156 Z M 482.121094 283.785156 "/>
<path style=" stroke:none;fill-rule:nonzero;fill:rgb(0%,0%,0%);fill-opacity:1;" d="M 488.960938 306.105469 C 488.960938 306.738281 488.449219 307.253906 487.816406 307.253906 C 487.179688 307.253906 486.667969 306.738281 486.667969 306.105469 C 486.667969 305.472656 487.179688 304.957031 487.816406 304.957031 C 488.449219 304.957031 488.960938 305.472656 488.960938 306.105469 Z M 488.960938 306.105469 "/>
<path style=" stroke:none;fill-rule:nonzero;fill:rgb(0%,0%,0%);fill-opacity:1;" d="M 489.324219 276.585938 C 489.324219 277.21875 488.808594 277.734375 488.175781 277.734375 C 487.542969 277.734375 487.027344 277.21875 487.027344 276.585938 C 487.027344 275.953125 487.542969 275.4375 488.175781 275.4375 C 488.808594 275.4375 489.324219 275.953125 489.324219 276.585938 Z M 489.324219 276.585938 "/>
<path style=" stroke:none;fill-rule:nonzero;fill:rgb(0%,0%,0%);fill-opacity:1;" d="M 489.324219 290.984375 C 489.324219 291.617188 488.808594 292.132812 488.175781 292.132812 C 487.542969 292.132812 487.027344 291.617188 487.027344 290.984375 C 487.027344 290.351562 487.542969 289.835938 488.175781 289.835938 C 488.808594 289.835938 489.324219 290.351562 489.324219 290.984375 Z M 489.324219 290.984375 "/>
<path style=" stroke:none;fill-rule:nonzero;fill:rgb(0%,0%,0%);fill-opacity:1;" d="M 497.242188 272.265625 C 497.242188 272.898438 496.730469 273.414062 496.09375 273.414062 C 495.460938 273.414062 494.949219 272.898438 494.949219 272.265625 C 494.949219 271.632812 495.460938 271.117188 496.09375 271.117188 C 496.730469 271.117188 497.242188 271.632812 497.242188 272.265625 Z M 497.242188 272.265625 "/>
<path style=" stroke:none;fill-rule:nonzero;fill:rgb(0%,0%,0%);fill-opacity:1;" d="M 497.242188 279.34375 C 497.242188 279.980469 496.730469 280.492188 496.09375 280.492188 C 495.460938 280.492188 494.949219 279.980469 494.949219 279.34375 C 494.949219 278.710938 495.460938 278.199219 496.09375 278.199219 C 496.730469 278.199219 497.242188 278.710938 497.242188 279.34375 Z M 497.242188 279.34375 "/>
<path style=" stroke:none;fill-rule:nonzero;fill:rgb(0%,0%,0%);fill-opacity:1;" d="M 498.292969 300.359375 C 498.292969 300.992188 497.777344 301.507812 497.144531 301.507812 C 496.511719 301.507812 495.996094 300.992188 495.996094 300.359375 C 495.996094 299.726562 496.511719 299.210938 497.144531 299.210938 C 497.777344 299.210938 498.292969 299.726562 498.292969 300.359375 Z M 498.292969 300.359375 "/>
<path style=" stroke:none;fill-rule:nonzero;fill:rgb(0%,0%,0%);fill-opacity:1;" d="M 498.292969 321.960938 C 498.292969 322.59375 497.777344 323.109375 497.144531 323.109375 C 496.511719 323.109375 495.996094 322.59375 495.996094 321.960938 C 495.996094 321.328125 496.511719 320.8125 497.144531 320.8125 C 497.777344 320.8125 498.292969 321.328125 498.292969 321.960938 Z M 498.292969 321.960938 "/>
<path style=" stroke:none;fill-rule:nonzero;fill:rgb(0%,0%,0%);fill-opacity:1;" d="M 505.492188 300.359375 C 505.492188 300.992188 504.980469 301.507812 504.34375 301.507812 C 503.710938 301.507812 503.199219 300.992188 503.199219 300.359375 C 503.199219 299.726562 503.710938 299.210938 504.34375 299.210938 C 504.980469 299.210938 505.492188 299.726562 505.492188 300.359375 Z M 505.492188 300.359375 "/>
<path style=" stroke:none;fill-rule:nonzero;fill:rgb(0%,0%,0%);fill-opacity:1;" d="M 505.492188 321.960938 C 505.492188 322.59375 504.980469 323.109375 504.34375 323.109375 C 503.710938 323.109375 503.199219 322.59375 503.199219 321.960938 C 503.199219 321.328125 503.710938 320.8125 504.34375 320.8125 C 504.980469 320.8125 505.492188 321.328125 505.492188 321.960938 Z M 505.492188 321.960938 "/>
<path style=" stroke:none;fill-rule:nonzero;fill:rgb(0%,0%,0%);fill-opacity:1;" d="M 512.691406 300.359375 C 512.691406 300.992188 512.179688 301.507812 511.546875 301.507812 C 510.910156 301.507812 510.398438 300.992188 510.398438 300.359375 C 510.398438 299.726562 510.910156 299.210938 511.546875 299.210938 C 512.179688 299.210938 512.691406 299.726562 512.691406 300.359375 Z M 512.691406 300.359375 "/>
<path style=" stroke:none;fill-rule:nonzero;fill:rgb(0%,0%,0%);fill-opacity:1;" d="M 512.691406 321.960938 C 512.691406 322.59375 512.179688 323.109375 511.546875 323.109375 C 510.910156 323.109375 510.398438 322.59375 510.398438 321.960938 C 510.398438 321.328125 510.910156 320.8125 511.546875 320.8125 C 512.179688 320.8125 512.691406 321.328125 512.691406 321.960938 Z M 512.691406 321.960938 "/>
<path style=" stroke:none;fill-rule:nonzero;fill:rgb(0%,0%,0%);fill-opacity:1;" d="M 519.890625 300.359375 C 519.890625 300.992188 519.378906 301.507812 518.746094 301.507812 C 518.109375 301.507812 517.597656 300.992188 517.597656 300.359375 C 517.597656 299.726562 518.109375 299.210938 518.746094 299.210938 C 519.378906 299.210938 519.890625 299.726562 519.890625 300.359375 Z M 519.890625 300.359375 "/>
<path style=" stroke:none;fill-rule:nonzero;fill:rgb(0%,0%,0%);fill-opacity:1;" d="M 519.890625 321.960938 C 519.890625 322.59375 519.378906 323.109375 518.746094 323.109375 C 518.109375 323.109375 517.597656 322.59375 517.597656 321.960938 C 517.597656 321.328125 518.109375 320.8125 518.746094 320.8125 C 519.378906 320.8125 519.890625 321.328125 519.890625 321.960938 Z M 519.890625 321.960938 "/>
<path style=" stroke:none;fill-rule:nonzero;fill:rgb(0%,0%,0%);fill-opacity:1;" d="M 530.003906 300.359375 C 530.003906 300.992188 529.488281 301.507812 528.855469 301.507812 C 528.222656 301.507812 527.707031 300.992188 527.707031 300.359375 C 527.707031 299.726562 528.222656 299.210938 528.855469 299.210938 C 529.488281 299.210938 530.003906 299.726562 530.003906 300.359375 Z M 530.003906 300.359375 "/>
<path style=" stroke:none;fill-rule:nonzero;fill:rgb(0%,0%,0%);fill-opacity:1;" d="M 530.003906 321.628906 C 530.003906 322.265625 529.488281 322.777344 528.855469 322.777344 C 528.222656 322.777344 527.707031 322.265625 527.707031 321.628906 C 527.707031 320.996094 528.222656 320.484375 528.855469 320.484375 C 529.488281 320.484375 530.003906 320.996094 530.003906 321.628906 Z M 530.003906 321.628906 "/>
<path style=" stroke:none;fill-rule:nonzero;fill:rgb(0%,0%,0%);fill-opacity:1;" d="M 426.097656 335.625 C 426.097656 336.332031 425.523438 336.90625 424.816406 336.90625 C 424.105469 336.90625 423.53125 336.332031 423.53125 335.625 C 423.53125 334.917969 424.105469 334.34375 424.816406 334.34375 C 425.523438 334.34375 426.097656 334.917969 426.097656 335.625 Z M 426.097656 335.625 "/>
<path style=" stroke:none;fill-rule:nonzero;fill:rgb(0%,0%,0%);fill-opacity:1;" d="M 447.699219 335.625 C 447.699219 336.332031 447.125 336.90625 446.414062 336.90625 C 445.707031 336.90625 445.132812 336.332031 445.132812 335.625 C 445.132812 334.917969 445.707031 334.34375 446.414062 334.34375 C 447.125 334.34375 447.699219 334.917969 447.699219 335.625 Z M 447.699219 335.625 "/>
<path style=" stroke:none;fill-rule:nonzero;fill:rgb(0%,0%,0%);fill-opacity:1;" d="M 336.277344 329.863281 C 336.277344 330.648438 335.644531 331.28125 334.859375 331.28125 C 334.078125 331.28125 333.441406 330.648438 333.441406 329.863281 C 333.441406 329.082031 334.078125 328.449219 334.859375 328.449219 C 335.644531 328.449219 336.277344 329.082031 336.277344 329.863281 Z M 336.277344 329.863281 "/>
<path style=" stroke:none;fill-rule:nonzero;fill:rgb(0%,0%,0%);fill-opacity:1;" d="M 343.476562 329.863281 C 343.476562 330.648438 342.84375 331.28125 342.058594 331.28125 C 341.277344 331.28125 340.640625 330.648438 340.640625 329.863281 C 340.640625 329.082031 341.277344 328.449219 342.058594 328.449219 C 342.84375 328.449219 343.476562 329.082031 343.476562 329.863281 Z M 343.476562 329.863281 "/>
<path style=" stroke:none;fill-rule:nonzero;fill:rgb(0%,0%,0%);fill-opacity:1;" d="M 350.632812 308.96875 C 350.632812 309.753906 349.996094 310.386719 349.214844 310.386719 C 348.433594 310.386719 347.796875 309.753906 347.796875 308.96875 C 347.796875 308.1875 348.433594 307.550781 349.214844 307.550781 C 349.996094 307.550781 350.632812 308.1875 350.632812 308.96875 Z M 350.632812 308.96875 "/>
<path style=" stroke:none;fill-rule:nonzero;fill:rgb(0%,0%,0%);fill-opacity:1;" d="M 350.632812 316.171875 C 350.632812 316.953125 349.996094 317.585938 349.214844 317.585938 C 348.433594 317.585938 347.796875 316.953125 347.796875 316.171875 C 347.796875 315.386719 348.433594 314.753906 349.214844 314.753906 C 349.996094 314.753906 350.632812 315.386719 350.632812 316.171875 Z M 350.632812 316.171875 "/>
<path style=" stroke:none;fill-rule:nonzero;fill:rgb(0%,0%,0%);fill-opacity:1;" d="M 350.675781 329.863281 C 350.675781 330.648438 350.042969 331.28125 349.261719 331.28125 C 348.476562 331.28125 347.84375 330.648438 347.84375 329.863281 C 347.84375 329.082031 348.476562 328.449219 349.261719 328.449219 C 350.042969 328.449219 350.675781 329.082031 350.675781 329.863281 Z M 350.675781 329.863281 "/>
<path style=" stroke:none;fill-rule:nonzero;fill:rgb(0%,0%,0%);fill-opacity:1;" d="M 367.191406 329.863281 C 367.191406 330.648438 366.558594 331.28125 365.773438 331.28125 C 364.992188 331.28125 364.359375 330.648438 364.359375 329.863281 C 364.359375 329.082031 364.992188 328.449219 365.773438 328.449219 C 366.558594 328.449219 367.191406 329.082031 367.191406 329.863281 Z M 367.191406 329.863281 "/>
<path style=" stroke:none;fill-rule:nonzero;fill:rgb(0%,0%,0%);fill-opacity:1;" d="M 374.390625 329.863281 C 374.390625 330.648438 373.757812 331.28125 372.976562 331.28125 C 372.191406 331.28125 371.558594 330.648438 371.558594 329.863281 C 371.558594 329.082031 372.191406 328.449219 372.976562 328.449219 C 373.757812 328.449219 374.390625 329.082031 374.390625 329.863281 Z M 374.390625 329.863281 "/>
<path style=" stroke:none;fill-rule:nonzero;fill:rgb(0%,0%,0%);fill-opacity:1;" d="M 385.191406 322.664062 C 385.191406 323.449219 384.558594 324.082031 383.773438 324.082031 C 382.992188 324.082031 382.359375 323.449219 382.359375 322.664062 C 382.359375 321.882812 382.992188 321.246094 383.773438 321.246094 C 384.558594 321.246094 385.191406 321.882812 385.191406 322.664062 Z M 385.191406 322.664062 "/>
<path style=" stroke:none;fill-rule:nonzero;fill:rgb(0%,0%,0%);fill-opacity:1;" d="M 385.191406 329.863281 C 385.191406 330.648438 384.558594 331.28125 383.773438 331.28125 C 382.992188 331.28125 382.359375 330.648438 382.359375 329.863281 C 382.359375 329.082031 382.992188 328.449219 383.773438 328.449219 C 384.558594 328.449219 385.191406 329.082031 385.191406 329.863281 Z M 385.191406 329.863281 "/>
<path style=" stroke:none;fill-rule:nonzero;fill:rgb(0%,0%,0%);fill-opacity:1;" d="M 396.710938 322.664062 C 396.710938 323.449219 396.078125 324.082031 395.296875 324.082031 C 394.511719 324.082031 393.878906 323.449219 393.878906 322.664062 C 393.878906 321.882812 394.511719 321.246094 395.296875 321.246094 C 396.078125 321.246094 396.710938 321.882812 396.710938 322.664062 Z M 396.710938 322.664062 "/>
<path style=" stroke:none;fill-rule:nonzero;fill:rgb(0%,0%,0%);fill-opacity:1;" d="M 396.710938 329.863281 C 396.710938 330.648438 396.078125 331.28125 395.296875 331.28125 C 394.511719 331.28125 393.878906 330.648438 393.878906 329.863281 C 393.878906 329.082031 394.511719 328.449219 395.296875 328.449219 C 396.078125 328.449219 396.710938 329.082031 396.710938 329.863281 Z M 396.710938 329.863281 "/>
<path style=" stroke:none;fill-rule:nonzero;fill:rgb(0%,0%,0%);fill-opacity:1;" d="M 455.109375 317.398438 C 455.109375 318.183594 454.472656 318.816406 453.691406 318.816406 C 452.90625 318.816406 452.273438 318.183594 452.273438 317.398438 C 452.273438 316.617188 452.90625 315.984375 453.691406 315.984375 C 454.472656 315.984375 455.109375 316.617188 455.109375 317.398438 Z M 455.109375 317.398438 "/>
<path style=" stroke:none;fill-rule:nonzero;fill:rgb(0%,0%,0%);fill-opacity:1;" d="M 469.28125 317.398438 C 469.28125 318.183594 468.648438 318.816406 467.863281 318.816406 C 467.082031 318.816406 466.449219 318.183594 466.449219 317.398438 C 466.449219 316.617188 467.082031 315.984375 467.863281 315.984375 C 468.648438 315.984375 469.28125 316.617188 469.28125 317.398438 Z M 469.28125 317.398438 "/>
<path style=" stroke:none;fill-rule:nonzero;fill:rgb(0%,0%,0%);fill-opacity:1;" d="M 530.632812 329.863281 C 530.632812 330.648438 529.996094 331.28125 529.214844 331.28125 C 528.433594 331.28125 527.796875 330.648438 527.796875 329.863281 C 527.796875 329.082031 528.433594 328.449219 529.214844 328.449219 C 529.996094 328.449219 530.632812 329.082031 530.632812 329.863281 Z M 530.632812 329.863281 "/>
<path style=" stroke:none;fill-rule:nonzero;fill:rgb(0%,0%,0%);fill-opacity:1;" d="M 537.832031 329.863281 C 537.832031 330.648438 537.199219 331.28125 536.414062 331.28125 C 535.632812 331.28125 534.996094 330.648438 534.996094 329.863281 C 534.996094 329.082031 535.632812 328.449219 536.414062 328.449219 C 537.199219 328.449219 537.832031 329.082031 537.832031 329.863281 Z M 537.832031 329.863281 "/>
</g>
</svg>
