G04 #@! TF.GenerationSoftware,KiCad,Pcbnew,8.0.2-8.0.2-0~ubuntu22.04.1*
G04 #@! TF.CreationDate,2024-06-08T14:45:23+02:00*
G04 #@! TF.ProjectId,schematic,73636865-6d61-4746-9963-2e6b69636164,rev?*
G04 #@! TF.SameCoordinates,Original*
G04 #@! TF.FileFunction,Legend,Top*
G04 #@! TF.FilePolarity,Positive*
%FSLAX46Y46*%
G04 Gerber Fmt 4.6, Leading zero omitted, Abs format (unit mm)*
G04 Created by KiCad (PCBNEW 8.0.2-8.0.2-0~ubuntu22.04.1) date 2024-06-08 14:45:23*
%MOMM*%
%LPD*%
G01*
G04 APERTURE LIST*
%ADD10C,0.100000*%
%ADD11C,0.150000*%
%ADD12C,0.300000*%
%ADD13C,0.120000*%
%ADD14R,1.500000X1.500000*%
%ADD15C,1.500000*%
%ADD16C,1.400000*%
%ADD17O,1.400000X1.400000*%
%ADD18R,1.700000X1.700000*%
%ADD19O,1.700000X1.700000*%
%ADD20R,1.600000X1.600000*%
%ADD21O,1.600000X1.600000*%
%ADD22C,1.600000*%
%ADD23R,2.000000X2.000000*%
%ADD24C,2.000000*%
%ADD25C,1.440000*%
%ADD26R,1.800000X1.800000*%
%ADD27O,1.800000X1.800000*%
G04 APERTURE END LIST*
D10*
X117856000Y-113284000D02*
X117856000Y-101854000D01*
X91440000Y-120345200D02*
X91440000Y-107188000D01*
X55168800Y-107188000D02*
X117856000Y-107188000D01*
X117856000Y-113284000D02*
X117856000Y-120345200D01*
X75692000Y-107188000D02*
X75692000Y-120345200D01*
X117856000Y-101854000D02*
X117856000Y-90474800D01*
D11*
X74711160Y-112111533D02*
X75320684Y-112111533D01*
X73047464Y-115324600D02*
X73161750Y-115362695D01*
X73161750Y-115362695D02*
X73352226Y-115362695D01*
X73352226Y-115362695D02*
X73428417Y-115324600D01*
X73428417Y-115324600D02*
X73466512Y-115286504D01*
X73466512Y-115286504D02*
X73504607Y-115210314D01*
X73504607Y-115210314D02*
X73504607Y-115134123D01*
X73504607Y-115134123D02*
X73466512Y-115057933D01*
X73466512Y-115057933D02*
X73428417Y-115019838D01*
X73428417Y-115019838D02*
X73352226Y-114981742D01*
X73352226Y-114981742D02*
X73199845Y-114943647D01*
X73199845Y-114943647D02*
X73123655Y-114905552D01*
X73123655Y-114905552D02*
X73085560Y-114867457D01*
X73085560Y-114867457D02*
X73047464Y-114791266D01*
X73047464Y-114791266D02*
X73047464Y-114715076D01*
X73047464Y-114715076D02*
X73085560Y-114638885D01*
X73085560Y-114638885D02*
X73123655Y-114600790D01*
X73123655Y-114600790D02*
X73199845Y-114562695D01*
X73199845Y-114562695D02*
X73390322Y-114562695D01*
X73390322Y-114562695D02*
X73504607Y-114600790D01*
X70875703Y-115362695D02*
X70609036Y-114981742D01*
X70418560Y-115362695D02*
X70418560Y-114562695D01*
X70418560Y-114562695D02*
X70723322Y-114562695D01*
X70723322Y-114562695D02*
X70799512Y-114600790D01*
X70799512Y-114600790D02*
X70837607Y-114638885D01*
X70837607Y-114638885D02*
X70875703Y-114715076D01*
X70875703Y-114715076D02*
X70875703Y-114829361D01*
X70875703Y-114829361D02*
X70837607Y-114905552D01*
X70837607Y-114905552D02*
X70799512Y-114943647D01*
X70799512Y-114943647D02*
X70723322Y-114981742D01*
X70723322Y-114981742D02*
X70418560Y-114981742D01*
G36*
X57138565Y-119118871D02*
G01*
X57169892Y-119149115D01*
X57205350Y-119217972D01*
X57206335Y-119325604D01*
X57173155Y-119393985D01*
X57142910Y-119425313D01*
X57074222Y-119460684D01*
X56948071Y-119461144D01*
X56945249Y-119460646D01*
X56942915Y-119461162D01*
X56782997Y-119461745D01*
X56782464Y-119086550D01*
X57069798Y-119085503D01*
X57138565Y-119118871D01*
G37*
G36*
X56138565Y-119118871D02*
G01*
X56169892Y-119149115D01*
X56205350Y-119217972D01*
X56206335Y-119325604D01*
X56173155Y-119393985D01*
X56142910Y-119425313D01*
X56074222Y-119460684D01*
X55782997Y-119461745D01*
X55782464Y-119086550D01*
X56069798Y-119085503D01*
X56138565Y-119118871D01*
G37*
G36*
X58369639Y-120197930D02*
G01*
X55522668Y-120197930D01*
X55522668Y-119011819D01*
X55633779Y-119011819D01*
X55635220Y-120026451D01*
X55646419Y-120053487D01*
X55667111Y-120074179D01*
X55694147Y-120085378D01*
X55723411Y-120085378D01*
X55750447Y-120074179D01*
X55771139Y-120053487D01*
X55782338Y-120026451D01*
X55783779Y-120011819D01*
X55783208Y-119610356D01*
X56078081Y-119609282D01*
X56080350Y-119610039D01*
X56091691Y-119609233D01*
X56104363Y-119609187D01*
X56106852Y-119608155D01*
X56109540Y-119607965D01*
X56123272Y-119602710D01*
X56217828Y-119554017D01*
X56226637Y-119550369D01*
X56229539Y-119547986D01*
X56230953Y-119547259D01*
X56232252Y-119545760D01*
X56238002Y-119541042D01*
X56285343Y-119492006D01*
X56291838Y-119486374D01*
X56293817Y-119483228D01*
X56294948Y-119482058D01*
X56295705Y-119480230D01*
X56299670Y-119473931D01*
X56341345Y-119388041D01*
X56342567Y-119386820D01*
X56346236Y-119377960D01*
X56352544Y-119364962D01*
X56352735Y-119362272D01*
X56353766Y-119359784D01*
X56355207Y-119345152D01*
X56354002Y-119213521D01*
X56354618Y-119211675D01*
X56353892Y-119201460D01*
X56353766Y-119187663D01*
X56352735Y-119185174D01*
X56352544Y-119182485D01*
X56347289Y-119168754D01*
X56298597Y-119074199D01*
X56294948Y-119065389D01*
X56292565Y-119062486D01*
X56291838Y-119061073D01*
X56290339Y-119059773D01*
X56285621Y-119054024D01*
X56241906Y-119011819D01*
X56633779Y-119011819D01*
X56635220Y-120026451D01*
X56646419Y-120053487D01*
X56667111Y-120074179D01*
X56694147Y-120085378D01*
X56723411Y-120085378D01*
X56750447Y-120074179D01*
X56771139Y-120053487D01*
X56782338Y-120026451D01*
X56783779Y-120011819D01*
X56783208Y-119610356D01*
X56907431Y-119609904D01*
X57228336Y-120065989D01*
X57253015Y-120081716D01*
X57281832Y-120086802D01*
X57310403Y-120080472D01*
X57334377Y-120063690D01*
X57350104Y-120039012D01*
X57355189Y-120010194D01*
X57348860Y-119981623D01*
X57341650Y-119968810D01*
X57088793Y-119609439D01*
X57091691Y-119609233D01*
X57104363Y-119609187D01*
X57106852Y-119608155D01*
X57109540Y-119607965D01*
X57123272Y-119602710D01*
X57217828Y-119554017D01*
X57226637Y-119550369D01*
X57229539Y-119547986D01*
X57230953Y-119547259D01*
X57232252Y-119545760D01*
X57238002Y-119541042D01*
X57285343Y-119492006D01*
X57291838Y-119486374D01*
X57293817Y-119483228D01*
X57294948Y-119482058D01*
X57295705Y-119480230D01*
X57299670Y-119473931D01*
X57341345Y-119388041D01*
X57342567Y-119386820D01*
X57346236Y-119377960D01*
X57352544Y-119364962D01*
X57352735Y-119362272D01*
X57353766Y-119359784D01*
X57355207Y-119345152D01*
X57354002Y-119213521D01*
X57354618Y-119211675D01*
X57353892Y-119201460D01*
X57353766Y-119187663D01*
X57352735Y-119185174D01*
X57352544Y-119182485D01*
X57347289Y-119168754D01*
X57298597Y-119074199D01*
X57294948Y-119065389D01*
X57292565Y-119062486D01*
X57291838Y-119061073D01*
X57290339Y-119059773D01*
X57285621Y-119054024D01*
X57241906Y-119011819D01*
X57633779Y-119011819D01*
X57635220Y-120026451D01*
X57646419Y-120053487D01*
X57667111Y-120074179D01*
X57694147Y-120085378D01*
X57708779Y-120086819D01*
X58199601Y-120085378D01*
X58226637Y-120074179D01*
X58247329Y-120053487D01*
X58258528Y-120026451D01*
X58258528Y-119997187D01*
X58247329Y-119970151D01*
X58226637Y-119949459D01*
X58199601Y-119938260D01*
X58184969Y-119936819D01*
X57783674Y-119937997D01*
X57783141Y-119562701D01*
X58056744Y-119561568D01*
X58083780Y-119550369D01*
X58104472Y-119529677D01*
X58115671Y-119502641D01*
X58115671Y-119473377D01*
X58104472Y-119446341D01*
X58083780Y-119425649D01*
X58056744Y-119414450D01*
X58042112Y-119413009D01*
X57782930Y-119414082D01*
X57782464Y-119086602D01*
X58199601Y-119085378D01*
X58226637Y-119074179D01*
X58247329Y-119053487D01*
X58258528Y-119026451D01*
X58258528Y-118997187D01*
X58247329Y-118970151D01*
X58226637Y-118949459D01*
X58199601Y-118938260D01*
X58184969Y-118936819D01*
X57694147Y-118938260D01*
X57667111Y-118949459D01*
X57646419Y-118970151D01*
X57635220Y-118997187D01*
X57633779Y-119011819D01*
X57241906Y-119011819D01*
X57236585Y-119006682D01*
X57230953Y-119000188D01*
X57227807Y-118998208D01*
X57226637Y-118997078D01*
X57224809Y-118996320D01*
X57218510Y-118992356D01*
X57132621Y-118950681D01*
X57131399Y-118949459D01*
X57122533Y-118945786D01*
X57109540Y-118939482D01*
X57106852Y-118939291D01*
X57104363Y-118938260D01*
X57089731Y-118936819D01*
X56694147Y-118938260D01*
X56667111Y-118949459D01*
X56646419Y-118970151D01*
X56635220Y-118997187D01*
X56633779Y-119011819D01*
X56241906Y-119011819D01*
X56236585Y-119006682D01*
X56230953Y-119000188D01*
X56227807Y-118998208D01*
X56226637Y-118997078D01*
X56224809Y-118996320D01*
X56218510Y-118992356D01*
X56132621Y-118950681D01*
X56131399Y-118949459D01*
X56122533Y-118945786D01*
X56109540Y-118939482D01*
X56106852Y-118939291D01*
X56104363Y-118938260D01*
X56089731Y-118936819D01*
X55694147Y-118938260D01*
X55667111Y-118949459D01*
X55646419Y-118970151D01*
X55635220Y-118997187D01*
X55633779Y-119011819D01*
X55522668Y-119011819D01*
X55522668Y-118825708D01*
X58369639Y-118825708D01*
X58369639Y-120197930D01*
G37*
G36*
X93353870Y-119123290D02*
G01*
X93428079Y-119196080D01*
X93466770Y-119271215D01*
X93511388Y-119444645D01*
X93512530Y-119569417D01*
X93470504Y-119742540D01*
X93431779Y-119822350D01*
X93357502Y-119898076D01*
X93244423Y-119936867D01*
X93089816Y-119937749D01*
X93088607Y-119086398D01*
X93237274Y-119085551D01*
X93353870Y-119123290D01*
G37*
G36*
X95200443Y-120197930D02*
G01*
X91829400Y-120197930D01*
X91829400Y-119021199D01*
X91940511Y-119021199D01*
X91943771Y-119035536D01*
X92275548Y-120026413D01*
X92275919Y-120031629D01*
X92280083Y-120039959D01*
X92283098Y-120048961D01*
X92286608Y-120053008D01*
X92289005Y-120057802D01*
X92296113Y-120063967D01*
X92302272Y-120071068D01*
X92307061Y-120073462D01*
X92311112Y-120076976D01*
X92320037Y-120079950D01*
X92328445Y-120084155D01*
X92333789Y-120084534D01*
X92338875Y-120086230D01*
X92348255Y-120085563D01*
X92357635Y-120086230D01*
X92362720Y-120084534D01*
X92368065Y-120084155D01*
X92376475Y-120079949D01*
X92385397Y-120076976D01*
X92389444Y-120073465D01*
X92394238Y-120071069D01*
X92400401Y-120063963D01*
X92407505Y-120057802D01*
X92409900Y-120053010D01*
X92413412Y-120048962D01*
X92419406Y-120035536D01*
X92755999Y-119021200D01*
X92755332Y-119011819D01*
X92939922Y-119011819D01*
X92941363Y-120026451D01*
X92952562Y-120053487D01*
X92973254Y-120074179D01*
X93000290Y-120085378D01*
X93014922Y-120086819D01*
X93251691Y-120085468D01*
X93262397Y-120086230D01*
X93266105Y-120085386D01*
X93267649Y-120085378D01*
X93269480Y-120084619D01*
X93276734Y-120082970D01*
X93408524Y-120037759D01*
X93410506Y-120037759D01*
X93420058Y-120033802D01*
X93433016Y-120029357D01*
X93435051Y-120027591D01*
X93437542Y-120026560D01*
X93448907Y-120017233D01*
X93542839Y-119921468D01*
X93550362Y-119914945D01*
X93552374Y-119911748D01*
X93553473Y-119910628D01*
X93554230Y-119908798D01*
X93558194Y-119902502D01*
X93602462Y-119811269D01*
X93606545Y-119805759D01*
X93610480Y-119794743D01*
X93611068Y-119793533D01*
X93611106Y-119792992D01*
X93611492Y-119791913D01*
X93656732Y-119605547D01*
X93659909Y-119597879D01*
X93660806Y-119588764D01*
X93661261Y-119586893D01*
X93661098Y-119585800D01*
X93661350Y-119583247D01*
X93660082Y-119444667D01*
X93661261Y-119436744D01*
X93659926Y-119427719D01*
X93659909Y-119425758D01*
X93659486Y-119424736D01*
X93659111Y-119422200D01*
X93611593Y-119237501D01*
X93611068Y-119230104D01*
X93606864Y-119219121D01*
X93606545Y-119217878D01*
X93606222Y-119217442D01*
X93605813Y-119216373D01*
X93557124Y-119121823D01*
X93553473Y-119113008D01*
X93551088Y-119110102D01*
X93550362Y-119108692D01*
X93548865Y-119107393D01*
X93544145Y-119101643D01*
X93455974Y-119015158D01*
X93455123Y-119013455D01*
X93453237Y-119011819D01*
X93939922Y-119011819D01*
X93941363Y-120026451D01*
X93952562Y-120053487D01*
X93973254Y-120074179D01*
X94000290Y-120085378D01*
X94029554Y-120085378D01*
X94056590Y-120074179D01*
X94077282Y-120053487D01*
X94088481Y-120026451D01*
X94089922Y-120011819D01*
X94088515Y-119021199D01*
X94273844Y-119021199D01*
X94277104Y-119035536D01*
X94608881Y-120026413D01*
X94609252Y-120031629D01*
X94613416Y-120039959D01*
X94616431Y-120048961D01*
X94619941Y-120053008D01*
X94622338Y-120057802D01*
X94629446Y-120063967D01*
X94635605Y-120071068D01*
X94640394Y-120073462D01*
X94644445Y-120076976D01*
X94653370Y-120079950D01*
X94661778Y-120084155D01*
X94667122Y-120084534D01*
X94672208Y-120086230D01*
X94681588Y-120085563D01*
X94690968Y-120086230D01*
X94696053Y-120084534D01*
X94701398Y-120084155D01*
X94709808Y-120079949D01*
X94718730Y-120076976D01*
X94722777Y-120073465D01*
X94727571Y-120071069D01*
X94733734Y-120063963D01*
X94740838Y-120057802D01*
X94743233Y-120053010D01*
X94746745Y-120048962D01*
X94752739Y-120035536D01*
X95089332Y-119021200D01*
X95087257Y-118992010D01*
X95074171Y-118965836D01*
X95052063Y-118946662D01*
X95024301Y-118937408D01*
X94995111Y-118939483D01*
X94968938Y-118952570D01*
X94949764Y-118974677D01*
X94943770Y-118988102D01*
X94682020Y-119776895D01*
X94413412Y-118974676D01*
X94394238Y-118952569D01*
X94368065Y-118939483D01*
X94338875Y-118937408D01*
X94311112Y-118946662D01*
X94289005Y-118965836D01*
X94275919Y-118992009D01*
X94273844Y-119021199D01*
X94088515Y-119021199D01*
X94088481Y-118997187D01*
X94077282Y-118970151D01*
X94056590Y-118949459D01*
X94029554Y-118938260D01*
X94000290Y-118938260D01*
X93973254Y-118949459D01*
X93952562Y-118970151D01*
X93941363Y-118997187D01*
X93939922Y-119011819D01*
X93453237Y-119011819D01*
X93447480Y-119006826D01*
X93437542Y-118997078D01*
X93435051Y-118996046D01*
X93433016Y-118994281D01*
X93419591Y-118988287D01*
X93277012Y-118942138D01*
X93267649Y-118938260D01*
X93263883Y-118937889D01*
X93262397Y-118937408D01*
X93260422Y-118937548D01*
X93253017Y-118936819D01*
X93000290Y-118938260D01*
X92973254Y-118949459D01*
X92952562Y-118970151D01*
X92941363Y-118997187D01*
X92939922Y-119011819D01*
X92755332Y-119011819D01*
X92753924Y-118992010D01*
X92740838Y-118965836D01*
X92718730Y-118946662D01*
X92690968Y-118937408D01*
X92661778Y-118939483D01*
X92635605Y-118952570D01*
X92616431Y-118974677D01*
X92610437Y-118988102D01*
X92348687Y-119776895D01*
X92080079Y-118974676D01*
X92060905Y-118952569D01*
X92034732Y-118939483D01*
X92005542Y-118937408D01*
X91977779Y-118946662D01*
X91955672Y-118965836D01*
X91942586Y-118992009D01*
X91940511Y-119021199D01*
X91829400Y-119021199D01*
X91829400Y-118825708D01*
X95200443Y-118825708D01*
X95200443Y-120197930D01*
G37*
X83394779Y-120011819D02*
X83394779Y-119011819D01*
X83394779Y-119011819D02*
X83775731Y-119011819D01*
X83775731Y-119011819D02*
X83870969Y-119059438D01*
X83870969Y-119059438D02*
X83918588Y-119107057D01*
X83918588Y-119107057D02*
X83966207Y-119202295D01*
X83966207Y-119202295D02*
X83966207Y-119345152D01*
X83966207Y-119345152D02*
X83918588Y-119440390D01*
X83918588Y-119440390D02*
X83870969Y-119488009D01*
X83870969Y-119488009D02*
X83775731Y-119535628D01*
X83775731Y-119535628D02*
X83394779Y-119535628D01*
X84394779Y-119916580D02*
X84442398Y-119964200D01*
X84442398Y-119964200D02*
X84394779Y-120011819D01*
X84394779Y-120011819D02*
X84347160Y-119964200D01*
X84347160Y-119964200D02*
X84394779Y-119916580D01*
X84394779Y-119916580D02*
X84394779Y-120011819D01*
X84870969Y-120011819D02*
X84870969Y-119011819D01*
X84870969Y-119011819D02*
X85204302Y-119726104D01*
X85204302Y-119726104D02*
X85537635Y-119011819D01*
X85537635Y-119011819D02*
X85537635Y-120011819D01*
X86013826Y-120011819D02*
X86013826Y-119011819D01*
X86394778Y-119011819D02*
X87061444Y-120011819D01*
X87061444Y-119011819D02*
X86394778Y-120011819D01*
G36*
X56542317Y-96537406D02*
G01*
X56272277Y-96538199D01*
X56406822Y-96132742D01*
X56542317Y-96537406D01*
G37*
G36*
X57503708Y-96004871D02*
G01*
X57535035Y-96035115D01*
X57570493Y-96103972D01*
X57571478Y-96211604D01*
X57538298Y-96279985D01*
X57508053Y-96311313D01*
X57439365Y-96346684D01*
X57148140Y-96347745D01*
X57147607Y-95972550D01*
X57434941Y-95971503D01*
X57503708Y-96004871D01*
G37*
G36*
X58734782Y-97083341D02*
G01*
X55888400Y-97083341D01*
X55888400Y-96888439D01*
X55999511Y-96888439D01*
X56001586Y-96917629D01*
X56014672Y-96943802D01*
X56036779Y-96962976D01*
X56064542Y-96972230D01*
X56093732Y-96970155D01*
X56119905Y-96957069D01*
X56139079Y-96934962D01*
X56145073Y-96921536D01*
X56222918Y-96686946D01*
X56592024Y-96685862D01*
X56675431Y-96934961D01*
X56694605Y-96957068D01*
X56720778Y-96970155D01*
X56749968Y-96972230D01*
X56777730Y-96962976D01*
X56799838Y-96943802D01*
X56812924Y-96917628D01*
X56814999Y-96888438D01*
X56811739Y-96874102D01*
X56484848Y-95897819D01*
X56998922Y-95897819D01*
X57000363Y-96912451D01*
X57011562Y-96939487D01*
X57032254Y-96960179D01*
X57059290Y-96971378D01*
X57088554Y-96971378D01*
X57115590Y-96960179D01*
X57136282Y-96939487D01*
X57147481Y-96912451D01*
X57148922Y-96897819D01*
X57148351Y-96496356D01*
X57443224Y-96495282D01*
X57445493Y-96496039D01*
X57456834Y-96495233D01*
X57469506Y-96495187D01*
X57471995Y-96494155D01*
X57474683Y-96493965D01*
X57488415Y-96488710D01*
X57582971Y-96440017D01*
X57591780Y-96436369D01*
X57594682Y-96433986D01*
X57596096Y-96433259D01*
X57597395Y-96431760D01*
X57603145Y-96427042D01*
X57650486Y-96378006D01*
X57656981Y-96372374D01*
X57658960Y-96369228D01*
X57660091Y-96368058D01*
X57660848Y-96366230D01*
X57664813Y-96359931D01*
X57706488Y-96274041D01*
X57707710Y-96272820D01*
X57711379Y-96263960D01*
X57717687Y-96250962D01*
X57717878Y-96248272D01*
X57718909Y-96245784D01*
X57720350Y-96231152D01*
X57719145Y-96099521D01*
X57719761Y-96097675D01*
X57719035Y-96087460D01*
X57718909Y-96073663D01*
X57717878Y-96071174D01*
X57717687Y-96068485D01*
X57712432Y-96054754D01*
X57663740Y-95960199D01*
X57660091Y-95951389D01*
X57657708Y-95948486D01*
X57656981Y-95947073D01*
X57655482Y-95945773D01*
X57650764Y-95940024D01*
X57607049Y-95897819D01*
X57998922Y-95897819D01*
X58000363Y-96912451D01*
X58011562Y-96939487D01*
X58032254Y-96960179D01*
X58059290Y-96971378D01*
X58088554Y-96971378D01*
X58115590Y-96960179D01*
X58136282Y-96939487D01*
X58147481Y-96912451D01*
X58148922Y-96897819D01*
X58148284Y-96448701D01*
X58421887Y-96447568D01*
X58448923Y-96436369D01*
X58469615Y-96415677D01*
X58480814Y-96388641D01*
X58480814Y-96359377D01*
X58469615Y-96332341D01*
X58448923Y-96311649D01*
X58421887Y-96300450D01*
X58407255Y-96299009D01*
X58148073Y-96300082D01*
X58147607Y-95972602D01*
X58564744Y-95971378D01*
X58591780Y-95960179D01*
X58612472Y-95939487D01*
X58623671Y-95912451D01*
X58623671Y-95883187D01*
X58612472Y-95856151D01*
X58591780Y-95835459D01*
X58564744Y-95824260D01*
X58550112Y-95822819D01*
X58059290Y-95824260D01*
X58032254Y-95835459D01*
X58011562Y-95856151D01*
X58000363Y-95883187D01*
X57998922Y-95897819D01*
X57607049Y-95897819D01*
X57601728Y-95892682D01*
X57596096Y-95886188D01*
X57592950Y-95884208D01*
X57591780Y-95883078D01*
X57589952Y-95882320D01*
X57583653Y-95878356D01*
X57497764Y-95836681D01*
X57496542Y-95835459D01*
X57487676Y-95831786D01*
X57474683Y-95825482D01*
X57471995Y-95825291D01*
X57469506Y-95824260D01*
X57454874Y-95822819D01*
X57059290Y-95824260D01*
X57032254Y-95835459D01*
X57011562Y-95856151D01*
X57000363Y-95883187D01*
X56998922Y-95897819D01*
X56484848Y-95897819D01*
X56479961Y-95883223D01*
X56479591Y-95878010D01*
X56475427Y-95869683D01*
X56472412Y-95860676D01*
X56468900Y-95856627D01*
X56466505Y-95851836D01*
X56459401Y-95845674D01*
X56453238Y-95838569D01*
X56448444Y-95836172D01*
X56444397Y-95832662D01*
X56435475Y-95829688D01*
X56427065Y-95825483D01*
X56421720Y-95825103D01*
X56416635Y-95823408D01*
X56407255Y-95824074D01*
X56397875Y-95823408D01*
X56392789Y-95825103D01*
X56387445Y-95825483D01*
X56379037Y-95829687D01*
X56370112Y-95832662D01*
X56366061Y-95836175D01*
X56361272Y-95838570D01*
X56355113Y-95845670D01*
X56348005Y-95851836D01*
X56345608Y-95856629D01*
X56342098Y-95860677D01*
X56336104Y-95874102D01*
X56097929Y-96591850D01*
X56095601Y-96597472D01*
X56095601Y-96598867D01*
X55999511Y-96888439D01*
X55888400Y-96888439D01*
X55888400Y-95711708D01*
X58734782Y-95711708D01*
X58734782Y-97083341D01*
G37*
X89062112Y-119488009D02*
X88728779Y-119488009D01*
X88728779Y-120011819D02*
X88728779Y-119011819D01*
X88728779Y-119011819D02*
X89204969Y-119011819D01*
X89538303Y-119964200D02*
X89681160Y-120011819D01*
X89681160Y-120011819D02*
X89919255Y-120011819D01*
X89919255Y-120011819D02*
X90014493Y-119964200D01*
X90014493Y-119964200D02*
X90062112Y-119916580D01*
X90062112Y-119916580D02*
X90109731Y-119821342D01*
X90109731Y-119821342D02*
X90109731Y-119726104D01*
X90109731Y-119726104D02*
X90062112Y-119630866D01*
X90062112Y-119630866D02*
X90014493Y-119583247D01*
X90014493Y-119583247D02*
X89919255Y-119535628D01*
X89919255Y-119535628D02*
X89728779Y-119488009D01*
X89728779Y-119488009D02*
X89633541Y-119440390D01*
X89633541Y-119440390D02*
X89585922Y-119392771D01*
X89585922Y-119392771D02*
X89538303Y-119297533D01*
X89538303Y-119297533D02*
X89538303Y-119202295D01*
X89538303Y-119202295D02*
X89585922Y-119107057D01*
X89585922Y-119107057D02*
X89633541Y-119059438D01*
X89633541Y-119059438D02*
X89728779Y-119011819D01*
X89728779Y-119011819D02*
X89966874Y-119011819D01*
X89966874Y-119011819D02*
X90109731Y-119059438D01*
X74711160Y-109571533D02*
X75320684Y-109571533D01*
X75015922Y-109876295D02*
X75015922Y-109266771D01*
D12*
X119971771Y-92391455D02*
X119886057Y-92462884D01*
X119886057Y-92462884D02*
X119628914Y-92534312D01*
X119628914Y-92534312D02*
X119457486Y-92534312D01*
X119457486Y-92534312D02*
X119200343Y-92462884D01*
X119200343Y-92462884D02*
X119028914Y-92320026D01*
X119028914Y-92320026D02*
X118943200Y-92177169D01*
X118943200Y-92177169D02*
X118857486Y-91891455D01*
X118857486Y-91891455D02*
X118857486Y-91677169D01*
X118857486Y-91677169D02*
X118943200Y-91391455D01*
X118943200Y-91391455D02*
X119028914Y-91248598D01*
X119028914Y-91248598D02*
X119200343Y-91105741D01*
X119200343Y-91105741D02*
X119457486Y-91034312D01*
X119457486Y-91034312D02*
X119628914Y-91034312D01*
X119628914Y-91034312D02*
X119886057Y-91105741D01*
X119886057Y-91105741D02*
X119971771Y-91177169D01*
X120657486Y-92105741D02*
X121514629Y-92105741D01*
X120486057Y-92534312D02*
X121086057Y-91034312D01*
X121086057Y-91034312D02*
X121686057Y-92534312D01*
X122286057Y-92534312D02*
X122286057Y-91034312D01*
X122286057Y-91034312D02*
X123314628Y-92534312D01*
X123314628Y-92534312D02*
X123314628Y-91034312D01*
X124257485Y-91034312D02*
X124086057Y-91320026D01*
X124771771Y-91034312D02*
X125800343Y-91034312D01*
X125286057Y-92534312D02*
X125286057Y-91034312D01*
X127771772Y-92534312D02*
X127771772Y-91034312D01*
X127771772Y-91034312D02*
X128457486Y-91034312D01*
X128457486Y-91034312D02*
X128628915Y-91105741D01*
X128628915Y-91105741D02*
X128714629Y-91177169D01*
X128714629Y-91177169D02*
X128800343Y-91320026D01*
X128800343Y-91320026D02*
X128800343Y-91534312D01*
X128800343Y-91534312D02*
X128714629Y-91677169D01*
X128714629Y-91677169D02*
X128628915Y-91748598D01*
X128628915Y-91748598D02*
X128457486Y-91820026D01*
X128457486Y-91820026D02*
X127771772Y-91820026D01*
X129571772Y-92534312D02*
X129571772Y-91034312D01*
X129571772Y-91748598D02*
X130600343Y-91748598D01*
X130600343Y-92534312D02*
X130600343Y-91034312D01*
X131371772Y-92105741D02*
X132228915Y-92105741D01*
X131200343Y-92534312D02*
X131800343Y-91034312D01*
X131800343Y-91034312D02*
X132400343Y-92534312D01*
X132914629Y-92462884D02*
X133171772Y-92534312D01*
X133171772Y-92534312D02*
X133600343Y-92534312D01*
X133600343Y-92534312D02*
X133771772Y-92462884D01*
X133771772Y-92462884D02*
X133857486Y-92391455D01*
X133857486Y-92391455D02*
X133943200Y-92248598D01*
X133943200Y-92248598D02*
X133943200Y-92105741D01*
X133943200Y-92105741D02*
X133857486Y-91962884D01*
X133857486Y-91962884D02*
X133771772Y-91891455D01*
X133771772Y-91891455D02*
X133600343Y-91820026D01*
X133600343Y-91820026D02*
X133257486Y-91748598D01*
X133257486Y-91748598D02*
X133086057Y-91677169D01*
X133086057Y-91677169D02*
X133000343Y-91605741D01*
X133000343Y-91605741D02*
X132914629Y-91462884D01*
X132914629Y-91462884D02*
X132914629Y-91320026D01*
X132914629Y-91320026D02*
X133000343Y-91177169D01*
X133000343Y-91177169D02*
X133086057Y-91105741D01*
X133086057Y-91105741D02*
X133257486Y-91034312D01*
X133257486Y-91034312D02*
X133686057Y-91034312D01*
X133686057Y-91034312D02*
X133943200Y-91105741D01*
X134714629Y-91748598D02*
X135314629Y-91748598D01*
X135571772Y-92534312D02*
X134714629Y-92534312D01*
X134714629Y-92534312D02*
X134714629Y-91034312D01*
X134714629Y-91034312D02*
X135571772Y-91034312D01*
X137714629Y-92534312D02*
X137714629Y-91034312D01*
X137714629Y-91034312D02*
X138314629Y-92105741D01*
X138314629Y-92105741D02*
X138914629Y-91034312D01*
X138914629Y-91034312D02*
X138914629Y-92534312D01*
X139771772Y-91748598D02*
X140371772Y-91748598D01*
X140628915Y-92534312D02*
X139771772Y-92534312D01*
X139771772Y-92534312D02*
X139771772Y-91034312D01*
X139771772Y-91034312D02*
X140628915Y-91034312D01*
X119200343Y-93949228D02*
X120571772Y-94377800D01*
X120571772Y-94377800D02*
X119200343Y-94806371D01*
X121428914Y-93949228D02*
X122800343Y-94377800D01*
X122800343Y-94377800D02*
X121428914Y-94806371D01*
X123657485Y-93949228D02*
X125028914Y-94377800D01*
X125028914Y-94377800D02*
X123657485Y-94806371D01*
X127000342Y-93449228D02*
X127600342Y-94949228D01*
X127600342Y-94949228D02*
X128200342Y-93449228D01*
X129743199Y-94949228D02*
X128714628Y-94949228D01*
X129228913Y-94949228D02*
X129228913Y-93449228D01*
X129228913Y-93449228D02*
X129057485Y-93663514D01*
X129057485Y-93663514D02*
X128886056Y-93806371D01*
X128886056Y-93806371D02*
X128714628Y-93877800D01*
X130514628Y-94806371D02*
X130600342Y-94877800D01*
X130600342Y-94877800D02*
X130514628Y-94949228D01*
X130514628Y-94949228D02*
X130428914Y-94877800D01*
X130428914Y-94877800D02*
X130514628Y-94806371D01*
X130514628Y-94806371D02*
X130514628Y-94949228D01*
X131714628Y-93449228D02*
X131886057Y-93449228D01*
X131886057Y-93449228D02*
X132057485Y-93520657D01*
X132057485Y-93520657D02*
X132143200Y-93592085D01*
X132143200Y-93592085D02*
X132228914Y-93734942D01*
X132228914Y-93734942D02*
X132314628Y-94020657D01*
X132314628Y-94020657D02*
X132314628Y-94377800D01*
X132314628Y-94377800D02*
X132228914Y-94663514D01*
X132228914Y-94663514D02*
X132143200Y-94806371D01*
X132143200Y-94806371D02*
X132057485Y-94877800D01*
X132057485Y-94877800D02*
X131886057Y-94949228D01*
X131886057Y-94949228D02*
X131714628Y-94949228D01*
X131714628Y-94949228D02*
X131543200Y-94877800D01*
X131543200Y-94877800D02*
X131457485Y-94806371D01*
X131457485Y-94806371D02*
X131371771Y-94663514D01*
X131371771Y-94663514D02*
X131286057Y-94377800D01*
X131286057Y-94377800D02*
X131286057Y-94020657D01*
X131286057Y-94020657D02*
X131371771Y-93734942D01*
X131371771Y-93734942D02*
X131457485Y-93592085D01*
X131457485Y-93592085D02*
X131543200Y-93520657D01*
X131543200Y-93520657D02*
X131714628Y-93449228D01*
X135828915Y-93949228D02*
X134457486Y-94377800D01*
X134457486Y-94377800D02*
X135828915Y-94806371D01*
X138057486Y-93949228D02*
X136686057Y-94377800D01*
X136686057Y-94377800D02*
X138057486Y-94806371D01*
X140286057Y-93949228D02*
X138914628Y-94377800D01*
X138914628Y-94377800D02*
X140286057Y-94806371D01*
D11*
X78762474Y-114511895D02*
X79219617Y-114511895D01*
X78991045Y-115311895D02*
X78991045Y-114511895D01*
X78521160Y-119726104D02*
X78997350Y-119726104D01*
X78425922Y-120011819D02*
X78759255Y-119011819D01*
X78759255Y-119011819D02*
X79092588Y-120011819D01*
X80378303Y-119011819D02*
X80568779Y-119011819D01*
X80568779Y-119011819D02*
X80664017Y-119059438D01*
X80664017Y-119059438D02*
X80759255Y-119154676D01*
X80759255Y-119154676D02*
X80806874Y-119345152D01*
X80806874Y-119345152D02*
X80806874Y-119678485D01*
X80806874Y-119678485D02*
X80759255Y-119868961D01*
X80759255Y-119868961D02*
X80664017Y-119964200D01*
X80664017Y-119964200D02*
X80568779Y-120011819D01*
X80568779Y-120011819D02*
X80378303Y-120011819D01*
X80378303Y-120011819D02*
X80283065Y-119964200D01*
X80283065Y-119964200D02*
X80187827Y-119868961D01*
X80187827Y-119868961D02*
X80140208Y-119678485D01*
X80140208Y-119678485D02*
X80140208Y-119345152D01*
X80140208Y-119345152D02*
X80187827Y-119154676D01*
X80187827Y-119154676D02*
X80283065Y-119059438D01*
X80283065Y-119059438D02*
X80378303Y-119011819D01*
X81235446Y-119011819D02*
X81235446Y-119821342D01*
X81235446Y-119821342D02*
X81283065Y-119916580D01*
X81283065Y-119916580D02*
X81330684Y-119964200D01*
X81330684Y-119964200D02*
X81425922Y-120011819D01*
X81425922Y-120011819D02*
X81616398Y-120011819D01*
X81616398Y-120011819D02*
X81711636Y-119964200D01*
X81711636Y-119964200D02*
X81759255Y-119916580D01*
X81759255Y-119916580D02*
X81806874Y-119821342D01*
X81806874Y-119821342D02*
X81806874Y-119011819D01*
X82140208Y-119011819D02*
X82711636Y-119011819D01*
X82425922Y-120011819D02*
X82425922Y-119011819D01*
X69123160Y-119726104D02*
X69599350Y-119726104D01*
X69027922Y-120011819D02*
X69361255Y-119011819D01*
X69361255Y-119011819D02*
X69694588Y-120011819D01*
X70789827Y-120011819D02*
X70789827Y-119011819D01*
X71266017Y-120011819D02*
X71266017Y-119011819D01*
X71266017Y-119011819D02*
X71837445Y-120011819D01*
X71837445Y-120011819D02*
X71837445Y-119011819D01*
X67891274Y-114562695D02*
X68348417Y-114562695D01*
X68119845Y-115362695D02*
X68119845Y-114562695D01*
G36*
X120543025Y-119118770D02*
G01*
X120616817Y-119191152D01*
X120657510Y-119349323D01*
X120658813Y-119664077D01*
X120618699Y-119829325D01*
X120548232Y-119901166D01*
X120478786Y-119936928D01*
X120323617Y-119938018D01*
X120255295Y-119904867D01*
X120181502Y-119832485D01*
X120140809Y-119674313D01*
X120139506Y-119359559D01*
X120179620Y-119194311D01*
X120250088Y-119122470D01*
X120319533Y-119086709D01*
X120474702Y-119085619D01*
X120543025Y-119118770D01*
G37*
G36*
X120918604Y-120197930D02*
G01*
X118260668Y-120197930D01*
X118260668Y-119011819D01*
X118371779Y-119011819D01*
X118373220Y-120026451D01*
X118384419Y-120053487D01*
X118405111Y-120074179D01*
X118432147Y-120085378D01*
X118446779Y-120086819D01*
X118937601Y-120085378D01*
X118964637Y-120074179D01*
X118985329Y-120053487D01*
X118996528Y-120026451D01*
X118996528Y-119997187D01*
X118985329Y-119970151D01*
X118964637Y-119949459D01*
X118937601Y-119938260D01*
X118922969Y-119936819D01*
X118521674Y-119937997D01*
X118520359Y-119011819D01*
X119181303Y-119011819D01*
X119182744Y-120026451D01*
X119193943Y-120053487D01*
X119214635Y-120074179D01*
X119241671Y-120085378D01*
X119270935Y-120085378D01*
X119297971Y-120074179D01*
X119318663Y-120053487D01*
X119329862Y-120026451D01*
X119331303Y-120011819D01*
X119330665Y-119562701D01*
X119604268Y-119561568D01*
X119631304Y-119550369D01*
X119651996Y-119529677D01*
X119663195Y-119502641D01*
X119663195Y-119473377D01*
X119651996Y-119446341D01*
X119631304Y-119425649D01*
X119604268Y-119414450D01*
X119589636Y-119413009D01*
X119330454Y-119414082D01*
X119330356Y-119345152D01*
X119990827Y-119345152D01*
X119992187Y-119673588D01*
X119990916Y-119682131D01*
X119992260Y-119691223D01*
X119992268Y-119693117D01*
X119992690Y-119694138D01*
X119993066Y-119696675D01*
X120039887Y-119878666D01*
X120039887Y-119883592D01*
X120043231Y-119891667D01*
X120045632Y-119900997D01*
X120048951Y-119905476D01*
X120051085Y-119910628D01*
X120060413Y-119921994D01*
X120156180Y-120015932D01*
X120162700Y-120023450D01*
X120165893Y-120025460D01*
X120167016Y-120026561D01*
X120168848Y-120027319D01*
X120175143Y-120031282D01*
X120261032Y-120072957D01*
X120262254Y-120074179D01*
X120271113Y-120077848D01*
X120284112Y-120084156D01*
X120286801Y-120084347D01*
X120289290Y-120085378D01*
X120303922Y-120086819D01*
X120483009Y-120085560D01*
X120485017Y-120086230D01*
X120495689Y-120085471D01*
X120509030Y-120085378D01*
X120511519Y-120084346D01*
X120514207Y-120084156D01*
X120527939Y-120078901D01*
X120622493Y-120030209D01*
X120631304Y-120026560D01*
X120634206Y-120024177D01*
X120635620Y-120023450D01*
X120636919Y-120021951D01*
X120642669Y-120017233D01*
X120731264Y-119926909D01*
X120735266Y-119924509D01*
X120740351Y-119917645D01*
X120747235Y-119910628D01*
X120749368Y-119905476D01*
X120752688Y-119900997D01*
X120757635Y-119887151D01*
X120802875Y-119700785D01*
X120806052Y-119693117D01*
X120806949Y-119684002D01*
X120807404Y-119682131D01*
X120807241Y-119681038D01*
X120807493Y-119678485D01*
X120806132Y-119350048D01*
X120807404Y-119341506D01*
X120806059Y-119332413D01*
X120806052Y-119330520D01*
X120805629Y-119329498D01*
X120805254Y-119326962D01*
X120758433Y-119144970D01*
X120758433Y-119140045D01*
X120755087Y-119131968D01*
X120752688Y-119122640D01*
X120749369Y-119118161D01*
X120747235Y-119113008D01*
X120737907Y-119101643D01*
X120642144Y-119007711D01*
X120635620Y-119000188D01*
X120632423Y-118998175D01*
X120631304Y-118997078D01*
X120629476Y-118996320D01*
X120623177Y-118992356D01*
X120537288Y-118950681D01*
X120536066Y-118949459D01*
X120527200Y-118945786D01*
X120514207Y-118939482D01*
X120511519Y-118939291D01*
X120509030Y-118938260D01*
X120494398Y-118936819D01*
X120315309Y-118938077D01*
X120313302Y-118937408D01*
X120302629Y-118938166D01*
X120289290Y-118938260D01*
X120286801Y-118939290D01*
X120284112Y-118939482D01*
X120270381Y-118944737D01*
X120175831Y-118993425D01*
X120167016Y-118997077D01*
X120164110Y-118999461D01*
X120162700Y-119000188D01*
X120161401Y-119001684D01*
X120155651Y-119006405D01*
X120067055Y-119096726D01*
X120063054Y-119099128D01*
X120057967Y-119105991D01*
X120051086Y-119113008D01*
X120048952Y-119118158D01*
X120045632Y-119122640D01*
X120040685Y-119136486D01*
X119995444Y-119322851D01*
X119992268Y-119330520D01*
X119991370Y-119339634D01*
X119990916Y-119341506D01*
X119991078Y-119342598D01*
X119990827Y-119345152D01*
X119330356Y-119345152D01*
X119329988Y-119086602D01*
X119747125Y-119085378D01*
X119774161Y-119074179D01*
X119794853Y-119053487D01*
X119806052Y-119026451D01*
X119806052Y-118997187D01*
X119794853Y-118970151D01*
X119774161Y-118949459D01*
X119747125Y-118938260D01*
X119732493Y-118936819D01*
X119241671Y-118938260D01*
X119214635Y-118949459D01*
X119193943Y-118970151D01*
X119182744Y-118997187D01*
X119181303Y-119011819D01*
X118520359Y-119011819D01*
X118520338Y-118997187D01*
X118509139Y-118970151D01*
X118488447Y-118949459D01*
X118461411Y-118938260D01*
X118432147Y-118938260D01*
X118405111Y-118949459D01*
X118384419Y-118970151D01*
X118373220Y-118997187D01*
X118371779Y-119011819D01*
X118260668Y-119011819D01*
X118260668Y-118825708D01*
X120918604Y-118825708D01*
X120918604Y-120197930D01*
G37*
X81721503Y-115311895D02*
X81454836Y-114930942D01*
X81264360Y-115311895D02*
X81264360Y-114511895D01*
X81264360Y-114511895D02*
X81569122Y-114511895D01*
X81569122Y-114511895D02*
X81645312Y-114549990D01*
X81645312Y-114549990D02*
X81683407Y-114588085D01*
X81683407Y-114588085D02*
X81721503Y-114664276D01*
X81721503Y-114664276D02*
X81721503Y-114778561D01*
X81721503Y-114778561D02*
X81683407Y-114854752D01*
X81683407Y-114854752D02*
X81645312Y-114892847D01*
X81645312Y-114892847D02*
X81569122Y-114930942D01*
X81569122Y-114930942D02*
X81264360Y-114930942D01*
G36*
X77849842Y-120197930D02*
G01*
X76096668Y-120197930D01*
X76096668Y-119011819D01*
X76207779Y-119011819D01*
X76209220Y-120026451D01*
X76220419Y-120053487D01*
X76241111Y-120074179D01*
X76268147Y-120085378D01*
X76297411Y-120085378D01*
X76324447Y-120074179D01*
X76345139Y-120053487D01*
X76356338Y-120026451D01*
X76357779Y-120011819D01*
X76357141Y-119562701D01*
X76630744Y-119561568D01*
X76657780Y-119550369D01*
X76678472Y-119529677D01*
X76689671Y-119502641D01*
X76689671Y-119473377D01*
X76678472Y-119446341D01*
X76657780Y-119425649D01*
X76630744Y-119414450D01*
X76616112Y-119413009D01*
X76356930Y-119414082D01*
X76356629Y-119202295D01*
X77017303Y-119202295D01*
X77018408Y-119286601D01*
X77017892Y-119288152D01*
X77018550Y-119297421D01*
X77018744Y-119312165D01*
X77019775Y-119314654D01*
X77019966Y-119317342D01*
X77025221Y-119331074D01*
X77073913Y-119425630D01*
X77077562Y-119434439D01*
X77079944Y-119437341D01*
X77080672Y-119438755D01*
X77082170Y-119440054D01*
X77086889Y-119445804D01*
X77135924Y-119493145D01*
X77141557Y-119499640D01*
X77144702Y-119501619D01*
X77145873Y-119502750D01*
X77147700Y-119503507D01*
X77154000Y-119507472D01*
X77245232Y-119551740D01*
X77250743Y-119555823D01*
X77261758Y-119559758D01*
X77262969Y-119560346D01*
X77263509Y-119560384D01*
X77264589Y-119560770D01*
X77442072Y-119603854D01*
X77522089Y-119642680D01*
X77553416Y-119672924D01*
X77588938Y-119741905D01*
X77589727Y-119802066D01*
X77556679Y-119870175D01*
X77526433Y-119901504D01*
X77457683Y-119936907D01*
X77250902Y-119938086D01*
X77101683Y-119889789D01*
X77072493Y-119891864D01*
X77046320Y-119904950D01*
X77027146Y-119927057D01*
X77017892Y-119954820D01*
X77019967Y-119984010D01*
X77033053Y-120010183D01*
X77055160Y-120029357D01*
X77068586Y-120035351D01*
X77211167Y-120081500D01*
X77220528Y-120085378D01*
X77224291Y-120085748D01*
X77225779Y-120086230D01*
X77227753Y-120086089D01*
X77235160Y-120086819D01*
X77461764Y-120085526D01*
X77463874Y-120086230D01*
X77474816Y-120085452D01*
X77487887Y-120085378D01*
X77490376Y-120084346D01*
X77493064Y-120084156D01*
X77506796Y-120078901D01*
X77601350Y-120030209D01*
X77610161Y-120026560D01*
X77613063Y-120024177D01*
X77614477Y-120023450D01*
X77615777Y-120021950D01*
X77621527Y-120017232D01*
X77668868Y-119968195D01*
X77675362Y-119962564D01*
X77677341Y-119959418D01*
X77678473Y-119958247D01*
X77679230Y-119956417D01*
X77683194Y-119950121D01*
X77724869Y-119864231D01*
X77726091Y-119863010D01*
X77729760Y-119854150D01*
X77736068Y-119841152D01*
X77736259Y-119838462D01*
X77737290Y-119835974D01*
X77738731Y-119821342D01*
X77737625Y-119737034D01*
X77738142Y-119735484D01*
X77737483Y-119726213D01*
X77737290Y-119711472D01*
X77736259Y-119708983D01*
X77736068Y-119706294D01*
X77730813Y-119692563D01*
X77682121Y-119598008D01*
X77678472Y-119589198D01*
X77676089Y-119586295D01*
X77675362Y-119584882D01*
X77673863Y-119583582D01*
X77669145Y-119577833D01*
X77620109Y-119530491D01*
X77614477Y-119523997D01*
X77611331Y-119522017D01*
X77610161Y-119520887D01*
X77608333Y-119520129D01*
X77602034Y-119516165D01*
X77510802Y-119471898D01*
X77505291Y-119467814D01*
X77494271Y-119463876D01*
X77493064Y-119463291D01*
X77492524Y-119463252D01*
X77491445Y-119462867D01*
X77313961Y-119419782D01*
X77233945Y-119380957D01*
X77202617Y-119350712D01*
X77167095Y-119281731D01*
X77166306Y-119221570D01*
X77199355Y-119153460D01*
X77229599Y-119122133D01*
X77298350Y-119086730D01*
X77505131Y-119085551D01*
X77654350Y-119133849D01*
X77683540Y-119131774D01*
X77709714Y-119118688D01*
X77728888Y-119096580D01*
X77738142Y-119068818D01*
X77736067Y-119039628D01*
X77722980Y-119013455D01*
X77700873Y-118994281D01*
X77687448Y-118988287D01*
X77544869Y-118942138D01*
X77535506Y-118938260D01*
X77531740Y-118937889D01*
X77530254Y-118937408D01*
X77528279Y-118937548D01*
X77520874Y-118936819D01*
X77294268Y-118938111D01*
X77292159Y-118937408D01*
X77281216Y-118938185D01*
X77268147Y-118938260D01*
X77265658Y-118939290D01*
X77262969Y-118939482D01*
X77249238Y-118944737D01*
X77154683Y-118993428D01*
X77145873Y-118997078D01*
X77142970Y-118999460D01*
X77141557Y-119000188D01*
X77140257Y-119001686D01*
X77134508Y-119006405D01*
X77087166Y-119055440D01*
X77080672Y-119061073D01*
X77078692Y-119064218D01*
X77077562Y-119065389D01*
X77076804Y-119067216D01*
X77072840Y-119073516D01*
X77031165Y-119159404D01*
X77029943Y-119160627D01*
X77026270Y-119169492D01*
X77019966Y-119182486D01*
X77019775Y-119185173D01*
X77018744Y-119187663D01*
X77017303Y-119202295D01*
X76356629Y-119202295D01*
X76356464Y-119086602D01*
X76773601Y-119085378D01*
X76800637Y-119074179D01*
X76821329Y-119053487D01*
X76832528Y-119026451D01*
X76832528Y-118997187D01*
X76821329Y-118970151D01*
X76800637Y-118949459D01*
X76773601Y-118938260D01*
X76758969Y-118936819D01*
X76268147Y-118938260D01*
X76241111Y-118949459D01*
X76220419Y-118970151D01*
X76209220Y-118997187D01*
X76207779Y-119011819D01*
X76096668Y-119011819D01*
X76096668Y-118825708D01*
X77849842Y-118825708D01*
X77849842Y-120197930D01*
G37*
X135718779Y-120011819D02*
X135718779Y-119011819D01*
X135718779Y-119011819D02*
X136099731Y-119011819D01*
X136099731Y-119011819D02*
X136194969Y-119059438D01*
X136194969Y-119059438D02*
X136242588Y-119107057D01*
X136242588Y-119107057D02*
X136290207Y-119202295D01*
X136290207Y-119202295D02*
X136290207Y-119345152D01*
X136290207Y-119345152D02*
X136242588Y-119440390D01*
X136242588Y-119440390D02*
X136194969Y-119488009D01*
X136194969Y-119488009D02*
X136099731Y-119535628D01*
X136099731Y-119535628D02*
X135718779Y-119535628D01*
X136718779Y-119916580D02*
X136766398Y-119964200D01*
X136766398Y-119964200D02*
X136718779Y-120011819D01*
X136718779Y-120011819D02*
X136671160Y-119964200D01*
X136671160Y-119964200D02*
X136718779Y-119916580D01*
X136718779Y-119916580D02*
X136718779Y-120011819D01*
X137766397Y-120011819D02*
X137433064Y-119535628D01*
X137194969Y-120011819D02*
X137194969Y-119011819D01*
X137194969Y-119011819D02*
X137575921Y-119011819D01*
X137575921Y-119011819D02*
X137671159Y-119059438D01*
X137671159Y-119059438D02*
X137718778Y-119107057D01*
X137718778Y-119107057D02*
X137766397Y-119202295D01*
X137766397Y-119202295D02*
X137766397Y-119345152D01*
X137766397Y-119345152D02*
X137718778Y-119440390D01*
X137718778Y-119440390D02*
X137671159Y-119488009D01*
X137671159Y-119488009D02*
X137575921Y-119535628D01*
X137575921Y-119535628D02*
X137194969Y-119535628D01*
X138147350Y-119726104D02*
X138623540Y-119726104D01*
X138052112Y-120011819D02*
X138385445Y-119011819D01*
X138385445Y-119011819D02*
X138718778Y-120011819D01*
X138909255Y-119011819D02*
X139480683Y-119011819D01*
X139194969Y-120011819D02*
X139194969Y-119011819D01*
X139814017Y-119488009D02*
X140147350Y-119488009D01*
X140290207Y-120011819D02*
X139814017Y-120011819D01*
X139814017Y-120011819D02*
X139814017Y-119011819D01*
X139814017Y-119011819D02*
X140290207Y-119011819D01*
X74241255Y-108352295D02*
X74393636Y-108352295D01*
X74393636Y-108352295D02*
X74469826Y-108314200D01*
X74469826Y-108314200D02*
X74507922Y-108276104D01*
X74507922Y-108276104D02*
X74584112Y-108161819D01*
X74584112Y-108161819D02*
X74622207Y-108009438D01*
X74622207Y-108009438D02*
X74622207Y-107704676D01*
X74622207Y-107704676D02*
X74584112Y-107628485D01*
X74584112Y-107628485D02*
X74546017Y-107590390D01*
X74546017Y-107590390D02*
X74469826Y-107552295D01*
X74469826Y-107552295D02*
X74317445Y-107552295D01*
X74317445Y-107552295D02*
X74241255Y-107590390D01*
X74241255Y-107590390D02*
X74203160Y-107628485D01*
X74203160Y-107628485D02*
X74165064Y-107704676D01*
X74165064Y-107704676D02*
X74165064Y-107895152D01*
X74165064Y-107895152D02*
X74203160Y-107971342D01*
X74203160Y-107971342D02*
X74241255Y-108009438D01*
X74241255Y-108009438D02*
X74317445Y-108047533D01*
X74317445Y-108047533D02*
X74469826Y-108047533D01*
X74469826Y-108047533D02*
X74546017Y-108009438D01*
X74546017Y-108009438D02*
X74584112Y-107971342D01*
X74584112Y-107971342D02*
X74622207Y-107895152D01*
X74850779Y-107552295D02*
X75117446Y-108352295D01*
X75117446Y-108352295D02*
X75384112Y-107552295D01*
X92281714Y-113342057D02*
X92329333Y-113294438D01*
X92329333Y-113294438D02*
X92424571Y-113246819D01*
X92424571Y-113246819D02*
X92662666Y-113246819D01*
X92662666Y-113246819D02*
X92757904Y-113294438D01*
X92757904Y-113294438D02*
X92805523Y-113342057D01*
X92805523Y-113342057D02*
X92853142Y-113437295D01*
X92853142Y-113437295D02*
X92853142Y-113532533D01*
X92853142Y-113532533D02*
X92805523Y-113675390D01*
X92805523Y-113675390D02*
X92234095Y-114246819D01*
X92234095Y-114246819D02*
X92853142Y-114246819D01*
X93281714Y-114246819D02*
X93281714Y-113246819D01*
X93281714Y-113246819D02*
X93853142Y-114246819D01*
X93853142Y-114246819D02*
X93853142Y-113246819D01*
X94234095Y-113246819D02*
X94853142Y-113246819D01*
X94853142Y-113246819D02*
X94519809Y-113627771D01*
X94519809Y-113627771D02*
X94662666Y-113627771D01*
X94662666Y-113627771D02*
X94757904Y-113675390D01*
X94757904Y-113675390D02*
X94805523Y-113723009D01*
X94805523Y-113723009D02*
X94853142Y-113818247D01*
X94853142Y-113818247D02*
X94853142Y-114056342D01*
X94853142Y-114056342D02*
X94805523Y-114151580D01*
X94805523Y-114151580D02*
X94757904Y-114199200D01*
X94757904Y-114199200D02*
X94662666Y-114246819D01*
X94662666Y-114246819D02*
X94376952Y-114246819D01*
X94376952Y-114246819D02*
X94281714Y-114199200D01*
X94281714Y-114199200D02*
X94234095Y-114151580D01*
X95329333Y-114246819D02*
X95519809Y-114246819D01*
X95519809Y-114246819D02*
X95615047Y-114199200D01*
X95615047Y-114199200D02*
X95662666Y-114151580D01*
X95662666Y-114151580D02*
X95757904Y-114008723D01*
X95757904Y-114008723D02*
X95805523Y-113818247D01*
X95805523Y-113818247D02*
X95805523Y-113437295D01*
X95805523Y-113437295D02*
X95757904Y-113342057D01*
X95757904Y-113342057D02*
X95710285Y-113294438D01*
X95710285Y-113294438D02*
X95615047Y-113246819D01*
X95615047Y-113246819D02*
X95424571Y-113246819D01*
X95424571Y-113246819D02*
X95329333Y-113294438D01*
X95329333Y-113294438D02*
X95281714Y-113342057D01*
X95281714Y-113342057D02*
X95234095Y-113437295D01*
X95234095Y-113437295D02*
X95234095Y-113675390D01*
X95234095Y-113675390D02*
X95281714Y-113770628D01*
X95281714Y-113770628D02*
X95329333Y-113818247D01*
X95329333Y-113818247D02*
X95424571Y-113865866D01*
X95424571Y-113865866D02*
X95615047Y-113865866D01*
X95615047Y-113865866D02*
X95710285Y-113818247D01*
X95710285Y-113818247D02*
X95757904Y-113770628D01*
X95757904Y-113770628D02*
X95805523Y-113675390D01*
X96424571Y-113246819D02*
X96519809Y-113246819D01*
X96519809Y-113246819D02*
X96615047Y-113294438D01*
X96615047Y-113294438D02*
X96662666Y-113342057D01*
X96662666Y-113342057D02*
X96710285Y-113437295D01*
X96710285Y-113437295D02*
X96757904Y-113627771D01*
X96757904Y-113627771D02*
X96757904Y-113865866D01*
X96757904Y-113865866D02*
X96710285Y-114056342D01*
X96710285Y-114056342D02*
X96662666Y-114151580D01*
X96662666Y-114151580D02*
X96615047Y-114199200D01*
X96615047Y-114199200D02*
X96519809Y-114246819D01*
X96519809Y-114246819D02*
X96424571Y-114246819D01*
X96424571Y-114246819D02*
X96329333Y-114199200D01*
X96329333Y-114199200D02*
X96281714Y-114151580D01*
X96281714Y-114151580D02*
X96234095Y-114056342D01*
X96234095Y-114056342D02*
X96186476Y-113865866D01*
X96186476Y-113865866D02*
X96186476Y-113627771D01*
X96186476Y-113627771D02*
X96234095Y-113437295D01*
X96234095Y-113437295D02*
X96281714Y-113342057D01*
X96281714Y-113342057D02*
X96329333Y-113294438D01*
X96329333Y-113294438D02*
X96424571Y-113246819D01*
X97615047Y-113580152D02*
X97615047Y-114246819D01*
X97376952Y-113199200D02*
X97138857Y-113913485D01*
X97138857Y-113913485D02*
X97757904Y-113913485D01*
X136023476Y-96348961D02*
X136023476Y-96882295D01*
X135833000Y-96044200D02*
X135642523Y-96615628D01*
X135642523Y-96615628D02*
X136137762Y-96615628D01*
X136366333Y-96082295D02*
X136899667Y-96082295D01*
X136899667Y-96082295D02*
X136556809Y-96882295D01*
X137356810Y-96082295D02*
X137433000Y-96082295D01*
X137433000Y-96082295D02*
X137509191Y-96120390D01*
X137509191Y-96120390D02*
X137547286Y-96158485D01*
X137547286Y-96158485D02*
X137585381Y-96234676D01*
X137585381Y-96234676D02*
X137623476Y-96387057D01*
X137623476Y-96387057D02*
X137623476Y-96577533D01*
X137623476Y-96577533D02*
X137585381Y-96729914D01*
X137585381Y-96729914D02*
X137547286Y-96806104D01*
X137547286Y-96806104D02*
X137509191Y-96844200D01*
X137509191Y-96844200D02*
X137433000Y-96882295D01*
X137433000Y-96882295D02*
X137356810Y-96882295D01*
X137356810Y-96882295D02*
X137280619Y-96844200D01*
X137280619Y-96844200D02*
X137242524Y-96806104D01*
X137242524Y-96806104D02*
X137204429Y-96729914D01*
X137204429Y-96729914D02*
X137166333Y-96577533D01*
X137166333Y-96577533D02*
X137166333Y-96387057D01*
X137166333Y-96387057D02*
X137204429Y-96234676D01*
X137204429Y-96234676D02*
X137242524Y-96158485D01*
X137242524Y-96158485D02*
X137280619Y-96120390D01*
X137280619Y-96120390D02*
X137356810Y-96082295D01*
X137966334Y-96882295D02*
X137966334Y-96082295D01*
X138423477Y-96882295D02*
X138080619Y-96425152D01*
X138423477Y-96082295D02*
X137966334Y-96539438D01*
X136861571Y-99168295D02*
X136404428Y-99168295D01*
X136633000Y-99168295D02*
X136633000Y-98368295D01*
X136633000Y-98368295D02*
X136556809Y-98482580D01*
X136556809Y-98482580D02*
X136480619Y-98558771D01*
X136480619Y-98558771D02*
X136404428Y-98596866D01*
X137204429Y-99168295D02*
X137204429Y-98368295D01*
X137661572Y-99168295D02*
X137318714Y-98711152D01*
X137661572Y-98368295D02*
X137204429Y-98825438D01*
X136480618Y-103740295D02*
X136023475Y-103740295D01*
X136252047Y-103740295D02*
X136252047Y-102940295D01*
X136252047Y-102940295D02*
X136175856Y-103054580D01*
X136175856Y-103054580D02*
X136099666Y-103130771D01*
X136099666Y-103130771D02*
X136023475Y-103168866D01*
X136975857Y-102940295D02*
X137052047Y-102940295D01*
X137052047Y-102940295D02*
X137128238Y-102978390D01*
X137128238Y-102978390D02*
X137166333Y-103016485D01*
X137166333Y-103016485D02*
X137204428Y-103092676D01*
X137204428Y-103092676D02*
X137242523Y-103245057D01*
X137242523Y-103245057D02*
X137242523Y-103435533D01*
X137242523Y-103435533D02*
X137204428Y-103587914D01*
X137204428Y-103587914D02*
X137166333Y-103664104D01*
X137166333Y-103664104D02*
X137128238Y-103702200D01*
X137128238Y-103702200D02*
X137052047Y-103740295D01*
X137052047Y-103740295D02*
X136975857Y-103740295D01*
X136975857Y-103740295D02*
X136899666Y-103702200D01*
X136899666Y-103702200D02*
X136861571Y-103664104D01*
X136861571Y-103664104D02*
X136823476Y-103587914D01*
X136823476Y-103587914D02*
X136785380Y-103435533D01*
X136785380Y-103435533D02*
X136785380Y-103245057D01*
X136785380Y-103245057D02*
X136823476Y-103092676D01*
X136823476Y-103092676D02*
X136861571Y-103016485D01*
X136861571Y-103016485D02*
X136899666Y-102978390D01*
X136899666Y-102978390D02*
X136975857Y-102940295D01*
X137585381Y-103740295D02*
X137585381Y-102940295D01*
X138042524Y-103740295D02*
X137699666Y-103283152D01*
X138042524Y-102940295D02*
X137585381Y-103397438D01*
X63089523Y-101790819D02*
X62613333Y-101790819D01*
X62613333Y-101790819D02*
X62613333Y-100790819D01*
X63422857Y-101790819D02*
X63422857Y-100790819D01*
X63422857Y-100790819D02*
X63756190Y-101505104D01*
X63756190Y-101505104D02*
X64089523Y-100790819D01*
X64089523Y-100790819D02*
X64089523Y-101790819D01*
X64470476Y-100790819D02*
X65137142Y-100790819D01*
X65137142Y-100790819D02*
X64708571Y-101790819D01*
X65946666Y-101124152D02*
X65946666Y-101790819D01*
X65708571Y-100743200D02*
X65470476Y-101457485D01*
X65470476Y-101457485D02*
X66089523Y-101457485D01*
X66994285Y-101790819D02*
X66422857Y-101790819D01*
X66708571Y-101790819D02*
X66708571Y-100790819D01*
X66708571Y-100790819D02*
X66613333Y-100933676D01*
X66613333Y-100933676D02*
X66518095Y-101028914D01*
X66518095Y-101028914D02*
X66422857Y-101076533D01*
X64849714Y-91498057D02*
X64897333Y-91450438D01*
X64897333Y-91450438D02*
X64992571Y-91402819D01*
X64992571Y-91402819D02*
X65230666Y-91402819D01*
X65230666Y-91402819D02*
X65325904Y-91450438D01*
X65325904Y-91450438D02*
X65373523Y-91498057D01*
X65373523Y-91498057D02*
X65421142Y-91593295D01*
X65421142Y-91593295D02*
X65421142Y-91688533D01*
X65421142Y-91688533D02*
X65373523Y-91831390D01*
X65373523Y-91831390D02*
X64802095Y-92402819D01*
X64802095Y-92402819D02*
X65421142Y-92402819D01*
X65849714Y-92402819D02*
X65849714Y-91402819D01*
X65849714Y-91402819D02*
X66421142Y-92402819D01*
X66421142Y-92402819D02*
X66421142Y-91402819D01*
X67373523Y-91402819D02*
X66897333Y-91402819D01*
X66897333Y-91402819D02*
X66849714Y-91879009D01*
X66849714Y-91879009D02*
X66897333Y-91831390D01*
X66897333Y-91831390D02*
X66992571Y-91783771D01*
X66992571Y-91783771D02*
X67230666Y-91783771D01*
X67230666Y-91783771D02*
X67325904Y-91831390D01*
X67325904Y-91831390D02*
X67373523Y-91879009D01*
X67373523Y-91879009D02*
X67421142Y-91974247D01*
X67421142Y-91974247D02*
X67421142Y-92212342D01*
X67421142Y-92212342D02*
X67373523Y-92307580D01*
X67373523Y-92307580D02*
X67325904Y-92355200D01*
X67325904Y-92355200D02*
X67230666Y-92402819D01*
X67230666Y-92402819D02*
X66992571Y-92402819D01*
X66992571Y-92402819D02*
X66897333Y-92355200D01*
X66897333Y-92355200D02*
X66849714Y-92307580D01*
X68278285Y-91736152D02*
X68278285Y-92402819D01*
X68040190Y-91355200D02*
X67802095Y-92069485D01*
X67802095Y-92069485D02*
X68421142Y-92069485D01*
X69278285Y-91402819D02*
X68802095Y-91402819D01*
X68802095Y-91402819D02*
X68754476Y-91879009D01*
X68754476Y-91879009D02*
X68802095Y-91831390D01*
X68802095Y-91831390D02*
X68897333Y-91783771D01*
X68897333Y-91783771D02*
X69135428Y-91783771D01*
X69135428Y-91783771D02*
X69230666Y-91831390D01*
X69230666Y-91831390D02*
X69278285Y-91879009D01*
X69278285Y-91879009D02*
X69325904Y-91974247D01*
X69325904Y-91974247D02*
X69325904Y-92212342D01*
X69325904Y-92212342D02*
X69278285Y-92307580D01*
X69278285Y-92307580D02*
X69230666Y-92355200D01*
X69230666Y-92355200D02*
X69135428Y-92402819D01*
X69135428Y-92402819D02*
X68897333Y-92402819D01*
X68897333Y-92402819D02*
X68802095Y-92355200D01*
X68802095Y-92355200D02*
X68754476Y-92307580D01*
X69659238Y-91402819D02*
X70325904Y-91402819D01*
X70325904Y-91402819D02*
X69897333Y-92402819D01*
X67926295Y-112185333D02*
X67926295Y-112642476D01*
X67926295Y-112413904D02*
X67126295Y-112413904D01*
X67126295Y-112413904D02*
X67240580Y-112490095D01*
X67240580Y-112490095D02*
X67316771Y-112566285D01*
X67316771Y-112566285D02*
X67354866Y-112642476D01*
X67126295Y-111690094D02*
X67126295Y-111613904D01*
X67126295Y-111613904D02*
X67164390Y-111537713D01*
X67164390Y-111537713D02*
X67202485Y-111499618D01*
X67202485Y-111499618D02*
X67278676Y-111461523D01*
X67278676Y-111461523D02*
X67431057Y-111423428D01*
X67431057Y-111423428D02*
X67621533Y-111423428D01*
X67621533Y-111423428D02*
X67773914Y-111461523D01*
X67773914Y-111461523D02*
X67850104Y-111499618D01*
X67850104Y-111499618D02*
X67888200Y-111537713D01*
X67888200Y-111537713D02*
X67926295Y-111613904D01*
X67926295Y-111613904D02*
X67926295Y-111690094D01*
X67926295Y-111690094D02*
X67888200Y-111766285D01*
X67888200Y-111766285D02*
X67850104Y-111804380D01*
X67850104Y-111804380D02*
X67773914Y-111842475D01*
X67773914Y-111842475D02*
X67621533Y-111880571D01*
X67621533Y-111880571D02*
X67431057Y-111880571D01*
X67431057Y-111880571D02*
X67278676Y-111842475D01*
X67278676Y-111842475D02*
X67202485Y-111804380D01*
X67202485Y-111804380D02*
X67164390Y-111766285D01*
X67164390Y-111766285D02*
X67126295Y-111690094D01*
X67126295Y-110928189D02*
X67126295Y-110851999D01*
X67126295Y-110851999D02*
X67164390Y-110775808D01*
X67164390Y-110775808D02*
X67202485Y-110737713D01*
X67202485Y-110737713D02*
X67278676Y-110699618D01*
X67278676Y-110699618D02*
X67431057Y-110661523D01*
X67431057Y-110661523D02*
X67621533Y-110661523D01*
X67621533Y-110661523D02*
X67773914Y-110699618D01*
X67773914Y-110699618D02*
X67850104Y-110737713D01*
X67850104Y-110737713D02*
X67888200Y-110775808D01*
X67888200Y-110775808D02*
X67926295Y-110851999D01*
X67926295Y-110851999D02*
X67926295Y-110928189D01*
X67926295Y-110928189D02*
X67888200Y-111004380D01*
X67888200Y-111004380D02*
X67850104Y-111042475D01*
X67850104Y-111042475D02*
X67773914Y-111080570D01*
X67773914Y-111080570D02*
X67621533Y-111118666D01*
X67621533Y-111118666D02*
X67431057Y-111118666D01*
X67431057Y-111118666D02*
X67278676Y-111080570D01*
X67278676Y-111080570D02*
X67202485Y-111042475D01*
X67202485Y-111042475D02*
X67164390Y-111004380D01*
X67164390Y-111004380D02*
X67126295Y-110928189D01*
X67926295Y-110318665D02*
X67126295Y-110318665D01*
X67926295Y-109861522D02*
X67469152Y-110204380D01*
X67126295Y-109861522D02*
X67583438Y-110318665D01*
X103206666Y-92818295D02*
X102749523Y-92818295D01*
X102978095Y-92818295D02*
X102978095Y-92018295D01*
X102978095Y-92018295D02*
X102901904Y-92132580D01*
X102901904Y-92132580D02*
X102825714Y-92208771D01*
X102825714Y-92208771D02*
X102749523Y-92246866D01*
X103701905Y-92018295D02*
X103778095Y-92018295D01*
X103778095Y-92018295D02*
X103854286Y-92056390D01*
X103854286Y-92056390D02*
X103892381Y-92094485D01*
X103892381Y-92094485D02*
X103930476Y-92170676D01*
X103930476Y-92170676D02*
X103968571Y-92323057D01*
X103968571Y-92323057D02*
X103968571Y-92513533D01*
X103968571Y-92513533D02*
X103930476Y-92665914D01*
X103930476Y-92665914D02*
X103892381Y-92742104D01*
X103892381Y-92742104D02*
X103854286Y-92780200D01*
X103854286Y-92780200D02*
X103778095Y-92818295D01*
X103778095Y-92818295D02*
X103701905Y-92818295D01*
X103701905Y-92818295D02*
X103625714Y-92780200D01*
X103625714Y-92780200D02*
X103587619Y-92742104D01*
X103587619Y-92742104D02*
X103549524Y-92665914D01*
X103549524Y-92665914D02*
X103511428Y-92513533D01*
X103511428Y-92513533D02*
X103511428Y-92323057D01*
X103511428Y-92323057D02*
X103549524Y-92170676D01*
X103549524Y-92170676D02*
X103587619Y-92094485D01*
X103587619Y-92094485D02*
X103625714Y-92056390D01*
X103625714Y-92056390D02*
X103701905Y-92018295D01*
X104463810Y-92018295D02*
X104540000Y-92018295D01*
X104540000Y-92018295D02*
X104616191Y-92056390D01*
X104616191Y-92056390D02*
X104654286Y-92094485D01*
X104654286Y-92094485D02*
X104692381Y-92170676D01*
X104692381Y-92170676D02*
X104730476Y-92323057D01*
X104730476Y-92323057D02*
X104730476Y-92513533D01*
X104730476Y-92513533D02*
X104692381Y-92665914D01*
X104692381Y-92665914D02*
X104654286Y-92742104D01*
X104654286Y-92742104D02*
X104616191Y-92780200D01*
X104616191Y-92780200D02*
X104540000Y-92818295D01*
X104540000Y-92818295D02*
X104463810Y-92818295D01*
X104463810Y-92818295D02*
X104387619Y-92780200D01*
X104387619Y-92780200D02*
X104349524Y-92742104D01*
X104349524Y-92742104D02*
X104311429Y-92665914D01*
X104311429Y-92665914D02*
X104273333Y-92513533D01*
X104273333Y-92513533D02*
X104273333Y-92323057D01*
X104273333Y-92323057D02*
X104311429Y-92170676D01*
X104311429Y-92170676D02*
X104349524Y-92094485D01*
X104349524Y-92094485D02*
X104387619Y-92056390D01*
X104387619Y-92056390D02*
X104463810Y-92018295D01*
X105073334Y-92818295D02*
X105073334Y-92018295D01*
X105530477Y-92818295D02*
X105187619Y-92361152D01*
X105530477Y-92018295D02*
X105073334Y-92475438D01*
X139135295Y-109937428D02*
X139135295Y-110318380D01*
X139135295Y-110318380D02*
X139516247Y-110356476D01*
X139516247Y-110356476D02*
X139478152Y-110318380D01*
X139478152Y-110318380D02*
X139440057Y-110242190D01*
X139440057Y-110242190D02*
X139440057Y-110051714D01*
X139440057Y-110051714D02*
X139478152Y-109975523D01*
X139478152Y-109975523D02*
X139516247Y-109937428D01*
X139516247Y-109937428D02*
X139592438Y-109899333D01*
X139592438Y-109899333D02*
X139782914Y-109899333D01*
X139782914Y-109899333D02*
X139859104Y-109937428D01*
X139859104Y-109937428D02*
X139897200Y-109975523D01*
X139897200Y-109975523D02*
X139935295Y-110051714D01*
X139935295Y-110051714D02*
X139935295Y-110242190D01*
X139935295Y-110242190D02*
X139897200Y-110318380D01*
X139897200Y-110318380D02*
X139859104Y-110356476D01*
X139935295Y-109137428D02*
X139935295Y-109594571D01*
X139935295Y-109365999D02*
X139135295Y-109365999D01*
X139135295Y-109365999D02*
X139249580Y-109442190D01*
X139249580Y-109442190D02*
X139325771Y-109518380D01*
X139325771Y-109518380D02*
X139363866Y-109594571D01*
X139135295Y-108642189D02*
X139135295Y-108565999D01*
X139135295Y-108565999D02*
X139173390Y-108489808D01*
X139173390Y-108489808D02*
X139211485Y-108451713D01*
X139211485Y-108451713D02*
X139287676Y-108413618D01*
X139287676Y-108413618D02*
X139440057Y-108375523D01*
X139440057Y-108375523D02*
X139630533Y-108375523D01*
X139630533Y-108375523D02*
X139782914Y-108413618D01*
X139782914Y-108413618D02*
X139859104Y-108451713D01*
X139859104Y-108451713D02*
X139897200Y-108489808D01*
X139897200Y-108489808D02*
X139935295Y-108565999D01*
X139935295Y-108565999D02*
X139935295Y-108642189D01*
X139935295Y-108642189D02*
X139897200Y-108718380D01*
X139897200Y-108718380D02*
X139859104Y-108756475D01*
X139859104Y-108756475D02*
X139782914Y-108794570D01*
X139782914Y-108794570D02*
X139630533Y-108832666D01*
X139630533Y-108832666D02*
X139440057Y-108832666D01*
X139440057Y-108832666D02*
X139287676Y-108794570D01*
X139287676Y-108794570D02*
X139211485Y-108756475D01*
X139211485Y-108756475D02*
X139173390Y-108718380D01*
X139173390Y-108718380D02*
X139135295Y-108642189D01*
X139935295Y-108032665D02*
X139135295Y-108032665D01*
X139935295Y-107575522D02*
X139478152Y-107918380D01*
X139135295Y-107575522D02*
X139592438Y-108032665D01*
X136075057Y-111424094D02*
X136027438Y-111376475D01*
X136027438Y-111376475D02*
X135979819Y-111281237D01*
X135979819Y-111281237D02*
X135979819Y-111043142D01*
X135979819Y-111043142D02*
X136027438Y-110947904D01*
X136027438Y-110947904D02*
X136075057Y-110900285D01*
X136075057Y-110900285D02*
X136170295Y-110852666D01*
X136170295Y-110852666D02*
X136265533Y-110852666D01*
X136265533Y-110852666D02*
X136408390Y-110900285D01*
X136408390Y-110900285D02*
X136979819Y-111471713D01*
X136979819Y-111471713D02*
X136979819Y-110852666D01*
X136075057Y-110471713D02*
X136027438Y-110424094D01*
X136027438Y-110424094D02*
X135979819Y-110328856D01*
X135979819Y-110328856D02*
X135979819Y-110090761D01*
X135979819Y-110090761D02*
X136027438Y-109995523D01*
X136027438Y-109995523D02*
X136075057Y-109947904D01*
X136075057Y-109947904D02*
X136170295Y-109900285D01*
X136170295Y-109900285D02*
X136265533Y-109900285D01*
X136265533Y-109900285D02*
X136408390Y-109947904D01*
X136408390Y-109947904D02*
X136979819Y-110519332D01*
X136979819Y-110519332D02*
X136979819Y-109900285D01*
X135979819Y-109566951D02*
X135979819Y-108947904D01*
X135979819Y-108947904D02*
X136360771Y-109281237D01*
X136360771Y-109281237D02*
X136360771Y-109138380D01*
X136360771Y-109138380D02*
X136408390Y-109043142D01*
X136408390Y-109043142D02*
X136456009Y-108995523D01*
X136456009Y-108995523D02*
X136551247Y-108947904D01*
X136551247Y-108947904D02*
X136789342Y-108947904D01*
X136789342Y-108947904D02*
X136884580Y-108995523D01*
X136884580Y-108995523D02*
X136932200Y-109043142D01*
X136932200Y-109043142D02*
X136979819Y-109138380D01*
X136979819Y-109138380D02*
X136979819Y-109424094D01*
X136979819Y-109424094D02*
X136932200Y-109519332D01*
X136932200Y-109519332D02*
X136884580Y-109566951D01*
X128733666Y-103740295D02*
X128276523Y-103740295D01*
X128505095Y-103740295D02*
X128505095Y-102940295D01*
X128505095Y-102940295D02*
X128428904Y-103054580D01*
X128428904Y-103054580D02*
X128352714Y-103130771D01*
X128352714Y-103130771D02*
X128276523Y-103168866D01*
X129457476Y-102940295D02*
X129076524Y-102940295D01*
X129076524Y-102940295D02*
X129038428Y-103321247D01*
X129038428Y-103321247D02*
X129076524Y-103283152D01*
X129076524Y-103283152D02*
X129152714Y-103245057D01*
X129152714Y-103245057D02*
X129343190Y-103245057D01*
X129343190Y-103245057D02*
X129419381Y-103283152D01*
X129419381Y-103283152D02*
X129457476Y-103321247D01*
X129457476Y-103321247D02*
X129495571Y-103397438D01*
X129495571Y-103397438D02*
X129495571Y-103587914D01*
X129495571Y-103587914D02*
X129457476Y-103664104D01*
X129457476Y-103664104D02*
X129419381Y-103702200D01*
X129419381Y-103702200D02*
X129343190Y-103740295D01*
X129343190Y-103740295D02*
X129152714Y-103740295D01*
X129152714Y-103740295D02*
X129076524Y-103702200D01*
X129076524Y-103702200D02*
X129038428Y-103664104D01*
X129990810Y-102940295D02*
X130067000Y-102940295D01*
X130067000Y-102940295D02*
X130143191Y-102978390D01*
X130143191Y-102978390D02*
X130181286Y-103016485D01*
X130181286Y-103016485D02*
X130219381Y-103092676D01*
X130219381Y-103092676D02*
X130257476Y-103245057D01*
X130257476Y-103245057D02*
X130257476Y-103435533D01*
X130257476Y-103435533D02*
X130219381Y-103587914D01*
X130219381Y-103587914D02*
X130181286Y-103664104D01*
X130181286Y-103664104D02*
X130143191Y-103702200D01*
X130143191Y-103702200D02*
X130067000Y-103740295D01*
X130067000Y-103740295D02*
X129990810Y-103740295D01*
X129990810Y-103740295D02*
X129914619Y-103702200D01*
X129914619Y-103702200D02*
X129876524Y-103664104D01*
X129876524Y-103664104D02*
X129838429Y-103587914D01*
X129838429Y-103587914D02*
X129800333Y-103435533D01*
X129800333Y-103435533D02*
X129800333Y-103245057D01*
X129800333Y-103245057D02*
X129838429Y-103092676D01*
X129838429Y-103092676D02*
X129876524Y-103016485D01*
X129876524Y-103016485D02*
X129914619Y-102978390D01*
X129914619Y-102978390D02*
X129990810Y-102940295D01*
X130600334Y-103740295D02*
X130600334Y-102940295D01*
X131057477Y-103740295D02*
X130714619Y-103283152D01*
X131057477Y-102940295D02*
X130600334Y-103397438D01*
X108594495Y-114370285D02*
X108632591Y-114332190D01*
X108632591Y-114332190D02*
X108708781Y-114294095D01*
X108708781Y-114294095D02*
X108899257Y-114294095D01*
X108899257Y-114294095D02*
X108975448Y-114332190D01*
X108975448Y-114332190D02*
X109013543Y-114370285D01*
X109013543Y-114370285D02*
X109051638Y-114446476D01*
X109051638Y-114446476D02*
X109051638Y-114522666D01*
X109051638Y-114522666D02*
X109013543Y-114636952D01*
X109013543Y-114636952D02*
X108556400Y-115094095D01*
X108556400Y-115094095D02*
X109051638Y-115094095D01*
X109356400Y-114370285D02*
X109394496Y-114332190D01*
X109394496Y-114332190D02*
X109470686Y-114294095D01*
X109470686Y-114294095D02*
X109661162Y-114294095D01*
X109661162Y-114294095D02*
X109737353Y-114332190D01*
X109737353Y-114332190D02*
X109775448Y-114370285D01*
X109775448Y-114370285D02*
X109813543Y-114446476D01*
X109813543Y-114446476D02*
X109813543Y-114522666D01*
X109813543Y-114522666D02*
X109775448Y-114636952D01*
X109775448Y-114636952D02*
X109318305Y-115094095D01*
X109318305Y-115094095D02*
X109813543Y-115094095D01*
X110308782Y-114294095D02*
X110384972Y-114294095D01*
X110384972Y-114294095D02*
X110461163Y-114332190D01*
X110461163Y-114332190D02*
X110499258Y-114370285D01*
X110499258Y-114370285D02*
X110537353Y-114446476D01*
X110537353Y-114446476D02*
X110575448Y-114598857D01*
X110575448Y-114598857D02*
X110575448Y-114789333D01*
X110575448Y-114789333D02*
X110537353Y-114941714D01*
X110537353Y-114941714D02*
X110499258Y-115017904D01*
X110499258Y-115017904D02*
X110461163Y-115056000D01*
X110461163Y-115056000D02*
X110384972Y-115094095D01*
X110384972Y-115094095D02*
X110308782Y-115094095D01*
X110308782Y-115094095D02*
X110232591Y-115056000D01*
X110232591Y-115056000D02*
X110194496Y-115017904D01*
X110194496Y-115017904D02*
X110156401Y-114941714D01*
X110156401Y-114941714D02*
X110118305Y-114789333D01*
X110118305Y-114789333D02*
X110118305Y-114598857D01*
X110118305Y-114598857D02*
X110156401Y-114446476D01*
X110156401Y-114446476D02*
X110194496Y-114370285D01*
X110194496Y-114370285D02*
X110232591Y-114332190D01*
X110232591Y-114332190D02*
X110308782Y-114294095D01*
X110918306Y-114560761D02*
X110918306Y-115360761D01*
X111299258Y-114979809D02*
X111337353Y-115056000D01*
X111337353Y-115056000D02*
X111413544Y-115094095D01*
X110918306Y-114979809D02*
X110956401Y-115056000D01*
X110956401Y-115056000D02*
X111032591Y-115094095D01*
X111032591Y-115094095D02*
X111184972Y-115094095D01*
X111184972Y-115094095D02*
X111261163Y-115056000D01*
X111261163Y-115056000D02*
X111299258Y-114979809D01*
X111299258Y-114979809D02*
X111299258Y-114560761D01*
X112023067Y-114675047D02*
X111756401Y-114675047D01*
X111756401Y-115094095D02*
X111756401Y-114294095D01*
X111756401Y-114294095D02*
X112137353Y-114294095D01*
X57858819Y-102774666D02*
X57858819Y-103346094D01*
X57858819Y-103060380D02*
X56858819Y-103060380D01*
X56858819Y-103060380D02*
X57001676Y-103155618D01*
X57001676Y-103155618D02*
X57096914Y-103250856D01*
X57096914Y-103250856D02*
X57144533Y-103346094D01*
X56858819Y-102155618D02*
X56858819Y-102060380D01*
X56858819Y-102060380D02*
X56906438Y-101965142D01*
X56906438Y-101965142D02*
X56954057Y-101917523D01*
X56954057Y-101917523D02*
X57049295Y-101869904D01*
X57049295Y-101869904D02*
X57239771Y-101822285D01*
X57239771Y-101822285D02*
X57477866Y-101822285D01*
X57477866Y-101822285D02*
X57668342Y-101869904D01*
X57668342Y-101869904D02*
X57763580Y-101917523D01*
X57763580Y-101917523D02*
X57811200Y-101965142D01*
X57811200Y-101965142D02*
X57858819Y-102060380D01*
X57858819Y-102060380D02*
X57858819Y-102155618D01*
X57858819Y-102155618D02*
X57811200Y-102250856D01*
X57811200Y-102250856D02*
X57763580Y-102298475D01*
X57763580Y-102298475D02*
X57668342Y-102346094D01*
X57668342Y-102346094D02*
X57477866Y-102393713D01*
X57477866Y-102393713D02*
X57239771Y-102393713D01*
X57239771Y-102393713D02*
X57049295Y-102346094D01*
X57049295Y-102346094D02*
X56954057Y-102298475D01*
X56954057Y-102298475D02*
X56906438Y-102250856D01*
X56906438Y-102250856D02*
X56858819Y-102155618D01*
X56858819Y-101488951D02*
X56858819Y-100869904D01*
X56858819Y-100869904D02*
X57239771Y-101203237D01*
X57239771Y-101203237D02*
X57239771Y-101060380D01*
X57239771Y-101060380D02*
X57287390Y-100965142D01*
X57287390Y-100965142D02*
X57335009Y-100917523D01*
X57335009Y-100917523D02*
X57430247Y-100869904D01*
X57430247Y-100869904D02*
X57668342Y-100869904D01*
X57668342Y-100869904D02*
X57763580Y-100917523D01*
X57763580Y-100917523D02*
X57811200Y-100965142D01*
X57811200Y-100965142D02*
X57858819Y-101060380D01*
X57858819Y-101060380D02*
X57858819Y-101346094D01*
X57858819Y-101346094D02*
X57811200Y-101441332D01*
X57811200Y-101441332D02*
X57763580Y-101488951D01*
X73742666Y-95104295D02*
X73285523Y-95104295D01*
X73514095Y-95104295D02*
X73514095Y-94304295D01*
X73514095Y-94304295D02*
X73437904Y-94418580D01*
X73437904Y-94418580D02*
X73361714Y-94494771D01*
X73361714Y-94494771D02*
X73285523Y-94532866D01*
X74237905Y-94304295D02*
X74314095Y-94304295D01*
X74314095Y-94304295D02*
X74390286Y-94342390D01*
X74390286Y-94342390D02*
X74428381Y-94380485D01*
X74428381Y-94380485D02*
X74466476Y-94456676D01*
X74466476Y-94456676D02*
X74504571Y-94609057D01*
X74504571Y-94609057D02*
X74504571Y-94799533D01*
X74504571Y-94799533D02*
X74466476Y-94951914D01*
X74466476Y-94951914D02*
X74428381Y-95028104D01*
X74428381Y-95028104D02*
X74390286Y-95066200D01*
X74390286Y-95066200D02*
X74314095Y-95104295D01*
X74314095Y-95104295D02*
X74237905Y-95104295D01*
X74237905Y-95104295D02*
X74161714Y-95066200D01*
X74161714Y-95066200D02*
X74123619Y-95028104D01*
X74123619Y-95028104D02*
X74085524Y-94951914D01*
X74085524Y-94951914D02*
X74047428Y-94799533D01*
X74047428Y-94799533D02*
X74047428Y-94609057D01*
X74047428Y-94609057D02*
X74085524Y-94456676D01*
X74085524Y-94456676D02*
X74123619Y-94380485D01*
X74123619Y-94380485D02*
X74161714Y-94342390D01*
X74161714Y-94342390D02*
X74237905Y-94304295D01*
X74999810Y-94304295D02*
X75076000Y-94304295D01*
X75076000Y-94304295D02*
X75152191Y-94342390D01*
X75152191Y-94342390D02*
X75190286Y-94380485D01*
X75190286Y-94380485D02*
X75228381Y-94456676D01*
X75228381Y-94456676D02*
X75266476Y-94609057D01*
X75266476Y-94609057D02*
X75266476Y-94799533D01*
X75266476Y-94799533D02*
X75228381Y-94951914D01*
X75228381Y-94951914D02*
X75190286Y-95028104D01*
X75190286Y-95028104D02*
X75152191Y-95066200D01*
X75152191Y-95066200D02*
X75076000Y-95104295D01*
X75076000Y-95104295D02*
X74999810Y-95104295D01*
X74999810Y-95104295D02*
X74923619Y-95066200D01*
X74923619Y-95066200D02*
X74885524Y-95028104D01*
X74885524Y-95028104D02*
X74847429Y-94951914D01*
X74847429Y-94951914D02*
X74809333Y-94799533D01*
X74809333Y-94799533D02*
X74809333Y-94609057D01*
X74809333Y-94609057D02*
X74847429Y-94456676D01*
X74847429Y-94456676D02*
X74885524Y-94380485D01*
X74885524Y-94380485D02*
X74923619Y-94342390D01*
X74923619Y-94342390D02*
X74999810Y-94304295D01*
X75609334Y-95104295D02*
X75609334Y-94304295D01*
X76066477Y-95104295D02*
X75723619Y-94647152D01*
X76066477Y-94304295D02*
X75609334Y-94761438D01*
X112528475Y-118510485D02*
X112566571Y-118472390D01*
X112566571Y-118472390D02*
X112642761Y-118434295D01*
X112642761Y-118434295D02*
X112833237Y-118434295D01*
X112833237Y-118434295D02*
X112909428Y-118472390D01*
X112909428Y-118472390D02*
X112947523Y-118510485D01*
X112947523Y-118510485D02*
X112985618Y-118586676D01*
X112985618Y-118586676D02*
X112985618Y-118662866D01*
X112985618Y-118662866D02*
X112947523Y-118777152D01*
X112947523Y-118777152D02*
X112490380Y-119234295D01*
X112490380Y-119234295D02*
X112985618Y-119234295D01*
X113290380Y-118510485D02*
X113328476Y-118472390D01*
X113328476Y-118472390D02*
X113404666Y-118434295D01*
X113404666Y-118434295D02*
X113595142Y-118434295D01*
X113595142Y-118434295D02*
X113671333Y-118472390D01*
X113671333Y-118472390D02*
X113709428Y-118510485D01*
X113709428Y-118510485D02*
X113747523Y-118586676D01*
X113747523Y-118586676D02*
X113747523Y-118662866D01*
X113747523Y-118662866D02*
X113709428Y-118777152D01*
X113709428Y-118777152D02*
X113252285Y-119234295D01*
X113252285Y-119234295D02*
X113747523Y-119234295D01*
X114090381Y-119234295D02*
X114090381Y-118434295D01*
X114547524Y-119234295D02*
X114204666Y-118777152D01*
X114547524Y-118434295D02*
X114090381Y-118891438D01*
X121353819Y-101740666D02*
X121353819Y-102312094D01*
X121353819Y-102026380D02*
X120353819Y-102026380D01*
X120353819Y-102026380D02*
X120496676Y-102121618D01*
X120496676Y-102121618D02*
X120591914Y-102216856D01*
X120591914Y-102216856D02*
X120639533Y-102312094D01*
X120353819Y-101121618D02*
X120353819Y-101026380D01*
X120353819Y-101026380D02*
X120401438Y-100931142D01*
X120401438Y-100931142D02*
X120449057Y-100883523D01*
X120449057Y-100883523D02*
X120544295Y-100835904D01*
X120544295Y-100835904D02*
X120734771Y-100788285D01*
X120734771Y-100788285D02*
X120972866Y-100788285D01*
X120972866Y-100788285D02*
X121163342Y-100835904D01*
X121163342Y-100835904D02*
X121258580Y-100883523D01*
X121258580Y-100883523D02*
X121306200Y-100931142D01*
X121306200Y-100931142D02*
X121353819Y-101026380D01*
X121353819Y-101026380D02*
X121353819Y-101121618D01*
X121353819Y-101121618D02*
X121306200Y-101216856D01*
X121306200Y-101216856D02*
X121258580Y-101264475D01*
X121258580Y-101264475D02*
X121163342Y-101312094D01*
X121163342Y-101312094D02*
X120972866Y-101359713D01*
X120972866Y-101359713D02*
X120734771Y-101359713D01*
X120734771Y-101359713D02*
X120544295Y-101312094D01*
X120544295Y-101312094D02*
X120449057Y-101264475D01*
X120449057Y-101264475D02*
X120401438Y-101216856D01*
X120401438Y-101216856D02*
X120353819Y-101121618D01*
X120353819Y-100169237D02*
X120353819Y-100073999D01*
X120353819Y-100073999D02*
X120401438Y-99978761D01*
X120401438Y-99978761D02*
X120449057Y-99931142D01*
X120449057Y-99931142D02*
X120544295Y-99883523D01*
X120544295Y-99883523D02*
X120734771Y-99835904D01*
X120734771Y-99835904D02*
X120972866Y-99835904D01*
X120972866Y-99835904D02*
X121163342Y-99883523D01*
X121163342Y-99883523D02*
X121258580Y-99931142D01*
X121258580Y-99931142D02*
X121306200Y-99978761D01*
X121306200Y-99978761D02*
X121353819Y-100073999D01*
X121353819Y-100073999D02*
X121353819Y-100169237D01*
X121353819Y-100169237D02*
X121306200Y-100264475D01*
X121306200Y-100264475D02*
X121258580Y-100312094D01*
X121258580Y-100312094D02*
X121163342Y-100359713D01*
X121163342Y-100359713D02*
X120972866Y-100407332D01*
X120972866Y-100407332D02*
X120734771Y-100407332D01*
X120734771Y-100407332D02*
X120544295Y-100359713D01*
X120544295Y-100359713D02*
X120449057Y-100312094D01*
X120449057Y-100312094D02*
X120401438Y-100264475D01*
X120401438Y-100264475D02*
X120353819Y-100169237D01*
X121353819Y-99407332D02*
X120353819Y-99407332D01*
X121353819Y-98835904D02*
X120782390Y-99264475D01*
X120353819Y-98835904D02*
X120925247Y-99407332D01*
X127468523Y-110690819D02*
X126992333Y-110690819D01*
X126992333Y-110690819D02*
X126992333Y-109690819D01*
X127801857Y-110690819D02*
X127801857Y-109690819D01*
X127801857Y-109690819D02*
X128135190Y-110405104D01*
X128135190Y-110405104D02*
X128468523Y-109690819D01*
X128468523Y-109690819D02*
X128468523Y-110690819D01*
X128849476Y-109690819D02*
X129516142Y-109690819D01*
X129516142Y-109690819D02*
X129087571Y-110690819D01*
X130325666Y-110024152D02*
X130325666Y-110690819D01*
X130087571Y-109643200D02*
X129849476Y-110357485D01*
X129849476Y-110357485D02*
X130468523Y-110357485D01*
X131373285Y-110690819D02*
X130801857Y-110690819D01*
X131087571Y-110690819D02*
X131087571Y-109690819D01*
X131087571Y-109690819D02*
X130992333Y-109833676D01*
X130992333Y-109833676D02*
X130897095Y-109928914D01*
X130897095Y-109928914D02*
X130801857Y-109976533D01*
X92281714Y-111056057D02*
X92329333Y-111008438D01*
X92329333Y-111008438D02*
X92424571Y-110960819D01*
X92424571Y-110960819D02*
X92662666Y-110960819D01*
X92662666Y-110960819D02*
X92757904Y-111008438D01*
X92757904Y-111008438D02*
X92805523Y-111056057D01*
X92805523Y-111056057D02*
X92853142Y-111151295D01*
X92853142Y-111151295D02*
X92853142Y-111246533D01*
X92853142Y-111246533D02*
X92805523Y-111389390D01*
X92805523Y-111389390D02*
X92234095Y-111960819D01*
X92234095Y-111960819D02*
X92853142Y-111960819D01*
X93281714Y-111960819D02*
X93281714Y-110960819D01*
X93281714Y-110960819D02*
X93853142Y-111960819D01*
X93853142Y-111960819D02*
X93853142Y-110960819D01*
X94234095Y-110960819D02*
X94853142Y-110960819D01*
X94853142Y-110960819D02*
X94519809Y-111341771D01*
X94519809Y-111341771D02*
X94662666Y-111341771D01*
X94662666Y-111341771D02*
X94757904Y-111389390D01*
X94757904Y-111389390D02*
X94805523Y-111437009D01*
X94805523Y-111437009D02*
X94853142Y-111532247D01*
X94853142Y-111532247D02*
X94853142Y-111770342D01*
X94853142Y-111770342D02*
X94805523Y-111865580D01*
X94805523Y-111865580D02*
X94757904Y-111913200D01*
X94757904Y-111913200D02*
X94662666Y-111960819D01*
X94662666Y-111960819D02*
X94376952Y-111960819D01*
X94376952Y-111960819D02*
X94281714Y-111913200D01*
X94281714Y-111913200D02*
X94234095Y-111865580D01*
X95329333Y-111960819D02*
X95519809Y-111960819D01*
X95519809Y-111960819D02*
X95615047Y-111913200D01*
X95615047Y-111913200D02*
X95662666Y-111865580D01*
X95662666Y-111865580D02*
X95757904Y-111722723D01*
X95757904Y-111722723D02*
X95805523Y-111532247D01*
X95805523Y-111532247D02*
X95805523Y-111151295D01*
X95805523Y-111151295D02*
X95757904Y-111056057D01*
X95757904Y-111056057D02*
X95710285Y-111008438D01*
X95710285Y-111008438D02*
X95615047Y-110960819D01*
X95615047Y-110960819D02*
X95424571Y-110960819D01*
X95424571Y-110960819D02*
X95329333Y-111008438D01*
X95329333Y-111008438D02*
X95281714Y-111056057D01*
X95281714Y-111056057D02*
X95234095Y-111151295D01*
X95234095Y-111151295D02*
X95234095Y-111389390D01*
X95234095Y-111389390D02*
X95281714Y-111484628D01*
X95281714Y-111484628D02*
X95329333Y-111532247D01*
X95329333Y-111532247D02*
X95424571Y-111579866D01*
X95424571Y-111579866D02*
X95615047Y-111579866D01*
X95615047Y-111579866D02*
X95710285Y-111532247D01*
X95710285Y-111532247D02*
X95757904Y-111484628D01*
X95757904Y-111484628D02*
X95805523Y-111389390D01*
X96424571Y-110960819D02*
X96519809Y-110960819D01*
X96519809Y-110960819D02*
X96615047Y-111008438D01*
X96615047Y-111008438D02*
X96662666Y-111056057D01*
X96662666Y-111056057D02*
X96710285Y-111151295D01*
X96710285Y-111151295D02*
X96757904Y-111341771D01*
X96757904Y-111341771D02*
X96757904Y-111579866D01*
X96757904Y-111579866D02*
X96710285Y-111770342D01*
X96710285Y-111770342D02*
X96662666Y-111865580D01*
X96662666Y-111865580D02*
X96615047Y-111913200D01*
X96615047Y-111913200D02*
X96519809Y-111960819D01*
X96519809Y-111960819D02*
X96424571Y-111960819D01*
X96424571Y-111960819D02*
X96329333Y-111913200D01*
X96329333Y-111913200D02*
X96281714Y-111865580D01*
X96281714Y-111865580D02*
X96234095Y-111770342D01*
X96234095Y-111770342D02*
X96186476Y-111579866D01*
X96186476Y-111579866D02*
X96186476Y-111341771D01*
X96186476Y-111341771D02*
X96234095Y-111151295D01*
X96234095Y-111151295D02*
X96281714Y-111056057D01*
X96281714Y-111056057D02*
X96329333Y-111008438D01*
X96329333Y-111008438D02*
X96424571Y-110960819D01*
X97615047Y-111294152D02*
X97615047Y-111960819D01*
X97376952Y-110913200D02*
X97138857Y-111627485D01*
X97138857Y-111627485D02*
X97757904Y-111627485D01*
X57766295Y-111804381D02*
X57766295Y-112261524D01*
X57766295Y-112032952D02*
X56966295Y-112032952D01*
X56966295Y-112032952D02*
X57080580Y-112109143D01*
X57080580Y-112109143D02*
X57156771Y-112185333D01*
X57156771Y-112185333D02*
X57194866Y-112261524D01*
X56966295Y-111309142D02*
X56966295Y-111232952D01*
X56966295Y-111232952D02*
X57004390Y-111156761D01*
X57004390Y-111156761D02*
X57042485Y-111118666D01*
X57042485Y-111118666D02*
X57118676Y-111080571D01*
X57118676Y-111080571D02*
X57271057Y-111042476D01*
X57271057Y-111042476D02*
X57461533Y-111042476D01*
X57461533Y-111042476D02*
X57613914Y-111080571D01*
X57613914Y-111080571D02*
X57690104Y-111118666D01*
X57690104Y-111118666D02*
X57728200Y-111156761D01*
X57728200Y-111156761D02*
X57766295Y-111232952D01*
X57766295Y-111232952D02*
X57766295Y-111309142D01*
X57766295Y-111309142D02*
X57728200Y-111385333D01*
X57728200Y-111385333D02*
X57690104Y-111423428D01*
X57690104Y-111423428D02*
X57613914Y-111461523D01*
X57613914Y-111461523D02*
X57461533Y-111499619D01*
X57461533Y-111499619D02*
X57271057Y-111499619D01*
X57271057Y-111499619D02*
X57118676Y-111461523D01*
X57118676Y-111461523D02*
X57042485Y-111423428D01*
X57042485Y-111423428D02*
X57004390Y-111385333D01*
X57004390Y-111385333D02*
X56966295Y-111309142D01*
X57766295Y-110699618D02*
X56966295Y-110699618D01*
X57766295Y-110242475D02*
X57309152Y-110585333D01*
X56966295Y-110242475D02*
X57423438Y-110699618D01*
X94313714Y-91498057D02*
X94361333Y-91450438D01*
X94361333Y-91450438D02*
X94456571Y-91402819D01*
X94456571Y-91402819D02*
X94694666Y-91402819D01*
X94694666Y-91402819D02*
X94789904Y-91450438D01*
X94789904Y-91450438D02*
X94837523Y-91498057D01*
X94837523Y-91498057D02*
X94885142Y-91593295D01*
X94885142Y-91593295D02*
X94885142Y-91688533D01*
X94885142Y-91688533D02*
X94837523Y-91831390D01*
X94837523Y-91831390D02*
X94266095Y-92402819D01*
X94266095Y-92402819D02*
X94885142Y-92402819D01*
X95313714Y-92402819D02*
X95313714Y-91402819D01*
X95313714Y-91402819D02*
X95885142Y-92402819D01*
X95885142Y-92402819D02*
X95885142Y-91402819D01*
X96837523Y-91402819D02*
X96361333Y-91402819D01*
X96361333Y-91402819D02*
X96313714Y-91879009D01*
X96313714Y-91879009D02*
X96361333Y-91831390D01*
X96361333Y-91831390D02*
X96456571Y-91783771D01*
X96456571Y-91783771D02*
X96694666Y-91783771D01*
X96694666Y-91783771D02*
X96789904Y-91831390D01*
X96789904Y-91831390D02*
X96837523Y-91879009D01*
X96837523Y-91879009D02*
X96885142Y-91974247D01*
X96885142Y-91974247D02*
X96885142Y-92212342D01*
X96885142Y-92212342D02*
X96837523Y-92307580D01*
X96837523Y-92307580D02*
X96789904Y-92355200D01*
X96789904Y-92355200D02*
X96694666Y-92402819D01*
X96694666Y-92402819D02*
X96456571Y-92402819D01*
X96456571Y-92402819D02*
X96361333Y-92355200D01*
X96361333Y-92355200D02*
X96313714Y-92307580D01*
X97742285Y-91736152D02*
X97742285Y-92402819D01*
X97504190Y-91355200D02*
X97266095Y-92069485D01*
X97266095Y-92069485D02*
X97885142Y-92069485D01*
X98742285Y-91402819D02*
X98266095Y-91402819D01*
X98266095Y-91402819D02*
X98218476Y-91879009D01*
X98218476Y-91879009D02*
X98266095Y-91831390D01*
X98266095Y-91831390D02*
X98361333Y-91783771D01*
X98361333Y-91783771D02*
X98599428Y-91783771D01*
X98599428Y-91783771D02*
X98694666Y-91831390D01*
X98694666Y-91831390D02*
X98742285Y-91879009D01*
X98742285Y-91879009D02*
X98789904Y-91974247D01*
X98789904Y-91974247D02*
X98789904Y-92212342D01*
X98789904Y-92212342D02*
X98742285Y-92307580D01*
X98742285Y-92307580D02*
X98694666Y-92355200D01*
X98694666Y-92355200D02*
X98599428Y-92402819D01*
X98599428Y-92402819D02*
X98361333Y-92402819D01*
X98361333Y-92402819D02*
X98266095Y-92355200D01*
X98266095Y-92355200D02*
X98218476Y-92307580D01*
X99123238Y-91402819D02*
X99789904Y-91402819D01*
X99789904Y-91402819D02*
X99361333Y-92402819D01*
X62034057Y-113966285D02*
X61986438Y-113918666D01*
X61986438Y-113918666D02*
X61938819Y-113823428D01*
X61938819Y-113823428D02*
X61938819Y-113585333D01*
X61938819Y-113585333D02*
X61986438Y-113490095D01*
X61986438Y-113490095D02*
X62034057Y-113442476D01*
X62034057Y-113442476D02*
X62129295Y-113394857D01*
X62129295Y-113394857D02*
X62224533Y-113394857D01*
X62224533Y-113394857D02*
X62367390Y-113442476D01*
X62367390Y-113442476D02*
X62938819Y-114013904D01*
X62938819Y-114013904D02*
X62938819Y-113394857D01*
X62938819Y-112966285D02*
X61938819Y-112966285D01*
X61938819Y-112966285D02*
X62938819Y-112394857D01*
X62938819Y-112394857D02*
X61938819Y-112394857D01*
X61938819Y-112013904D02*
X61938819Y-111394857D01*
X61938819Y-111394857D02*
X62319771Y-111728190D01*
X62319771Y-111728190D02*
X62319771Y-111585333D01*
X62319771Y-111585333D02*
X62367390Y-111490095D01*
X62367390Y-111490095D02*
X62415009Y-111442476D01*
X62415009Y-111442476D02*
X62510247Y-111394857D01*
X62510247Y-111394857D02*
X62748342Y-111394857D01*
X62748342Y-111394857D02*
X62843580Y-111442476D01*
X62843580Y-111442476D02*
X62891200Y-111490095D01*
X62891200Y-111490095D02*
X62938819Y-111585333D01*
X62938819Y-111585333D02*
X62938819Y-111871047D01*
X62938819Y-111871047D02*
X62891200Y-111966285D01*
X62891200Y-111966285D02*
X62843580Y-112013904D01*
X62938819Y-110918666D02*
X62938819Y-110728190D01*
X62938819Y-110728190D02*
X62891200Y-110632952D01*
X62891200Y-110632952D02*
X62843580Y-110585333D01*
X62843580Y-110585333D02*
X62700723Y-110490095D01*
X62700723Y-110490095D02*
X62510247Y-110442476D01*
X62510247Y-110442476D02*
X62129295Y-110442476D01*
X62129295Y-110442476D02*
X62034057Y-110490095D01*
X62034057Y-110490095D02*
X61986438Y-110537714D01*
X61986438Y-110537714D02*
X61938819Y-110632952D01*
X61938819Y-110632952D02*
X61938819Y-110823428D01*
X61938819Y-110823428D02*
X61986438Y-110918666D01*
X61986438Y-110918666D02*
X62034057Y-110966285D01*
X62034057Y-110966285D02*
X62129295Y-111013904D01*
X62129295Y-111013904D02*
X62367390Y-111013904D01*
X62367390Y-111013904D02*
X62462628Y-110966285D01*
X62462628Y-110966285D02*
X62510247Y-110918666D01*
X62510247Y-110918666D02*
X62557866Y-110823428D01*
X62557866Y-110823428D02*
X62557866Y-110632952D01*
X62557866Y-110632952D02*
X62510247Y-110537714D01*
X62510247Y-110537714D02*
X62462628Y-110490095D01*
X62462628Y-110490095D02*
X62367390Y-110442476D01*
X61938819Y-109823428D02*
X61938819Y-109728190D01*
X61938819Y-109728190D02*
X61986438Y-109632952D01*
X61986438Y-109632952D02*
X62034057Y-109585333D01*
X62034057Y-109585333D02*
X62129295Y-109537714D01*
X62129295Y-109537714D02*
X62319771Y-109490095D01*
X62319771Y-109490095D02*
X62557866Y-109490095D01*
X62557866Y-109490095D02*
X62748342Y-109537714D01*
X62748342Y-109537714D02*
X62843580Y-109585333D01*
X62843580Y-109585333D02*
X62891200Y-109632952D01*
X62891200Y-109632952D02*
X62938819Y-109728190D01*
X62938819Y-109728190D02*
X62938819Y-109823428D01*
X62938819Y-109823428D02*
X62891200Y-109918666D01*
X62891200Y-109918666D02*
X62843580Y-109966285D01*
X62843580Y-109966285D02*
X62748342Y-110013904D01*
X62748342Y-110013904D02*
X62557866Y-110061523D01*
X62557866Y-110061523D02*
X62319771Y-110061523D01*
X62319771Y-110061523D02*
X62129295Y-110013904D01*
X62129295Y-110013904D02*
X62034057Y-109966285D01*
X62034057Y-109966285D02*
X61986438Y-109918666D01*
X61986438Y-109918666D02*
X61938819Y-109823428D01*
X62272152Y-108632952D02*
X62938819Y-108632952D01*
X61891200Y-108871047D02*
X62605485Y-109109142D01*
X62605485Y-109109142D02*
X62605485Y-108490095D01*
X115970485Y-103371524D02*
X115932390Y-103333428D01*
X115932390Y-103333428D02*
X115894295Y-103257238D01*
X115894295Y-103257238D02*
X115894295Y-103066762D01*
X115894295Y-103066762D02*
X115932390Y-102990571D01*
X115932390Y-102990571D02*
X115970485Y-102952476D01*
X115970485Y-102952476D02*
X116046676Y-102914381D01*
X116046676Y-102914381D02*
X116122866Y-102914381D01*
X116122866Y-102914381D02*
X116237152Y-102952476D01*
X116237152Y-102952476D02*
X116694295Y-103409619D01*
X116694295Y-103409619D02*
X116694295Y-102914381D01*
X115970485Y-102609619D02*
X115932390Y-102571523D01*
X115932390Y-102571523D02*
X115894295Y-102495333D01*
X115894295Y-102495333D02*
X115894295Y-102304857D01*
X115894295Y-102304857D02*
X115932390Y-102228666D01*
X115932390Y-102228666D02*
X115970485Y-102190571D01*
X115970485Y-102190571D02*
X116046676Y-102152476D01*
X116046676Y-102152476D02*
X116122866Y-102152476D01*
X116122866Y-102152476D02*
X116237152Y-102190571D01*
X116237152Y-102190571D02*
X116694295Y-102647714D01*
X116694295Y-102647714D02*
X116694295Y-102152476D01*
X116694295Y-101809618D02*
X115894295Y-101809618D01*
X116694295Y-101352475D02*
X116237152Y-101695333D01*
X115894295Y-101352475D02*
X116351438Y-101809618D01*
X101352475Y-108096485D02*
X101390571Y-108058390D01*
X101390571Y-108058390D02*
X101466761Y-108020295D01*
X101466761Y-108020295D02*
X101657237Y-108020295D01*
X101657237Y-108020295D02*
X101733428Y-108058390D01*
X101733428Y-108058390D02*
X101771523Y-108096485D01*
X101771523Y-108096485D02*
X101809618Y-108172676D01*
X101809618Y-108172676D02*
X101809618Y-108248866D01*
X101809618Y-108248866D02*
X101771523Y-108363152D01*
X101771523Y-108363152D02*
X101314380Y-108820295D01*
X101314380Y-108820295D02*
X101809618Y-108820295D01*
X102114380Y-108096485D02*
X102152476Y-108058390D01*
X102152476Y-108058390D02*
X102228666Y-108020295D01*
X102228666Y-108020295D02*
X102419142Y-108020295D01*
X102419142Y-108020295D02*
X102495333Y-108058390D01*
X102495333Y-108058390D02*
X102533428Y-108096485D01*
X102533428Y-108096485D02*
X102571523Y-108172676D01*
X102571523Y-108172676D02*
X102571523Y-108248866D01*
X102571523Y-108248866D02*
X102533428Y-108363152D01*
X102533428Y-108363152D02*
X102076285Y-108820295D01*
X102076285Y-108820295D02*
X102571523Y-108820295D01*
X102914381Y-108820295D02*
X102914381Y-108020295D01*
X103371524Y-108820295D02*
X103028666Y-108363152D01*
X103371524Y-108020295D02*
X102914381Y-108477438D01*
X128428904Y-100654295D02*
X128924142Y-100654295D01*
X128924142Y-100654295D02*
X128657476Y-100959057D01*
X128657476Y-100959057D02*
X128771761Y-100959057D01*
X128771761Y-100959057D02*
X128847952Y-100997152D01*
X128847952Y-100997152D02*
X128886047Y-101035247D01*
X128886047Y-101035247D02*
X128924142Y-101111438D01*
X128924142Y-101111438D02*
X128924142Y-101301914D01*
X128924142Y-101301914D02*
X128886047Y-101378104D01*
X128886047Y-101378104D02*
X128847952Y-101416200D01*
X128847952Y-101416200D02*
X128771761Y-101454295D01*
X128771761Y-101454295D02*
X128543190Y-101454295D01*
X128543190Y-101454295D02*
X128466999Y-101416200D01*
X128466999Y-101416200D02*
X128428904Y-101378104D01*
X129267000Y-101378104D02*
X129305095Y-101416200D01*
X129305095Y-101416200D02*
X129267000Y-101454295D01*
X129267000Y-101454295D02*
X129228904Y-101416200D01*
X129228904Y-101416200D02*
X129267000Y-101378104D01*
X129267000Y-101378104D02*
X129267000Y-101454295D01*
X129686047Y-101454295D02*
X129838428Y-101454295D01*
X129838428Y-101454295D02*
X129914618Y-101416200D01*
X129914618Y-101416200D02*
X129952714Y-101378104D01*
X129952714Y-101378104D02*
X130028904Y-101263819D01*
X130028904Y-101263819D02*
X130066999Y-101111438D01*
X130066999Y-101111438D02*
X130066999Y-100806676D01*
X130066999Y-100806676D02*
X130028904Y-100730485D01*
X130028904Y-100730485D02*
X129990809Y-100692390D01*
X129990809Y-100692390D02*
X129914618Y-100654295D01*
X129914618Y-100654295D02*
X129762237Y-100654295D01*
X129762237Y-100654295D02*
X129686047Y-100692390D01*
X129686047Y-100692390D02*
X129647952Y-100730485D01*
X129647952Y-100730485D02*
X129609856Y-100806676D01*
X129609856Y-100806676D02*
X129609856Y-100997152D01*
X129609856Y-100997152D02*
X129647952Y-101073342D01*
X129647952Y-101073342D02*
X129686047Y-101111438D01*
X129686047Y-101111438D02*
X129762237Y-101149533D01*
X129762237Y-101149533D02*
X129914618Y-101149533D01*
X129914618Y-101149533D02*
X129990809Y-101111438D01*
X129990809Y-101111438D02*
X130028904Y-101073342D01*
X130028904Y-101073342D02*
X130066999Y-100997152D01*
X130409857Y-101454295D02*
X130409857Y-100654295D01*
X130867000Y-101454295D02*
X130524142Y-100997152D01*
X130867000Y-100654295D02*
X130409857Y-101111438D01*
X88754295Y-110495333D02*
X88754295Y-110952476D01*
X88754295Y-110723904D02*
X87954295Y-110723904D01*
X87954295Y-110723904D02*
X88068580Y-110800095D01*
X88068580Y-110800095D02*
X88144771Y-110876285D01*
X88144771Y-110876285D02*
X88182866Y-110952476D01*
X87954295Y-109771523D02*
X87954295Y-110152475D01*
X87954295Y-110152475D02*
X88335247Y-110190571D01*
X88335247Y-110190571D02*
X88297152Y-110152475D01*
X88297152Y-110152475D02*
X88259057Y-110076285D01*
X88259057Y-110076285D02*
X88259057Y-109885809D01*
X88259057Y-109885809D02*
X88297152Y-109809618D01*
X88297152Y-109809618D02*
X88335247Y-109771523D01*
X88335247Y-109771523D02*
X88411438Y-109733428D01*
X88411438Y-109733428D02*
X88601914Y-109733428D01*
X88601914Y-109733428D02*
X88678104Y-109771523D01*
X88678104Y-109771523D02*
X88716200Y-109809618D01*
X88716200Y-109809618D02*
X88754295Y-109885809D01*
X88754295Y-109885809D02*
X88754295Y-110076285D01*
X88754295Y-110076285D02*
X88716200Y-110152475D01*
X88716200Y-110152475D02*
X88678104Y-110190571D01*
X88220961Y-109047713D02*
X88754295Y-109047713D01*
X87916200Y-109238189D02*
X88487628Y-109428666D01*
X88487628Y-109428666D02*
X88487628Y-108933427D01*
X102578095Y-118434295D02*
X103111429Y-118434295D01*
X103111429Y-118434295D02*
X102578095Y-119234295D01*
X102578095Y-119234295D02*
X103111429Y-119234295D01*
X103340000Y-118434295D02*
X103873334Y-118434295D01*
X103873334Y-118434295D02*
X103530476Y-119234295D01*
X104178096Y-119158104D02*
X104216191Y-119196200D01*
X104216191Y-119196200D02*
X104178096Y-119234295D01*
X104178096Y-119234295D02*
X104140000Y-119196200D01*
X104140000Y-119196200D02*
X104178096Y-119158104D01*
X104178096Y-119158104D02*
X104178096Y-119234295D01*
X104940000Y-118434295D02*
X104559048Y-118434295D01*
X104559048Y-118434295D02*
X104520952Y-118815247D01*
X104520952Y-118815247D02*
X104559048Y-118777152D01*
X104559048Y-118777152D02*
X104635238Y-118739057D01*
X104635238Y-118739057D02*
X104825714Y-118739057D01*
X104825714Y-118739057D02*
X104901905Y-118777152D01*
X104901905Y-118777152D02*
X104940000Y-118815247D01*
X104940000Y-118815247D02*
X104978095Y-118891438D01*
X104978095Y-118891438D02*
X104978095Y-119081914D01*
X104978095Y-119081914D02*
X104940000Y-119158104D01*
X104940000Y-119158104D02*
X104901905Y-119196200D01*
X104901905Y-119196200D02*
X104825714Y-119234295D01*
X104825714Y-119234295D02*
X104635238Y-119234295D01*
X104635238Y-119234295D02*
X104559048Y-119196200D01*
X104559048Y-119196200D02*
X104520952Y-119158104D01*
X105206667Y-118434295D02*
X105473334Y-119234295D01*
X105473334Y-119234295D02*
X105740000Y-118434295D01*
X103206666Y-95104295D02*
X102749523Y-95104295D01*
X102978095Y-95104295D02*
X102978095Y-94304295D01*
X102978095Y-94304295D02*
X102901904Y-94418580D01*
X102901904Y-94418580D02*
X102825714Y-94494771D01*
X102825714Y-94494771D02*
X102749523Y-94532866D01*
X103701905Y-94304295D02*
X103778095Y-94304295D01*
X103778095Y-94304295D02*
X103854286Y-94342390D01*
X103854286Y-94342390D02*
X103892381Y-94380485D01*
X103892381Y-94380485D02*
X103930476Y-94456676D01*
X103930476Y-94456676D02*
X103968571Y-94609057D01*
X103968571Y-94609057D02*
X103968571Y-94799533D01*
X103968571Y-94799533D02*
X103930476Y-94951914D01*
X103930476Y-94951914D02*
X103892381Y-95028104D01*
X103892381Y-95028104D02*
X103854286Y-95066200D01*
X103854286Y-95066200D02*
X103778095Y-95104295D01*
X103778095Y-95104295D02*
X103701905Y-95104295D01*
X103701905Y-95104295D02*
X103625714Y-95066200D01*
X103625714Y-95066200D02*
X103587619Y-95028104D01*
X103587619Y-95028104D02*
X103549524Y-94951914D01*
X103549524Y-94951914D02*
X103511428Y-94799533D01*
X103511428Y-94799533D02*
X103511428Y-94609057D01*
X103511428Y-94609057D02*
X103549524Y-94456676D01*
X103549524Y-94456676D02*
X103587619Y-94380485D01*
X103587619Y-94380485D02*
X103625714Y-94342390D01*
X103625714Y-94342390D02*
X103701905Y-94304295D01*
X104463810Y-94304295D02*
X104540000Y-94304295D01*
X104540000Y-94304295D02*
X104616191Y-94342390D01*
X104616191Y-94342390D02*
X104654286Y-94380485D01*
X104654286Y-94380485D02*
X104692381Y-94456676D01*
X104692381Y-94456676D02*
X104730476Y-94609057D01*
X104730476Y-94609057D02*
X104730476Y-94799533D01*
X104730476Y-94799533D02*
X104692381Y-94951914D01*
X104692381Y-94951914D02*
X104654286Y-95028104D01*
X104654286Y-95028104D02*
X104616191Y-95066200D01*
X104616191Y-95066200D02*
X104540000Y-95104295D01*
X104540000Y-95104295D02*
X104463810Y-95104295D01*
X104463810Y-95104295D02*
X104387619Y-95066200D01*
X104387619Y-95066200D02*
X104349524Y-95028104D01*
X104349524Y-95028104D02*
X104311429Y-94951914D01*
X104311429Y-94951914D02*
X104273333Y-94799533D01*
X104273333Y-94799533D02*
X104273333Y-94609057D01*
X104273333Y-94609057D02*
X104311429Y-94456676D01*
X104311429Y-94456676D02*
X104349524Y-94380485D01*
X104349524Y-94380485D02*
X104387619Y-94342390D01*
X104387619Y-94342390D02*
X104463810Y-94304295D01*
X105073334Y-95104295D02*
X105073334Y-94304295D01*
X105530477Y-95104295D02*
X105187619Y-94647152D01*
X105530477Y-94304295D02*
X105073334Y-94761438D01*
X82658295Y-112185333D02*
X82658295Y-112642476D01*
X82658295Y-112413904D02*
X81858295Y-112413904D01*
X81858295Y-112413904D02*
X81972580Y-112490095D01*
X81972580Y-112490095D02*
X82048771Y-112566285D01*
X82048771Y-112566285D02*
X82086866Y-112642476D01*
X81858295Y-111690094D02*
X81858295Y-111613904D01*
X81858295Y-111613904D02*
X81896390Y-111537713D01*
X81896390Y-111537713D02*
X81934485Y-111499618D01*
X81934485Y-111499618D02*
X82010676Y-111461523D01*
X82010676Y-111461523D02*
X82163057Y-111423428D01*
X82163057Y-111423428D02*
X82353533Y-111423428D01*
X82353533Y-111423428D02*
X82505914Y-111461523D01*
X82505914Y-111461523D02*
X82582104Y-111499618D01*
X82582104Y-111499618D02*
X82620200Y-111537713D01*
X82620200Y-111537713D02*
X82658295Y-111613904D01*
X82658295Y-111613904D02*
X82658295Y-111690094D01*
X82658295Y-111690094D02*
X82620200Y-111766285D01*
X82620200Y-111766285D02*
X82582104Y-111804380D01*
X82582104Y-111804380D02*
X82505914Y-111842475D01*
X82505914Y-111842475D02*
X82353533Y-111880571D01*
X82353533Y-111880571D02*
X82163057Y-111880571D01*
X82163057Y-111880571D02*
X82010676Y-111842475D01*
X82010676Y-111842475D02*
X81934485Y-111804380D01*
X81934485Y-111804380D02*
X81896390Y-111766285D01*
X81896390Y-111766285D02*
X81858295Y-111690094D01*
X81858295Y-110928189D02*
X81858295Y-110851999D01*
X81858295Y-110851999D02*
X81896390Y-110775808D01*
X81896390Y-110775808D02*
X81934485Y-110737713D01*
X81934485Y-110737713D02*
X82010676Y-110699618D01*
X82010676Y-110699618D02*
X82163057Y-110661523D01*
X82163057Y-110661523D02*
X82353533Y-110661523D01*
X82353533Y-110661523D02*
X82505914Y-110699618D01*
X82505914Y-110699618D02*
X82582104Y-110737713D01*
X82582104Y-110737713D02*
X82620200Y-110775808D01*
X82620200Y-110775808D02*
X82658295Y-110851999D01*
X82658295Y-110851999D02*
X82658295Y-110928189D01*
X82658295Y-110928189D02*
X82620200Y-111004380D01*
X82620200Y-111004380D02*
X82582104Y-111042475D01*
X82582104Y-111042475D02*
X82505914Y-111080570D01*
X82505914Y-111080570D02*
X82353533Y-111118666D01*
X82353533Y-111118666D02*
X82163057Y-111118666D01*
X82163057Y-111118666D02*
X82010676Y-111080570D01*
X82010676Y-111080570D02*
X81934485Y-111042475D01*
X81934485Y-111042475D02*
X81896390Y-111004380D01*
X81896390Y-111004380D02*
X81858295Y-110928189D01*
X82658295Y-110318665D02*
X81858295Y-110318665D01*
X82658295Y-109861522D02*
X82201152Y-110204380D01*
X81858295Y-109861522D02*
X82315438Y-110318665D01*
X124530295Y-102628571D02*
X124530295Y-102133333D01*
X124530295Y-102133333D02*
X124835057Y-102399999D01*
X124835057Y-102399999D02*
X124835057Y-102285714D01*
X124835057Y-102285714D02*
X124873152Y-102209523D01*
X124873152Y-102209523D02*
X124911247Y-102171428D01*
X124911247Y-102171428D02*
X124987438Y-102133333D01*
X124987438Y-102133333D02*
X125177914Y-102133333D01*
X125177914Y-102133333D02*
X125254104Y-102171428D01*
X125254104Y-102171428D02*
X125292200Y-102209523D01*
X125292200Y-102209523D02*
X125330295Y-102285714D01*
X125330295Y-102285714D02*
X125330295Y-102514285D01*
X125330295Y-102514285D02*
X125292200Y-102590476D01*
X125292200Y-102590476D02*
X125254104Y-102628571D01*
X124530295Y-101866666D02*
X124530295Y-101371428D01*
X124530295Y-101371428D02*
X124835057Y-101638094D01*
X124835057Y-101638094D02*
X124835057Y-101523809D01*
X124835057Y-101523809D02*
X124873152Y-101447618D01*
X124873152Y-101447618D02*
X124911247Y-101409523D01*
X124911247Y-101409523D02*
X124987438Y-101371428D01*
X124987438Y-101371428D02*
X125177914Y-101371428D01*
X125177914Y-101371428D02*
X125254104Y-101409523D01*
X125254104Y-101409523D02*
X125292200Y-101447618D01*
X125292200Y-101447618D02*
X125330295Y-101523809D01*
X125330295Y-101523809D02*
X125330295Y-101752380D01*
X125330295Y-101752380D02*
X125292200Y-101828571D01*
X125292200Y-101828571D02*
X125254104Y-101866666D01*
X124796961Y-100685713D02*
X125330295Y-100685713D01*
X124492200Y-100876189D02*
X125063628Y-101066666D01*
X125063628Y-101066666D02*
X125063628Y-100571427D01*
X99460485Y-114844000D02*
X99422390Y-114805904D01*
X99422390Y-114805904D02*
X99384295Y-114729714D01*
X99384295Y-114729714D02*
X99384295Y-114539238D01*
X99384295Y-114539238D02*
X99422390Y-114463047D01*
X99422390Y-114463047D02*
X99460485Y-114424952D01*
X99460485Y-114424952D02*
X99536676Y-114386857D01*
X99536676Y-114386857D02*
X99612866Y-114386857D01*
X99612866Y-114386857D02*
X99727152Y-114424952D01*
X99727152Y-114424952D02*
X100184295Y-114882095D01*
X100184295Y-114882095D02*
X100184295Y-114386857D01*
X100108104Y-114043999D02*
X100146200Y-114005904D01*
X100146200Y-114005904D02*
X100184295Y-114043999D01*
X100184295Y-114043999D02*
X100146200Y-114082095D01*
X100146200Y-114082095D02*
X100108104Y-114043999D01*
X100108104Y-114043999D02*
X100184295Y-114043999D01*
X99460485Y-113701143D02*
X99422390Y-113663047D01*
X99422390Y-113663047D02*
X99384295Y-113586857D01*
X99384295Y-113586857D02*
X99384295Y-113396381D01*
X99384295Y-113396381D02*
X99422390Y-113320190D01*
X99422390Y-113320190D02*
X99460485Y-113282095D01*
X99460485Y-113282095D02*
X99536676Y-113244000D01*
X99536676Y-113244000D02*
X99612866Y-113244000D01*
X99612866Y-113244000D02*
X99727152Y-113282095D01*
X99727152Y-113282095D02*
X100184295Y-113739238D01*
X100184295Y-113739238D02*
X100184295Y-113244000D01*
X100184295Y-112901142D02*
X99384295Y-112901142D01*
X100184295Y-112443999D02*
X99727152Y-112786857D01*
X99384295Y-112443999D02*
X99841438Y-112901142D01*
X69570666Y-113138295D02*
X69113523Y-113138295D01*
X69342095Y-113138295D02*
X69342095Y-112338295D01*
X69342095Y-112338295D02*
X69265904Y-112452580D01*
X69265904Y-112452580D02*
X69189714Y-112528771D01*
X69189714Y-112528771D02*
X69113523Y-112566866D01*
X70294476Y-112338295D02*
X69913524Y-112338295D01*
X69913524Y-112338295D02*
X69875428Y-112719247D01*
X69875428Y-112719247D02*
X69913524Y-112681152D01*
X69913524Y-112681152D02*
X69989714Y-112643057D01*
X69989714Y-112643057D02*
X70180190Y-112643057D01*
X70180190Y-112643057D02*
X70256381Y-112681152D01*
X70256381Y-112681152D02*
X70294476Y-112719247D01*
X70294476Y-112719247D02*
X70332571Y-112795438D01*
X70332571Y-112795438D02*
X70332571Y-112985914D01*
X70332571Y-112985914D02*
X70294476Y-113062104D01*
X70294476Y-113062104D02*
X70256381Y-113100200D01*
X70256381Y-113100200D02*
X70180190Y-113138295D01*
X70180190Y-113138295D02*
X69989714Y-113138295D01*
X69989714Y-113138295D02*
X69913524Y-113100200D01*
X69913524Y-113100200D02*
X69875428Y-113062104D01*
X71018286Y-112604961D02*
X71018286Y-113138295D01*
X70827810Y-112300200D02*
X70637333Y-112871628D01*
X70637333Y-112871628D02*
X71132572Y-112871628D01*
X109045714Y-91498057D02*
X109093333Y-91450438D01*
X109093333Y-91450438D02*
X109188571Y-91402819D01*
X109188571Y-91402819D02*
X109426666Y-91402819D01*
X109426666Y-91402819D02*
X109521904Y-91450438D01*
X109521904Y-91450438D02*
X109569523Y-91498057D01*
X109569523Y-91498057D02*
X109617142Y-91593295D01*
X109617142Y-91593295D02*
X109617142Y-91688533D01*
X109617142Y-91688533D02*
X109569523Y-91831390D01*
X109569523Y-91831390D02*
X108998095Y-92402819D01*
X108998095Y-92402819D02*
X109617142Y-92402819D01*
X110045714Y-92402819D02*
X110045714Y-91402819D01*
X110045714Y-91402819D02*
X110617142Y-92402819D01*
X110617142Y-92402819D02*
X110617142Y-91402819D01*
X111569523Y-91402819D02*
X111093333Y-91402819D01*
X111093333Y-91402819D02*
X111045714Y-91879009D01*
X111045714Y-91879009D02*
X111093333Y-91831390D01*
X111093333Y-91831390D02*
X111188571Y-91783771D01*
X111188571Y-91783771D02*
X111426666Y-91783771D01*
X111426666Y-91783771D02*
X111521904Y-91831390D01*
X111521904Y-91831390D02*
X111569523Y-91879009D01*
X111569523Y-91879009D02*
X111617142Y-91974247D01*
X111617142Y-91974247D02*
X111617142Y-92212342D01*
X111617142Y-92212342D02*
X111569523Y-92307580D01*
X111569523Y-92307580D02*
X111521904Y-92355200D01*
X111521904Y-92355200D02*
X111426666Y-92402819D01*
X111426666Y-92402819D02*
X111188571Y-92402819D01*
X111188571Y-92402819D02*
X111093333Y-92355200D01*
X111093333Y-92355200D02*
X111045714Y-92307580D01*
X112474285Y-91736152D02*
X112474285Y-92402819D01*
X112236190Y-91355200D02*
X111998095Y-92069485D01*
X111998095Y-92069485D02*
X112617142Y-92069485D01*
X113474285Y-91402819D02*
X112998095Y-91402819D01*
X112998095Y-91402819D02*
X112950476Y-91879009D01*
X112950476Y-91879009D02*
X112998095Y-91831390D01*
X112998095Y-91831390D02*
X113093333Y-91783771D01*
X113093333Y-91783771D02*
X113331428Y-91783771D01*
X113331428Y-91783771D02*
X113426666Y-91831390D01*
X113426666Y-91831390D02*
X113474285Y-91879009D01*
X113474285Y-91879009D02*
X113521904Y-91974247D01*
X113521904Y-91974247D02*
X113521904Y-92212342D01*
X113521904Y-92212342D02*
X113474285Y-92307580D01*
X113474285Y-92307580D02*
X113426666Y-92355200D01*
X113426666Y-92355200D02*
X113331428Y-92402819D01*
X113331428Y-92402819D02*
X113093333Y-92402819D01*
X113093333Y-92402819D02*
X112998095Y-92355200D01*
X112998095Y-92355200D02*
X112950476Y-92307580D01*
X113855238Y-91402819D02*
X114521904Y-91402819D01*
X114521904Y-91402819D02*
X114093333Y-92402819D01*
X60487333Y-117294819D02*
X59915905Y-117294819D01*
X60201619Y-117294819D02*
X60201619Y-116294819D01*
X60201619Y-116294819D02*
X60106381Y-116437676D01*
X60106381Y-116437676D02*
X60011143Y-116532914D01*
X60011143Y-116532914D02*
X59915905Y-116580533D01*
X61106381Y-116294819D02*
X61201619Y-116294819D01*
X61201619Y-116294819D02*
X61296857Y-116342438D01*
X61296857Y-116342438D02*
X61344476Y-116390057D01*
X61344476Y-116390057D02*
X61392095Y-116485295D01*
X61392095Y-116485295D02*
X61439714Y-116675771D01*
X61439714Y-116675771D02*
X61439714Y-116913866D01*
X61439714Y-116913866D02*
X61392095Y-117104342D01*
X61392095Y-117104342D02*
X61344476Y-117199580D01*
X61344476Y-117199580D02*
X61296857Y-117247200D01*
X61296857Y-117247200D02*
X61201619Y-117294819D01*
X61201619Y-117294819D02*
X61106381Y-117294819D01*
X61106381Y-117294819D02*
X61011143Y-117247200D01*
X61011143Y-117247200D02*
X60963524Y-117199580D01*
X60963524Y-117199580D02*
X60915905Y-117104342D01*
X60915905Y-117104342D02*
X60868286Y-116913866D01*
X60868286Y-116913866D02*
X60868286Y-116675771D01*
X60868286Y-116675771D02*
X60915905Y-116485295D01*
X60915905Y-116485295D02*
X60963524Y-116390057D01*
X60963524Y-116390057D02*
X61011143Y-116342438D01*
X61011143Y-116342438D02*
X61106381Y-116294819D01*
X61820667Y-116390057D02*
X61868286Y-116342438D01*
X61868286Y-116342438D02*
X61963524Y-116294819D01*
X61963524Y-116294819D02*
X62201619Y-116294819D01*
X62201619Y-116294819D02*
X62296857Y-116342438D01*
X62296857Y-116342438D02*
X62344476Y-116390057D01*
X62344476Y-116390057D02*
X62392095Y-116485295D01*
X62392095Y-116485295D02*
X62392095Y-116580533D01*
X62392095Y-116580533D02*
X62344476Y-116723390D01*
X62344476Y-116723390D02*
X61773048Y-117294819D01*
X61773048Y-117294819D02*
X62392095Y-117294819D01*
X86722295Y-110495333D02*
X86722295Y-110952476D01*
X86722295Y-110723904D02*
X85922295Y-110723904D01*
X85922295Y-110723904D02*
X86036580Y-110800095D01*
X86036580Y-110800095D02*
X86112771Y-110876285D01*
X86112771Y-110876285D02*
X86150866Y-110952476D01*
X85922295Y-109771523D02*
X85922295Y-110152475D01*
X85922295Y-110152475D02*
X86303247Y-110190571D01*
X86303247Y-110190571D02*
X86265152Y-110152475D01*
X86265152Y-110152475D02*
X86227057Y-110076285D01*
X86227057Y-110076285D02*
X86227057Y-109885809D01*
X86227057Y-109885809D02*
X86265152Y-109809618D01*
X86265152Y-109809618D02*
X86303247Y-109771523D01*
X86303247Y-109771523D02*
X86379438Y-109733428D01*
X86379438Y-109733428D02*
X86569914Y-109733428D01*
X86569914Y-109733428D02*
X86646104Y-109771523D01*
X86646104Y-109771523D02*
X86684200Y-109809618D01*
X86684200Y-109809618D02*
X86722295Y-109885809D01*
X86722295Y-109885809D02*
X86722295Y-110076285D01*
X86722295Y-110076285D02*
X86684200Y-110152475D01*
X86684200Y-110152475D02*
X86646104Y-110190571D01*
X86188961Y-109047713D02*
X86722295Y-109047713D01*
X85884200Y-109238189D02*
X86455628Y-109428666D01*
X86455628Y-109428666D02*
X86455628Y-108933427D01*
X72590819Y-101952666D02*
X72590819Y-102524094D01*
X72590819Y-102238380D02*
X71590819Y-102238380D01*
X71590819Y-102238380D02*
X71733676Y-102333618D01*
X71733676Y-102333618D02*
X71828914Y-102428856D01*
X71828914Y-102428856D02*
X71876533Y-102524094D01*
X71590819Y-101333618D02*
X71590819Y-101238380D01*
X71590819Y-101238380D02*
X71638438Y-101143142D01*
X71638438Y-101143142D02*
X71686057Y-101095523D01*
X71686057Y-101095523D02*
X71781295Y-101047904D01*
X71781295Y-101047904D02*
X71971771Y-101000285D01*
X71971771Y-101000285D02*
X72209866Y-101000285D01*
X72209866Y-101000285D02*
X72400342Y-101047904D01*
X72400342Y-101047904D02*
X72495580Y-101095523D01*
X72495580Y-101095523D02*
X72543200Y-101143142D01*
X72543200Y-101143142D02*
X72590819Y-101238380D01*
X72590819Y-101238380D02*
X72590819Y-101333618D01*
X72590819Y-101333618D02*
X72543200Y-101428856D01*
X72543200Y-101428856D02*
X72495580Y-101476475D01*
X72495580Y-101476475D02*
X72400342Y-101524094D01*
X72400342Y-101524094D02*
X72209866Y-101571713D01*
X72209866Y-101571713D02*
X71971771Y-101571713D01*
X71971771Y-101571713D02*
X71781295Y-101524094D01*
X71781295Y-101524094D02*
X71686057Y-101476475D01*
X71686057Y-101476475D02*
X71638438Y-101428856D01*
X71638438Y-101428856D02*
X71590819Y-101333618D01*
X71590819Y-100666951D02*
X71590819Y-100047904D01*
X71590819Y-100047904D02*
X71971771Y-100381237D01*
X71971771Y-100381237D02*
X71971771Y-100238380D01*
X71971771Y-100238380D02*
X72019390Y-100143142D01*
X72019390Y-100143142D02*
X72067009Y-100095523D01*
X72067009Y-100095523D02*
X72162247Y-100047904D01*
X72162247Y-100047904D02*
X72400342Y-100047904D01*
X72400342Y-100047904D02*
X72495580Y-100095523D01*
X72495580Y-100095523D02*
X72543200Y-100143142D01*
X72543200Y-100143142D02*
X72590819Y-100238380D01*
X72590819Y-100238380D02*
X72590819Y-100524094D01*
X72590819Y-100524094D02*
X72543200Y-100619332D01*
X72543200Y-100619332D02*
X72495580Y-100666951D01*
X59010666Y-92310295D02*
X58553523Y-92310295D01*
X58782095Y-92310295D02*
X58782095Y-91510295D01*
X58782095Y-91510295D02*
X58705904Y-91624580D01*
X58705904Y-91624580D02*
X58629714Y-91700771D01*
X58629714Y-91700771D02*
X58553523Y-91738866D01*
X59505905Y-91510295D02*
X59582095Y-91510295D01*
X59582095Y-91510295D02*
X59658286Y-91548390D01*
X59658286Y-91548390D02*
X59696381Y-91586485D01*
X59696381Y-91586485D02*
X59734476Y-91662676D01*
X59734476Y-91662676D02*
X59772571Y-91815057D01*
X59772571Y-91815057D02*
X59772571Y-92005533D01*
X59772571Y-92005533D02*
X59734476Y-92157914D01*
X59734476Y-92157914D02*
X59696381Y-92234104D01*
X59696381Y-92234104D02*
X59658286Y-92272200D01*
X59658286Y-92272200D02*
X59582095Y-92310295D01*
X59582095Y-92310295D02*
X59505905Y-92310295D01*
X59505905Y-92310295D02*
X59429714Y-92272200D01*
X59429714Y-92272200D02*
X59391619Y-92234104D01*
X59391619Y-92234104D02*
X59353524Y-92157914D01*
X59353524Y-92157914D02*
X59315428Y-92005533D01*
X59315428Y-92005533D02*
X59315428Y-91815057D01*
X59315428Y-91815057D02*
X59353524Y-91662676D01*
X59353524Y-91662676D02*
X59391619Y-91586485D01*
X59391619Y-91586485D02*
X59429714Y-91548390D01*
X59429714Y-91548390D02*
X59505905Y-91510295D01*
X60267810Y-91510295D02*
X60344000Y-91510295D01*
X60344000Y-91510295D02*
X60420191Y-91548390D01*
X60420191Y-91548390D02*
X60458286Y-91586485D01*
X60458286Y-91586485D02*
X60496381Y-91662676D01*
X60496381Y-91662676D02*
X60534476Y-91815057D01*
X60534476Y-91815057D02*
X60534476Y-92005533D01*
X60534476Y-92005533D02*
X60496381Y-92157914D01*
X60496381Y-92157914D02*
X60458286Y-92234104D01*
X60458286Y-92234104D02*
X60420191Y-92272200D01*
X60420191Y-92272200D02*
X60344000Y-92310295D01*
X60344000Y-92310295D02*
X60267810Y-92310295D01*
X60267810Y-92310295D02*
X60191619Y-92272200D01*
X60191619Y-92272200D02*
X60153524Y-92234104D01*
X60153524Y-92234104D02*
X60115429Y-92157914D01*
X60115429Y-92157914D02*
X60077333Y-92005533D01*
X60077333Y-92005533D02*
X60077333Y-91815057D01*
X60077333Y-91815057D02*
X60115429Y-91662676D01*
X60115429Y-91662676D02*
X60153524Y-91586485D01*
X60153524Y-91586485D02*
X60191619Y-91548390D01*
X60191619Y-91548390D02*
X60267810Y-91510295D01*
X60877334Y-92310295D02*
X60877334Y-91510295D01*
X61334477Y-92310295D02*
X60991619Y-91853152D01*
X61334477Y-91510295D02*
X60877334Y-91967438D01*
X122383666Y-117202295D02*
X121926523Y-117202295D01*
X122155095Y-117202295D02*
X122155095Y-116402295D01*
X122155095Y-116402295D02*
X122078904Y-116516580D01*
X122078904Y-116516580D02*
X122002714Y-116592771D01*
X122002714Y-116592771D02*
X121926523Y-116630866D01*
X123107476Y-116402295D02*
X122726524Y-116402295D01*
X122726524Y-116402295D02*
X122688428Y-116783247D01*
X122688428Y-116783247D02*
X122726524Y-116745152D01*
X122726524Y-116745152D02*
X122802714Y-116707057D01*
X122802714Y-116707057D02*
X122993190Y-116707057D01*
X122993190Y-116707057D02*
X123069381Y-116745152D01*
X123069381Y-116745152D02*
X123107476Y-116783247D01*
X123107476Y-116783247D02*
X123145571Y-116859438D01*
X123145571Y-116859438D02*
X123145571Y-117049914D01*
X123145571Y-117049914D02*
X123107476Y-117126104D01*
X123107476Y-117126104D02*
X123069381Y-117164200D01*
X123069381Y-117164200D02*
X122993190Y-117202295D01*
X122993190Y-117202295D02*
X122802714Y-117202295D01*
X122802714Y-117202295D02*
X122726524Y-117164200D01*
X122726524Y-117164200D02*
X122688428Y-117126104D01*
X123640810Y-116402295D02*
X123717000Y-116402295D01*
X123717000Y-116402295D02*
X123793191Y-116440390D01*
X123793191Y-116440390D02*
X123831286Y-116478485D01*
X123831286Y-116478485D02*
X123869381Y-116554676D01*
X123869381Y-116554676D02*
X123907476Y-116707057D01*
X123907476Y-116707057D02*
X123907476Y-116897533D01*
X123907476Y-116897533D02*
X123869381Y-117049914D01*
X123869381Y-117049914D02*
X123831286Y-117126104D01*
X123831286Y-117126104D02*
X123793191Y-117164200D01*
X123793191Y-117164200D02*
X123717000Y-117202295D01*
X123717000Y-117202295D02*
X123640810Y-117202295D01*
X123640810Y-117202295D02*
X123564619Y-117164200D01*
X123564619Y-117164200D02*
X123526524Y-117126104D01*
X123526524Y-117126104D02*
X123488429Y-117049914D01*
X123488429Y-117049914D02*
X123450333Y-116897533D01*
X123450333Y-116897533D02*
X123450333Y-116707057D01*
X123450333Y-116707057D02*
X123488429Y-116554676D01*
X123488429Y-116554676D02*
X123526524Y-116478485D01*
X123526524Y-116478485D02*
X123564619Y-116440390D01*
X123564619Y-116440390D02*
X123640810Y-116402295D01*
X124250334Y-117202295D02*
X124250334Y-116402295D01*
X124707477Y-117202295D02*
X124364619Y-116745152D01*
X124707477Y-116402295D02*
X124250334Y-116859438D01*
X102054819Y-101952666D02*
X102054819Y-102524094D01*
X102054819Y-102238380D02*
X101054819Y-102238380D01*
X101054819Y-102238380D02*
X101197676Y-102333618D01*
X101197676Y-102333618D02*
X101292914Y-102428856D01*
X101292914Y-102428856D02*
X101340533Y-102524094D01*
X101054819Y-101333618D02*
X101054819Y-101238380D01*
X101054819Y-101238380D02*
X101102438Y-101143142D01*
X101102438Y-101143142D02*
X101150057Y-101095523D01*
X101150057Y-101095523D02*
X101245295Y-101047904D01*
X101245295Y-101047904D02*
X101435771Y-101000285D01*
X101435771Y-101000285D02*
X101673866Y-101000285D01*
X101673866Y-101000285D02*
X101864342Y-101047904D01*
X101864342Y-101047904D02*
X101959580Y-101095523D01*
X101959580Y-101095523D02*
X102007200Y-101143142D01*
X102007200Y-101143142D02*
X102054819Y-101238380D01*
X102054819Y-101238380D02*
X102054819Y-101333618D01*
X102054819Y-101333618D02*
X102007200Y-101428856D01*
X102007200Y-101428856D02*
X101959580Y-101476475D01*
X101959580Y-101476475D02*
X101864342Y-101524094D01*
X101864342Y-101524094D02*
X101673866Y-101571713D01*
X101673866Y-101571713D02*
X101435771Y-101571713D01*
X101435771Y-101571713D02*
X101245295Y-101524094D01*
X101245295Y-101524094D02*
X101150057Y-101476475D01*
X101150057Y-101476475D02*
X101102438Y-101428856D01*
X101102438Y-101428856D02*
X101054819Y-101333618D01*
X101054819Y-100666951D02*
X101054819Y-100047904D01*
X101054819Y-100047904D02*
X101435771Y-100381237D01*
X101435771Y-100381237D02*
X101435771Y-100238380D01*
X101435771Y-100238380D02*
X101483390Y-100143142D01*
X101483390Y-100143142D02*
X101531009Y-100095523D01*
X101531009Y-100095523D02*
X101626247Y-100047904D01*
X101626247Y-100047904D02*
X101864342Y-100047904D01*
X101864342Y-100047904D02*
X101959580Y-100095523D01*
X101959580Y-100095523D02*
X102007200Y-100143142D01*
X102007200Y-100143142D02*
X102054819Y-100238380D01*
X102054819Y-100238380D02*
X102054819Y-100524094D01*
X102054819Y-100524094D02*
X102007200Y-100619332D01*
X102007200Y-100619332D02*
X101959580Y-100666951D01*
X107285523Y-101790819D02*
X106809333Y-101790819D01*
X106809333Y-101790819D02*
X106809333Y-100790819D01*
X107618857Y-101790819D02*
X107618857Y-100790819D01*
X107618857Y-100790819D02*
X107952190Y-101505104D01*
X107952190Y-101505104D02*
X108285523Y-100790819D01*
X108285523Y-100790819D02*
X108285523Y-101790819D01*
X108666476Y-100790819D02*
X109333142Y-100790819D01*
X109333142Y-100790819D02*
X108904571Y-101790819D01*
X110142666Y-101124152D02*
X110142666Y-101790819D01*
X109904571Y-100743200D02*
X109666476Y-101457485D01*
X109666476Y-101457485D02*
X110285523Y-101457485D01*
X111190285Y-101790819D02*
X110618857Y-101790819D01*
X110904571Y-101790819D02*
X110904571Y-100790819D01*
X110904571Y-100790819D02*
X110809333Y-100933676D01*
X110809333Y-100933676D02*
X110714095Y-101028914D01*
X110714095Y-101028914D02*
X110618857Y-101076533D01*
X128238428Y-96082295D02*
X128733666Y-96082295D01*
X128733666Y-96082295D02*
X128467000Y-96387057D01*
X128467000Y-96387057D02*
X128581285Y-96387057D01*
X128581285Y-96387057D02*
X128657476Y-96425152D01*
X128657476Y-96425152D02*
X128695571Y-96463247D01*
X128695571Y-96463247D02*
X128733666Y-96539438D01*
X128733666Y-96539438D02*
X128733666Y-96729914D01*
X128733666Y-96729914D02*
X128695571Y-96806104D01*
X128695571Y-96806104D02*
X128657476Y-96844200D01*
X128657476Y-96844200D02*
X128581285Y-96882295D01*
X128581285Y-96882295D02*
X128352714Y-96882295D01*
X128352714Y-96882295D02*
X128276523Y-96844200D01*
X128276523Y-96844200D02*
X128238428Y-96806104D01*
X129000333Y-96082295D02*
X129495571Y-96082295D01*
X129495571Y-96082295D02*
X129228905Y-96387057D01*
X129228905Y-96387057D02*
X129343190Y-96387057D01*
X129343190Y-96387057D02*
X129419381Y-96425152D01*
X129419381Y-96425152D02*
X129457476Y-96463247D01*
X129457476Y-96463247D02*
X129495571Y-96539438D01*
X129495571Y-96539438D02*
X129495571Y-96729914D01*
X129495571Y-96729914D02*
X129457476Y-96806104D01*
X129457476Y-96806104D02*
X129419381Y-96844200D01*
X129419381Y-96844200D02*
X129343190Y-96882295D01*
X129343190Y-96882295D02*
X129114619Y-96882295D01*
X129114619Y-96882295D02*
X129038428Y-96844200D01*
X129038428Y-96844200D02*
X129000333Y-96806104D01*
X129990810Y-96082295D02*
X130067000Y-96082295D01*
X130067000Y-96082295D02*
X130143191Y-96120390D01*
X130143191Y-96120390D02*
X130181286Y-96158485D01*
X130181286Y-96158485D02*
X130219381Y-96234676D01*
X130219381Y-96234676D02*
X130257476Y-96387057D01*
X130257476Y-96387057D02*
X130257476Y-96577533D01*
X130257476Y-96577533D02*
X130219381Y-96729914D01*
X130219381Y-96729914D02*
X130181286Y-96806104D01*
X130181286Y-96806104D02*
X130143191Y-96844200D01*
X130143191Y-96844200D02*
X130067000Y-96882295D01*
X130067000Y-96882295D02*
X129990810Y-96882295D01*
X129990810Y-96882295D02*
X129914619Y-96844200D01*
X129914619Y-96844200D02*
X129876524Y-96806104D01*
X129876524Y-96806104D02*
X129838429Y-96729914D01*
X129838429Y-96729914D02*
X129800333Y-96577533D01*
X129800333Y-96577533D02*
X129800333Y-96387057D01*
X129800333Y-96387057D02*
X129838429Y-96234676D01*
X129838429Y-96234676D02*
X129876524Y-96158485D01*
X129876524Y-96158485D02*
X129914619Y-96120390D01*
X129914619Y-96120390D02*
X129990810Y-96082295D01*
X130600334Y-96882295D02*
X130600334Y-96082295D01*
X131057477Y-96882295D02*
X130714619Y-96425152D01*
X131057477Y-96082295D02*
X130600334Y-96539438D01*
X103816228Y-115957761D02*
X103816228Y-116491095D01*
X103625752Y-115653000D02*
X103435275Y-116224428D01*
X103435275Y-116224428D02*
X103930514Y-116224428D01*
X104159085Y-115691095D02*
X104692419Y-115691095D01*
X104692419Y-115691095D02*
X104349561Y-116491095D01*
X104997181Y-116491095D02*
X104997181Y-115691095D01*
X105454324Y-116491095D02*
X105111466Y-116033952D01*
X105454324Y-115691095D02*
X104997181Y-116148238D01*
X59010666Y-94596295D02*
X58553523Y-94596295D01*
X58782095Y-94596295D02*
X58782095Y-93796295D01*
X58782095Y-93796295D02*
X58705904Y-93910580D01*
X58705904Y-93910580D02*
X58629714Y-93986771D01*
X58629714Y-93986771D02*
X58553523Y-94024866D01*
X59505905Y-93796295D02*
X59582095Y-93796295D01*
X59582095Y-93796295D02*
X59658286Y-93834390D01*
X59658286Y-93834390D02*
X59696381Y-93872485D01*
X59696381Y-93872485D02*
X59734476Y-93948676D01*
X59734476Y-93948676D02*
X59772571Y-94101057D01*
X59772571Y-94101057D02*
X59772571Y-94291533D01*
X59772571Y-94291533D02*
X59734476Y-94443914D01*
X59734476Y-94443914D02*
X59696381Y-94520104D01*
X59696381Y-94520104D02*
X59658286Y-94558200D01*
X59658286Y-94558200D02*
X59582095Y-94596295D01*
X59582095Y-94596295D02*
X59505905Y-94596295D01*
X59505905Y-94596295D02*
X59429714Y-94558200D01*
X59429714Y-94558200D02*
X59391619Y-94520104D01*
X59391619Y-94520104D02*
X59353524Y-94443914D01*
X59353524Y-94443914D02*
X59315428Y-94291533D01*
X59315428Y-94291533D02*
X59315428Y-94101057D01*
X59315428Y-94101057D02*
X59353524Y-93948676D01*
X59353524Y-93948676D02*
X59391619Y-93872485D01*
X59391619Y-93872485D02*
X59429714Y-93834390D01*
X59429714Y-93834390D02*
X59505905Y-93796295D01*
X60267810Y-93796295D02*
X60344000Y-93796295D01*
X60344000Y-93796295D02*
X60420191Y-93834390D01*
X60420191Y-93834390D02*
X60458286Y-93872485D01*
X60458286Y-93872485D02*
X60496381Y-93948676D01*
X60496381Y-93948676D02*
X60534476Y-94101057D01*
X60534476Y-94101057D02*
X60534476Y-94291533D01*
X60534476Y-94291533D02*
X60496381Y-94443914D01*
X60496381Y-94443914D02*
X60458286Y-94520104D01*
X60458286Y-94520104D02*
X60420191Y-94558200D01*
X60420191Y-94558200D02*
X60344000Y-94596295D01*
X60344000Y-94596295D02*
X60267810Y-94596295D01*
X60267810Y-94596295D02*
X60191619Y-94558200D01*
X60191619Y-94558200D02*
X60153524Y-94520104D01*
X60153524Y-94520104D02*
X60115429Y-94443914D01*
X60115429Y-94443914D02*
X60077333Y-94291533D01*
X60077333Y-94291533D02*
X60077333Y-94101057D01*
X60077333Y-94101057D02*
X60115429Y-93948676D01*
X60115429Y-93948676D02*
X60153524Y-93872485D01*
X60153524Y-93872485D02*
X60191619Y-93834390D01*
X60191619Y-93834390D02*
X60267810Y-93796295D01*
X60877334Y-94596295D02*
X60877334Y-93796295D01*
X61334477Y-94596295D02*
X60991619Y-94139152D01*
X61334477Y-93796295D02*
X60877334Y-94253438D01*
X101193771Y-113735285D02*
X101231867Y-113697190D01*
X101231867Y-113697190D02*
X101308057Y-113659095D01*
X101308057Y-113659095D02*
X101498533Y-113659095D01*
X101498533Y-113659095D02*
X101574724Y-113697190D01*
X101574724Y-113697190D02*
X101612819Y-113735285D01*
X101612819Y-113735285D02*
X101650914Y-113811476D01*
X101650914Y-113811476D02*
X101650914Y-113887666D01*
X101650914Y-113887666D02*
X101612819Y-114001952D01*
X101612819Y-114001952D02*
X101155676Y-114459095D01*
X101155676Y-114459095D02*
X101650914Y-114459095D01*
X101955676Y-113735285D02*
X101993772Y-113697190D01*
X101993772Y-113697190D02*
X102069962Y-113659095D01*
X102069962Y-113659095D02*
X102260438Y-113659095D01*
X102260438Y-113659095D02*
X102336629Y-113697190D01*
X102336629Y-113697190D02*
X102374724Y-113735285D01*
X102374724Y-113735285D02*
X102412819Y-113811476D01*
X102412819Y-113811476D02*
X102412819Y-113887666D01*
X102412819Y-113887666D02*
X102374724Y-114001952D01*
X102374724Y-114001952D02*
X101917581Y-114459095D01*
X101917581Y-114459095D02*
X102412819Y-114459095D01*
X102755677Y-113925761D02*
X102755677Y-114725761D01*
X103136629Y-114344809D02*
X103174724Y-114421000D01*
X103174724Y-114421000D02*
X103250915Y-114459095D01*
X102755677Y-114344809D02*
X102793772Y-114421000D01*
X102793772Y-114421000D02*
X102869962Y-114459095D01*
X102869962Y-114459095D02*
X103022343Y-114459095D01*
X103022343Y-114459095D02*
X103098534Y-114421000D01*
X103098534Y-114421000D02*
X103136629Y-114344809D01*
X103136629Y-114344809D02*
X103136629Y-113925761D01*
X103860438Y-114040047D02*
X103593772Y-114040047D01*
X103593772Y-114459095D02*
X103593772Y-113659095D01*
X103593772Y-113659095D02*
X103974724Y-113659095D01*
X118846714Y-112376295D02*
X118389571Y-112376295D01*
X118618143Y-112376295D02*
X118618143Y-111576295D01*
X118618143Y-111576295D02*
X118541952Y-111690580D01*
X118541952Y-111690580D02*
X118465762Y-111766771D01*
X118465762Y-111766771D02*
X118389571Y-111804866D01*
X119341953Y-111576295D02*
X119418143Y-111576295D01*
X119418143Y-111576295D02*
X119494334Y-111614390D01*
X119494334Y-111614390D02*
X119532429Y-111652485D01*
X119532429Y-111652485D02*
X119570524Y-111728676D01*
X119570524Y-111728676D02*
X119608619Y-111881057D01*
X119608619Y-111881057D02*
X119608619Y-112071533D01*
X119608619Y-112071533D02*
X119570524Y-112223914D01*
X119570524Y-112223914D02*
X119532429Y-112300104D01*
X119532429Y-112300104D02*
X119494334Y-112338200D01*
X119494334Y-112338200D02*
X119418143Y-112376295D01*
X119418143Y-112376295D02*
X119341953Y-112376295D01*
X119341953Y-112376295D02*
X119265762Y-112338200D01*
X119265762Y-112338200D02*
X119227667Y-112300104D01*
X119227667Y-112300104D02*
X119189572Y-112223914D01*
X119189572Y-112223914D02*
X119151476Y-112071533D01*
X119151476Y-112071533D02*
X119151476Y-111881057D01*
X119151476Y-111881057D02*
X119189572Y-111728676D01*
X119189572Y-111728676D02*
X119227667Y-111652485D01*
X119227667Y-111652485D02*
X119265762Y-111614390D01*
X119265762Y-111614390D02*
X119341953Y-111576295D01*
X119951477Y-111842961D02*
X119951477Y-112642961D01*
X120332429Y-112262009D02*
X120370524Y-112338200D01*
X120370524Y-112338200D02*
X120446715Y-112376295D01*
X119951477Y-112262009D02*
X119989572Y-112338200D01*
X119989572Y-112338200D02*
X120065762Y-112376295D01*
X120065762Y-112376295D02*
X120218143Y-112376295D01*
X120218143Y-112376295D02*
X120294334Y-112338200D01*
X120294334Y-112338200D02*
X120332429Y-112262009D01*
X120332429Y-112262009D02*
X120332429Y-111842961D01*
X121056238Y-111957247D02*
X120789572Y-111957247D01*
X120789572Y-112376295D02*
X120789572Y-111576295D01*
X120789572Y-111576295D02*
X121170524Y-111576295D01*
X88474666Y-92818295D02*
X88017523Y-92818295D01*
X88246095Y-92818295D02*
X88246095Y-92018295D01*
X88246095Y-92018295D02*
X88169904Y-92132580D01*
X88169904Y-92132580D02*
X88093714Y-92208771D01*
X88093714Y-92208771D02*
X88017523Y-92246866D01*
X88969905Y-92018295D02*
X89046095Y-92018295D01*
X89046095Y-92018295D02*
X89122286Y-92056390D01*
X89122286Y-92056390D02*
X89160381Y-92094485D01*
X89160381Y-92094485D02*
X89198476Y-92170676D01*
X89198476Y-92170676D02*
X89236571Y-92323057D01*
X89236571Y-92323057D02*
X89236571Y-92513533D01*
X89236571Y-92513533D02*
X89198476Y-92665914D01*
X89198476Y-92665914D02*
X89160381Y-92742104D01*
X89160381Y-92742104D02*
X89122286Y-92780200D01*
X89122286Y-92780200D02*
X89046095Y-92818295D01*
X89046095Y-92818295D02*
X88969905Y-92818295D01*
X88969905Y-92818295D02*
X88893714Y-92780200D01*
X88893714Y-92780200D02*
X88855619Y-92742104D01*
X88855619Y-92742104D02*
X88817524Y-92665914D01*
X88817524Y-92665914D02*
X88779428Y-92513533D01*
X88779428Y-92513533D02*
X88779428Y-92323057D01*
X88779428Y-92323057D02*
X88817524Y-92170676D01*
X88817524Y-92170676D02*
X88855619Y-92094485D01*
X88855619Y-92094485D02*
X88893714Y-92056390D01*
X88893714Y-92056390D02*
X88969905Y-92018295D01*
X89731810Y-92018295D02*
X89808000Y-92018295D01*
X89808000Y-92018295D02*
X89884191Y-92056390D01*
X89884191Y-92056390D02*
X89922286Y-92094485D01*
X89922286Y-92094485D02*
X89960381Y-92170676D01*
X89960381Y-92170676D02*
X89998476Y-92323057D01*
X89998476Y-92323057D02*
X89998476Y-92513533D01*
X89998476Y-92513533D02*
X89960381Y-92665914D01*
X89960381Y-92665914D02*
X89922286Y-92742104D01*
X89922286Y-92742104D02*
X89884191Y-92780200D01*
X89884191Y-92780200D02*
X89808000Y-92818295D01*
X89808000Y-92818295D02*
X89731810Y-92818295D01*
X89731810Y-92818295D02*
X89655619Y-92780200D01*
X89655619Y-92780200D02*
X89617524Y-92742104D01*
X89617524Y-92742104D02*
X89579429Y-92665914D01*
X89579429Y-92665914D02*
X89541333Y-92513533D01*
X89541333Y-92513533D02*
X89541333Y-92323057D01*
X89541333Y-92323057D02*
X89579429Y-92170676D01*
X89579429Y-92170676D02*
X89617524Y-92094485D01*
X89617524Y-92094485D02*
X89655619Y-92056390D01*
X89655619Y-92056390D02*
X89731810Y-92018295D01*
X90341334Y-92818295D02*
X90341334Y-92018295D01*
X90798477Y-92818295D02*
X90455619Y-92361152D01*
X90798477Y-92018295D02*
X90341334Y-92475438D01*
X88474666Y-95104295D02*
X88017523Y-95104295D01*
X88246095Y-95104295D02*
X88246095Y-94304295D01*
X88246095Y-94304295D02*
X88169904Y-94418580D01*
X88169904Y-94418580D02*
X88093714Y-94494771D01*
X88093714Y-94494771D02*
X88017523Y-94532866D01*
X88969905Y-94304295D02*
X89046095Y-94304295D01*
X89046095Y-94304295D02*
X89122286Y-94342390D01*
X89122286Y-94342390D02*
X89160381Y-94380485D01*
X89160381Y-94380485D02*
X89198476Y-94456676D01*
X89198476Y-94456676D02*
X89236571Y-94609057D01*
X89236571Y-94609057D02*
X89236571Y-94799533D01*
X89236571Y-94799533D02*
X89198476Y-94951914D01*
X89198476Y-94951914D02*
X89160381Y-95028104D01*
X89160381Y-95028104D02*
X89122286Y-95066200D01*
X89122286Y-95066200D02*
X89046095Y-95104295D01*
X89046095Y-95104295D02*
X88969905Y-95104295D01*
X88969905Y-95104295D02*
X88893714Y-95066200D01*
X88893714Y-95066200D02*
X88855619Y-95028104D01*
X88855619Y-95028104D02*
X88817524Y-94951914D01*
X88817524Y-94951914D02*
X88779428Y-94799533D01*
X88779428Y-94799533D02*
X88779428Y-94609057D01*
X88779428Y-94609057D02*
X88817524Y-94456676D01*
X88817524Y-94456676D02*
X88855619Y-94380485D01*
X88855619Y-94380485D02*
X88893714Y-94342390D01*
X88893714Y-94342390D02*
X88969905Y-94304295D01*
X89731810Y-94304295D02*
X89808000Y-94304295D01*
X89808000Y-94304295D02*
X89884191Y-94342390D01*
X89884191Y-94342390D02*
X89922286Y-94380485D01*
X89922286Y-94380485D02*
X89960381Y-94456676D01*
X89960381Y-94456676D02*
X89998476Y-94609057D01*
X89998476Y-94609057D02*
X89998476Y-94799533D01*
X89998476Y-94799533D02*
X89960381Y-94951914D01*
X89960381Y-94951914D02*
X89922286Y-95028104D01*
X89922286Y-95028104D02*
X89884191Y-95066200D01*
X89884191Y-95066200D02*
X89808000Y-95104295D01*
X89808000Y-95104295D02*
X89731810Y-95104295D01*
X89731810Y-95104295D02*
X89655619Y-95066200D01*
X89655619Y-95066200D02*
X89617524Y-95028104D01*
X89617524Y-95028104D02*
X89579429Y-94951914D01*
X89579429Y-94951914D02*
X89541333Y-94799533D01*
X89541333Y-94799533D02*
X89541333Y-94609057D01*
X89541333Y-94609057D02*
X89579429Y-94456676D01*
X89579429Y-94456676D02*
X89617524Y-94380485D01*
X89617524Y-94380485D02*
X89655619Y-94342390D01*
X89655619Y-94342390D02*
X89731810Y-94304295D01*
X90341334Y-95104295D02*
X90341334Y-94304295D01*
X90798477Y-95104295D02*
X90455619Y-94647152D01*
X90798477Y-94304295D02*
X90341334Y-94761438D01*
X87322819Y-101952666D02*
X87322819Y-102524094D01*
X87322819Y-102238380D02*
X86322819Y-102238380D01*
X86322819Y-102238380D02*
X86465676Y-102333618D01*
X86465676Y-102333618D02*
X86560914Y-102428856D01*
X86560914Y-102428856D02*
X86608533Y-102524094D01*
X86322819Y-101333618D02*
X86322819Y-101238380D01*
X86322819Y-101238380D02*
X86370438Y-101143142D01*
X86370438Y-101143142D02*
X86418057Y-101095523D01*
X86418057Y-101095523D02*
X86513295Y-101047904D01*
X86513295Y-101047904D02*
X86703771Y-101000285D01*
X86703771Y-101000285D02*
X86941866Y-101000285D01*
X86941866Y-101000285D02*
X87132342Y-101047904D01*
X87132342Y-101047904D02*
X87227580Y-101095523D01*
X87227580Y-101095523D02*
X87275200Y-101143142D01*
X87275200Y-101143142D02*
X87322819Y-101238380D01*
X87322819Y-101238380D02*
X87322819Y-101333618D01*
X87322819Y-101333618D02*
X87275200Y-101428856D01*
X87275200Y-101428856D02*
X87227580Y-101476475D01*
X87227580Y-101476475D02*
X87132342Y-101524094D01*
X87132342Y-101524094D02*
X86941866Y-101571713D01*
X86941866Y-101571713D02*
X86703771Y-101571713D01*
X86703771Y-101571713D02*
X86513295Y-101524094D01*
X86513295Y-101524094D02*
X86418057Y-101476475D01*
X86418057Y-101476475D02*
X86370438Y-101428856D01*
X86370438Y-101428856D02*
X86322819Y-101333618D01*
X86322819Y-100666951D02*
X86322819Y-100047904D01*
X86322819Y-100047904D02*
X86703771Y-100381237D01*
X86703771Y-100381237D02*
X86703771Y-100238380D01*
X86703771Y-100238380D02*
X86751390Y-100143142D01*
X86751390Y-100143142D02*
X86799009Y-100095523D01*
X86799009Y-100095523D02*
X86894247Y-100047904D01*
X86894247Y-100047904D02*
X87132342Y-100047904D01*
X87132342Y-100047904D02*
X87227580Y-100095523D01*
X87227580Y-100095523D02*
X87275200Y-100143142D01*
X87275200Y-100143142D02*
X87322819Y-100238380D01*
X87322819Y-100238380D02*
X87322819Y-100524094D01*
X87322819Y-100524094D02*
X87275200Y-100619332D01*
X87275200Y-100619332D02*
X87227580Y-100666951D01*
X79581714Y-91498057D02*
X79629333Y-91450438D01*
X79629333Y-91450438D02*
X79724571Y-91402819D01*
X79724571Y-91402819D02*
X79962666Y-91402819D01*
X79962666Y-91402819D02*
X80057904Y-91450438D01*
X80057904Y-91450438D02*
X80105523Y-91498057D01*
X80105523Y-91498057D02*
X80153142Y-91593295D01*
X80153142Y-91593295D02*
X80153142Y-91688533D01*
X80153142Y-91688533D02*
X80105523Y-91831390D01*
X80105523Y-91831390D02*
X79534095Y-92402819D01*
X79534095Y-92402819D02*
X80153142Y-92402819D01*
X80581714Y-92402819D02*
X80581714Y-91402819D01*
X80581714Y-91402819D02*
X81153142Y-92402819D01*
X81153142Y-92402819D02*
X81153142Y-91402819D01*
X82105523Y-91402819D02*
X81629333Y-91402819D01*
X81629333Y-91402819D02*
X81581714Y-91879009D01*
X81581714Y-91879009D02*
X81629333Y-91831390D01*
X81629333Y-91831390D02*
X81724571Y-91783771D01*
X81724571Y-91783771D02*
X81962666Y-91783771D01*
X81962666Y-91783771D02*
X82057904Y-91831390D01*
X82057904Y-91831390D02*
X82105523Y-91879009D01*
X82105523Y-91879009D02*
X82153142Y-91974247D01*
X82153142Y-91974247D02*
X82153142Y-92212342D01*
X82153142Y-92212342D02*
X82105523Y-92307580D01*
X82105523Y-92307580D02*
X82057904Y-92355200D01*
X82057904Y-92355200D02*
X81962666Y-92402819D01*
X81962666Y-92402819D02*
X81724571Y-92402819D01*
X81724571Y-92402819D02*
X81629333Y-92355200D01*
X81629333Y-92355200D02*
X81581714Y-92307580D01*
X83010285Y-91736152D02*
X83010285Y-92402819D01*
X82772190Y-91355200D02*
X82534095Y-92069485D01*
X82534095Y-92069485D02*
X83153142Y-92069485D01*
X84010285Y-91402819D02*
X83534095Y-91402819D01*
X83534095Y-91402819D02*
X83486476Y-91879009D01*
X83486476Y-91879009D02*
X83534095Y-91831390D01*
X83534095Y-91831390D02*
X83629333Y-91783771D01*
X83629333Y-91783771D02*
X83867428Y-91783771D01*
X83867428Y-91783771D02*
X83962666Y-91831390D01*
X83962666Y-91831390D02*
X84010285Y-91879009D01*
X84010285Y-91879009D02*
X84057904Y-91974247D01*
X84057904Y-91974247D02*
X84057904Y-92212342D01*
X84057904Y-92212342D02*
X84010285Y-92307580D01*
X84010285Y-92307580D02*
X83962666Y-92355200D01*
X83962666Y-92355200D02*
X83867428Y-92402819D01*
X83867428Y-92402819D02*
X83629333Y-92402819D01*
X83629333Y-92402819D02*
X83534095Y-92355200D01*
X83534095Y-92355200D02*
X83486476Y-92307580D01*
X84391238Y-91402819D02*
X85057904Y-91402819D01*
X85057904Y-91402819D02*
X84629333Y-92402819D01*
X129076523Y-98368295D02*
X128695571Y-98368295D01*
X128695571Y-98368295D02*
X128657475Y-98749247D01*
X128657475Y-98749247D02*
X128695571Y-98711152D01*
X128695571Y-98711152D02*
X128771761Y-98673057D01*
X128771761Y-98673057D02*
X128962237Y-98673057D01*
X128962237Y-98673057D02*
X129038428Y-98711152D01*
X129038428Y-98711152D02*
X129076523Y-98749247D01*
X129076523Y-98749247D02*
X129114618Y-98825438D01*
X129114618Y-98825438D02*
X129114618Y-99015914D01*
X129114618Y-99015914D02*
X129076523Y-99092104D01*
X129076523Y-99092104D02*
X129038428Y-99130200D01*
X129038428Y-99130200D02*
X128962237Y-99168295D01*
X128962237Y-99168295D02*
X128771761Y-99168295D01*
X128771761Y-99168295D02*
X128695571Y-99130200D01*
X128695571Y-99130200D02*
X128657475Y-99092104D01*
X129800333Y-98368295D02*
X129647952Y-98368295D01*
X129647952Y-98368295D02*
X129571761Y-98406390D01*
X129571761Y-98406390D02*
X129533666Y-98444485D01*
X129533666Y-98444485D02*
X129457476Y-98558771D01*
X129457476Y-98558771D02*
X129419380Y-98711152D01*
X129419380Y-98711152D02*
X129419380Y-99015914D01*
X129419380Y-99015914D02*
X129457476Y-99092104D01*
X129457476Y-99092104D02*
X129495571Y-99130200D01*
X129495571Y-99130200D02*
X129571761Y-99168295D01*
X129571761Y-99168295D02*
X129724142Y-99168295D01*
X129724142Y-99168295D02*
X129800333Y-99130200D01*
X129800333Y-99130200D02*
X129838428Y-99092104D01*
X129838428Y-99092104D02*
X129876523Y-99015914D01*
X129876523Y-99015914D02*
X129876523Y-98825438D01*
X129876523Y-98825438D02*
X129838428Y-98749247D01*
X129838428Y-98749247D02*
X129800333Y-98711152D01*
X129800333Y-98711152D02*
X129724142Y-98673057D01*
X129724142Y-98673057D02*
X129571761Y-98673057D01*
X129571761Y-98673057D02*
X129495571Y-98711152D01*
X129495571Y-98711152D02*
X129457476Y-98749247D01*
X129457476Y-98749247D02*
X129419380Y-98825438D01*
X130219381Y-99168295D02*
X130219381Y-98368295D01*
X130676524Y-99168295D02*
X130333666Y-98711152D01*
X130676524Y-98368295D02*
X130219381Y-98825438D01*
X115970485Y-96005524D02*
X115932390Y-95967428D01*
X115932390Y-95967428D02*
X115894295Y-95891238D01*
X115894295Y-95891238D02*
X115894295Y-95700762D01*
X115894295Y-95700762D02*
X115932390Y-95624571D01*
X115932390Y-95624571D02*
X115970485Y-95586476D01*
X115970485Y-95586476D02*
X116046676Y-95548381D01*
X116046676Y-95548381D02*
X116122866Y-95548381D01*
X116122866Y-95548381D02*
X116237152Y-95586476D01*
X116237152Y-95586476D02*
X116694295Y-96043619D01*
X116694295Y-96043619D02*
X116694295Y-95548381D01*
X115970485Y-95243619D02*
X115932390Y-95205523D01*
X115932390Y-95205523D02*
X115894295Y-95129333D01*
X115894295Y-95129333D02*
X115894295Y-94938857D01*
X115894295Y-94938857D02*
X115932390Y-94862666D01*
X115932390Y-94862666D02*
X115970485Y-94824571D01*
X115970485Y-94824571D02*
X116046676Y-94786476D01*
X116046676Y-94786476D02*
X116122866Y-94786476D01*
X116122866Y-94786476D02*
X116237152Y-94824571D01*
X116237152Y-94824571D02*
X116694295Y-95281714D01*
X116694295Y-95281714D02*
X116694295Y-94786476D01*
X116694295Y-94443618D02*
X115894295Y-94443618D01*
X116694295Y-93986475D02*
X116237152Y-94329333D01*
X115894295Y-93986475D02*
X116351438Y-94443618D01*
X73742666Y-92818295D02*
X73285523Y-92818295D01*
X73514095Y-92818295D02*
X73514095Y-92018295D01*
X73514095Y-92018295D02*
X73437904Y-92132580D01*
X73437904Y-92132580D02*
X73361714Y-92208771D01*
X73361714Y-92208771D02*
X73285523Y-92246866D01*
X74237905Y-92018295D02*
X74314095Y-92018295D01*
X74314095Y-92018295D02*
X74390286Y-92056390D01*
X74390286Y-92056390D02*
X74428381Y-92094485D01*
X74428381Y-92094485D02*
X74466476Y-92170676D01*
X74466476Y-92170676D02*
X74504571Y-92323057D01*
X74504571Y-92323057D02*
X74504571Y-92513533D01*
X74504571Y-92513533D02*
X74466476Y-92665914D01*
X74466476Y-92665914D02*
X74428381Y-92742104D01*
X74428381Y-92742104D02*
X74390286Y-92780200D01*
X74390286Y-92780200D02*
X74314095Y-92818295D01*
X74314095Y-92818295D02*
X74237905Y-92818295D01*
X74237905Y-92818295D02*
X74161714Y-92780200D01*
X74161714Y-92780200D02*
X74123619Y-92742104D01*
X74123619Y-92742104D02*
X74085524Y-92665914D01*
X74085524Y-92665914D02*
X74047428Y-92513533D01*
X74047428Y-92513533D02*
X74047428Y-92323057D01*
X74047428Y-92323057D02*
X74085524Y-92170676D01*
X74085524Y-92170676D02*
X74123619Y-92094485D01*
X74123619Y-92094485D02*
X74161714Y-92056390D01*
X74161714Y-92056390D02*
X74237905Y-92018295D01*
X74999810Y-92018295D02*
X75076000Y-92018295D01*
X75076000Y-92018295D02*
X75152191Y-92056390D01*
X75152191Y-92056390D02*
X75190286Y-92094485D01*
X75190286Y-92094485D02*
X75228381Y-92170676D01*
X75228381Y-92170676D02*
X75266476Y-92323057D01*
X75266476Y-92323057D02*
X75266476Y-92513533D01*
X75266476Y-92513533D02*
X75228381Y-92665914D01*
X75228381Y-92665914D02*
X75190286Y-92742104D01*
X75190286Y-92742104D02*
X75152191Y-92780200D01*
X75152191Y-92780200D02*
X75076000Y-92818295D01*
X75076000Y-92818295D02*
X74999810Y-92818295D01*
X74999810Y-92818295D02*
X74923619Y-92780200D01*
X74923619Y-92780200D02*
X74885524Y-92742104D01*
X74885524Y-92742104D02*
X74847429Y-92665914D01*
X74847429Y-92665914D02*
X74809333Y-92513533D01*
X74809333Y-92513533D02*
X74809333Y-92323057D01*
X74809333Y-92323057D02*
X74847429Y-92170676D01*
X74847429Y-92170676D02*
X74885524Y-92094485D01*
X74885524Y-92094485D02*
X74923619Y-92056390D01*
X74923619Y-92056390D02*
X74999810Y-92018295D01*
X75609334Y-92818295D02*
X75609334Y-92018295D01*
X76066477Y-92818295D02*
X75723619Y-92361152D01*
X76066477Y-92018295D02*
X75609334Y-92475438D01*
X77821523Y-101790819D02*
X77345333Y-101790819D01*
X77345333Y-101790819D02*
X77345333Y-100790819D01*
X78154857Y-101790819D02*
X78154857Y-100790819D01*
X78154857Y-100790819D02*
X78488190Y-101505104D01*
X78488190Y-101505104D02*
X78821523Y-100790819D01*
X78821523Y-100790819D02*
X78821523Y-101790819D01*
X79202476Y-100790819D02*
X79869142Y-100790819D01*
X79869142Y-100790819D02*
X79440571Y-101790819D01*
X80678666Y-101124152D02*
X80678666Y-101790819D01*
X80440571Y-100743200D02*
X80202476Y-101457485D01*
X80202476Y-101457485D02*
X80821523Y-101457485D01*
X81726285Y-101790819D02*
X81154857Y-101790819D01*
X81440571Y-101790819D02*
X81440571Y-100790819D01*
X81440571Y-100790819D02*
X81345333Y-100933676D01*
X81345333Y-100933676D02*
X81250095Y-101028914D01*
X81250095Y-101028914D02*
X81154857Y-101076533D01*
X130029047Y-116402295D02*
X129648095Y-116402295D01*
X129648095Y-116402295D02*
X129609999Y-116783247D01*
X129609999Y-116783247D02*
X129648095Y-116745152D01*
X129648095Y-116745152D02*
X129724285Y-116707057D01*
X129724285Y-116707057D02*
X129914761Y-116707057D01*
X129914761Y-116707057D02*
X129990952Y-116745152D01*
X129990952Y-116745152D02*
X130029047Y-116783247D01*
X130029047Y-116783247D02*
X130067142Y-116859438D01*
X130067142Y-116859438D02*
X130067142Y-117049914D01*
X130067142Y-117049914D02*
X130029047Y-117126104D01*
X130029047Y-117126104D02*
X129990952Y-117164200D01*
X129990952Y-117164200D02*
X129914761Y-117202295D01*
X129914761Y-117202295D02*
X129724285Y-117202295D01*
X129724285Y-117202295D02*
X129648095Y-117164200D01*
X129648095Y-117164200D02*
X129609999Y-117126104D01*
X130410000Y-117126104D02*
X130448095Y-117164200D01*
X130448095Y-117164200D02*
X130410000Y-117202295D01*
X130410000Y-117202295D02*
X130371904Y-117164200D01*
X130371904Y-117164200D02*
X130410000Y-117126104D01*
X130410000Y-117126104D02*
X130410000Y-117202295D01*
X131209999Y-117202295D02*
X130752856Y-117202295D01*
X130981428Y-117202295D02*
X130981428Y-116402295D01*
X130981428Y-116402295D02*
X130905237Y-116516580D01*
X130905237Y-116516580D02*
X130829047Y-116592771D01*
X130829047Y-116592771D02*
X130752856Y-116630866D01*
X131552857Y-117202295D02*
X131552857Y-116402295D01*
X132010000Y-117202295D02*
X131667142Y-116745152D01*
X132010000Y-116402295D02*
X131552857Y-116859438D01*
X80118295Y-112185333D02*
X80118295Y-112642476D01*
X80118295Y-112413904D02*
X79318295Y-112413904D01*
X79318295Y-112413904D02*
X79432580Y-112490095D01*
X79432580Y-112490095D02*
X79508771Y-112566285D01*
X79508771Y-112566285D02*
X79546866Y-112642476D01*
X79318295Y-111690094D02*
X79318295Y-111613904D01*
X79318295Y-111613904D02*
X79356390Y-111537713D01*
X79356390Y-111537713D02*
X79394485Y-111499618D01*
X79394485Y-111499618D02*
X79470676Y-111461523D01*
X79470676Y-111461523D02*
X79623057Y-111423428D01*
X79623057Y-111423428D02*
X79813533Y-111423428D01*
X79813533Y-111423428D02*
X79965914Y-111461523D01*
X79965914Y-111461523D02*
X80042104Y-111499618D01*
X80042104Y-111499618D02*
X80080200Y-111537713D01*
X80080200Y-111537713D02*
X80118295Y-111613904D01*
X80118295Y-111613904D02*
X80118295Y-111690094D01*
X80118295Y-111690094D02*
X80080200Y-111766285D01*
X80080200Y-111766285D02*
X80042104Y-111804380D01*
X80042104Y-111804380D02*
X79965914Y-111842475D01*
X79965914Y-111842475D02*
X79813533Y-111880571D01*
X79813533Y-111880571D02*
X79623057Y-111880571D01*
X79623057Y-111880571D02*
X79470676Y-111842475D01*
X79470676Y-111842475D02*
X79394485Y-111804380D01*
X79394485Y-111804380D02*
X79356390Y-111766285D01*
X79356390Y-111766285D02*
X79318295Y-111690094D01*
X79318295Y-110928189D02*
X79318295Y-110851999D01*
X79318295Y-110851999D02*
X79356390Y-110775808D01*
X79356390Y-110775808D02*
X79394485Y-110737713D01*
X79394485Y-110737713D02*
X79470676Y-110699618D01*
X79470676Y-110699618D02*
X79623057Y-110661523D01*
X79623057Y-110661523D02*
X79813533Y-110661523D01*
X79813533Y-110661523D02*
X79965914Y-110699618D01*
X79965914Y-110699618D02*
X80042104Y-110737713D01*
X80042104Y-110737713D02*
X80080200Y-110775808D01*
X80080200Y-110775808D02*
X80118295Y-110851999D01*
X80118295Y-110851999D02*
X80118295Y-110928189D01*
X80118295Y-110928189D02*
X80080200Y-111004380D01*
X80080200Y-111004380D02*
X80042104Y-111042475D01*
X80042104Y-111042475D02*
X79965914Y-111080570D01*
X79965914Y-111080570D02*
X79813533Y-111118666D01*
X79813533Y-111118666D02*
X79623057Y-111118666D01*
X79623057Y-111118666D02*
X79470676Y-111080570D01*
X79470676Y-111080570D02*
X79394485Y-111042475D01*
X79394485Y-111042475D02*
X79356390Y-111004380D01*
X79356390Y-111004380D02*
X79318295Y-110928189D01*
X80118295Y-110318665D02*
X79318295Y-110318665D01*
X80118295Y-109861522D02*
X79661152Y-110204380D01*
X79318295Y-109861522D02*
X79775438Y-110318665D01*
X64852961Y-111880571D02*
X65386295Y-111880571D01*
X64548200Y-112071047D02*
X65119628Y-112261524D01*
X65119628Y-112261524D02*
X65119628Y-111766285D01*
X64586295Y-111537714D02*
X64586295Y-111042476D01*
X64586295Y-111042476D02*
X64891057Y-111309142D01*
X64891057Y-111309142D02*
X64891057Y-111194857D01*
X64891057Y-111194857D02*
X64929152Y-111118666D01*
X64929152Y-111118666D02*
X64967247Y-111080571D01*
X64967247Y-111080571D02*
X65043438Y-111042476D01*
X65043438Y-111042476D02*
X65233914Y-111042476D01*
X65233914Y-111042476D02*
X65310104Y-111080571D01*
X65310104Y-111080571D02*
X65348200Y-111118666D01*
X65348200Y-111118666D02*
X65386295Y-111194857D01*
X65386295Y-111194857D02*
X65386295Y-111423428D01*
X65386295Y-111423428D02*
X65348200Y-111499619D01*
X65348200Y-111499619D02*
X65310104Y-111537714D01*
X65386295Y-110699618D02*
X64586295Y-110699618D01*
X65386295Y-110242475D02*
X64929152Y-110585333D01*
X64586295Y-110242475D02*
X65043438Y-110699618D01*
X92553523Y-101790819D02*
X92077333Y-101790819D01*
X92077333Y-101790819D02*
X92077333Y-100790819D01*
X92886857Y-101790819D02*
X92886857Y-100790819D01*
X92886857Y-100790819D02*
X93220190Y-101505104D01*
X93220190Y-101505104D02*
X93553523Y-100790819D01*
X93553523Y-100790819D02*
X93553523Y-101790819D01*
X93934476Y-100790819D02*
X94601142Y-100790819D01*
X94601142Y-100790819D02*
X94172571Y-101790819D01*
X95410666Y-101124152D02*
X95410666Y-101790819D01*
X95172571Y-100743200D02*
X94934476Y-101457485D01*
X94934476Y-101457485D02*
X95553523Y-101457485D01*
X96458285Y-101790819D02*
X95886857Y-101790819D01*
X96172571Y-101790819D02*
X96172571Y-100790819D01*
X96172571Y-100790819D02*
X96077333Y-100933676D01*
X96077333Y-100933676D02*
X95982095Y-101028914D01*
X95982095Y-101028914D02*
X95886857Y-101076533D01*
X76854485Y-112412000D02*
X76816390Y-112373904D01*
X76816390Y-112373904D02*
X76778295Y-112297714D01*
X76778295Y-112297714D02*
X76778295Y-112107238D01*
X76778295Y-112107238D02*
X76816390Y-112031047D01*
X76816390Y-112031047D02*
X76854485Y-111992952D01*
X76854485Y-111992952D02*
X76930676Y-111954857D01*
X76930676Y-111954857D02*
X77006866Y-111954857D01*
X77006866Y-111954857D02*
X77121152Y-111992952D01*
X77121152Y-111992952D02*
X77578295Y-112450095D01*
X77578295Y-112450095D02*
X77578295Y-111954857D01*
X77502104Y-111611999D02*
X77540200Y-111573904D01*
X77540200Y-111573904D02*
X77578295Y-111611999D01*
X77578295Y-111611999D02*
X77540200Y-111650095D01*
X77540200Y-111650095D02*
X77502104Y-111611999D01*
X77502104Y-111611999D02*
X77578295Y-111611999D01*
X76854485Y-111269143D02*
X76816390Y-111231047D01*
X76816390Y-111231047D02*
X76778295Y-111154857D01*
X76778295Y-111154857D02*
X76778295Y-110964381D01*
X76778295Y-110964381D02*
X76816390Y-110888190D01*
X76816390Y-110888190D02*
X76854485Y-110850095D01*
X76854485Y-110850095D02*
X76930676Y-110812000D01*
X76930676Y-110812000D02*
X77006866Y-110812000D01*
X77006866Y-110812000D02*
X77121152Y-110850095D01*
X77121152Y-110850095D02*
X77578295Y-111307238D01*
X77578295Y-111307238D02*
X77578295Y-110812000D01*
X77578295Y-110469142D02*
X76778295Y-110469142D01*
X77578295Y-110011999D02*
X77121152Y-110354857D01*
X76778295Y-110011999D02*
X77235438Y-110469142D01*
X135985380Y-100654295D02*
X136480618Y-100654295D01*
X136480618Y-100654295D02*
X136213952Y-100959057D01*
X136213952Y-100959057D02*
X136328237Y-100959057D01*
X136328237Y-100959057D02*
X136404428Y-100997152D01*
X136404428Y-100997152D02*
X136442523Y-101035247D01*
X136442523Y-101035247D02*
X136480618Y-101111438D01*
X136480618Y-101111438D02*
X136480618Y-101301914D01*
X136480618Y-101301914D02*
X136442523Y-101378104D01*
X136442523Y-101378104D02*
X136404428Y-101416200D01*
X136404428Y-101416200D02*
X136328237Y-101454295D01*
X136328237Y-101454295D02*
X136099666Y-101454295D01*
X136099666Y-101454295D02*
X136023475Y-101416200D01*
X136023475Y-101416200D02*
X135985380Y-101378104D01*
X136861571Y-101454295D02*
X137013952Y-101454295D01*
X137013952Y-101454295D02*
X137090142Y-101416200D01*
X137090142Y-101416200D02*
X137128238Y-101378104D01*
X137128238Y-101378104D02*
X137204428Y-101263819D01*
X137204428Y-101263819D02*
X137242523Y-101111438D01*
X137242523Y-101111438D02*
X137242523Y-100806676D01*
X137242523Y-100806676D02*
X137204428Y-100730485D01*
X137204428Y-100730485D02*
X137166333Y-100692390D01*
X137166333Y-100692390D02*
X137090142Y-100654295D01*
X137090142Y-100654295D02*
X136937761Y-100654295D01*
X136937761Y-100654295D02*
X136861571Y-100692390D01*
X136861571Y-100692390D02*
X136823476Y-100730485D01*
X136823476Y-100730485D02*
X136785380Y-100806676D01*
X136785380Y-100806676D02*
X136785380Y-100997152D01*
X136785380Y-100997152D02*
X136823476Y-101073342D01*
X136823476Y-101073342D02*
X136861571Y-101111438D01*
X136861571Y-101111438D02*
X136937761Y-101149533D01*
X136937761Y-101149533D02*
X137090142Y-101149533D01*
X137090142Y-101149533D02*
X137166333Y-101111438D01*
X137166333Y-101111438D02*
X137204428Y-101073342D01*
X137204428Y-101073342D02*
X137242523Y-100997152D01*
X137585381Y-101454295D02*
X137585381Y-100654295D01*
X138042524Y-101454295D02*
X137699666Y-100997152D01*
X138042524Y-100654295D02*
X137585381Y-101111438D01*
D13*
G04 #@! TO.C,Q7*
X93196000Y-117272000D02*
X96796000Y-117272000D01*
X92639600Y-114323193D02*
G75*
G02*
X94996000Y-112822000I2356400J-1098807D01*
G01*
X93196000Y-117272000D02*
G75*
G02*
X92671816Y-116544795I1800000J1850000D01*
G01*
X94996000Y-112822000D02*
G75*
G02*
X97352400Y-114323193I0J-2600000D01*
G01*
X97320184Y-116544795D02*
G75*
G02*
X96796000Y-117272000I-2324184J1122795D01*
G01*
G04 #@! TO.C,R21*
X138953000Y-95600000D02*
X135113000Y-95600000D01*
X138953000Y-97440000D02*
X135113000Y-97440000D01*
G04 #@! TO.C,SW2*
X88078000Y-112970000D02*
X89408000Y-112970000D01*
X88078000Y-114300000D02*
X88078000Y-112970000D01*
X88078000Y-115570000D02*
X88078000Y-118170000D01*
X88078000Y-115570000D02*
X90738000Y-115570000D01*
X88078000Y-118170000D02*
X90738000Y-118170000D01*
X90738000Y-115570000D02*
X90738000Y-118170000D01*
G04 #@! TO.C,R31*
X138953000Y-100172000D02*
X135113000Y-100172000D01*
X138953000Y-102012000D02*
X135113000Y-102012000D01*
G04 #@! TO.C,R22*
X138953000Y-102458000D02*
X135113000Y-102458000D01*
X138953000Y-104298000D02*
X135113000Y-104298000D01*
G04 #@! TO.C,U1*
X59570000Y-96206000D02*
X59570000Y-106486000D01*
X59570000Y-106486000D02*
X69970000Y-106486000D01*
X59630000Y-98696000D02*
X59630000Y-103996000D01*
X59630000Y-103996000D02*
X69910000Y-103996000D01*
X69910000Y-98696000D02*
X59630000Y-98696000D01*
X69910000Y-100346000D02*
X69910000Y-98696000D01*
X69910000Y-103996000D02*
X69910000Y-102346000D01*
X69970000Y-96206000D02*
X59570000Y-96206000D01*
X69970000Y-106486000D02*
X69970000Y-96206000D01*
X69910000Y-102346000D02*
G75*
G02*
X69910000Y-100346000I0J1000000D01*
G01*
G04 #@! TO.C,Q2*
X65510000Y-95576000D02*
X69110000Y-95576000D01*
X64953600Y-92627193D02*
G75*
G02*
X67310000Y-91126000I2356400J-1098807D01*
G01*
X65510000Y-95576000D02*
G75*
G02*
X64985816Y-94848795I1800000J1850000D01*
G01*
X67310000Y-91126000D02*
G75*
G02*
X69666400Y-92627193I0J-2600000D01*
G01*
X69634184Y-94848795D02*
G75*
G02*
X69110000Y-95576000I-2324184J1122795D01*
G01*
G04 #@! TO.C,R15*
X66644000Y-113172000D02*
X66644000Y-109332000D01*
X68484000Y-113172000D02*
X68484000Y-109332000D01*
G04 #@! TO.C,R9*
X106060000Y-93822000D02*
X102220000Y-93822000D01*
X106060000Y-95662000D02*
X102220000Y-95662000D01*
G04 #@! TO.C,R24*
X138653000Y-107046000D02*
X138653000Y-110886000D01*
X140493000Y-107046000D02*
X140493000Y-110886000D01*
G04 #@! TO.C,C12*
X134855000Y-107516000D02*
X134855000Y-112856000D01*
X134855000Y-112856000D02*
X138195000Y-112856000D01*
X136525000Y-107476000D02*
X136525000Y-107516000D01*
X136525000Y-112896000D02*
X136525000Y-112856000D01*
X138195000Y-107516000D02*
X134855000Y-107516000D01*
X138195000Y-112856000D02*
X138195000Y-107516000D01*
G04 #@! TO.C,R25*
X131587000Y-102458000D02*
X127747000Y-102458000D01*
X131587000Y-104298000D02*
X127747000Y-104298000D01*
G04 #@! TO.C,C10*
X107031554Y-109570800D02*
X108031554Y-109570800D01*
X107531554Y-109070800D02*
X107531554Y-110070800D01*
X112511200Y-107365800D02*
X112511200Y-117525800D01*
X112551200Y-107365800D02*
X112551200Y-117525800D01*
X112591200Y-107365800D02*
X112591200Y-117525800D01*
X112631200Y-107366800D02*
X112631200Y-117524800D01*
X112671200Y-107367800D02*
X112671200Y-117523800D01*
X112711200Y-107368800D02*
X112711200Y-117522800D01*
X112751200Y-107370800D02*
X112751200Y-117520800D01*
X112791200Y-107372800D02*
X112791200Y-117518800D01*
X112831200Y-107375800D02*
X112831200Y-117515800D01*
X112871200Y-107377800D02*
X112871200Y-117513800D01*
X112911200Y-107380800D02*
X112911200Y-117510800D01*
X112951200Y-107383800D02*
X112951200Y-117507800D01*
X112991200Y-107387800D02*
X112991200Y-117503800D01*
X113031200Y-107391800D02*
X113031200Y-117499800D01*
X113071200Y-107395800D02*
X113071200Y-117495800D01*
X113111200Y-107400800D02*
X113111200Y-117490800D01*
X113151200Y-107405800D02*
X113151200Y-117485800D01*
X113191200Y-107410800D02*
X113191200Y-117480800D01*
X113232200Y-107415800D02*
X113232200Y-117475800D01*
X113272200Y-107421800D02*
X113272200Y-117469800D01*
X113312200Y-107427800D02*
X113312200Y-117463800D01*
X113352200Y-107434800D02*
X113352200Y-117456800D01*
X113392200Y-107441800D02*
X113392200Y-117449800D01*
X113432200Y-107448800D02*
X113432200Y-117442800D01*
X113472200Y-107455800D02*
X113472200Y-117435800D01*
X113512200Y-107463800D02*
X113512200Y-117427800D01*
X113552200Y-107471800D02*
X113552200Y-117419800D01*
X113592200Y-107480800D02*
X113592200Y-117410800D01*
X113632200Y-107489800D02*
X113632200Y-117401800D01*
X113672200Y-107498800D02*
X113672200Y-117392800D01*
X113712200Y-107507800D02*
X113712200Y-117383800D01*
X113752200Y-107517800D02*
X113752200Y-117373800D01*
X113792200Y-107527800D02*
X113792200Y-111204800D01*
X113792200Y-113686800D02*
X113792200Y-117363800D01*
X113832200Y-107538800D02*
X113832200Y-111204800D01*
X113832200Y-113686800D02*
X113832200Y-117352800D01*
X113872200Y-107548800D02*
X113872200Y-111204800D01*
X113872200Y-113686800D02*
X113872200Y-117342800D01*
X113912200Y-107560800D02*
X113912200Y-111204800D01*
X113912200Y-113686800D02*
X113912200Y-117330800D01*
X113952200Y-107571800D02*
X113952200Y-111204800D01*
X113952200Y-113686800D02*
X113952200Y-117319800D01*
X113992200Y-107583800D02*
X113992200Y-111204800D01*
X113992200Y-113686800D02*
X113992200Y-117307800D01*
X114032200Y-107595800D02*
X114032200Y-111204800D01*
X114032200Y-113686800D02*
X114032200Y-117295800D01*
X114072200Y-107608800D02*
X114072200Y-111204800D01*
X114072200Y-113686800D02*
X114072200Y-117282800D01*
X114112200Y-107621800D02*
X114112200Y-111204800D01*
X114112200Y-113686800D02*
X114112200Y-117269800D01*
X114152200Y-107634800D02*
X114152200Y-111204800D01*
X114152200Y-113686800D02*
X114152200Y-117256800D01*
X114192200Y-107648800D02*
X114192200Y-111204800D01*
X114192200Y-113686800D02*
X114192200Y-117242800D01*
X114232200Y-107662800D02*
X114232200Y-111204800D01*
X114232200Y-113686800D02*
X114232200Y-117228800D01*
X114272200Y-107677800D02*
X114272200Y-111204800D01*
X114272200Y-113686800D02*
X114272200Y-117213800D01*
X114312200Y-107691800D02*
X114312200Y-111204800D01*
X114312200Y-113686800D02*
X114312200Y-117199800D01*
X114352200Y-107707800D02*
X114352200Y-111204800D01*
X114352200Y-113686800D02*
X114352200Y-117183800D01*
X114392200Y-107722800D02*
X114392200Y-111204800D01*
X114392200Y-113686800D02*
X114392200Y-117168800D01*
X114432200Y-107738800D02*
X114432200Y-111204800D01*
X114432200Y-113686800D02*
X114432200Y-117152800D01*
X114472200Y-107755800D02*
X114472200Y-111204800D01*
X114472200Y-113686800D02*
X114472200Y-117135800D01*
X114512200Y-107771800D02*
X114512200Y-111204800D01*
X114512200Y-113686800D02*
X114512200Y-117119800D01*
X114552200Y-107788800D02*
X114552200Y-111204800D01*
X114552200Y-113686800D02*
X114552200Y-117102800D01*
X114592200Y-107806800D02*
X114592200Y-111204800D01*
X114592200Y-113686800D02*
X114592200Y-117084800D01*
X114632200Y-107824800D02*
X114632200Y-111204800D01*
X114632200Y-113686800D02*
X114632200Y-117066800D01*
X114672200Y-107842800D02*
X114672200Y-111204800D01*
X114672200Y-113686800D02*
X114672200Y-117048800D01*
X114712200Y-107861800D02*
X114712200Y-111204800D01*
X114712200Y-113686800D02*
X114712200Y-117029800D01*
X114752200Y-107881800D02*
X114752200Y-111204800D01*
X114752200Y-113686800D02*
X114752200Y-117009800D01*
X114792200Y-107900800D02*
X114792200Y-111204800D01*
X114792200Y-113686800D02*
X114792200Y-116990800D01*
X114832200Y-107920800D02*
X114832200Y-111204800D01*
X114832200Y-113686800D02*
X114832200Y-116970800D01*
X114872200Y-107941800D02*
X114872200Y-111204800D01*
X114872200Y-113686800D02*
X114872200Y-116949800D01*
X114912200Y-107962800D02*
X114912200Y-111204800D01*
X114912200Y-113686800D02*
X114912200Y-116928800D01*
X114952200Y-107983800D02*
X114952200Y-111204800D01*
X114952200Y-113686800D02*
X114952200Y-116907800D01*
X114992200Y-108005800D02*
X114992200Y-111204800D01*
X114992200Y-113686800D02*
X114992200Y-116885800D01*
X115032200Y-108028800D02*
X115032200Y-111204800D01*
X115032200Y-113686800D02*
X115032200Y-116862800D01*
X115072200Y-108050800D02*
X115072200Y-111204800D01*
X115072200Y-113686800D02*
X115072200Y-116840800D01*
X115112200Y-108074800D02*
X115112200Y-111204800D01*
X115112200Y-113686800D02*
X115112200Y-116816800D01*
X115152200Y-108098800D02*
X115152200Y-111204800D01*
X115152200Y-113686800D02*
X115152200Y-116792800D01*
X115192200Y-108122800D02*
X115192200Y-111204800D01*
X115192200Y-113686800D02*
X115192200Y-116768800D01*
X115232200Y-108147800D02*
X115232200Y-111204800D01*
X115232200Y-113686800D02*
X115232200Y-116743800D01*
X115272200Y-108172800D02*
X115272200Y-111204800D01*
X115272200Y-113686800D02*
X115272200Y-116718800D01*
X115312200Y-108198800D02*
X115312200Y-111204800D01*
X115312200Y-113686800D02*
X115312200Y-116692800D01*
X115352200Y-108224800D02*
X115352200Y-111204800D01*
X115352200Y-113686800D02*
X115352200Y-116666800D01*
X115392200Y-108251800D02*
X115392200Y-111204800D01*
X115392200Y-113686800D02*
X115392200Y-116639800D01*
X115432200Y-108279800D02*
X115432200Y-111204800D01*
X115432200Y-113686800D02*
X115432200Y-116611800D01*
X115472200Y-108307800D02*
X115472200Y-111204800D01*
X115472200Y-113686800D02*
X115472200Y-116583800D01*
X115512200Y-108335800D02*
X115512200Y-111204800D01*
X115512200Y-113686800D02*
X115512200Y-116555800D01*
X115552200Y-108365800D02*
X115552200Y-111204800D01*
X115552200Y-113686800D02*
X115552200Y-116525800D01*
X115592200Y-108395800D02*
X115592200Y-111204800D01*
X115592200Y-113686800D02*
X115592200Y-116495800D01*
X115632200Y-108425800D02*
X115632200Y-111204800D01*
X115632200Y-113686800D02*
X115632200Y-116465800D01*
X115672200Y-108456800D02*
X115672200Y-111204800D01*
X115672200Y-113686800D02*
X115672200Y-116434800D01*
X115712200Y-108488800D02*
X115712200Y-111204800D01*
X115712200Y-113686800D02*
X115712200Y-116402800D01*
X115752200Y-108520800D02*
X115752200Y-111204800D01*
X115752200Y-113686800D02*
X115752200Y-116370800D01*
X115792200Y-108553800D02*
X115792200Y-111204800D01*
X115792200Y-113686800D02*
X115792200Y-116337800D01*
X115832200Y-108587800D02*
X115832200Y-111204800D01*
X115832200Y-113686800D02*
X115832200Y-116303800D01*
X115872200Y-108621800D02*
X115872200Y-111204800D01*
X115872200Y-113686800D02*
X115872200Y-116269800D01*
X115912200Y-108656800D02*
X115912200Y-111204800D01*
X115912200Y-113686800D02*
X115912200Y-116234800D01*
X115952200Y-108692800D02*
X115952200Y-111204800D01*
X115952200Y-113686800D02*
X115952200Y-116198800D01*
X115992200Y-108729800D02*
X115992200Y-111204800D01*
X115992200Y-113686800D02*
X115992200Y-116161800D01*
X116032200Y-108766800D02*
X116032200Y-111204800D01*
X116032200Y-113686800D02*
X116032200Y-116124800D01*
X116072200Y-108805800D02*
X116072200Y-111204800D01*
X116072200Y-113686800D02*
X116072200Y-116085800D01*
X116112200Y-108844800D02*
X116112200Y-111204800D01*
X116112200Y-113686800D02*
X116112200Y-116046800D01*
X116152200Y-108884800D02*
X116152200Y-111204800D01*
X116152200Y-113686800D02*
X116152200Y-116006800D01*
X116192200Y-108925800D02*
X116192200Y-111204800D01*
X116192200Y-113686800D02*
X116192200Y-115965800D01*
X116232200Y-108967800D02*
X116232200Y-111204800D01*
X116232200Y-113686800D02*
X116232200Y-115923800D01*
X116272200Y-109009800D02*
X116272200Y-115881800D01*
X116312200Y-109053800D02*
X116312200Y-115837800D01*
X116352200Y-109098800D02*
X116352200Y-115792800D01*
X116392200Y-109144800D02*
X116392200Y-115746800D01*
X116432200Y-109191800D02*
X116432200Y-115699800D01*
X116472200Y-109239800D02*
X116472200Y-115651800D01*
X116512200Y-109289800D02*
X116512200Y-115601800D01*
X116552200Y-109339800D02*
X116552200Y-115551800D01*
X116592200Y-109391800D02*
X116592200Y-115499800D01*
X116632200Y-109445800D02*
X116632200Y-115445800D01*
X116672200Y-109500800D02*
X116672200Y-115390800D01*
X116712200Y-109556800D02*
X116712200Y-115334800D01*
X116752200Y-109615800D02*
X116752200Y-115275800D01*
X116792200Y-109675800D02*
X116792200Y-115215800D01*
X116832200Y-109736800D02*
X116832200Y-115154800D01*
X116872200Y-109800800D02*
X116872200Y-115090800D01*
X116912200Y-109866800D02*
X116912200Y-115024800D01*
X116952200Y-109935800D02*
X116952200Y-114955800D01*
X116992200Y-110006800D02*
X116992200Y-114884800D01*
X117032200Y-110080800D02*
X117032200Y-114810800D01*
X117072200Y-110156800D02*
X117072200Y-114734800D01*
X117112200Y-110236800D02*
X117112200Y-114654800D01*
X117152200Y-110320800D02*
X117152200Y-114570800D01*
X117192200Y-110408800D02*
X117192200Y-114482800D01*
X117232200Y-110501800D02*
X117232200Y-114389800D01*
X117272200Y-110599800D02*
X117272200Y-114291800D01*
X117312200Y-110703800D02*
X117312200Y-114187800D01*
X117352200Y-110815800D02*
X117352200Y-114075800D01*
X117392200Y-110935800D02*
X117392200Y-113955800D01*
X117432200Y-111067800D02*
X117432200Y-113823800D01*
X117472200Y-111215800D02*
X117472200Y-113675800D01*
X117512200Y-111383800D02*
X117512200Y-113507800D01*
X117552200Y-111583800D02*
X117552200Y-113307800D01*
X117592200Y-111846800D02*
X117592200Y-113044800D01*
X117631200Y-112445800D02*
G75*
G02*
X107391200Y-112445800I-5120000J0D01*
G01*
X107391200Y-112445800D02*
G75*
G02*
X117631200Y-112445800I5120000J0D01*
G01*
G04 #@! TO.C,C1*
X55734000Y-99438000D02*
X55734000Y-104778000D01*
X55734000Y-104778000D02*
X59074000Y-104778000D01*
X57404000Y-99398000D02*
X57404000Y-99438000D01*
X57404000Y-104818000D02*
X57404000Y-104778000D01*
X59074000Y-99438000D02*
X55734000Y-99438000D01*
X59074000Y-104778000D02*
X59074000Y-99438000D01*
G04 #@! TO.C,R4*
X72756000Y-91536000D02*
X76596000Y-91536000D01*
X72756000Y-93376000D02*
X76596000Y-93376000D01*
G04 #@! TO.C,R18*
X115458000Y-117952000D02*
X111618000Y-117952000D01*
X115458000Y-119792000D02*
X111618000Y-119792000D01*
G04 #@! TO.C,RV3*
X118364000Y-95699000D02*
X118364000Y-105469000D01*
X123434000Y-95699000D02*
X118364000Y-95699000D01*
X123434000Y-95699000D02*
X123434000Y-105469000D01*
X123434000Y-105469000D02*
X118364000Y-105469000D01*
G04 #@! TO.C,U5*
X123949000Y-105106000D02*
X123949000Y-115386000D01*
X123949000Y-115386000D02*
X134349000Y-115386000D01*
X124009000Y-107596000D02*
X124009000Y-112896000D01*
X124009000Y-112896000D02*
X134289000Y-112896000D01*
X134289000Y-107596000D02*
X124009000Y-107596000D01*
X134289000Y-109246000D02*
X134289000Y-107596000D01*
X134289000Y-112896000D02*
X134289000Y-111246000D01*
X134349000Y-105106000D02*
X123949000Y-105106000D01*
X134349000Y-115386000D02*
X134349000Y-105106000D01*
X134289000Y-111246000D02*
G75*
G02*
X134289000Y-109246000I0J1000000D01*
G01*
G04 #@! TO.C,Q1*
X96796000Y-107878000D02*
X93196000Y-107878000D01*
X92671816Y-108605205D02*
G75*
G02*
X93196000Y-107878000I2324184J-1122795D01*
G01*
X94996000Y-112328000D02*
G75*
G02*
X92639600Y-110826807I0J2600000D01*
G01*
X96796000Y-107878000D02*
G75*
G02*
X97320184Y-108605205I-1800000J-1850000D01*
G01*
X97352400Y-110826807D02*
G75*
G02*
X94996000Y-112328000I-2356400J1098807D01*
G01*
G04 #@! TO.C,R14*
X56484000Y-109332000D02*
X56484000Y-113172000D01*
X58324000Y-109332000D02*
X58324000Y-113172000D01*
G04 #@! TO.C,Q4*
X94974000Y-95576000D02*
X98574000Y-95576000D01*
X94417600Y-92627193D02*
G75*
G02*
X96774000Y-91126000I2356400J-1098807D01*
G01*
X94974000Y-95576000D02*
G75*
G02*
X94449816Y-94848795I1800000J1850000D01*
G01*
X96774000Y-91126000D02*
G75*
G02*
X99130400Y-92627193I0J-2600000D01*
G01*
X99098184Y-94848795D02*
G75*
G02*
X98574000Y-95576000I-2324184J1122795D01*
G01*
G04 #@! TO.C,RV2*
X135322000Y-115510000D02*
X135322000Y-118170000D01*
X137922000Y-115510000D02*
X135322000Y-115510000D01*
X137922000Y-115510000D02*
X137922000Y-118170000D01*
X137922000Y-118170000D02*
X135322000Y-118170000D01*
X139192000Y-115510000D02*
X140522000Y-115510000D01*
X140522000Y-115510000D02*
X140522000Y-116840000D01*
G04 #@! TO.C,Q6*
X58856000Y-109452000D02*
X58856000Y-113052000D01*
X58856000Y-109452000D02*
G75*
G02*
X59583205Y-108927816I1850000J-1800000D01*
G01*
X59583205Y-113576184D02*
G75*
G02*
X58856000Y-113052000I1122795J2324184D01*
G01*
X61804807Y-108895600D02*
G75*
G02*
X63306000Y-111252000I-1098807J-2356400D01*
G01*
X63306000Y-111252000D02*
G75*
G02*
X61804807Y-113608400I-2600000J0D01*
G01*
G04 #@! TO.C,R13*
X115412000Y-100442000D02*
X115412000Y-104282000D01*
X117252000Y-100442000D02*
X117252000Y-104282000D01*
G04 #@! TO.C,R16*
X100442000Y-107538000D02*
X104282000Y-107538000D01*
X100442000Y-109378000D02*
X104282000Y-109378000D01*
G04 #@! TO.C,R29*
X131587000Y-100172000D02*
X127747000Y-100172000D01*
X131587000Y-102012000D02*
X127747000Y-102012000D01*
G04 #@! TO.C,C5*
X88996000Y-109333000D02*
X88996000Y-110591000D01*
X90836000Y-109333000D02*
X90836000Y-110591000D01*
G04 #@! TO.C,D1*
X100912000Y-117402000D02*
X106352000Y-117402000D01*
X100912000Y-117732000D02*
X100912000Y-117402000D01*
X100912000Y-120012000D02*
X100912000Y-120342000D01*
X100912000Y-120342000D02*
X106352000Y-120342000D01*
X101692000Y-117402000D02*
X101692000Y-120342000D01*
X101812000Y-117402000D02*
X101812000Y-120342000D01*
X101932000Y-117402000D02*
X101932000Y-120342000D01*
X106352000Y-117402000D02*
X106352000Y-117732000D01*
X106352000Y-120342000D02*
X106352000Y-120012000D01*
G04 #@! TO.C,R8*
X102220000Y-91536000D02*
X106060000Y-91536000D01*
X102220000Y-93376000D02*
X106060000Y-93376000D01*
G04 #@! TO.C,J2*
X66757000Y-118170000D02*
X66757000Y-116840000D01*
X68087000Y-118170000D02*
X66757000Y-118170000D01*
X69357000Y-115510000D02*
X74497000Y-115510000D01*
X69357000Y-118170000D02*
X69357000Y-115510000D01*
X69357000Y-118170000D02*
X74497000Y-118170000D01*
X74497000Y-118170000D02*
X74497000Y-115510000D01*
G04 #@! TO.C,R11*
X81376000Y-109292000D02*
X81376000Y-113132000D01*
X83216000Y-109292000D02*
X83216000Y-113132000D01*
G04 #@! TO.C,C11*
X124048000Y-97141000D02*
X124048000Y-98399000D01*
X125888000Y-97141000D02*
X125888000Y-98399000D01*
G04 #@! TO.C,R19*
X98902000Y-111724000D02*
X98902000Y-115564000D01*
X100742000Y-111724000D02*
X100742000Y-115564000D01*
G04 #@! TO.C,C7*
X69184000Y-109373000D02*
X69184000Y-110631000D01*
X71024000Y-109373000D02*
X71024000Y-110631000D01*
G04 #@! TO.C,Q5*
X109706000Y-95576000D02*
X113306000Y-95576000D01*
X109149600Y-92627193D02*
G75*
G02*
X111506000Y-91126000I2356400J-1098807D01*
G01*
X109706000Y-95576000D02*
G75*
G02*
X109181816Y-94848795I1800000J1850000D01*
G01*
X111506000Y-91126000D02*
G75*
G02*
X113862400Y-92627193I0J-2600000D01*
G01*
X113830184Y-94848795D02*
G75*
G02*
X113306000Y-95576000I-2324184J1122795D01*
G01*
G04 #@! TO.C,C8*
X58444000Y-116840000D02*
X58484000Y-116840000D01*
X58484000Y-115170000D02*
X58484000Y-118510000D01*
X58484000Y-118510000D02*
X63824000Y-118510000D01*
X63824000Y-115170000D02*
X58484000Y-115170000D01*
X63824000Y-118510000D02*
X63824000Y-115170000D01*
X63864000Y-116840000D02*
X63824000Y-116840000D01*
G04 #@! TO.C,C6*
X83916000Y-109333000D02*
X83916000Y-110591000D01*
X85756000Y-109333000D02*
X85756000Y-110591000D01*
G04 #@! TO.C,C2*
X70466000Y-98616000D02*
X70466000Y-103956000D01*
X70466000Y-103956000D02*
X73806000Y-103956000D01*
X72136000Y-98576000D02*
X72136000Y-98616000D01*
X72136000Y-103996000D02*
X72136000Y-103956000D01*
X73806000Y-98616000D02*
X70466000Y-98616000D01*
X73806000Y-103956000D02*
X73806000Y-98616000D01*
G04 #@! TO.C,R3*
X61864000Y-93314000D02*
X58024000Y-93314000D01*
X61864000Y-95154000D02*
X58024000Y-95154000D01*
G04 #@! TO.C,R23*
X121397000Y-115920000D02*
X125237000Y-115920000D01*
X121397000Y-117760000D02*
X125237000Y-117760000D01*
G04 #@! TO.C,C4*
X99930000Y-98616000D02*
X99930000Y-103956000D01*
X99930000Y-103956000D02*
X103270000Y-103956000D01*
X101600000Y-98576000D02*
X101600000Y-98616000D01*
X101600000Y-103996000D02*
X101600000Y-103956000D01*
X103270000Y-98616000D02*
X99930000Y-98616000D01*
X103270000Y-103956000D02*
X103270000Y-98616000D01*
G04 #@! TO.C,U4*
X103766000Y-96206000D02*
X103766000Y-106486000D01*
X103766000Y-106486000D02*
X114166000Y-106486000D01*
X103826000Y-98696000D02*
X103826000Y-103996000D01*
X103826000Y-103996000D02*
X114106000Y-103996000D01*
X114106000Y-98696000D02*
X103826000Y-98696000D01*
X114106000Y-100346000D02*
X114106000Y-98696000D01*
X114106000Y-103996000D02*
X114106000Y-102346000D01*
X114166000Y-96206000D02*
X103766000Y-96206000D01*
X114166000Y-106486000D02*
X114166000Y-96206000D01*
X114106000Y-102346000D02*
G75*
G02*
X114106000Y-100346000I0J1000000D01*
G01*
G04 #@! TO.C,R20*
X131587000Y-95600000D02*
X127747000Y-95600000D01*
X131587000Y-97440000D02*
X127747000Y-97440000D01*
G04 #@! TO.C,R17*
X102524800Y-115208800D02*
X106364800Y-115208800D01*
X102524800Y-117048800D02*
X106364800Y-117048800D01*
G04 #@! TO.C,R1*
X58024000Y-91028000D02*
X61864000Y-91028000D01*
X58024000Y-92868000D02*
X61864000Y-92868000D01*
G04 #@! TO.C,C9*
X101380113Y-110793000D02*
X101880113Y-110793000D01*
X101630113Y-110543000D02*
X101630113Y-111043000D01*
X104184888Y-109688000D02*
X104184888Y-114848000D01*
X104224888Y-109688000D02*
X104224888Y-114848000D01*
X104264888Y-109689000D02*
X104264888Y-114847000D01*
X104304888Y-109690000D02*
X104304888Y-114846000D01*
X104344888Y-109692000D02*
X104344888Y-114844000D01*
X104384888Y-109695000D02*
X104384888Y-114841000D01*
X104424888Y-109699000D02*
X104424888Y-111228000D01*
X104424888Y-113308000D02*
X104424888Y-114837000D01*
X104464888Y-109703000D02*
X104464888Y-111228000D01*
X104464888Y-113308000D02*
X104464888Y-114833000D01*
X104504888Y-109707000D02*
X104504888Y-111228000D01*
X104504888Y-113308000D02*
X104504888Y-114829000D01*
X104544888Y-109712000D02*
X104544888Y-111228000D01*
X104544888Y-113308000D02*
X104544888Y-114824000D01*
X104584888Y-109718000D02*
X104584888Y-111228000D01*
X104584888Y-113308000D02*
X104584888Y-114818000D01*
X104624888Y-109725000D02*
X104624888Y-111228000D01*
X104624888Y-113308000D02*
X104624888Y-114811000D01*
X104664888Y-109732000D02*
X104664888Y-111228000D01*
X104664888Y-113308000D02*
X104664888Y-114804000D01*
X104704888Y-109740000D02*
X104704888Y-111228000D01*
X104704888Y-113308000D02*
X104704888Y-114796000D01*
X104744888Y-109748000D02*
X104744888Y-111228000D01*
X104744888Y-113308000D02*
X104744888Y-114788000D01*
X104784888Y-109757000D02*
X104784888Y-111228000D01*
X104784888Y-113308000D02*
X104784888Y-114779000D01*
X104824888Y-109767000D02*
X104824888Y-111228000D01*
X104824888Y-113308000D02*
X104824888Y-114769000D01*
X104864888Y-109777000D02*
X104864888Y-111228000D01*
X104864888Y-113308000D02*
X104864888Y-114759000D01*
X104905888Y-109788000D02*
X104905888Y-111228000D01*
X104905888Y-113308000D02*
X104905888Y-114748000D01*
X104945888Y-109800000D02*
X104945888Y-111228000D01*
X104945888Y-113308000D02*
X104945888Y-114736000D01*
X104985888Y-109813000D02*
X104985888Y-111228000D01*
X104985888Y-113308000D02*
X104985888Y-114723000D01*
X105025888Y-109826000D02*
X105025888Y-111228000D01*
X105025888Y-113308000D02*
X105025888Y-114710000D01*
X105065888Y-109840000D02*
X105065888Y-111228000D01*
X105065888Y-113308000D02*
X105065888Y-114696000D01*
X105105888Y-109854000D02*
X105105888Y-111228000D01*
X105105888Y-113308000D02*
X105105888Y-114682000D01*
X105145888Y-109870000D02*
X105145888Y-111228000D01*
X105145888Y-113308000D02*
X105145888Y-114666000D01*
X105185888Y-109886000D02*
X105185888Y-111228000D01*
X105185888Y-113308000D02*
X105185888Y-114650000D01*
X105225888Y-109903000D02*
X105225888Y-111228000D01*
X105225888Y-113308000D02*
X105225888Y-114633000D01*
X105265888Y-109920000D02*
X105265888Y-111228000D01*
X105265888Y-113308000D02*
X105265888Y-114616000D01*
X105305888Y-109939000D02*
X105305888Y-111228000D01*
X105305888Y-113308000D02*
X105305888Y-114597000D01*
X105345888Y-109958000D02*
X105345888Y-111228000D01*
X105345888Y-113308000D02*
X105345888Y-114578000D01*
X105385888Y-109978000D02*
X105385888Y-111228000D01*
X105385888Y-113308000D02*
X105385888Y-114558000D01*
X105425888Y-110000000D02*
X105425888Y-111228000D01*
X105425888Y-113308000D02*
X105425888Y-114536000D01*
X105465888Y-110021000D02*
X105465888Y-111228000D01*
X105465888Y-113308000D02*
X105465888Y-114515000D01*
X105505888Y-110044000D02*
X105505888Y-111228000D01*
X105505888Y-113308000D02*
X105505888Y-114492000D01*
X105545888Y-110068000D02*
X105545888Y-111228000D01*
X105545888Y-113308000D02*
X105545888Y-114468000D01*
X105585888Y-110093000D02*
X105585888Y-111228000D01*
X105585888Y-113308000D02*
X105585888Y-114443000D01*
X105625888Y-110119000D02*
X105625888Y-111228000D01*
X105625888Y-113308000D02*
X105625888Y-114417000D01*
X105665888Y-110146000D02*
X105665888Y-111228000D01*
X105665888Y-113308000D02*
X105665888Y-114390000D01*
X105705888Y-110173000D02*
X105705888Y-111228000D01*
X105705888Y-113308000D02*
X105705888Y-114363000D01*
X105745888Y-110203000D02*
X105745888Y-111228000D01*
X105745888Y-113308000D02*
X105745888Y-114333000D01*
X105785888Y-110233000D02*
X105785888Y-111228000D01*
X105785888Y-113308000D02*
X105785888Y-114303000D01*
X105825888Y-110264000D02*
X105825888Y-111228000D01*
X105825888Y-113308000D02*
X105825888Y-114272000D01*
X105865888Y-110297000D02*
X105865888Y-111228000D01*
X105865888Y-113308000D02*
X105865888Y-114239000D01*
X105905888Y-110331000D02*
X105905888Y-111228000D01*
X105905888Y-113308000D02*
X105905888Y-114205000D01*
X105945888Y-110367000D02*
X105945888Y-111228000D01*
X105945888Y-113308000D02*
X105945888Y-114169000D01*
X105985888Y-110404000D02*
X105985888Y-111228000D01*
X105985888Y-113308000D02*
X105985888Y-114132000D01*
X106025888Y-110442000D02*
X106025888Y-111228000D01*
X106025888Y-113308000D02*
X106025888Y-114094000D01*
X106065888Y-110483000D02*
X106065888Y-111228000D01*
X106065888Y-113308000D02*
X106065888Y-114053000D01*
X106105888Y-110525000D02*
X106105888Y-111228000D01*
X106105888Y-113308000D02*
X106105888Y-114011000D01*
X106145888Y-110569000D02*
X106145888Y-111228000D01*
X106145888Y-113308000D02*
X106145888Y-113967000D01*
X106185888Y-110615000D02*
X106185888Y-111228000D01*
X106185888Y-113308000D02*
X106185888Y-113921000D01*
X106225888Y-110663000D02*
X106225888Y-111228000D01*
X106225888Y-113308000D02*
X106225888Y-113873000D01*
X106265888Y-110714000D02*
X106265888Y-111228000D01*
X106265888Y-113308000D02*
X106265888Y-113822000D01*
X106305888Y-110768000D02*
X106305888Y-111228000D01*
X106305888Y-113308000D02*
X106305888Y-113768000D01*
X106345888Y-110825000D02*
X106345888Y-111228000D01*
X106345888Y-113308000D02*
X106345888Y-113711000D01*
X106385888Y-110885000D02*
X106385888Y-111228000D01*
X106385888Y-113308000D02*
X106385888Y-113651000D01*
X106425888Y-110949000D02*
X106425888Y-111228000D01*
X106425888Y-113308000D02*
X106425888Y-113587000D01*
X106465888Y-111017000D02*
X106465888Y-111228000D01*
X106465888Y-113308000D02*
X106465888Y-113519000D01*
X106505888Y-111090000D02*
X106505888Y-113446000D01*
X106545888Y-111170000D02*
X106545888Y-113366000D01*
X106585888Y-111257000D02*
X106585888Y-113279000D01*
X106625888Y-111353000D02*
X106625888Y-113183000D01*
X106665888Y-111463000D02*
X106665888Y-113073000D01*
X106705888Y-111591000D02*
X106705888Y-112945000D01*
X106745888Y-111750000D02*
X106745888Y-112786000D01*
X106785888Y-111984000D02*
X106785888Y-112552000D01*
X106804888Y-112268000D02*
G75*
G02*
X101564888Y-112268000I-2620000J0D01*
G01*
X101564888Y-112268000D02*
G75*
G02*
X106804888Y-112268000I2620000J0D01*
G01*
G04 #@! TO.C,C14*
X117992225Y-106983000D02*
X118492225Y-106983000D01*
X118242225Y-106733000D02*
X118242225Y-107233000D01*
X120797000Y-105878000D02*
X120797000Y-111038000D01*
X120837000Y-105878000D02*
X120837000Y-111038000D01*
X120877000Y-105879000D02*
X120877000Y-111037000D01*
X120917000Y-105880000D02*
X120917000Y-111036000D01*
X120957000Y-105882000D02*
X120957000Y-111034000D01*
X120997000Y-105885000D02*
X120997000Y-111031000D01*
X121037000Y-105889000D02*
X121037000Y-107418000D01*
X121037000Y-109498000D02*
X121037000Y-111027000D01*
X121077000Y-105893000D02*
X121077000Y-107418000D01*
X121077000Y-109498000D02*
X121077000Y-111023000D01*
X121117000Y-105897000D02*
X121117000Y-107418000D01*
X121117000Y-109498000D02*
X121117000Y-111019000D01*
X121157000Y-105902000D02*
X121157000Y-107418000D01*
X121157000Y-109498000D02*
X121157000Y-111014000D01*
X121197000Y-105908000D02*
X121197000Y-107418000D01*
X121197000Y-109498000D02*
X121197000Y-111008000D01*
X121237000Y-105915000D02*
X121237000Y-107418000D01*
X121237000Y-109498000D02*
X121237000Y-111001000D01*
X121277000Y-105922000D02*
X121277000Y-107418000D01*
X121277000Y-109498000D02*
X121277000Y-110994000D01*
X121317000Y-105930000D02*
X121317000Y-107418000D01*
X121317000Y-109498000D02*
X121317000Y-110986000D01*
X121357000Y-105938000D02*
X121357000Y-107418000D01*
X121357000Y-109498000D02*
X121357000Y-110978000D01*
X121397000Y-105947000D02*
X121397000Y-107418000D01*
X121397000Y-109498000D02*
X121397000Y-110969000D01*
X121437000Y-105957000D02*
X121437000Y-107418000D01*
X121437000Y-109498000D02*
X121437000Y-110959000D01*
X121477000Y-105967000D02*
X121477000Y-107418000D01*
X121477000Y-109498000D02*
X121477000Y-110949000D01*
X121518000Y-105978000D02*
X121518000Y-107418000D01*
X121518000Y-109498000D02*
X121518000Y-110938000D01*
X121558000Y-105990000D02*
X121558000Y-107418000D01*
X121558000Y-109498000D02*
X121558000Y-110926000D01*
X121598000Y-106003000D02*
X121598000Y-107418000D01*
X121598000Y-109498000D02*
X121598000Y-110913000D01*
X121638000Y-106016000D02*
X121638000Y-107418000D01*
X121638000Y-109498000D02*
X121638000Y-110900000D01*
X121678000Y-106030000D02*
X121678000Y-107418000D01*
X121678000Y-109498000D02*
X121678000Y-110886000D01*
X121718000Y-106044000D02*
X121718000Y-107418000D01*
X121718000Y-109498000D02*
X121718000Y-110872000D01*
X121758000Y-106060000D02*
X121758000Y-107418000D01*
X121758000Y-109498000D02*
X121758000Y-110856000D01*
X121798000Y-106076000D02*
X121798000Y-107418000D01*
X121798000Y-109498000D02*
X121798000Y-110840000D01*
X121838000Y-106093000D02*
X121838000Y-107418000D01*
X121838000Y-109498000D02*
X121838000Y-110823000D01*
X121878000Y-106110000D02*
X121878000Y-107418000D01*
X121878000Y-109498000D02*
X121878000Y-110806000D01*
X121918000Y-106129000D02*
X121918000Y-107418000D01*
X121918000Y-109498000D02*
X121918000Y-110787000D01*
X121958000Y-106148000D02*
X121958000Y-107418000D01*
X121958000Y-109498000D02*
X121958000Y-110768000D01*
X121998000Y-106168000D02*
X121998000Y-107418000D01*
X121998000Y-109498000D02*
X121998000Y-110748000D01*
X122038000Y-106190000D02*
X122038000Y-107418000D01*
X122038000Y-109498000D02*
X122038000Y-110726000D01*
X122078000Y-106211000D02*
X122078000Y-107418000D01*
X122078000Y-109498000D02*
X122078000Y-110705000D01*
X122118000Y-106234000D02*
X122118000Y-107418000D01*
X122118000Y-109498000D02*
X122118000Y-110682000D01*
X122158000Y-106258000D02*
X122158000Y-107418000D01*
X122158000Y-109498000D02*
X122158000Y-110658000D01*
X122198000Y-106283000D02*
X122198000Y-107418000D01*
X122198000Y-109498000D02*
X122198000Y-110633000D01*
X122238000Y-106309000D02*
X122238000Y-107418000D01*
X122238000Y-109498000D02*
X122238000Y-110607000D01*
X122278000Y-106336000D02*
X122278000Y-107418000D01*
X122278000Y-109498000D02*
X122278000Y-110580000D01*
X122318000Y-106363000D02*
X122318000Y-107418000D01*
X122318000Y-109498000D02*
X122318000Y-110553000D01*
X122358000Y-106393000D02*
X122358000Y-107418000D01*
X122358000Y-109498000D02*
X122358000Y-110523000D01*
X122398000Y-106423000D02*
X122398000Y-107418000D01*
X122398000Y-109498000D02*
X122398000Y-110493000D01*
X122438000Y-106454000D02*
X122438000Y-107418000D01*
X122438000Y-109498000D02*
X122438000Y-110462000D01*
X122478000Y-106487000D02*
X122478000Y-107418000D01*
X122478000Y-109498000D02*
X122478000Y-110429000D01*
X122518000Y-106521000D02*
X122518000Y-107418000D01*
X122518000Y-109498000D02*
X122518000Y-110395000D01*
X122558000Y-106557000D02*
X122558000Y-107418000D01*
X122558000Y-109498000D02*
X122558000Y-110359000D01*
X122598000Y-106594000D02*
X122598000Y-107418000D01*
X122598000Y-109498000D02*
X122598000Y-110322000D01*
X122638000Y-106632000D02*
X122638000Y-107418000D01*
X122638000Y-109498000D02*
X122638000Y-110284000D01*
X122678000Y-106673000D02*
X122678000Y-107418000D01*
X122678000Y-109498000D02*
X122678000Y-110243000D01*
X122718000Y-106715000D02*
X122718000Y-107418000D01*
X122718000Y-109498000D02*
X122718000Y-110201000D01*
X122758000Y-106759000D02*
X122758000Y-107418000D01*
X122758000Y-109498000D02*
X122758000Y-110157000D01*
X122798000Y-106805000D02*
X122798000Y-107418000D01*
X122798000Y-109498000D02*
X122798000Y-110111000D01*
X122838000Y-106853000D02*
X122838000Y-107418000D01*
X122838000Y-109498000D02*
X122838000Y-110063000D01*
X122878000Y-106904000D02*
X122878000Y-107418000D01*
X122878000Y-109498000D02*
X122878000Y-110012000D01*
X122918000Y-106958000D02*
X122918000Y-107418000D01*
X122918000Y-109498000D02*
X122918000Y-109958000D01*
X122958000Y-107015000D02*
X122958000Y-107418000D01*
X122958000Y-109498000D02*
X122958000Y-109901000D01*
X122998000Y-107075000D02*
X122998000Y-107418000D01*
X122998000Y-109498000D02*
X122998000Y-109841000D01*
X123038000Y-107139000D02*
X123038000Y-107418000D01*
X123038000Y-109498000D02*
X123038000Y-109777000D01*
X123078000Y-107207000D02*
X123078000Y-107418000D01*
X123078000Y-109498000D02*
X123078000Y-109709000D01*
X123118000Y-107280000D02*
X123118000Y-109636000D01*
X123158000Y-107360000D02*
X123158000Y-109556000D01*
X123198000Y-107447000D02*
X123198000Y-109469000D01*
X123238000Y-107543000D02*
X123238000Y-109373000D01*
X123278000Y-107653000D02*
X123278000Y-109263000D01*
X123318000Y-107781000D02*
X123318000Y-109135000D01*
X123358000Y-107940000D02*
X123358000Y-108976000D01*
X123398000Y-108174000D02*
X123398000Y-108742000D01*
X123417000Y-108458000D02*
G75*
G02*
X118177000Y-108458000I-2620000J0D01*
G01*
X118177000Y-108458000D02*
G75*
G02*
X123417000Y-108458000I2620000J0D01*
G01*
G04 #@! TO.C,R7*
X91328000Y-93822000D02*
X87488000Y-93822000D01*
X91328000Y-95662000D02*
X87488000Y-95662000D01*
G04 #@! TO.C,R6*
X87488000Y-91536000D02*
X91328000Y-91536000D01*
X87488000Y-93376000D02*
X91328000Y-93376000D01*
G04 #@! TO.C,C3*
X85198000Y-98616000D02*
X85198000Y-103956000D01*
X85198000Y-103956000D02*
X88538000Y-103956000D01*
X86868000Y-98576000D02*
X86868000Y-98616000D01*
X86868000Y-103996000D02*
X86868000Y-103956000D01*
X88538000Y-98616000D02*
X85198000Y-98616000D01*
X88538000Y-103956000D02*
X88538000Y-98616000D01*
G04 #@! TO.C,Q3*
X80242000Y-95576000D02*
X83842000Y-95576000D01*
X79685600Y-92627193D02*
G75*
G02*
X82042000Y-91126000I2356400J-1098807D01*
G01*
X80242000Y-95576000D02*
G75*
G02*
X79717816Y-94848795I1800000J1850000D01*
G01*
X82042000Y-91126000D02*
G75*
G02*
X84398400Y-92627193I0J-2600000D01*
G01*
X84366184Y-94848795D02*
G75*
G02*
X83842000Y-95576000I-2324184J1122795D01*
G01*
G04 #@! TO.C,R28*
X131587000Y-97886000D02*
X127747000Y-97886000D01*
X131587000Y-99726000D02*
X127747000Y-99726000D01*
G04 #@! TO.C,R12*
X115412000Y-93076000D02*
X115412000Y-96916000D01*
X117252000Y-93076000D02*
X117252000Y-96916000D01*
G04 #@! TO.C,R5*
X76596000Y-93822000D02*
X72756000Y-93822000D01*
X76596000Y-95662000D02*
X72756000Y-95662000D01*
G04 #@! TO.C,U2*
X74302000Y-96206000D02*
X74302000Y-106486000D01*
X74302000Y-106486000D02*
X84702000Y-106486000D01*
X74362000Y-98696000D02*
X74362000Y-103996000D01*
X74362000Y-103996000D02*
X84642000Y-103996000D01*
X84642000Y-98696000D02*
X74362000Y-98696000D01*
X84642000Y-100346000D02*
X84642000Y-98696000D01*
X84642000Y-103996000D02*
X84642000Y-102346000D01*
X84702000Y-96206000D02*
X74302000Y-96206000D01*
X84702000Y-106486000D02*
X84702000Y-96206000D01*
X84642000Y-102346000D02*
G75*
G02*
X84642000Y-100346000I0J1000000D01*
G01*
G04 #@! TO.C,R26*
X132730000Y-115920000D02*
X128890000Y-115920000D01*
X132730000Y-117760000D02*
X128890000Y-117760000D01*
G04 #@! TO.C,R10*
X78836000Y-113132000D02*
X78836000Y-109292000D01*
X80676000Y-113132000D02*
X80676000Y-109292000D01*
G04 #@! TO.C,R27*
X64104000Y-109332000D02*
X64104000Y-113172000D01*
X65944000Y-109332000D02*
X65944000Y-113172000D01*
G04 #@! TO.C,BT1*
X71822000Y-108139000D02*
X73152000Y-108139000D01*
X71822000Y-109469000D02*
X71822000Y-108139000D01*
X71822000Y-110739000D02*
X71822000Y-113339000D01*
X71822000Y-110739000D02*
X74482000Y-110739000D01*
X71822000Y-113339000D02*
X74482000Y-113339000D01*
X74482000Y-110739000D02*
X74482000Y-113339000D01*
G04 #@! TO.C,J1*
X77664000Y-118170000D02*
X77664000Y-116840000D01*
X78994000Y-118170000D02*
X77664000Y-118170000D01*
X80264000Y-115510000D02*
X82864000Y-115510000D01*
X80264000Y-118170000D02*
X80264000Y-115510000D01*
X80264000Y-118170000D02*
X82864000Y-118170000D01*
X82864000Y-118170000D02*
X82864000Y-115510000D01*
G04 #@! TO.C,U3*
X89034000Y-96206000D02*
X89034000Y-106486000D01*
X89034000Y-106486000D02*
X99434000Y-106486000D01*
X89094000Y-98696000D02*
X89094000Y-103996000D01*
X89094000Y-103996000D02*
X99374000Y-103996000D01*
X99374000Y-98696000D02*
X89094000Y-98696000D01*
X99374000Y-100346000D02*
X99374000Y-98696000D01*
X99374000Y-103996000D02*
X99374000Y-102346000D01*
X99434000Y-96206000D02*
X89034000Y-96206000D01*
X99434000Y-106486000D02*
X99434000Y-96206000D01*
X99374000Y-102346000D02*
G75*
G02*
X99374000Y-100346000I0J1000000D01*
G01*
G04 #@! TO.C,R2*
X76296000Y-113132000D02*
X76296000Y-109292000D01*
X78136000Y-113132000D02*
X78136000Y-109292000D01*
G04 #@! TO.C,R30*
X135113000Y-97886000D02*
X138953000Y-97886000D01*
X135113000Y-99726000D02*
X138953000Y-99726000D01*
G04 #@! TO.C,RV1*
X84014000Y-112970000D02*
X85344000Y-112970000D01*
X84014000Y-114300000D02*
X84014000Y-112970000D01*
X84014000Y-115570000D02*
X84014000Y-118170000D01*
X84014000Y-115570000D02*
X86674000Y-115570000D01*
X84014000Y-118170000D02*
X86674000Y-118170000D01*
X86674000Y-115570000D02*
X86674000Y-118170000D01*
G04 #@! TD*
%LPC*%
D14*
G04 #@! TO.C,Q7*
X92456000Y-115422000D03*
D15*
X94996000Y-115422000D03*
X97536000Y-115422000D03*
G04 #@! TD*
D16*
G04 #@! TO.C,R21*
X139573000Y-96520000D03*
D17*
X134493000Y-96520000D03*
G04 #@! TD*
D18*
G04 #@! TO.C,SW2*
X89408000Y-114300000D03*
D19*
X89408000Y-116840000D03*
G04 #@! TD*
D16*
G04 #@! TO.C,R31*
X139573000Y-101092000D03*
D17*
X134493000Y-101092000D03*
G04 #@! TD*
D16*
G04 #@! TO.C,R22*
X139573000Y-103378000D03*
D17*
X134493000Y-103378000D03*
G04 #@! TD*
D20*
G04 #@! TO.C,U1*
X68580000Y-97536000D03*
D21*
X66040000Y-97536000D03*
X63500000Y-97536000D03*
X60960000Y-97536000D03*
X60960000Y-105156000D03*
X63500000Y-105156000D03*
X66040000Y-105156000D03*
X68580000Y-105156000D03*
G04 #@! TD*
D14*
G04 #@! TO.C,Q2*
X64770000Y-93726000D03*
D15*
X67310000Y-93726000D03*
X69850000Y-93726000D03*
G04 #@! TD*
D16*
G04 #@! TO.C,R15*
X67564000Y-113792000D03*
D17*
X67564000Y-108712000D03*
G04 #@! TD*
D16*
G04 #@! TO.C,R9*
X106680000Y-94742000D03*
D17*
X101600000Y-94742000D03*
G04 #@! TD*
D16*
G04 #@! TO.C,R24*
X139573000Y-106426000D03*
D17*
X139573000Y-111506000D03*
G04 #@! TD*
D22*
G04 #@! TO.C,C12*
X136525000Y-106436000D03*
D21*
X136525000Y-113936000D03*
G04 #@! TD*
D16*
G04 #@! TO.C,R25*
X132207000Y-103378000D03*
D17*
X127127000Y-103378000D03*
G04 #@! TD*
D23*
G04 #@! TO.C,C10*
X110011200Y-112445800D03*
D24*
X115011200Y-112445800D03*
G04 #@! TD*
D22*
G04 #@! TO.C,C1*
X57404000Y-98358000D03*
D21*
X57404000Y-105858000D03*
G04 #@! TD*
D16*
G04 #@! TO.C,R4*
X72136000Y-92456000D03*
D17*
X77216000Y-92456000D03*
G04 #@! TD*
D16*
G04 #@! TO.C,R18*
X116078000Y-118872000D03*
D17*
X110998000Y-118872000D03*
G04 #@! TD*
D25*
G04 #@! TO.C,RV3*
X122174000Y-103124000D03*
X119634000Y-100584000D03*
X122174000Y-98044000D03*
G04 #@! TD*
D20*
G04 #@! TO.C,U5*
X132959000Y-106436000D03*
D21*
X130419000Y-106436000D03*
X127879000Y-106436000D03*
X125339000Y-106436000D03*
X125339000Y-114056000D03*
X127879000Y-114056000D03*
X130419000Y-114056000D03*
X132959000Y-114056000D03*
G04 #@! TD*
D14*
G04 #@! TO.C,Q1*
X97536000Y-109728000D03*
D15*
X94996000Y-109728000D03*
X92456000Y-109728000D03*
G04 #@! TD*
D16*
G04 #@! TO.C,R14*
X57404000Y-108712000D03*
D17*
X57404000Y-113792000D03*
G04 #@! TD*
D14*
G04 #@! TO.C,Q4*
X94234000Y-93726000D03*
D15*
X96774000Y-93726000D03*
X99314000Y-93726000D03*
G04 #@! TD*
D18*
G04 #@! TO.C,RV2*
X139192000Y-116840000D03*
D19*
X136652000Y-116840000D03*
G04 #@! TD*
D14*
G04 #@! TO.C,Q6*
X60706000Y-108712000D03*
D15*
X60706000Y-111252000D03*
X60706000Y-113792000D03*
G04 #@! TD*
D16*
G04 #@! TO.C,R13*
X116332000Y-99822000D03*
D17*
X116332000Y-104902000D03*
G04 #@! TD*
D16*
G04 #@! TO.C,R16*
X99822000Y-108458000D03*
D17*
X104902000Y-108458000D03*
G04 #@! TD*
D16*
G04 #@! TO.C,R29*
X132207000Y-101092000D03*
D17*
X127127000Y-101092000D03*
G04 #@! TD*
D22*
G04 #@! TO.C,C5*
X89916000Y-108712000D03*
X89916000Y-111212000D03*
G04 #@! TD*
D26*
G04 #@! TO.C,D1*
X99822000Y-118872000D03*
D27*
X107442000Y-118872000D03*
G04 #@! TD*
D16*
G04 #@! TO.C,R8*
X101600000Y-92456000D03*
D17*
X106680000Y-92456000D03*
G04 #@! TD*
D19*
G04 #@! TO.C,J2*
X70627000Y-116840000D03*
X73167000Y-116840000D03*
D18*
X68087000Y-116840000D03*
G04 #@! TD*
D16*
G04 #@! TO.C,R11*
X82296000Y-108672000D03*
D17*
X82296000Y-113752000D03*
G04 #@! TD*
D22*
G04 #@! TO.C,C11*
X124968000Y-96520000D03*
X124968000Y-99020000D03*
G04 #@! TD*
D16*
G04 #@! TO.C,R19*
X99822000Y-111104000D03*
D17*
X99822000Y-116184000D03*
G04 #@! TD*
D22*
G04 #@! TO.C,C7*
X70104000Y-108752000D03*
X70104000Y-111252000D03*
G04 #@! TD*
D14*
G04 #@! TO.C,Q5*
X108966000Y-93726000D03*
D15*
X111506000Y-93726000D03*
X114046000Y-93726000D03*
G04 #@! TD*
D22*
G04 #@! TO.C,C8*
X64904000Y-116840000D03*
D21*
X57404000Y-116840000D03*
G04 #@! TD*
D22*
G04 #@! TO.C,C6*
X84836000Y-108712000D03*
X84836000Y-111212000D03*
G04 #@! TD*
G04 #@! TO.C,C2*
X72136000Y-105036000D03*
D21*
X72136000Y-97536000D03*
G04 #@! TD*
D16*
G04 #@! TO.C,R3*
X62484000Y-94234000D03*
D17*
X57404000Y-94234000D03*
G04 #@! TD*
D16*
G04 #@! TO.C,R23*
X120777000Y-116840000D03*
D17*
X125857000Y-116840000D03*
G04 #@! TD*
D22*
G04 #@! TO.C,C4*
X101600000Y-105036000D03*
D21*
X101600000Y-97536000D03*
G04 #@! TD*
D20*
G04 #@! TO.C,U4*
X112776000Y-97536000D03*
D21*
X110236000Y-97536000D03*
X107696000Y-97536000D03*
X105156000Y-97536000D03*
X105156000Y-105156000D03*
X107696000Y-105156000D03*
X110236000Y-105156000D03*
X112776000Y-105156000D03*
G04 #@! TD*
D16*
G04 #@! TO.C,R20*
X132207000Y-96520000D03*
D17*
X127127000Y-96520000D03*
G04 #@! TD*
D16*
G04 #@! TO.C,R17*
X101904800Y-116128800D03*
D17*
X106984800Y-116128800D03*
G04 #@! TD*
D16*
G04 #@! TO.C,R1*
X57404000Y-91948000D03*
D17*
X62484000Y-91948000D03*
G04 #@! TD*
D20*
G04 #@! TO.C,C9*
X102934888Y-112268000D03*
D22*
X105434888Y-112268000D03*
G04 #@! TD*
D20*
G04 #@! TO.C,C14*
X119547000Y-108458000D03*
D22*
X122047000Y-108458000D03*
G04 #@! TD*
D16*
G04 #@! TO.C,R7*
X91948000Y-94742000D03*
D17*
X86868000Y-94742000D03*
G04 #@! TD*
D16*
G04 #@! TO.C,R6*
X86868000Y-92456000D03*
D17*
X91948000Y-92456000D03*
G04 #@! TD*
D22*
G04 #@! TO.C,C3*
X86868000Y-105036000D03*
D21*
X86868000Y-97536000D03*
G04 #@! TD*
D14*
G04 #@! TO.C,Q3*
X79502000Y-93726000D03*
D15*
X82042000Y-93726000D03*
X84582000Y-93726000D03*
G04 #@! TD*
D16*
G04 #@! TO.C,R28*
X132207000Y-98806000D03*
D17*
X127127000Y-98806000D03*
G04 #@! TD*
D16*
G04 #@! TO.C,R12*
X116332000Y-92456000D03*
D17*
X116332000Y-97536000D03*
G04 #@! TD*
D16*
G04 #@! TO.C,R5*
X77216000Y-94742000D03*
D17*
X72136000Y-94742000D03*
G04 #@! TD*
D20*
G04 #@! TO.C,U2*
X83312000Y-97536000D03*
D21*
X80772000Y-97536000D03*
X78232000Y-97536000D03*
X75692000Y-97536000D03*
X75692000Y-105156000D03*
X78232000Y-105156000D03*
X80772000Y-105156000D03*
X83312000Y-105156000D03*
G04 #@! TD*
D16*
G04 #@! TO.C,R26*
X133350000Y-116840000D03*
D17*
X128270000Y-116840000D03*
G04 #@! TD*
D16*
G04 #@! TO.C,R10*
X79756000Y-113752000D03*
D17*
X79756000Y-108672000D03*
G04 #@! TD*
D16*
G04 #@! TO.C,R27*
X65024000Y-108712000D03*
D17*
X65024000Y-113792000D03*
G04 #@! TD*
D18*
G04 #@! TO.C,BT1*
X73152000Y-109469000D03*
D19*
X73152000Y-112009000D03*
G04 #@! TD*
G04 #@! TO.C,J1*
X81534000Y-116840000D03*
D18*
X78994000Y-116840000D03*
G04 #@! TD*
D20*
G04 #@! TO.C,U3*
X98044000Y-97536000D03*
D21*
X95504000Y-97536000D03*
X92964000Y-97536000D03*
X90424000Y-97536000D03*
X90424000Y-105156000D03*
X92964000Y-105156000D03*
X95504000Y-105156000D03*
X98044000Y-105156000D03*
G04 #@! TD*
D16*
G04 #@! TO.C,R2*
X77216000Y-113752000D03*
D17*
X77216000Y-108672000D03*
G04 #@! TD*
D16*
G04 #@! TO.C,R30*
X134493000Y-98806000D03*
D17*
X139573000Y-98806000D03*
G04 #@! TD*
D18*
G04 #@! TO.C,RV1*
X85344000Y-114300000D03*
D19*
X85344000Y-116840000D03*
G04 #@! TD*
%LPD*%
M02*
