M48
; DRILL file {KiCad 8.0.2-8.0.2-0~ubuntu22.04.1} date 2024-06-08T14:45:23+0200
; FORMAT={-:-/ absolute / metric / decimal}
; #@! TF.CreationDate,2024-06-08T14:45:23+02:00
; #@! TF.GenerationSoftware,Kicad,Pcbnew,8.0.2-8.0.2-0~ubuntu22.04.1
; #@! TF.FileFunction,Plated,1,2,PTH
FMAT,2
METRIC
; #@! TA.AperFunction,Plated,PTH,ViaDrill
T1C0.300
; #@! TA.AperFunction,Plated,PTH,ComponentDrill
T2C0.700
; #@! TA.AperFunction,Plated,PTH,ComponentDrill
T3C0.800
; #@! TA.AperFunction,Plated,PTH,ComponentDrill
T4C0.900
; #@! TA.AperFunction,Plated,PTH,ComponentDrill
T5C1.000
%
G90
G05
T1
X83.439Y-92.329
X91.694Y-106.807
X98.425Y-103.124
X117.221Y-114.046
T2
X57.404Y-91.948
X57.404Y-94.234
X57.404Y-108.712
X57.404Y-113.792
X62.484Y-91.948
X62.484Y-94.234
X65.024Y-108.712
X65.024Y-113.792
X67.564Y-108.712
X67.564Y-113.792
X72.136Y-92.456
X72.136Y-94.742
X77.216Y-92.456
X77.216Y-94.742
X77.216Y-108.672
X77.216Y-113.752
X79.756Y-108.672
X79.756Y-113.752
X82.296Y-108.672
X82.296Y-113.752
X86.868Y-92.456
X86.868Y-94.742
X91.948Y-92.456
X91.948Y-94.742
X99.822Y-108.458
X99.822Y-111.104
X99.822Y-116.184
X101.6Y-92.456
X101.6Y-94.742
X101.905Y-116.129
X104.902Y-108.458
X106.68Y-92.456
X106.68Y-94.742
X106.985Y-116.129
X110.998Y-118.872
X116.078Y-118.872
X116.332Y-92.456
X116.332Y-97.536
X116.332Y-99.822
X116.332Y-104.902
X120.777Y-116.84
X125.857Y-116.84
X127.127Y-96.52
X127.127Y-98.806
X127.127Y-101.092
X127.127Y-103.378
X128.27Y-116.84
X132.207Y-96.52
X132.207Y-98.806
X132.207Y-101.092
X132.207Y-103.378
X133.35Y-116.84
X134.493Y-96.52
X134.493Y-98.806
X134.493Y-101.092
X134.493Y-103.378
X139.573Y-96.52
X139.573Y-98.806
X139.573Y-101.092
X139.573Y-103.378
X139.573Y-106.426
X139.573Y-111.506
T3
X57.404Y-98.358
X57.404Y-105.858
X57.404Y-116.84
X60.706Y-108.712
X60.706Y-111.252
X60.706Y-113.792
X60.96Y-97.536
X60.96Y-105.156
X63.5Y-97.536
X63.5Y-105.156
X64.77Y-93.726
X64.904Y-116.84
X66.04Y-97.536
X66.04Y-105.156
X67.31Y-93.726
X68.58Y-97.536
X68.58Y-105.156
X69.85Y-93.726
X70.104Y-108.752
X70.104Y-111.252
X72.136Y-97.536
X72.136Y-105.036
X75.692Y-97.536
X75.692Y-105.156
X78.232Y-97.536
X78.232Y-105.156
X79.502Y-93.726
X80.772Y-97.536
X80.772Y-105.156
X82.042Y-93.726
X83.312Y-97.536
X83.312Y-105.156
X84.582Y-93.726
X84.836Y-108.712
X84.836Y-111.212
X86.868Y-97.536
X86.868Y-105.036
X89.916Y-108.712
X89.916Y-111.212
X90.424Y-97.536
X90.424Y-105.156
X92.456Y-109.728
X92.456Y-115.422
X92.964Y-97.536
X92.964Y-105.156
X94.234Y-93.726
X94.996Y-109.728
X94.996Y-115.422
X95.504Y-97.536
X95.504Y-105.156
X96.774Y-93.726
X97.536Y-109.728
X97.536Y-115.422
X98.044Y-97.536
X98.044Y-105.156
X99.314Y-93.726
X101.6Y-97.536
X101.6Y-105.036
X102.935Y-112.268
X105.156Y-97.536
X105.156Y-105.156
X105.435Y-112.268
X107.696Y-97.536
X107.696Y-105.156
X108.966Y-93.726
X110.236Y-97.536
X110.236Y-105.156
X111.506Y-93.726
X112.776Y-97.536
X112.776Y-105.156
X114.046Y-93.726
X119.547Y-108.458
X119.634Y-100.584
X122.047Y-108.458
X122.174Y-98.044
X122.174Y-103.124
X124.968Y-96.52
X124.968Y-99.02
X125.339Y-106.436
X125.339Y-114.056
X127.879Y-106.436
X127.879Y-114.056
X130.419Y-106.436
X130.419Y-114.056
X132.959Y-106.436
X132.959Y-114.056
X136.525Y-106.436
X136.525Y-113.936
T4
X99.822Y-118.872
X107.442Y-118.872
T5
X68.087Y-116.84
X70.627Y-116.84
X73.152Y-109.469
X73.152Y-112.009
X73.167Y-116.84
X78.994Y-116.84
X81.534Y-116.84
X85.344Y-114.3
X85.344Y-116.84
X89.408Y-114.3
X89.408Y-116.84
X110.011Y-112.446
X115.011Y-112.446
X136.652Y-116.84
X139.192Y-116.84
M30
