G04 #@! TF.GenerationSoftware,KiCad,Pcbnew,8.0.2-8.0.2-0~ubuntu22.04.1*
G04 #@! TF.CreationDate,2024-06-08T14:45:23+02:00*
G04 #@! TF.ProjectId,schematic,73636865-6d61-4746-9963-2e6b69636164,rev?*
G04 #@! TF.SameCoordinates,Original*
G04 #@! TF.FileFunction,AssemblyDrawing,Top*
%FSLAX46Y46*%
G04 Gerber Fmt 4.6, Leading zero omitted, Abs format (unit mm)*
G04 Created by KiCad (PCBNEW 8.0.2-8.0.2-0~ubuntu22.04.1) date 2024-06-08 14:45:23*
%MOMM*%
%LPD*%
G01*
G04 APERTURE LIST*
%ADD10C,0.150000*%
%ADD11C,0.108000*%
%ADD12C,0.090000*%
%ADD13C,0.100000*%
G04 APERTURE END LIST*
D10*
X94900761Y-115972057D02*
X94805523Y-115924438D01*
X94805523Y-115924438D02*
X94710285Y-115829200D01*
X94710285Y-115829200D02*
X94567428Y-115686342D01*
X94567428Y-115686342D02*
X94472190Y-115638723D01*
X94472190Y-115638723D02*
X94376952Y-115638723D01*
X94424571Y-115876819D02*
X94329333Y-115829200D01*
X94329333Y-115829200D02*
X94234095Y-115733961D01*
X94234095Y-115733961D02*
X94186476Y-115543485D01*
X94186476Y-115543485D02*
X94186476Y-115210152D01*
X94186476Y-115210152D02*
X94234095Y-115019676D01*
X94234095Y-115019676D02*
X94329333Y-114924438D01*
X94329333Y-114924438D02*
X94424571Y-114876819D01*
X94424571Y-114876819D02*
X94615047Y-114876819D01*
X94615047Y-114876819D02*
X94710285Y-114924438D01*
X94710285Y-114924438D02*
X94805523Y-115019676D01*
X94805523Y-115019676D02*
X94853142Y-115210152D01*
X94853142Y-115210152D02*
X94853142Y-115543485D01*
X94853142Y-115543485D02*
X94805523Y-115733961D01*
X94805523Y-115733961D02*
X94710285Y-115829200D01*
X94710285Y-115829200D02*
X94615047Y-115876819D01*
X94615047Y-115876819D02*
X94424571Y-115876819D01*
X95186476Y-114876819D02*
X95853142Y-114876819D01*
X95853142Y-114876819D02*
X95424571Y-115876819D01*
D11*
X136570143Y-96847469D02*
X136330143Y-96504612D01*
X136158714Y-96847469D02*
X136158714Y-96127469D01*
X136158714Y-96127469D02*
X136433000Y-96127469D01*
X136433000Y-96127469D02*
X136501571Y-96161755D01*
X136501571Y-96161755D02*
X136535857Y-96196041D01*
X136535857Y-96196041D02*
X136570143Y-96264612D01*
X136570143Y-96264612D02*
X136570143Y-96367469D01*
X136570143Y-96367469D02*
X136535857Y-96436041D01*
X136535857Y-96436041D02*
X136501571Y-96470326D01*
X136501571Y-96470326D02*
X136433000Y-96504612D01*
X136433000Y-96504612D02*
X136158714Y-96504612D01*
X136844428Y-96196041D02*
X136878714Y-96161755D01*
X136878714Y-96161755D02*
X136947286Y-96127469D01*
X136947286Y-96127469D02*
X137118714Y-96127469D01*
X137118714Y-96127469D02*
X137187286Y-96161755D01*
X137187286Y-96161755D02*
X137221571Y-96196041D01*
X137221571Y-96196041D02*
X137255857Y-96264612D01*
X137255857Y-96264612D02*
X137255857Y-96333184D01*
X137255857Y-96333184D02*
X137221571Y-96436041D01*
X137221571Y-96436041D02*
X136810143Y-96847469D01*
X136810143Y-96847469D02*
X137255857Y-96847469D01*
X137941571Y-96847469D02*
X137530142Y-96847469D01*
X137735857Y-96847469D02*
X137735857Y-96127469D01*
X137735857Y-96127469D02*
X137667285Y-96230326D01*
X137667285Y-96230326D02*
X137598714Y-96298898D01*
X137598714Y-96298898D02*
X137530142Y-96333184D01*
D10*
X85027047Y-119577200D02*
X85169904Y-119624819D01*
X85169904Y-119624819D02*
X85407999Y-119624819D01*
X85407999Y-119624819D02*
X85503237Y-119577200D01*
X85503237Y-119577200D02*
X85550856Y-119529580D01*
X85550856Y-119529580D02*
X85598475Y-119434342D01*
X85598475Y-119434342D02*
X85598475Y-119339104D01*
X85598475Y-119339104D02*
X85550856Y-119243866D01*
X85550856Y-119243866D02*
X85503237Y-119196247D01*
X85503237Y-119196247D02*
X85407999Y-119148628D01*
X85407999Y-119148628D02*
X85217523Y-119101009D01*
X85217523Y-119101009D02*
X85122285Y-119053390D01*
X85122285Y-119053390D02*
X85074666Y-119005771D01*
X85074666Y-119005771D02*
X85027047Y-118910533D01*
X85027047Y-118910533D02*
X85027047Y-118815295D01*
X85027047Y-118815295D02*
X85074666Y-118720057D01*
X85074666Y-118720057D02*
X85122285Y-118672438D01*
X85122285Y-118672438D02*
X85217523Y-118624819D01*
X85217523Y-118624819D02*
X85455618Y-118624819D01*
X85455618Y-118624819D02*
X85598475Y-118672438D01*
X85931809Y-118624819D02*
X86169904Y-119624819D01*
X86169904Y-119624819D02*
X86360380Y-118910533D01*
X86360380Y-118910533D02*
X86550856Y-119624819D01*
X86550856Y-119624819D02*
X86788952Y-118624819D01*
X86931809Y-119720057D02*
X87693713Y-119720057D01*
X87931809Y-119624819D02*
X87931809Y-118624819D01*
X87931809Y-118624819D02*
X88169904Y-118624819D01*
X88169904Y-118624819D02*
X88312761Y-118672438D01*
X88312761Y-118672438D02*
X88407999Y-118767676D01*
X88407999Y-118767676D02*
X88455618Y-118862914D01*
X88455618Y-118862914D02*
X88503237Y-119053390D01*
X88503237Y-119053390D02*
X88503237Y-119196247D01*
X88503237Y-119196247D02*
X88455618Y-119386723D01*
X88455618Y-119386723D02*
X88407999Y-119481961D01*
X88407999Y-119481961D02*
X88312761Y-119577200D01*
X88312761Y-119577200D02*
X88169904Y-119624819D01*
X88169904Y-119624819D02*
X87931809Y-119624819D01*
X88931809Y-119624819D02*
X88931809Y-118624819D01*
X88931809Y-118624819D02*
X89312761Y-118624819D01*
X89312761Y-118624819D02*
X89407999Y-118672438D01*
X89407999Y-118672438D02*
X89455618Y-118720057D01*
X89455618Y-118720057D02*
X89503237Y-118815295D01*
X89503237Y-118815295D02*
X89503237Y-118958152D01*
X89503237Y-118958152D02*
X89455618Y-119053390D01*
X89455618Y-119053390D02*
X89407999Y-119101009D01*
X89407999Y-119101009D02*
X89312761Y-119148628D01*
X89312761Y-119148628D02*
X88931809Y-119148628D01*
X89931809Y-119624819D02*
X89931809Y-118624819D01*
X89931809Y-118624819D02*
X90169904Y-118624819D01*
X90169904Y-118624819D02*
X90312761Y-118672438D01*
X90312761Y-118672438D02*
X90407999Y-118767676D01*
X90407999Y-118767676D02*
X90455618Y-118862914D01*
X90455618Y-118862914D02*
X90503237Y-119053390D01*
X90503237Y-119053390D02*
X90503237Y-119196247D01*
X90503237Y-119196247D02*
X90455618Y-119386723D01*
X90455618Y-119386723D02*
X90407999Y-119481961D01*
X90407999Y-119481961D02*
X90312761Y-119577200D01*
X90312761Y-119577200D02*
X90169904Y-119624819D01*
X90169904Y-119624819D02*
X89931809Y-119624819D01*
X90788952Y-118624819D02*
X91360380Y-118624819D01*
X91074666Y-119624819D02*
X91074666Y-118624819D01*
X91455619Y-119720057D02*
X92217523Y-119720057D01*
X92360381Y-119624819D02*
X92884190Y-118958152D01*
X92360381Y-118958152D02*
X92884190Y-119624819D01*
X93217524Y-118720057D02*
X93265143Y-118672438D01*
X93265143Y-118672438D02*
X93360381Y-118624819D01*
X93360381Y-118624819D02*
X93598476Y-118624819D01*
X93598476Y-118624819D02*
X93693714Y-118672438D01*
X93693714Y-118672438D02*
X93741333Y-118720057D01*
X93741333Y-118720057D02*
X93788952Y-118815295D01*
X93788952Y-118815295D02*
X93788952Y-118910533D01*
X93788952Y-118910533D02*
X93741333Y-119053390D01*
X93741333Y-119053390D02*
X93169905Y-119624819D01*
X93169905Y-119624819D02*
X93788952Y-119624819D01*
X89815200Y-116903332D02*
X89862819Y-116760475D01*
X89862819Y-116760475D02*
X89862819Y-116522380D01*
X89862819Y-116522380D02*
X89815200Y-116427142D01*
X89815200Y-116427142D02*
X89767580Y-116379523D01*
X89767580Y-116379523D02*
X89672342Y-116331904D01*
X89672342Y-116331904D02*
X89577104Y-116331904D01*
X89577104Y-116331904D02*
X89481866Y-116379523D01*
X89481866Y-116379523D02*
X89434247Y-116427142D01*
X89434247Y-116427142D02*
X89386628Y-116522380D01*
X89386628Y-116522380D02*
X89339009Y-116712856D01*
X89339009Y-116712856D02*
X89291390Y-116808094D01*
X89291390Y-116808094D02*
X89243771Y-116855713D01*
X89243771Y-116855713D02*
X89148533Y-116903332D01*
X89148533Y-116903332D02*
X89053295Y-116903332D01*
X89053295Y-116903332D02*
X88958057Y-116855713D01*
X88958057Y-116855713D02*
X88910438Y-116808094D01*
X88910438Y-116808094D02*
X88862819Y-116712856D01*
X88862819Y-116712856D02*
X88862819Y-116474761D01*
X88862819Y-116474761D02*
X88910438Y-116331904D01*
X88862819Y-115998570D02*
X89862819Y-115760475D01*
X89862819Y-115760475D02*
X89148533Y-115569999D01*
X89148533Y-115569999D02*
X89862819Y-115379523D01*
X89862819Y-115379523D02*
X88862819Y-115141428D01*
X88958057Y-114808094D02*
X88910438Y-114760475D01*
X88910438Y-114760475D02*
X88862819Y-114665237D01*
X88862819Y-114665237D02*
X88862819Y-114427142D01*
X88862819Y-114427142D02*
X88910438Y-114331904D01*
X88910438Y-114331904D02*
X88958057Y-114284285D01*
X88958057Y-114284285D02*
X89053295Y-114236666D01*
X89053295Y-114236666D02*
X89148533Y-114236666D01*
X89148533Y-114236666D02*
X89291390Y-114284285D01*
X89291390Y-114284285D02*
X89862819Y-114855713D01*
X89862819Y-114855713D02*
X89862819Y-114236666D01*
D11*
X136570143Y-101419469D02*
X136330143Y-101076612D01*
X136158714Y-101419469D02*
X136158714Y-100699469D01*
X136158714Y-100699469D02*
X136433000Y-100699469D01*
X136433000Y-100699469D02*
X136501571Y-100733755D01*
X136501571Y-100733755D02*
X136535857Y-100768041D01*
X136535857Y-100768041D02*
X136570143Y-100836612D01*
X136570143Y-100836612D02*
X136570143Y-100939469D01*
X136570143Y-100939469D02*
X136535857Y-101008041D01*
X136535857Y-101008041D02*
X136501571Y-101042326D01*
X136501571Y-101042326D02*
X136433000Y-101076612D01*
X136433000Y-101076612D02*
X136158714Y-101076612D01*
X136810143Y-100699469D02*
X137255857Y-100699469D01*
X137255857Y-100699469D02*
X137015857Y-100973755D01*
X137015857Y-100973755D02*
X137118714Y-100973755D01*
X137118714Y-100973755D02*
X137187286Y-101008041D01*
X137187286Y-101008041D02*
X137221571Y-101042326D01*
X137221571Y-101042326D02*
X137255857Y-101110898D01*
X137255857Y-101110898D02*
X137255857Y-101282326D01*
X137255857Y-101282326D02*
X137221571Y-101350898D01*
X137221571Y-101350898D02*
X137187286Y-101385184D01*
X137187286Y-101385184D02*
X137118714Y-101419469D01*
X137118714Y-101419469D02*
X136913000Y-101419469D01*
X136913000Y-101419469D02*
X136844428Y-101385184D01*
X136844428Y-101385184D02*
X136810143Y-101350898D01*
X137941571Y-101419469D02*
X137530142Y-101419469D01*
X137735857Y-101419469D02*
X137735857Y-100699469D01*
X137735857Y-100699469D02*
X137667285Y-100802326D01*
X137667285Y-100802326D02*
X137598714Y-100870898D01*
X137598714Y-100870898D02*
X137530142Y-100905184D01*
X136570143Y-103705469D02*
X136330143Y-103362612D01*
X136158714Y-103705469D02*
X136158714Y-102985469D01*
X136158714Y-102985469D02*
X136433000Y-102985469D01*
X136433000Y-102985469D02*
X136501571Y-103019755D01*
X136501571Y-103019755D02*
X136535857Y-103054041D01*
X136535857Y-103054041D02*
X136570143Y-103122612D01*
X136570143Y-103122612D02*
X136570143Y-103225469D01*
X136570143Y-103225469D02*
X136535857Y-103294041D01*
X136535857Y-103294041D02*
X136501571Y-103328326D01*
X136501571Y-103328326D02*
X136433000Y-103362612D01*
X136433000Y-103362612D02*
X136158714Y-103362612D01*
X136844428Y-103054041D02*
X136878714Y-103019755D01*
X136878714Y-103019755D02*
X136947286Y-102985469D01*
X136947286Y-102985469D02*
X137118714Y-102985469D01*
X137118714Y-102985469D02*
X137187286Y-103019755D01*
X137187286Y-103019755D02*
X137221571Y-103054041D01*
X137221571Y-103054041D02*
X137255857Y-103122612D01*
X137255857Y-103122612D02*
X137255857Y-103191184D01*
X137255857Y-103191184D02*
X137221571Y-103294041D01*
X137221571Y-103294041D02*
X136810143Y-103705469D01*
X136810143Y-103705469D02*
X137255857Y-103705469D01*
X137530142Y-103054041D02*
X137564428Y-103019755D01*
X137564428Y-103019755D02*
X137633000Y-102985469D01*
X137633000Y-102985469D02*
X137804428Y-102985469D01*
X137804428Y-102985469D02*
X137873000Y-103019755D01*
X137873000Y-103019755D02*
X137907285Y-103054041D01*
X137907285Y-103054041D02*
X137941571Y-103122612D01*
X137941571Y-103122612D02*
X137941571Y-103191184D01*
X137941571Y-103191184D02*
X137907285Y-103294041D01*
X137907285Y-103294041D02*
X137495857Y-103705469D01*
X137495857Y-103705469D02*
X137941571Y-103705469D01*
D10*
X64224819Y-102107904D02*
X65034342Y-102107904D01*
X65034342Y-102107904D02*
X65129580Y-102060285D01*
X65129580Y-102060285D02*
X65177200Y-102012666D01*
X65177200Y-102012666D02*
X65224819Y-101917428D01*
X65224819Y-101917428D02*
X65224819Y-101726952D01*
X65224819Y-101726952D02*
X65177200Y-101631714D01*
X65177200Y-101631714D02*
X65129580Y-101584095D01*
X65129580Y-101584095D02*
X65034342Y-101536476D01*
X65034342Y-101536476D02*
X64224819Y-101536476D01*
X65224819Y-100536476D02*
X65224819Y-101107904D01*
X65224819Y-100822190D02*
X64224819Y-100822190D01*
X64224819Y-100822190D02*
X64367676Y-100917428D01*
X64367676Y-100917428D02*
X64462914Y-101012666D01*
X64462914Y-101012666D02*
X64510533Y-101107904D01*
X67214761Y-94276057D02*
X67119523Y-94228438D01*
X67119523Y-94228438D02*
X67024285Y-94133200D01*
X67024285Y-94133200D02*
X66881428Y-93990342D01*
X66881428Y-93990342D02*
X66786190Y-93942723D01*
X66786190Y-93942723D02*
X66690952Y-93942723D01*
X66738571Y-94180819D02*
X66643333Y-94133200D01*
X66643333Y-94133200D02*
X66548095Y-94037961D01*
X66548095Y-94037961D02*
X66500476Y-93847485D01*
X66500476Y-93847485D02*
X66500476Y-93514152D01*
X66500476Y-93514152D02*
X66548095Y-93323676D01*
X66548095Y-93323676D02*
X66643333Y-93228438D01*
X66643333Y-93228438D02*
X66738571Y-93180819D01*
X66738571Y-93180819D02*
X66929047Y-93180819D01*
X66929047Y-93180819D02*
X67024285Y-93228438D01*
X67024285Y-93228438D02*
X67119523Y-93323676D01*
X67119523Y-93323676D02*
X67167142Y-93514152D01*
X67167142Y-93514152D02*
X67167142Y-93847485D01*
X67167142Y-93847485D02*
X67119523Y-94037961D01*
X67119523Y-94037961D02*
X67024285Y-94133200D01*
X67024285Y-94133200D02*
X66929047Y-94180819D01*
X66929047Y-94180819D02*
X66738571Y-94180819D01*
X67548095Y-93276057D02*
X67595714Y-93228438D01*
X67595714Y-93228438D02*
X67690952Y-93180819D01*
X67690952Y-93180819D02*
X67929047Y-93180819D01*
X67929047Y-93180819D02*
X68024285Y-93228438D01*
X68024285Y-93228438D02*
X68071904Y-93276057D01*
X68071904Y-93276057D02*
X68119523Y-93371295D01*
X68119523Y-93371295D02*
X68119523Y-93466533D01*
X68119523Y-93466533D02*
X68071904Y-93609390D01*
X68071904Y-93609390D02*
X67500476Y-94180819D01*
X67500476Y-94180819D02*
X68119523Y-94180819D01*
D11*
X67891469Y-111714856D02*
X67548612Y-111954856D01*
X67891469Y-112126285D02*
X67171469Y-112126285D01*
X67171469Y-112126285D02*
X67171469Y-111851999D01*
X67171469Y-111851999D02*
X67205755Y-111783428D01*
X67205755Y-111783428D02*
X67240041Y-111749142D01*
X67240041Y-111749142D02*
X67308612Y-111714856D01*
X67308612Y-111714856D02*
X67411469Y-111714856D01*
X67411469Y-111714856D02*
X67480041Y-111749142D01*
X67480041Y-111749142D02*
X67514326Y-111783428D01*
X67514326Y-111783428D02*
X67548612Y-111851999D01*
X67548612Y-111851999D02*
X67548612Y-112126285D01*
X67891469Y-111029142D02*
X67891469Y-111440571D01*
X67891469Y-111234856D02*
X67171469Y-111234856D01*
X67171469Y-111234856D02*
X67274326Y-111303428D01*
X67274326Y-111303428D02*
X67342898Y-111371999D01*
X67342898Y-111371999D02*
X67377184Y-111440571D01*
X67171469Y-110377714D02*
X67171469Y-110720571D01*
X67171469Y-110720571D02*
X67514326Y-110754857D01*
X67514326Y-110754857D02*
X67480041Y-110720571D01*
X67480041Y-110720571D02*
X67445755Y-110652000D01*
X67445755Y-110652000D02*
X67445755Y-110480571D01*
X67445755Y-110480571D02*
X67480041Y-110412000D01*
X67480041Y-110412000D02*
X67514326Y-110377714D01*
X67514326Y-110377714D02*
X67582898Y-110343428D01*
X67582898Y-110343428D02*
X67754326Y-110343428D01*
X67754326Y-110343428D02*
X67822898Y-110377714D01*
X67822898Y-110377714D02*
X67857184Y-110412000D01*
X67857184Y-110412000D02*
X67891469Y-110480571D01*
X67891469Y-110480571D02*
X67891469Y-110652000D01*
X67891469Y-110652000D02*
X67857184Y-110720571D01*
X67857184Y-110720571D02*
X67822898Y-110754857D01*
X104020000Y-95069469D02*
X103780000Y-94726612D01*
X103608571Y-95069469D02*
X103608571Y-94349469D01*
X103608571Y-94349469D02*
X103882857Y-94349469D01*
X103882857Y-94349469D02*
X103951428Y-94383755D01*
X103951428Y-94383755D02*
X103985714Y-94418041D01*
X103985714Y-94418041D02*
X104020000Y-94486612D01*
X104020000Y-94486612D02*
X104020000Y-94589469D01*
X104020000Y-94589469D02*
X103985714Y-94658041D01*
X103985714Y-94658041D02*
X103951428Y-94692326D01*
X103951428Y-94692326D02*
X103882857Y-94726612D01*
X103882857Y-94726612D02*
X103608571Y-94726612D01*
X104362857Y-95069469D02*
X104500000Y-95069469D01*
X104500000Y-95069469D02*
X104568571Y-95035184D01*
X104568571Y-95035184D02*
X104602857Y-95000898D01*
X104602857Y-95000898D02*
X104671428Y-94898041D01*
X104671428Y-94898041D02*
X104705714Y-94760898D01*
X104705714Y-94760898D02*
X104705714Y-94486612D01*
X104705714Y-94486612D02*
X104671428Y-94418041D01*
X104671428Y-94418041D02*
X104637143Y-94383755D01*
X104637143Y-94383755D02*
X104568571Y-94349469D01*
X104568571Y-94349469D02*
X104431428Y-94349469D01*
X104431428Y-94349469D02*
X104362857Y-94383755D01*
X104362857Y-94383755D02*
X104328571Y-94418041D01*
X104328571Y-94418041D02*
X104294285Y-94486612D01*
X104294285Y-94486612D02*
X104294285Y-94658041D01*
X104294285Y-94658041D02*
X104328571Y-94726612D01*
X104328571Y-94726612D02*
X104362857Y-94760898D01*
X104362857Y-94760898D02*
X104431428Y-94795184D01*
X104431428Y-94795184D02*
X104568571Y-94795184D01*
X104568571Y-94795184D02*
X104637143Y-94760898D01*
X104637143Y-94760898D02*
X104671428Y-94726612D01*
X104671428Y-94726612D02*
X104705714Y-94658041D01*
X139900469Y-109428856D02*
X139557612Y-109668856D01*
X139900469Y-109840285D02*
X139180469Y-109840285D01*
X139180469Y-109840285D02*
X139180469Y-109565999D01*
X139180469Y-109565999D02*
X139214755Y-109497428D01*
X139214755Y-109497428D02*
X139249041Y-109463142D01*
X139249041Y-109463142D02*
X139317612Y-109428856D01*
X139317612Y-109428856D02*
X139420469Y-109428856D01*
X139420469Y-109428856D02*
X139489041Y-109463142D01*
X139489041Y-109463142D02*
X139523326Y-109497428D01*
X139523326Y-109497428D02*
X139557612Y-109565999D01*
X139557612Y-109565999D02*
X139557612Y-109840285D01*
X139249041Y-109154571D02*
X139214755Y-109120285D01*
X139214755Y-109120285D02*
X139180469Y-109051714D01*
X139180469Y-109051714D02*
X139180469Y-108880285D01*
X139180469Y-108880285D02*
X139214755Y-108811714D01*
X139214755Y-108811714D02*
X139249041Y-108777428D01*
X139249041Y-108777428D02*
X139317612Y-108743142D01*
X139317612Y-108743142D02*
X139386184Y-108743142D01*
X139386184Y-108743142D02*
X139489041Y-108777428D01*
X139489041Y-108777428D02*
X139900469Y-109188856D01*
X139900469Y-109188856D02*
X139900469Y-108743142D01*
X139420469Y-108126000D02*
X139900469Y-108126000D01*
X139146184Y-108297428D02*
X139660469Y-108468857D01*
X139660469Y-108468857D02*
X139660469Y-108023142D01*
D10*
X136884580Y-110828857D02*
X136932200Y-110876476D01*
X136932200Y-110876476D02*
X136979819Y-111019333D01*
X136979819Y-111019333D02*
X136979819Y-111114571D01*
X136979819Y-111114571D02*
X136932200Y-111257428D01*
X136932200Y-111257428D02*
X136836961Y-111352666D01*
X136836961Y-111352666D02*
X136741723Y-111400285D01*
X136741723Y-111400285D02*
X136551247Y-111447904D01*
X136551247Y-111447904D02*
X136408390Y-111447904D01*
X136408390Y-111447904D02*
X136217914Y-111400285D01*
X136217914Y-111400285D02*
X136122676Y-111352666D01*
X136122676Y-111352666D02*
X136027438Y-111257428D01*
X136027438Y-111257428D02*
X135979819Y-111114571D01*
X135979819Y-111114571D02*
X135979819Y-111019333D01*
X135979819Y-111019333D02*
X136027438Y-110876476D01*
X136027438Y-110876476D02*
X136075057Y-110828857D01*
X136979819Y-109876476D02*
X136979819Y-110447904D01*
X136979819Y-110162190D02*
X135979819Y-110162190D01*
X135979819Y-110162190D02*
X136122676Y-110257428D01*
X136122676Y-110257428D02*
X136217914Y-110352666D01*
X136217914Y-110352666D02*
X136265533Y-110447904D01*
X136075057Y-109495523D02*
X136027438Y-109447904D01*
X136027438Y-109447904D02*
X135979819Y-109352666D01*
X135979819Y-109352666D02*
X135979819Y-109114571D01*
X135979819Y-109114571D02*
X136027438Y-109019333D01*
X136027438Y-109019333D02*
X136075057Y-108971714D01*
X136075057Y-108971714D02*
X136170295Y-108924095D01*
X136170295Y-108924095D02*
X136265533Y-108924095D01*
X136265533Y-108924095D02*
X136408390Y-108971714D01*
X136408390Y-108971714D02*
X136979819Y-109543142D01*
X136979819Y-109543142D02*
X136979819Y-108924095D01*
D11*
X129204143Y-103705469D02*
X128964143Y-103362612D01*
X128792714Y-103705469D02*
X128792714Y-102985469D01*
X128792714Y-102985469D02*
X129067000Y-102985469D01*
X129067000Y-102985469D02*
X129135571Y-103019755D01*
X129135571Y-103019755D02*
X129169857Y-103054041D01*
X129169857Y-103054041D02*
X129204143Y-103122612D01*
X129204143Y-103122612D02*
X129204143Y-103225469D01*
X129204143Y-103225469D02*
X129169857Y-103294041D01*
X129169857Y-103294041D02*
X129135571Y-103328326D01*
X129135571Y-103328326D02*
X129067000Y-103362612D01*
X129067000Y-103362612D02*
X128792714Y-103362612D01*
X129478428Y-103054041D02*
X129512714Y-103019755D01*
X129512714Y-103019755D02*
X129581286Y-102985469D01*
X129581286Y-102985469D02*
X129752714Y-102985469D01*
X129752714Y-102985469D02*
X129821286Y-103019755D01*
X129821286Y-103019755D02*
X129855571Y-103054041D01*
X129855571Y-103054041D02*
X129889857Y-103122612D01*
X129889857Y-103122612D02*
X129889857Y-103191184D01*
X129889857Y-103191184D02*
X129855571Y-103294041D01*
X129855571Y-103294041D02*
X129444143Y-103705469D01*
X129444143Y-103705469D02*
X129889857Y-103705469D01*
X130541285Y-102985469D02*
X130198428Y-102985469D01*
X130198428Y-102985469D02*
X130164142Y-103328326D01*
X130164142Y-103328326D02*
X130198428Y-103294041D01*
X130198428Y-103294041D02*
X130267000Y-103259755D01*
X130267000Y-103259755D02*
X130438428Y-103259755D01*
X130438428Y-103259755D02*
X130507000Y-103294041D01*
X130507000Y-103294041D02*
X130541285Y-103328326D01*
X130541285Y-103328326D02*
X130575571Y-103396898D01*
X130575571Y-103396898D02*
X130575571Y-103568326D01*
X130575571Y-103568326D02*
X130541285Y-103636898D01*
X130541285Y-103636898D02*
X130507000Y-103671184D01*
X130507000Y-103671184D02*
X130438428Y-103705469D01*
X130438428Y-103705469D02*
X130267000Y-103705469D01*
X130267000Y-103705469D02*
X130198428Y-103671184D01*
X130198428Y-103671184D02*
X130164142Y-103636898D01*
D10*
X111868342Y-112805380D02*
X111820723Y-112853000D01*
X111820723Y-112853000D02*
X111677866Y-112900619D01*
X111677866Y-112900619D02*
X111582628Y-112900619D01*
X111582628Y-112900619D02*
X111439771Y-112853000D01*
X111439771Y-112853000D02*
X111344533Y-112757761D01*
X111344533Y-112757761D02*
X111296914Y-112662523D01*
X111296914Y-112662523D02*
X111249295Y-112472047D01*
X111249295Y-112472047D02*
X111249295Y-112329190D01*
X111249295Y-112329190D02*
X111296914Y-112138714D01*
X111296914Y-112138714D02*
X111344533Y-112043476D01*
X111344533Y-112043476D02*
X111439771Y-111948238D01*
X111439771Y-111948238D02*
X111582628Y-111900619D01*
X111582628Y-111900619D02*
X111677866Y-111900619D01*
X111677866Y-111900619D02*
X111820723Y-111948238D01*
X111820723Y-111948238D02*
X111868342Y-111995857D01*
X112820723Y-112900619D02*
X112249295Y-112900619D01*
X112535009Y-112900619D02*
X112535009Y-111900619D01*
X112535009Y-111900619D02*
X112439771Y-112043476D01*
X112439771Y-112043476D02*
X112344533Y-112138714D01*
X112344533Y-112138714D02*
X112249295Y-112186333D01*
X113439771Y-111900619D02*
X113535009Y-111900619D01*
X113535009Y-111900619D02*
X113630247Y-111948238D01*
X113630247Y-111948238D02*
X113677866Y-111995857D01*
X113677866Y-111995857D02*
X113725485Y-112091095D01*
X113725485Y-112091095D02*
X113773104Y-112281571D01*
X113773104Y-112281571D02*
X113773104Y-112519666D01*
X113773104Y-112519666D02*
X113725485Y-112710142D01*
X113725485Y-112710142D02*
X113677866Y-112805380D01*
X113677866Y-112805380D02*
X113630247Y-112853000D01*
X113630247Y-112853000D02*
X113535009Y-112900619D01*
X113535009Y-112900619D02*
X113439771Y-112900619D01*
X113439771Y-112900619D02*
X113344533Y-112853000D01*
X113344533Y-112853000D02*
X113296914Y-112805380D01*
X113296914Y-112805380D02*
X113249295Y-112710142D01*
X113249295Y-112710142D02*
X113201676Y-112519666D01*
X113201676Y-112519666D02*
X113201676Y-112281571D01*
X113201676Y-112281571D02*
X113249295Y-112091095D01*
X113249295Y-112091095D02*
X113296914Y-111995857D01*
X113296914Y-111995857D02*
X113344533Y-111948238D01*
X113344533Y-111948238D02*
X113439771Y-111900619D01*
X57763580Y-102274666D02*
X57811200Y-102322285D01*
X57811200Y-102322285D02*
X57858819Y-102465142D01*
X57858819Y-102465142D02*
X57858819Y-102560380D01*
X57858819Y-102560380D02*
X57811200Y-102703237D01*
X57811200Y-102703237D02*
X57715961Y-102798475D01*
X57715961Y-102798475D02*
X57620723Y-102846094D01*
X57620723Y-102846094D02*
X57430247Y-102893713D01*
X57430247Y-102893713D02*
X57287390Y-102893713D01*
X57287390Y-102893713D02*
X57096914Y-102846094D01*
X57096914Y-102846094D02*
X57001676Y-102798475D01*
X57001676Y-102798475D02*
X56906438Y-102703237D01*
X56906438Y-102703237D02*
X56858819Y-102560380D01*
X56858819Y-102560380D02*
X56858819Y-102465142D01*
X56858819Y-102465142D02*
X56906438Y-102322285D01*
X56906438Y-102322285D02*
X56954057Y-102274666D01*
X57858819Y-101322285D02*
X57858819Y-101893713D01*
X57858819Y-101607999D02*
X56858819Y-101607999D01*
X56858819Y-101607999D02*
X57001676Y-101703237D01*
X57001676Y-101703237D02*
X57096914Y-101798475D01*
X57096914Y-101798475D02*
X57144533Y-101893713D01*
D11*
X74556000Y-92783469D02*
X74316000Y-92440612D01*
X74144571Y-92783469D02*
X74144571Y-92063469D01*
X74144571Y-92063469D02*
X74418857Y-92063469D01*
X74418857Y-92063469D02*
X74487428Y-92097755D01*
X74487428Y-92097755D02*
X74521714Y-92132041D01*
X74521714Y-92132041D02*
X74556000Y-92200612D01*
X74556000Y-92200612D02*
X74556000Y-92303469D01*
X74556000Y-92303469D02*
X74521714Y-92372041D01*
X74521714Y-92372041D02*
X74487428Y-92406326D01*
X74487428Y-92406326D02*
X74418857Y-92440612D01*
X74418857Y-92440612D02*
X74144571Y-92440612D01*
X75173143Y-92303469D02*
X75173143Y-92783469D01*
X75001714Y-92029184D02*
X74830285Y-92543469D01*
X74830285Y-92543469D02*
X75276000Y-92543469D01*
X113075143Y-119199469D02*
X112835143Y-118856612D01*
X112663714Y-119199469D02*
X112663714Y-118479469D01*
X112663714Y-118479469D02*
X112938000Y-118479469D01*
X112938000Y-118479469D02*
X113006571Y-118513755D01*
X113006571Y-118513755D02*
X113040857Y-118548041D01*
X113040857Y-118548041D02*
X113075143Y-118616612D01*
X113075143Y-118616612D02*
X113075143Y-118719469D01*
X113075143Y-118719469D02*
X113040857Y-118788041D01*
X113040857Y-118788041D02*
X113006571Y-118822326D01*
X113006571Y-118822326D02*
X112938000Y-118856612D01*
X112938000Y-118856612D02*
X112663714Y-118856612D01*
X113760857Y-119199469D02*
X113349428Y-119199469D01*
X113555143Y-119199469D02*
X113555143Y-118479469D01*
X113555143Y-118479469D02*
X113486571Y-118582326D01*
X113486571Y-118582326D02*
X113418000Y-118650898D01*
X113418000Y-118650898D02*
X113349428Y-118685184D01*
X114172285Y-118788041D02*
X114103714Y-118753755D01*
X114103714Y-118753755D02*
X114069428Y-118719469D01*
X114069428Y-118719469D02*
X114035142Y-118650898D01*
X114035142Y-118650898D02*
X114035142Y-118616612D01*
X114035142Y-118616612D02*
X114069428Y-118548041D01*
X114069428Y-118548041D02*
X114103714Y-118513755D01*
X114103714Y-118513755D02*
X114172285Y-118479469D01*
X114172285Y-118479469D02*
X114309428Y-118479469D01*
X114309428Y-118479469D02*
X114378000Y-118513755D01*
X114378000Y-118513755D02*
X114412285Y-118548041D01*
X114412285Y-118548041D02*
X114446571Y-118616612D01*
X114446571Y-118616612D02*
X114446571Y-118650898D01*
X114446571Y-118650898D02*
X114412285Y-118719469D01*
X114412285Y-118719469D02*
X114378000Y-118753755D01*
X114378000Y-118753755D02*
X114309428Y-118788041D01*
X114309428Y-118788041D02*
X114172285Y-118788041D01*
X114172285Y-118788041D02*
X114103714Y-118822326D01*
X114103714Y-118822326D02*
X114069428Y-118856612D01*
X114069428Y-118856612D02*
X114035142Y-118925184D01*
X114035142Y-118925184D02*
X114035142Y-119062326D01*
X114035142Y-119062326D02*
X114069428Y-119130898D01*
X114069428Y-119130898D02*
X114103714Y-119165184D01*
X114103714Y-119165184D02*
X114172285Y-119199469D01*
X114172285Y-119199469D02*
X114309428Y-119199469D01*
X114309428Y-119199469D02*
X114378000Y-119165184D01*
X114378000Y-119165184D02*
X114412285Y-119130898D01*
X114412285Y-119130898D02*
X114446571Y-119062326D01*
X114446571Y-119062326D02*
X114446571Y-118925184D01*
X114446571Y-118925184D02*
X114412285Y-118856612D01*
X114412285Y-118856612D02*
X114378000Y-118822326D01*
X114378000Y-118822326D02*
X114309428Y-118788041D01*
D10*
X121353819Y-100544238D02*
X120877628Y-100877571D01*
X121353819Y-101115666D02*
X120353819Y-101115666D01*
X120353819Y-101115666D02*
X120353819Y-100734714D01*
X120353819Y-100734714D02*
X120401438Y-100639476D01*
X120401438Y-100639476D02*
X120449057Y-100591857D01*
X120449057Y-100591857D02*
X120544295Y-100544238D01*
X120544295Y-100544238D02*
X120687152Y-100544238D01*
X120687152Y-100544238D02*
X120782390Y-100591857D01*
X120782390Y-100591857D02*
X120830009Y-100639476D01*
X120830009Y-100639476D02*
X120877628Y-100734714D01*
X120877628Y-100734714D02*
X120877628Y-101115666D01*
X120353819Y-100258523D02*
X121353819Y-99925190D01*
X121353819Y-99925190D02*
X120353819Y-99591857D01*
X120353819Y-99353761D02*
X120353819Y-98734714D01*
X120353819Y-98734714D02*
X120734771Y-99068047D01*
X120734771Y-99068047D02*
X120734771Y-98925190D01*
X120734771Y-98925190D02*
X120782390Y-98829952D01*
X120782390Y-98829952D02*
X120830009Y-98782333D01*
X120830009Y-98782333D02*
X120925247Y-98734714D01*
X120925247Y-98734714D02*
X121163342Y-98734714D01*
X121163342Y-98734714D02*
X121258580Y-98782333D01*
X121258580Y-98782333D02*
X121306200Y-98829952D01*
X121306200Y-98829952D02*
X121353819Y-98925190D01*
X121353819Y-98925190D02*
X121353819Y-99210904D01*
X121353819Y-99210904D02*
X121306200Y-99306142D01*
X121306200Y-99306142D02*
X121258580Y-99353761D01*
X128603819Y-111007904D02*
X129413342Y-111007904D01*
X129413342Y-111007904D02*
X129508580Y-110960285D01*
X129508580Y-110960285D02*
X129556200Y-110912666D01*
X129556200Y-110912666D02*
X129603819Y-110817428D01*
X129603819Y-110817428D02*
X129603819Y-110626952D01*
X129603819Y-110626952D02*
X129556200Y-110531714D01*
X129556200Y-110531714D02*
X129508580Y-110484095D01*
X129508580Y-110484095D02*
X129413342Y-110436476D01*
X129413342Y-110436476D02*
X128603819Y-110436476D01*
X128603819Y-109484095D02*
X128603819Y-109960285D01*
X128603819Y-109960285D02*
X129080009Y-110007904D01*
X129080009Y-110007904D02*
X129032390Y-109960285D01*
X129032390Y-109960285D02*
X128984771Y-109865047D01*
X128984771Y-109865047D02*
X128984771Y-109626952D01*
X128984771Y-109626952D02*
X129032390Y-109531714D01*
X129032390Y-109531714D02*
X129080009Y-109484095D01*
X129080009Y-109484095D02*
X129175247Y-109436476D01*
X129175247Y-109436476D02*
X129413342Y-109436476D01*
X129413342Y-109436476D02*
X129508580Y-109484095D01*
X129508580Y-109484095D02*
X129556200Y-109531714D01*
X129556200Y-109531714D02*
X129603819Y-109626952D01*
X129603819Y-109626952D02*
X129603819Y-109865047D01*
X129603819Y-109865047D02*
X129556200Y-109960285D01*
X129556200Y-109960285D02*
X129508580Y-110007904D01*
X94900761Y-110278057D02*
X94805523Y-110230438D01*
X94805523Y-110230438D02*
X94710285Y-110135200D01*
X94710285Y-110135200D02*
X94567428Y-109992342D01*
X94567428Y-109992342D02*
X94472190Y-109944723D01*
X94472190Y-109944723D02*
X94376952Y-109944723D01*
X94424571Y-110182819D02*
X94329333Y-110135200D01*
X94329333Y-110135200D02*
X94234095Y-110039961D01*
X94234095Y-110039961D02*
X94186476Y-109849485D01*
X94186476Y-109849485D02*
X94186476Y-109516152D01*
X94186476Y-109516152D02*
X94234095Y-109325676D01*
X94234095Y-109325676D02*
X94329333Y-109230438D01*
X94329333Y-109230438D02*
X94424571Y-109182819D01*
X94424571Y-109182819D02*
X94615047Y-109182819D01*
X94615047Y-109182819D02*
X94710285Y-109230438D01*
X94710285Y-109230438D02*
X94805523Y-109325676D01*
X94805523Y-109325676D02*
X94853142Y-109516152D01*
X94853142Y-109516152D02*
X94853142Y-109849485D01*
X94853142Y-109849485D02*
X94805523Y-110039961D01*
X94805523Y-110039961D02*
X94710285Y-110135200D01*
X94710285Y-110135200D02*
X94615047Y-110182819D01*
X94615047Y-110182819D02*
X94424571Y-110182819D01*
X95805523Y-110182819D02*
X95234095Y-110182819D01*
X95519809Y-110182819D02*
X95519809Y-109182819D01*
X95519809Y-109182819D02*
X95424571Y-109325676D01*
X95424571Y-109325676D02*
X95329333Y-109420914D01*
X95329333Y-109420914D02*
X95234095Y-109468533D01*
D11*
X57731469Y-111714856D02*
X57388612Y-111954856D01*
X57731469Y-112126285D02*
X57011469Y-112126285D01*
X57011469Y-112126285D02*
X57011469Y-111851999D01*
X57011469Y-111851999D02*
X57045755Y-111783428D01*
X57045755Y-111783428D02*
X57080041Y-111749142D01*
X57080041Y-111749142D02*
X57148612Y-111714856D01*
X57148612Y-111714856D02*
X57251469Y-111714856D01*
X57251469Y-111714856D02*
X57320041Y-111749142D01*
X57320041Y-111749142D02*
X57354326Y-111783428D01*
X57354326Y-111783428D02*
X57388612Y-111851999D01*
X57388612Y-111851999D02*
X57388612Y-112126285D01*
X57731469Y-111029142D02*
X57731469Y-111440571D01*
X57731469Y-111234856D02*
X57011469Y-111234856D01*
X57011469Y-111234856D02*
X57114326Y-111303428D01*
X57114326Y-111303428D02*
X57182898Y-111371999D01*
X57182898Y-111371999D02*
X57217184Y-111440571D01*
X57251469Y-110412000D02*
X57731469Y-110412000D01*
X56977184Y-110583428D02*
X57491469Y-110754857D01*
X57491469Y-110754857D02*
X57491469Y-110309142D01*
D10*
X96678761Y-94276057D02*
X96583523Y-94228438D01*
X96583523Y-94228438D02*
X96488285Y-94133200D01*
X96488285Y-94133200D02*
X96345428Y-93990342D01*
X96345428Y-93990342D02*
X96250190Y-93942723D01*
X96250190Y-93942723D02*
X96154952Y-93942723D01*
X96202571Y-94180819D02*
X96107333Y-94133200D01*
X96107333Y-94133200D02*
X96012095Y-94037961D01*
X96012095Y-94037961D02*
X95964476Y-93847485D01*
X95964476Y-93847485D02*
X95964476Y-93514152D01*
X95964476Y-93514152D02*
X96012095Y-93323676D01*
X96012095Y-93323676D02*
X96107333Y-93228438D01*
X96107333Y-93228438D02*
X96202571Y-93180819D01*
X96202571Y-93180819D02*
X96393047Y-93180819D01*
X96393047Y-93180819D02*
X96488285Y-93228438D01*
X96488285Y-93228438D02*
X96583523Y-93323676D01*
X96583523Y-93323676D02*
X96631142Y-93514152D01*
X96631142Y-93514152D02*
X96631142Y-93847485D01*
X96631142Y-93847485D02*
X96583523Y-94037961D01*
X96583523Y-94037961D02*
X96488285Y-94133200D01*
X96488285Y-94133200D02*
X96393047Y-94180819D01*
X96393047Y-94180819D02*
X96202571Y-94180819D01*
X97488285Y-93514152D02*
X97488285Y-94180819D01*
X97250190Y-93133200D02*
X97012095Y-93847485D01*
X97012095Y-93847485D02*
X97631142Y-93847485D01*
X133776819Y-117578095D02*
X133776819Y-118054285D01*
X133776819Y-118054285D02*
X134253009Y-118101904D01*
X134253009Y-118101904D02*
X134205390Y-118054285D01*
X134205390Y-118054285D02*
X134157771Y-117959047D01*
X134157771Y-117959047D02*
X134157771Y-117720952D01*
X134157771Y-117720952D02*
X134205390Y-117625714D01*
X134205390Y-117625714D02*
X134253009Y-117578095D01*
X134253009Y-117578095D02*
X134348247Y-117530476D01*
X134348247Y-117530476D02*
X134586342Y-117530476D01*
X134586342Y-117530476D02*
X134681580Y-117578095D01*
X134681580Y-117578095D02*
X134729200Y-117625714D01*
X134729200Y-117625714D02*
X134776819Y-117720952D01*
X134776819Y-117720952D02*
X134776819Y-117959047D01*
X134776819Y-117959047D02*
X134729200Y-118054285D01*
X134729200Y-118054285D02*
X134681580Y-118101904D01*
X133776819Y-116911428D02*
X133776819Y-116816190D01*
X133776819Y-116816190D02*
X133824438Y-116720952D01*
X133824438Y-116720952D02*
X133872057Y-116673333D01*
X133872057Y-116673333D02*
X133967295Y-116625714D01*
X133967295Y-116625714D02*
X134157771Y-116578095D01*
X134157771Y-116578095D02*
X134395866Y-116578095D01*
X134395866Y-116578095D02*
X134586342Y-116625714D01*
X134586342Y-116625714D02*
X134681580Y-116673333D01*
X134681580Y-116673333D02*
X134729200Y-116720952D01*
X134729200Y-116720952D02*
X134776819Y-116816190D01*
X134776819Y-116816190D02*
X134776819Y-116911428D01*
X134776819Y-116911428D02*
X134729200Y-117006666D01*
X134729200Y-117006666D02*
X134681580Y-117054285D01*
X134681580Y-117054285D02*
X134586342Y-117101904D01*
X134586342Y-117101904D02*
X134395866Y-117149523D01*
X134395866Y-117149523D02*
X134157771Y-117149523D01*
X134157771Y-117149523D02*
X133967295Y-117101904D01*
X133967295Y-117101904D02*
X133872057Y-117054285D01*
X133872057Y-117054285D02*
X133824438Y-117006666D01*
X133824438Y-117006666D02*
X133776819Y-116911428D01*
X134776819Y-116149523D02*
X133776819Y-116149523D01*
X134776819Y-115578095D02*
X134205390Y-116006666D01*
X133776819Y-115578095D02*
X134348247Y-116149523D01*
X137326761Y-117294819D02*
X136993428Y-116818628D01*
X136755333Y-117294819D02*
X136755333Y-116294819D01*
X136755333Y-116294819D02*
X137136285Y-116294819D01*
X137136285Y-116294819D02*
X137231523Y-116342438D01*
X137231523Y-116342438D02*
X137279142Y-116390057D01*
X137279142Y-116390057D02*
X137326761Y-116485295D01*
X137326761Y-116485295D02*
X137326761Y-116628152D01*
X137326761Y-116628152D02*
X137279142Y-116723390D01*
X137279142Y-116723390D02*
X137231523Y-116771009D01*
X137231523Y-116771009D02*
X137136285Y-116818628D01*
X137136285Y-116818628D02*
X136755333Y-116818628D01*
X137612476Y-116294819D02*
X137945809Y-117294819D01*
X137945809Y-117294819D02*
X138279142Y-116294819D01*
X138564857Y-116390057D02*
X138612476Y-116342438D01*
X138612476Y-116342438D02*
X138707714Y-116294819D01*
X138707714Y-116294819D02*
X138945809Y-116294819D01*
X138945809Y-116294819D02*
X139041047Y-116342438D01*
X139041047Y-116342438D02*
X139088666Y-116390057D01*
X139088666Y-116390057D02*
X139136285Y-116485295D01*
X139136285Y-116485295D02*
X139136285Y-116580533D01*
X139136285Y-116580533D02*
X139088666Y-116723390D01*
X139088666Y-116723390D02*
X138517238Y-117294819D01*
X138517238Y-117294819D02*
X139136285Y-117294819D01*
X61256057Y-111347238D02*
X61208438Y-111442476D01*
X61208438Y-111442476D02*
X61113200Y-111537714D01*
X61113200Y-111537714D02*
X60970342Y-111680571D01*
X60970342Y-111680571D02*
X60922723Y-111775809D01*
X60922723Y-111775809D02*
X60922723Y-111871047D01*
X61160819Y-111823428D02*
X61113200Y-111918666D01*
X61113200Y-111918666D02*
X61017961Y-112013904D01*
X61017961Y-112013904D02*
X60827485Y-112061523D01*
X60827485Y-112061523D02*
X60494152Y-112061523D01*
X60494152Y-112061523D02*
X60303676Y-112013904D01*
X60303676Y-112013904D02*
X60208438Y-111918666D01*
X60208438Y-111918666D02*
X60160819Y-111823428D01*
X60160819Y-111823428D02*
X60160819Y-111632952D01*
X60160819Y-111632952D02*
X60208438Y-111537714D01*
X60208438Y-111537714D02*
X60303676Y-111442476D01*
X60303676Y-111442476D02*
X60494152Y-111394857D01*
X60494152Y-111394857D02*
X60827485Y-111394857D01*
X60827485Y-111394857D02*
X61017961Y-111442476D01*
X61017961Y-111442476D02*
X61113200Y-111537714D01*
X61113200Y-111537714D02*
X61160819Y-111632952D01*
X61160819Y-111632952D02*
X61160819Y-111823428D01*
X60160819Y-110537714D02*
X60160819Y-110728190D01*
X60160819Y-110728190D02*
X60208438Y-110823428D01*
X60208438Y-110823428D02*
X60256057Y-110871047D01*
X60256057Y-110871047D02*
X60398914Y-110966285D01*
X60398914Y-110966285D02*
X60589390Y-111013904D01*
X60589390Y-111013904D02*
X60970342Y-111013904D01*
X60970342Y-111013904D02*
X61065580Y-110966285D01*
X61065580Y-110966285D02*
X61113200Y-110918666D01*
X61113200Y-110918666D02*
X61160819Y-110823428D01*
X61160819Y-110823428D02*
X61160819Y-110632952D01*
X61160819Y-110632952D02*
X61113200Y-110537714D01*
X61113200Y-110537714D02*
X61065580Y-110490095D01*
X61065580Y-110490095D02*
X60970342Y-110442476D01*
X60970342Y-110442476D02*
X60732247Y-110442476D01*
X60732247Y-110442476D02*
X60637009Y-110490095D01*
X60637009Y-110490095D02*
X60589390Y-110537714D01*
X60589390Y-110537714D02*
X60541771Y-110632952D01*
X60541771Y-110632952D02*
X60541771Y-110823428D01*
X60541771Y-110823428D02*
X60589390Y-110918666D01*
X60589390Y-110918666D02*
X60637009Y-110966285D01*
X60637009Y-110966285D02*
X60732247Y-111013904D01*
D11*
X116659469Y-102824856D02*
X116316612Y-103064856D01*
X116659469Y-103236285D02*
X115939469Y-103236285D01*
X115939469Y-103236285D02*
X115939469Y-102961999D01*
X115939469Y-102961999D02*
X115973755Y-102893428D01*
X115973755Y-102893428D02*
X116008041Y-102859142D01*
X116008041Y-102859142D02*
X116076612Y-102824856D01*
X116076612Y-102824856D02*
X116179469Y-102824856D01*
X116179469Y-102824856D02*
X116248041Y-102859142D01*
X116248041Y-102859142D02*
X116282326Y-102893428D01*
X116282326Y-102893428D02*
X116316612Y-102961999D01*
X116316612Y-102961999D02*
X116316612Y-103236285D01*
X116659469Y-102139142D02*
X116659469Y-102550571D01*
X116659469Y-102344856D02*
X115939469Y-102344856D01*
X115939469Y-102344856D02*
X116042326Y-102413428D01*
X116042326Y-102413428D02*
X116110898Y-102481999D01*
X116110898Y-102481999D02*
X116145184Y-102550571D01*
X115939469Y-101899142D02*
X115939469Y-101453428D01*
X115939469Y-101453428D02*
X116213755Y-101693428D01*
X116213755Y-101693428D02*
X116213755Y-101590571D01*
X116213755Y-101590571D02*
X116248041Y-101522000D01*
X116248041Y-101522000D02*
X116282326Y-101487714D01*
X116282326Y-101487714D02*
X116350898Y-101453428D01*
X116350898Y-101453428D02*
X116522326Y-101453428D01*
X116522326Y-101453428D02*
X116590898Y-101487714D01*
X116590898Y-101487714D02*
X116625184Y-101522000D01*
X116625184Y-101522000D02*
X116659469Y-101590571D01*
X116659469Y-101590571D02*
X116659469Y-101796285D01*
X116659469Y-101796285D02*
X116625184Y-101864857D01*
X116625184Y-101864857D02*
X116590898Y-101899142D01*
X101899143Y-108785469D02*
X101659143Y-108442612D01*
X101487714Y-108785469D02*
X101487714Y-108065469D01*
X101487714Y-108065469D02*
X101762000Y-108065469D01*
X101762000Y-108065469D02*
X101830571Y-108099755D01*
X101830571Y-108099755D02*
X101864857Y-108134041D01*
X101864857Y-108134041D02*
X101899143Y-108202612D01*
X101899143Y-108202612D02*
X101899143Y-108305469D01*
X101899143Y-108305469D02*
X101864857Y-108374041D01*
X101864857Y-108374041D02*
X101830571Y-108408326D01*
X101830571Y-108408326D02*
X101762000Y-108442612D01*
X101762000Y-108442612D02*
X101487714Y-108442612D01*
X102584857Y-108785469D02*
X102173428Y-108785469D01*
X102379143Y-108785469D02*
X102379143Y-108065469D01*
X102379143Y-108065469D02*
X102310571Y-108168326D01*
X102310571Y-108168326D02*
X102242000Y-108236898D01*
X102242000Y-108236898D02*
X102173428Y-108271184D01*
X103202000Y-108065469D02*
X103064857Y-108065469D01*
X103064857Y-108065469D02*
X102996285Y-108099755D01*
X102996285Y-108099755D02*
X102962000Y-108134041D01*
X102962000Y-108134041D02*
X102893428Y-108236898D01*
X102893428Y-108236898D02*
X102859142Y-108374041D01*
X102859142Y-108374041D02*
X102859142Y-108648326D01*
X102859142Y-108648326D02*
X102893428Y-108716898D01*
X102893428Y-108716898D02*
X102927714Y-108751184D01*
X102927714Y-108751184D02*
X102996285Y-108785469D01*
X102996285Y-108785469D02*
X103133428Y-108785469D01*
X103133428Y-108785469D02*
X103202000Y-108751184D01*
X103202000Y-108751184D02*
X103236285Y-108716898D01*
X103236285Y-108716898D02*
X103270571Y-108648326D01*
X103270571Y-108648326D02*
X103270571Y-108476898D01*
X103270571Y-108476898D02*
X103236285Y-108408326D01*
X103236285Y-108408326D02*
X103202000Y-108374041D01*
X103202000Y-108374041D02*
X103133428Y-108339755D01*
X103133428Y-108339755D02*
X102996285Y-108339755D01*
X102996285Y-108339755D02*
X102927714Y-108374041D01*
X102927714Y-108374041D02*
X102893428Y-108408326D01*
X102893428Y-108408326D02*
X102859142Y-108476898D01*
X129204143Y-101419469D02*
X128964143Y-101076612D01*
X128792714Y-101419469D02*
X128792714Y-100699469D01*
X128792714Y-100699469D02*
X129067000Y-100699469D01*
X129067000Y-100699469D02*
X129135571Y-100733755D01*
X129135571Y-100733755D02*
X129169857Y-100768041D01*
X129169857Y-100768041D02*
X129204143Y-100836612D01*
X129204143Y-100836612D02*
X129204143Y-100939469D01*
X129204143Y-100939469D02*
X129169857Y-101008041D01*
X129169857Y-101008041D02*
X129135571Y-101042326D01*
X129135571Y-101042326D02*
X129067000Y-101076612D01*
X129067000Y-101076612D02*
X128792714Y-101076612D01*
X129478428Y-100768041D02*
X129512714Y-100733755D01*
X129512714Y-100733755D02*
X129581286Y-100699469D01*
X129581286Y-100699469D02*
X129752714Y-100699469D01*
X129752714Y-100699469D02*
X129821286Y-100733755D01*
X129821286Y-100733755D02*
X129855571Y-100768041D01*
X129855571Y-100768041D02*
X129889857Y-100836612D01*
X129889857Y-100836612D02*
X129889857Y-100905184D01*
X129889857Y-100905184D02*
X129855571Y-101008041D01*
X129855571Y-101008041D02*
X129444143Y-101419469D01*
X129444143Y-101419469D02*
X129889857Y-101419469D01*
X130232714Y-101419469D02*
X130369857Y-101419469D01*
X130369857Y-101419469D02*
X130438428Y-101385184D01*
X130438428Y-101385184D02*
X130472714Y-101350898D01*
X130472714Y-101350898D02*
X130541285Y-101248041D01*
X130541285Y-101248041D02*
X130575571Y-101110898D01*
X130575571Y-101110898D02*
X130575571Y-100836612D01*
X130575571Y-100836612D02*
X130541285Y-100768041D01*
X130541285Y-100768041D02*
X130507000Y-100733755D01*
X130507000Y-100733755D02*
X130438428Y-100699469D01*
X130438428Y-100699469D02*
X130301285Y-100699469D01*
X130301285Y-100699469D02*
X130232714Y-100733755D01*
X130232714Y-100733755D02*
X130198428Y-100768041D01*
X130198428Y-100768041D02*
X130164142Y-100836612D01*
X130164142Y-100836612D02*
X130164142Y-101008041D01*
X130164142Y-101008041D02*
X130198428Y-101076612D01*
X130198428Y-101076612D02*
X130232714Y-101110898D01*
X130232714Y-101110898D02*
X130301285Y-101145184D01*
X130301285Y-101145184D02*
X130438428Y-101145184D01*
X130438428Y-101145184D02*
X130507000Y-101110898D01*
X130507000Y-101110898D02*
X130541285Y-101076612D01*
X130541285Y-101076612D02*
X130575571Y-101008041D01*
D12*
X90131748Y-110061999D02*
X90160320Y-110090571D01*
X90160320Y-110090571D02*
X90188891Y-110176285D01*
X90188891Y-110176285D02*
X90188891Y-110233428D01*
X90188891Y-110233428D02*
X90160320Y-110319142D01*
X90160320Y-110319142D02*
X90103177Y-110376285D01*
X90103177Y-110376285D02*
X90046034Y-110404856D01*
X90046034Y-110404856D02*
X89931748Y-110433428D01*
X89931748Y-110433428D02*
X89846034Y-110433428D01*
X89846034Y-110433428D02*
X89731748Y-110404856D01*
X89731748Y-110404856D02*
X89674605Y-110376285D01*
X89674605Y-110376285D02*
X89617462Y-110319142D01*
X89617462Y-110319142D02*
X89588891Y-110233428D01*
X89588891Y-110233428D02*
X89588891Y-110176285D01*
X89588891Y-110176285D02*
X89617462Y-110090571D01*
X89617462Y-110090571D02*
X89646034Y-110061999D01*
X89588891Y-109519142D02*
X89588891Y-109804856D01*
X89588891Y-109804856D02*
X89874605Y-109833428D01*
X89874605Y-109833428D02*
X89846034Y-109804856D01*
X89846034Y-109804856D02*
X89817462Y-109747714D01*
X89817462Y-109747714D02*
X89817462Y-109604856D01*
X89817462Y-109604856D02*
X89846034Y-109547714D01*
X89846034Y-109547714D02*
X89874605Y-109519142D01*
X89874605Y-109519142D02*
X89931748Y-109490571D01*
X89931748Y-109490571D02*
X90074605Y-109490571D01*
X90074605Y-109490571D02*
X90131748Y-109519142D01*
X90131748Y-109519142D02*
X90160320Y-109547714D01*
X90160320Y-109547714D02*
X90188891Y-109604856D01*
X90188891Y-109604856D02*
X90188891Y-109747714D01*
X90188891Y-109747714D02*
X90160320Y-109804856D01*
X90160320Y-109804856D02*
X90131748Y-109833428D01*
D10*
X99560095Y-117426819D02*
X99560095Y-116426819D01*
X100131523Y-117426819D02*
X99702952Y-116855390D01*
X100131523Y-116426819D02*
X99560095Y-116998247D01*
X103283905Y-119326819D02*
X103283905Y-118326819D01*
X103283905Y-118326819D02*
X103522000Y-118326819D01*
X103522000Y-118326819D02*
X103664857Y-118374438D01*
X103664857Y-118374438D02*
X103760095Y-118469676D01*
X103760095Y-118469676D02*
X103807714Y-118564914D01*
X103807714Y-118564914D02*
X103855333Y-118755390D01*
X103855333Y-118755390D02*
X103855333Y-118898247D01*
X103855333Y-118898247D02*
X103807714Y-119088723D01*
X103807714Y-119088723D02*
X103760095Y-119183961D01*
X103760095Y-119183961D02*
X103664857Y-119279200D01*
X103664857Y-119279200D02*
X103522000Y-119326819D01*
X103522000Y-119326819D02*
X103283905Y-119326819D01*
X104807714Y-119326819D02*
X104236286Y-119326819D01*
X104522000Y-119326819D02*
X104522000Y-118326819D01*
X104522000Y-118326819D02*
X104426762Y-118469676D01*
X104426762Y-118469676D02*
X104331524Y-118564914D01*
X104331524Y-118564914D02*
X104236286Y-118612533D01*
D11*
X104020000Y-92783469D02*
X103780000Y-92440612D01*
X103608571Y-92783469D02*
X103608571Y-92063469D01*
X103608571Y-92063469D02*
X103882857Y-92063469D01*
X103882857Y-92063469D02*
X103951428Y-92097755D01*
X103951428Y-92097755D02*
X103985714Y-92132041D01*
X103985714Y-92132041D02*
X104020000Y-92200612D01*
X104020000Y-92200612D02*
X104020000Y-92303469D01*
X104020000Y-92303469D02*
X103985714Y-92372041D01*
X103985714Y-92372041D02*
X103951428Y-92406326D01*
X103951428Y-92406326D02*
X103882857Y-92440612D01*
X103882857Y-92440612D02*
X103608571Y-92440612D01*
X104431428Y-92372041D02*
X104362857Y-92337755D01*
X104362857Y-92337755D02*
X104328571Y-92303469D01*
X104328571Y-92303469D02*
X104294285Y-92234898D01*
X104294285Y-92234898D02*
X104294285Y-92200612D01*
X104294285Y-92200612D02*
X104328571Y-92132041D01*
X104328571Y-92132041D02*
X104362857Y-92097755D01*
X104362857Y-92097755D02*
X104431428Y-92063469D01*
X104431428Y-92063469D02*
X104568571Y-92063469D01*
X104568571Y-92063469D02*
X104637143Y-92097755D01*
X104637143Y-92097755D02*
X104671428Y-92132041D01*
X104671428Y-92132041D02*
X104705714Y-92200612D01*
X104705714Y-92200612D02*
X104705714Y-92234898D01*
X104705714Y-92234898D02*
X104671428Y-92303469D01*
X104671428Y-92303469D02*
X104637143Y-92337755D01*
X104637143Y-92337755D02*
X104568571Y-92372041D01*
X104568571Y-92372041D02*
X104431428Y-92372041D01*
X104431428Y-92372041D02*
X104362857Y-92406326D01*
X104362857Y-92406326D02*
X104328571Y-92440612D01*
X104328571Y-92440612D02*
X104294285Y-92509184D01*
X104294285Y-92509184D02*
X104294285Y-92646326D01*
X104294285Y-92646326D02*
X104328571Y-92714898D01*
X104328571Y-92714898D02*
X104362857Y-92749184D01*
X104362857Y-92749184D02*
X104431428Y-92783469D01*
X104431428Y-92783469D02*
X104568571Y-92783469D01*
X104568571Y-92783469D02*
X104637143Y-92749184D01*
X104637143Y-92749184D02*
X104671428Y-92714898D01*
X104671428Y-92714898D02*
X104705714Y-92646326D01*
X104705714Y-92646326D02*
X104705714Y-92509184D01*
X104705714Y-92509184D02*
X104671428Y-92440612D01*
X104671428Y-92440612D02*
X104637143Y-92406326D01*
X104637143Y-92406326D02*
X104568571Y-92372041D01*
D10*
X67143809Y-119549104D02*
X67619999Y-119549104D01*
X67048571Y-119834819D02*
X67381904Y-118834819D01*
X67381904Y-118834819D02*
X67715237Y-119834819D01*
X68477142Y-119168152D02*
X68477142Y-119834819D01*
X68048571Y-119168152D02*
X68048571Y-119691961D01*
X68048571Y-119691961D02*
X68096190Y-119787200D01*
X68096190Y-119787200D02*
X68191428Y-119834819D01*
X68191428Y-119834819D02*
X68334285Y-119834819D01*
X68334285Y-119834819D02*
X68429523Y-119787200D01*
X68429523Y-119787200D02*
X68477142Y-119739580D01*
X69381904Y-119834819D02*
X69381904Y-118834819D01*
X69381904Y-119787200D02*
X69286666Y-119834819D01*
X69286666Y-119834819D02*
X69096190Y-119834819D01*
X69096190Y-119834819D02*
X69000952Y-119787200D01*
X69000952Y-119787200D02*
X68953333Y-119739580D01*
X68953333Y-119739580D02*
X68905714Y-119644342D01*
X68905714Y-119644342D02*
X68905714Y-119358628D01*
X68905714Y-119358628D02*
X68953333Y-119263390D01*
X68953333Y-119263390D02*
X69000952Y-119215771D01*
X69000952Y-119215771D02*
X69096190Y-119168152D01*
X69096190Y-119168152D02*
X69286666Y-119168152D01*
X69286666Y-119168152D02*
X69381904Y-119215771D01*
X69858095Y-119834819D02*
X69858095Y-119168152D01*
X69858095Y-118834819D02*
X69810476Y-118882438D01*
X69810476Y-118882438D02*
X69858095Y-118930057D01*
X69858095Y-118930057D02*
X69905714Y-118882438D01*
X69905714Y-118882438D02*
X69858095Y-118834819D01*
X69858095Y-118834819D02*
X69858095Y-118930057D01*
X70477142Y-119834819D02*
X70381904Y-119787200D01*
X70381904Y-119787200D02*
X70334285Y-119739580D01*
X70334285Y-119739580D02*
X70286666Y-119644342D01*
X70286666Y-119644342D02*
X70286666Y-119358628D01*
X70286666Y-119358628D02*
X70334285Y-119263390D01*
X70334285Y-119263390D02*
X70381904Y-119215771D01*
X70381904Y-119215771D02*
X70477142Y-119168152D01*
X70477142Y-119168152D02*
X70619999Y-119168152D01*
X70619999Y-119168152D02*
X70715237Y-119215771D01*
X70715237Y-119215771D02*
X70762856Y-119263390D01*
X70762856Y-119263390D02*
X70810475Y-119358628D01*
X70810475Y-119358628D02*
X70810475Y-119644342D01*
X70810475Y-119644342D02*
X70762856Y-119739580D01*
X70762856Y-119739580D02*
X70715237Y-119787200D01*
X70715237Y-119787200D02*
X70619999Y-119834819D01*
X70619999Y-119834819D02*
X70477142Y-119834819D01*
X71524761Y-118834819D02*
X71524761Y-119549104D01*
X71524761Y-119549104D02*
X71477142Y-119691961D01*
X71477142Y-119691961D02*
X71381904Y-119787200D01*
X71381904Y-119787200D02*
X71239047Y-119834819D01*
X71239047Y-119834819D02*
X71143809Y-119834819D01*
X72429523Y-119834819D02*
X72429523Y-119311009D01*
X72429523Y-119311009D02*
X72381904Y-119215771D01*
X72381904Y-119215771D02*
X72286666Y-119168152D01*
X72286666Y-119168152D02*
X72096190Y-119168152D01*
X72096190Y-119168152D02*
X72000952Y-119215771D01*
X72429523Y-119787200D02*
X72334285Y-119834819D01*
X72334285Y-119834819D02*
X72096190Y-119834819D01*
X72096190Y-119834819D02*
X72000952Y-119787200D01*
X72000952Y-119787200D02*
X71953333Y-119691961D01*
X71953333Y-119691961D02*
X71953333Y-119596723D01*
X71953333Y-119596723D02*
X72000952Y-119501485D01*
X72000952Y-119501485D02*
X72096190Y-119453866D01*
X72096190Y-119453866D02*
X72334285Y-119453866D01*
X72334285Y-119453866D02*
X72429523Y-119406247D01*
X73334285Y-119787200D02*
X73239047Y-119834819D01*
X73239047Y-119834819D02*
X73048571Y-119834819D01*
X73048571Y-119834819D02*
X72953333Y-119787200D01*
X72953333Y-119787200D02*
X72905714Y-119739580D01*
X72905714Y-119739580D02*
X72858095Y-119644342D01*
X72858095Y-119644342D02*
X72858095Y-119358628D01*
X72858095Y-119358628D02*
X72905714Y-119263390D01*
X72905714Y-119263390D02*
X72953333Y-119215771D01*
X72953333Y-119215771D02*
X73048571Y-119168152D01*
X73048571Y-119168152D02*
X73239047Y-119168152D01*
X73239047Y-119168152D02*
X73334285Y-119215771D01*
X73762857Y-119834819D02*
X73762857Y-118834819D01*
X73858095Y-119453866D02*
X74143809Y-119834819D01*
X74143809Y-119168152D02*
X73762857Y-119549104D01*
X74477143Y-118834819D02*
X75096190Y-118834819D01*
X75096190Y-118834819D02*
X74762857Y-119215771D01*
X74762857Y-119215771D02*
X74905714Y-119215771D01*
X74905714Y-119215771D02*
X75000952Y-119263390D01*
X75000952Y-119263390D02*
X75048571Y-119311009D01*
X75048571Y-119311009D02*
X75096190Y-119406247D01*
X75096190Y-119406247D02*
X75096190Y-119644342D01*
X75096190Y-119644342D02*
X75048571Y-119739580D01*
X75048571Y-119739580D02*
X75000952Y-119787200D01*
X75000952Y-119787200D02*
X74905714Y-119834819D01*
X74905714Y-119834819D02*
X74620000Y-119834819D01*
X74620000Y-119834819D02*
X74524762Y-119787200D01*
X74524762Y-119787200D02*
X74477143Y-119739580D01*
X70293666Y-116294819D02*
X70293666Y-117009104D01*
X70293666Y-117009104D02*
X70246047Y-117151961D01*
X70246047Y-117151961D02*
X70150809Y-117247200D01*
X70150809Y-117247200D02*
X70007952Y-117294819D01*
X70007952Y-117294819D02*
X69912714Y-117294819D01*
X70722238Y-116390057D02*
X70769857Y-116342438D01*
X70769857Y-116342438D02*
X70865095Y-116294819D01*
X70865095Y-116294819D02*
X71103190Y-116294819D01*
X71103190Y-116294819D02*
X71198428Y-116342438D01*
X71198428Y-116342438D02*
X71246047Y-116390057D01*
X71246047Y-116390057D02*
X71293666Y-116485295D01*
X71293666Y-116485295D02*
X71293666Y-116580533D01*
X71293666Y-116580533D02*
X71246047Y-116723390D01*
X71246047Y-116723390D02*
X70674619Y-117294819D01*
X70674619Y-117294819D02*
X71293666Y-117294819D01*
D11*
X82623469Y-111674856D02*
X82280612Y-111914856D01*
X82623469Y-112086285D02*
X81903469Y-112086285D01*
X81903469Y-112086285D02*
X81903469Y-111811999D01*
X81903469Y-111811999D02*
X81937755Y-111743428D01*
X81937755Y-111743428D02*
X81972041Y-111709142D01*
X81972041Y-111709142D02*
X82040612Y-111674856D01*
X82040612Y-111674856D02*
X82143469Y-111674856D01*
X82143469Y-111674856D02*
X82212041Y-111709142D01*
X82212041Y-111709142D02*
X82246326Y-111743428D01*
X82246326Y-111743428D02*
X82280612Y-111811999D01*
X82280612Y-111811999D02*
X82280612Y-112086285D01*
X82623469Y-110989142D02*
X82623469Y-111400571D01*
X82623469Y-111194856D02*
X81903469Y-111194856D01*
X81903469Y-111194856D02*
X82006326Y-111263428D01*
X82006326Y-111263428D02*
X82074898Y-111331999D01*
X82074898Y-111331999D02*
X82109184Y-111400571D01*
X82623469Y-110303428D02*
X82623469Y-110714857D01*
X82623469Y-110509142D02*
X81903469Y-110509142D01*
X81903469Y-110509142D02*
X82006326Y-110577714D01*
X82006326Y-110577714D02*
X82074898Y-110646285D01*
X82074898Y-110646285D02*
X82109184Y-110714857D01*
D12*
X125183748Y-98155714D02*
X125212320Y-98184286D01*
X125212320Y-98184286D02*
X125240891Y-98270000D01*
X125240891Y-98270000D02*
X125240891Y-98327143D01*
X125240891Y-98327143D02*
X125212320Y-98412857D01*
X125212320Y-98412857D02*
X125155177Y-98470000D01*
X125155177Y-98470000D02*
X125098034Y-98498571D01*
X125098034Y-98498571D02*
X124983748Y-98527143D01*
X124983748Y-98527143D02*
X124898034Y-98527143D01*
X124898034Y-98527143D02*
X124783748Y-98498571D01*
X124783748Y-98498571D02*
X124726605Y-98470000D01*
X124726605Y-98470000D02*
X124669462Y-98412857D01*
X124669462Y-98412857D02*
X124640891Y-98327143D01*
X124640891Y-98327143D02*
X124640891Y-98270000D01*
X124640891Y-98270000D02*
X124669462Y-98184286D01*
X124669462Y-98184286D02*
X124698034Y-98155714D01*
X125240891Y-97584286D02*
X125240891Y-97927143D01*
X125240891Y-97755714D02*
X124640891Y-97755714D01*
X124640891Y-97755714D02*
X124726605Y-97812857D01*
X124726605Y-97812857D02*
X124783748Y-97870000D01*
X124783748Y-97870000D02*
X124812320Y-97927143D01*
X125240891Y-97012857D02*
X125240891Y-97355714D01*
X125240891Y-97184285D02*
X124640891Y-97184285D01*
X124640891Y-97184285D02*
X124726605Y-97241428D01*
X124726605Y-97241428D02*
X124783748Y-97298571D01*
X124783748Y-97298571D02*
X124812320Y-97355714D01*
D11*
X100149469Y-114106856D02*
X99806612Y-114346856D01*
X100149469Y-114518285D02*
X99429469Y-114518285D01*
X99429469Y-114518285D02*
X99429469Y-114243999D01*
X99429469Y-114243999D02*
X99463755Y-114175428D01*
X99463755Y-114175428D02*
X99498041Y-114141142D01*
X99498041Y-114141142D02*
X99566612Y-114106856D01*
X99566612Y-114106856D02*
X99669469Y-114106856D01*
X99669469Y-114106856D02*
X99738041Y-114141142D01*
X99738041Y-114141142D02*
X99772326Y-114175428D01*
X99772326Y-114175428D02*
X99806612Y-114243999D01*
X99806612Y-114243999D02*
X99806612Y-114518285D01*
X100149469Y-113421142D02*
X100149469Y-113832571D01*
X100149469Y-113626856D02*
X99429469Y-113626856D01*
X99429469Y-113626856D02*
X99532326Y-113695428D01*
X99532326Y-113695428D02*
X99600898Y-113763999D01*
X99600898Y-113763999D02*
X99635184Y-113832571D01*
X100149469Y-113078285D02*
X100149469Y-112941142D01*
X100149469Y-112941142D02*
X100115184Y-112872571D01*
X100115184Y-112872571D02*
X100080898Y-112838285D01*
X100080898Y-112838285D02*
X99978041Y-112769714D01*
X99978041Y-112769714D02*
X99840898Y-112735428D01*
X99840898Y-112735428D02*
X99566612Y-112735428D01*
X99566612Y-112735428D02*
X99498041Y-112769714D01*
X99498041Y-112769714D02*
X99463755Y-112804000D01*
X99463755Y-112804000D02*
X99429469Y-112872571D01*
X99429469Y-112872571D02*
X99429469Y-113009714D01*
X99429469Y-113009714D02*
X99463755Y-113078285D01*
X99463755Y-113078285D02*
X99498041Y-113112571D01*
X99498041Y-113112571D02*
X99566612Y-113146857D01*
X99566612Y-113146857D02*
X99738041Y-113146857D01*
X99738041Y-113146857D02*
X99806612Y-113112571D01*
X99806612Y-113112571D02*
X99840898Y-113078285D01*
X99840898Y-113078285D02*
X99875184Y-113009714D01*
X99875184Y-113009714D02*
X99875184Y-112872571D01*
X99875184Y-112872571D02*
X99840898Y-112804000D01*
X99840898Y-112804000D02*
X99806612Y-112769714D01*
X99806612Y-112769714D02*
X99738041Y-112735428D01*
D12*
X70319748Y-110101999D02*
X70348320Y-110130571D01*
X70348320Y-110130571D02*
X70376891Y-110216285D01*
X70376891Y-110216285D02*
X70376891Y-110273428D01*
X70376891Y-110273428D02*
X70348320Y-110359142D01*
X70348320Y-110359142D02*
X70291177Y-110416285D01*
X70291177Y-110416285D02*
X70234034Y-110444856D01*
X70234034Y-110444856D02*
X70119748Y-110473428D01*
X70119748Y-110473428D02*
X70034034Y-110473428D01*
X70034034Y-110473428D02*
X69919748Y-110444856D01*
X69919748Y-110444856D02*
X69862605Y-110416285D01*
X69862605Y-110416285D02*
X69805462Y-110359142D01*
X69805462Y-110359142D02*
X69776891Y-110273428D01*
X69776891Y-110273428D02*
X69776891Y-110216285D01*
X69776891Y-110216285D02*
X69805462Y-110130571D01*
X69805462Y-110130571D02*
X69834034Y-110101999D01*
X69776891Y-109901999D02*
X69776891Y-109501999D01*
X69776891Y-109501999D02*
X70376891Y-109759142D01*
D10*
X111410761Y-94276057D02*
X111315523Y-94228438D01*
X111315523Y-94228438D02*
X111220285Y-94133200D01*
X111220285Y-94133200D02*
X111077428Y-93990342D01*
X111077428Y-93990342D02*
X110982190Y-93942723D01*
X110982190Y-93942723D02*
X110886952Y-93942723D01*
X110934571Y-94180819D02*
X110839333Y-94133200D01*
X110839333Y-94133200D02*
X110744095Y-94037961D01*
X110744095Y-94037961D02*
X110696476Y-93847485D01*
X110696476Y-93847485D02*
X110696476Y-93514152D01*
X110696476Y-93514152D02*
X110744095Y-93323676D01*
X110744095Y-93323676D02*
X110839333Y-93228438D01*
X110839333Y-93228438D02*
X110934571Y-93180819D01*
X110934571Y-93180819D02*
X111125047Y-93180819D01*
X111125047Y-93180819D02*
X111220285Y-93228438D01*
X111220285Y-93228438D02*
X111315523Y-93323676D01*
X111315523Y-93323676D02*
X111363142Y-93514152D01*
X111363142Y-93514152D02*
X111363142Y-93847485D01*
X111363142Y-93847485D02*
X111315523Y-94037961D01*
X111315523Y-94037961D02*
X111220285Y-94133200D01*
X111220285Y-94133200D02*
X111125047Y-94180819D01*
X111125047Y-94180819D02*
X110934571Y-94180819D01*
X112267904Y-93180819D02*
X111791714Y-93180819D01*
X111791714Y-93180819D02*
X111744095Y-93657009D01*
X111744095Y-93657009D02*
X111791714Y-93609390D01*
X111791714Y-93609390D02*
X111886952Y-93561771D01*
X111886952Y-93561771D02*
X112125047Y-93561771D01*
X112125047Y-93561771D02*
X112220285Y-93609390D01*
X112220285Y-93609390D02*
X112267904Y-93657009D01*
X112267904Y-93657009D02*
X112315523Y-93752247D01*
X112315523Y-93752247D02*
X112315523Y-93990342D01*
X112315523Y-93990342D02*
X112267904Y-94085580D01*
X112267904Y-94085580D02*
X112220285Y-94133200D01*
X112220285Y-94133200D02*
X112125047Y-94180819D01*
X112125047Y-94180819D02*
X111886952Y-94180819D01*
X111886952Y-94180819D02*
X111791714Y-94133200D01*
X111791714Y-94133200D02*
X111744095Y-94085580D01*
X60987333Y-117199580D02*
X60939714Y-117247200D01*
X60939714Y-117247200D02*
X60796857Y-117294819D01*
X60796857Y-117294819D02*
X60701619Y-117294819D01*
X60701619Y-117294819D02*
X60558762Y-117247200D01*
X60558762Y-117247200D02*
X60463524Y-117151961D01*
X60463524Y-117151961D02*
X60415905Y-117056723D01*
X60415905Y-117056723D02*
X60368286Y-116866247D01*
X60368286Y-116866247D02*
X60368286Y-116723390D01*
X60368286Y-116723390D02*
X60415905Y-116532914D01*
X60415905Y-116532914D02*
X60463524Y-116437676D01*
X60463524Y-116437676D02*
X60558762Y-116342438D01*
X60558762Y-116342438D02*
X60701619Y-116294819D01*
X60701619Y-116294819D02*
X60796857Y-116294819D01*
X60796857Y-116294819D02*
X60939714Y-116342438D01*
X60939714Y-116342438D02*
X60987333Y-116390057D01*
X61558762Y-116723390D02*
X61463524Y-116675771D01*
X61463524Y-116675771D02*
X61415905Y-116628152D01*
X61415905Y-116628152D02*
X61368286Y-116532914D01*
X61368286Y-116532914D02*
X61368286Y-116485295D01*
X61368286Y-116485295D02*
X61415905Y-116390057D01*
X61415905Y-116390057D02*
X61463524Y-116342438D01*
X61463524Y-116342438D02*
X61558762Y-116294819D01*
X61558762Y-116294819D02*
X61749238Y-116294819D01*
X61749238Y-116294819D02*
X61844476Y-116342438D01*
X61844476Y-116342438D02*
X61892095Y-116390057D01*
X61892095Y-116390057D02*
X61939714Y-116485295D01*
X61939714Y-116485295D02*
X61939714Y-116532914D01*
X61939714Y-116532914D02*
X61892095Y-116628152D01*
X61892095Y-116628152D02*
X61844476Y-116675771D01*
X61844476Y-116675771D02*
X61749238Y-116723390D01*
X61749238Y-116723390D02*
X61558762Y-116723390D01*
X61558762Y-116723390D02*
X61463524Y-116771009D01*
X61463524Y-116771009D02*
X61415905Y-116818628D01*
X61415905Y-116818628D02*
X61368286Y-116913866D01*
X61368286Y-116913866D02*
X61368286Y-117104342D01*
X61368286Y-117104342D02*
X61415905Y-117199580D01*
X61415905Y-117199580D02*
X61463524Y-117247200D01*
X61463524Y-117247200D02*
X61558762Y-117294819D01*
X61558762Y-117294819D02*
X61749238Y-117294819D01*
X61749238Y-117294819D02*
X61844476Y-117247200D01*
X61844476Y-117247200D02*
X61892095Y-117199580D01*
X61892095Y-117199580D02*
X61939714Y-117104342D01*
X61939714Y-117104342D02*
X61939714Y-116913866D01*
X61939714Y-116913866D02*
X61892095Y-116818628D01*
X61892095Y-116818628D02*
X61844476Y-116771009D01*
X61844476Y-116771009D02*
X61749238Y-116723390D01*
D12*
X85051748Y-110061999D02*
X85080320Y-110090571D01*
X85080320Y-110090571D02*
X85108891Y-110176285D01*
X85108891Y-110176285D02*
X85108891Y-110233428D01*
X85108891Y-110233428D02*
X85080320Y-110319142D01*
X85080320Y-110319142D02*
X85023177Y-110376285D01*
X85023177Y-110376285D02*
X84966034Y-110404856D01*
X84966034Y-110404856D02*
X84851748Y-110433428D01*
X84851748Y-110433428D02*
X84766034Y-110433428D01*
X84766034Y-110433428D02*
X84651748Y-110404856D01*
X84651748Y-110404856D02*
X84594605Y-110376285D01*
X84594605Y-110376285D02*
X84537462Y-110319142D01*
X84537462Y-110319142D02*
X84508891Y-110233428D01*
X84508891Y-110233428D02*
X84508891Y-110176285D01*
X84508891Y-110176285D02*
X84537462Y-110090571D01*
X84537462Y-110090571D02*
X84566034Y-110061999D01*
X84508891Y-109547714D02*
X84508891Y-109661999D01*
X84508891Y-109661999D02*
X84537462Y-109719142D01*
X84537462Y-109719142D02*
X84566034Y-109747714D01*
X84566034Y-109747714D02*
X84651748Y-109804856D01*
X84651748Y-109804856D02*
X84766034Y-109833428D01*
X84766034Y-109833428D02*
X84994605Y-109833428D01*
X84994605Y-109833428D02*
X85051748Y-109804856D01*
X85051748Y-109804856D02*
X85080320Y-109776285D01*
X85080320Y-109776285D02*
X85108891Y-109719142D01*
X85108891Y-109719142D02*
X85108891Y-109604856D01*
X85108891Y-109604856D02*
X85080320Y-109547714D01*
X85080320Y-109547714D02*
X85051748Y-109519142D01*
X85051748Y-109519142D02*
X84994605Y-109490571D01*
X84994605Y-109490571D02*
X84851748Y-109490571D01*
X84851748Y-109490571D02*
X84794605Y-109519142D01*
X84794605Y-109519142D02*
X84766034Y-109547714D01*
X84766034Y-109547714D02*
X84737462Y-109604856D01*
X84737462Y-109604856D02*
X84737462Y-109719142D01*
X84737462Y-109719142D02*
X84766034Y-109776285D01*
X84766034Y-109776285D02*
X84794605Y-109804856D01*
X84794605Y-109804856D02*
X84851748Y-109833428D01*
D10*
X72495580Y-101452666D02*
X72543200Y-101500285D01*
X72543200Y-101500285D02*
X72590819Y-101643142D01*
X72590819Y-101643142D02*
X72590819Y-101738380D01*
X72590819Y-101738380D02*
X72543200Y-101881237D01*
X72543200Y-101881237D02*
X72447961Y-101976475D01*
X72447961Y-101976475D02*
X72352723Y-102024094D01*
X72352723Y-102024094D02*
X72162247Y-102071713D01*
X72162247Y-102071713D02*
X72019390Y-102071713D01*
X72019390Y-102071713D02*
X71828914Y-102024094D01*
X71828914Y-102024094D02*
X71733676Y-101976475D01*
X71733676Y-101976475D02*
X71638438Y-101881237D01*
X71638438Y-101881237D02*
X71590819Y-101738380D01*
X71590819Y-101738380D02*
X71590819Y-101643142D01*
X71590819Y-101643142D02*
X71638438Y-101500285D01*
X71638438Y-101500285D02*
X71686057Y-101452666D01*
X71686057Y-101071713D02*
X71638438Y-101024094D01*
X71638438Y-101024094D02*
X71590819Y-100928856D01*
X71590819Y-100928856D02*
X71590819Y-100690761D01*
X71590819Y-100690761D02*
X71638438Y-100595523D01*
X71638438Y-100595523D02*
X71686057Y-100547904D01*
X71686057Y-100547904D02*
X71781295Y-100500285D01*
X71781295Y-100500285D02*
X71876533Y-100500285D01*
X71876533Y-100500285D02*
X72019390Y-100547904D01*
X72019390Y-100547904D02*
X72590819Y-101119332D01*
X72590819Y-101119332D02*
X72590819Y-100500285D01*
D11*
X59824000Y-94561469D02*
X59584000Y-94218612D01*
X59412571Y-94561469D02*
X59412571Y-93841469D01*
X59412571Y-93841469D02*
X59686857Y-93841469D01*
X59686857Y-93841469D02*
X59755428Y-93875755D01*
X59755428Y-93875755D02*
X59789714Y-93910041D01*
X59789714Y-93910041D02*
X59824000Y-93978612D01*
X59824000Y-93978612D02*
X59824000Y-94081469D01*
X59824000Y-94081469D02*
X59789714Y-94150041D01*
X59789714Y-94150041D02*
X59755428Y-94184326D01*
X59755428Y-94184326D02*
X59686857Y-94218612D01*
X59686857Y-94218612D02*
X59412571Y-94218612D01*
X60064000Y-93841469D02*
X60509714Y-93841469D01*
X60509714Y-93841469D02*
X60269714Y-94115755D01*
X60269714Y-94115755D02*
X60372571Y-94115755D01*
X60372571Y-94115755D02*
X60441143Y-94150041D01*
X60441143Y-94150041D02*
X60475428Y-94184326D01*
X60475428Y-94184326D02*
X60509714Y-94252898D01*
X60509714Y-94252898D02*
X60509714Y-94424326D01*
X60509714Y-94424326D02*
X60475428Y-94492898D01*
X60475428Y-94492898D02*
X60441143Y-94527184D01*
X60441143Y-94527184D02*
X60372571Y-94561469D01*
X60372571Y-94561469D02*
X60166857Y-94561469D01*
X60166857Y-94561469D02*
X60098285Y-94527184D01*
X60098285Y-94527184D02*
X60064000Y-94492898D01*
X122854143Y-117167469D02*
X122614143Y-116824612D01*
X122442714Y-117167469D02*
X122442714Y-116447469D01*
X122442714Y-116447469D02*
X122717000Y-116447469D01*
X122717000Y-116447469D02*
X122785571Y-116481755D01*
X122785571Y-116481755D02*
X122819857Y-116516041D01*
X122819857Y-116516041D02*
X122854143Y-116584612D01*
X122854143Y-116584612D02*
X122854143Y-116687469D01*
X122854143Y-116687469D02*
X122819857Y-116756041D01*
X122819857Y-116756041D02*
X122785571Y-116790326D01*
X122785571Y-116790326D02*
X122717000Y-116824612D01*
X122717000Y-116824612D02*
X122442714Y-116824612D01*
X123128428Y-116516041D02*
X123162714Y-116481755D01*
X123162714Y-116481755D02*
X123231286Y-116447469D01*
X123231286Y-116447469D02*
X123402714Y-116447469D01*
X123402714Y-116447469D02*
X123471286Y-116481755D01*
X123471286Y-116481755D02*
X123505571Y-116516041D01*
X123505571Y-116516041D02*
X123539857Y-116584612D01*
X123539857Y-116584612D02*
X123539857Y-116653184D01*
X123539857Y-116653184D02*
X123505571Y-116756041D01*
X123505571Y-116756041D02*
X123094143Y-117167469D01*
X123094143Y-117167469D02*
X123539857Y-117167469D01*
X123779857Y-116447469D02*
X124225571Y-116447469D01*
X124225571Y-116447469D02*
X123985571Y-116721755D01*
X123985571Y-116721755D02*
X124088428Y-116721755D01*
X124088428Y-116721755D02*
X124157000Y-116756041D01*
X124157000Y-116756041D02*
X124191285Y-116790326D01*
X124191285Y-116790326D02*
X124225571Y-116858898D01*
X124225571Y-116858898D02*
X124225571Y-117030326D01*
X124225571Y-117030326D02*
X124191285Y-117098898D01*
X124191285Y-117098898D02*
X124157000Y-117133184D01*
X124157000Y-117133184D02*
X124088428Y-117167469D01*
X124088428Y-117167469D02*
X123882714Y-117167469D01*
X123882714Y-117167469D02*
X123814142Y-117133184D01*
X123814142Y-117133184D02*
X123779857Y-117098898D01*
D10*
X101959580Y-101452666D02*
X102007200Y-101500285D01*
X102007200Y-101500285D02*
X102054819Y-101643142D01*
X102054819Y-101643142D02*
X102054819Y-101738380D01*
X102054819Y-101738380D02*
X102007200Y-101881237D01*
X102007200Y-101881237D02*
X101911961Y-101976475D01*
X101911961Y-101976475D02*
X101816723Y-102024094D01*
X101816723Y-102024094D02*
X101626247Y-102071713D01*
X101626247Y-102071713D02*
X101483390Y-102071713D01*
X101483390Y-102071713D02*
X101292914Y-102024094D01*
X101292914Y-102024094D02*
X101197676Y-101976475D01*
X101197676Y-101976475D02*
X101102438Y-101881237D01*
X101102438Y-101881237D02*
X101054819Y-101738380D01*
X101054819Y-101738380D02*
X101054819Y-101643142D01*
X101054819Y-101643142D02*
X101102438Y-101500285D01*
X101102438Y-101500285D02*
X101150057Y-101452666D01*
X101388152Y-100595523D02*
X102054819Y-100595523D01*
X101007200Y-100833618D02*
X101721485Y-101071713D01*
X101721485Y-101071713D02*
X101721485Y-100452666D01*
X108420819Y-102107904D02*
X109230342Y-102107904D01*
X109230342Y-102107904D02*
X109325580Y-102060285D01*
X109325580Y-102060285D02*
X109373200Y-102012666D01*
X109373200Y-102012666D02*
X109420819Y-101917428D01*
X109420819Y-101917428D02*
X109420819Y-101726952D01*
X109420819Y-101726952D02*
X109373200Y-101631714D01*
X109373200Y-101631714D02*
X109325580Y-101584095D01*
X109325580Y-101584095D02*
X109230342Y-101536476D01*
X109230342Y-101536476D02*
X108420819Y-101536476D01*
X108754152Y-100631714D02*
X109420819Y-100631714D01*
X108373200Y-100869809D02*
X109087485Y-101107904D01*
X109087485Y-101107904D02*
X109087485Y-100488857D01*
D11*
X129204143Y-96847469D02*
X128964143Y-96504612D01*
X128792714Y-96847469D02*
X128792714Y-96127469D01*
X128792714Y-96127469D02*
X129067000Y-96127469D01*
X129067000Y-96127469D02*
X129135571Y-96161755D01*
X129135571Y-96161755D02*
X129169857Y-96196041D01*
X129169857Y-96196041D02*
X129204143Y-96264612D01*
X129204143Y-96264612D02*
X129204143Y-96367469D01*
X129204143Y-96367469D02*
X129169857Y-96436041D01*
X129169857Y-96436041D02*
X129135571Y-96470326D01*
X129135571Y-96470326D02*
X129067000Y-96504612D01*
X129067000Y-96504612D02*
X128792714Y-96504612D01*
X129478428Y-96196041D02*
X129512714Y-96161755D01*
X129512714Y-96161755D02*
X129581286Y-96127469D01*
X129581286Y-96127469D02*
X129752714Y-96127469D01*
X129752714Y-96127469D02*
X129821286Y-96161755D01*
X129821286Y-96161755D02*
X129855571Y-96196041D01*
X129855571Y-96196041D02*
X129889857Y-96264612D01*
X129889857Y-96264612D02*
X129889857Y-96333184D01*
X129889857Y-96333184D02*
X129855571Y-96436041D01*
X129855571Y-96436041D02*
X129444143Y-96847469D01*
X129444143Y-96847469D02*
X129889857Y-96847469D01*
X130335571Y-96127469D02*
X130404142Y-96127469D01*
X130404142Y-96127469D02*
X130472714Y-96161755D01*
X130472714Y-96161755D02*
X130507000Y-96196041D01*
X130507000Y-96196041D02*
X130541285Y-96264612D01*
X130541285Y-96264612D02*
X130575571Y-96401755D01*
X130575571Y-96401755D02*
X130575571Y-96573184D01*
X130575571Y-96573184D02*
X130541285Y-96710326D01*
X130541285Y-96710326D02*
X130507000Y-96778898D01*
X130507000Y-96778898D02*
X130472714Y-96813184D01*
X130472714Y-96813184D02*
X130404142Y-96847469D01*
X130404142Y-96847469D02*
X130335571Y-96847469D01*
X130335571Y-96847469D02*
X130267000Y-96813184D01*
X130267000Y-96813184D02*
X130232714Y-96778898D01*
X130232714Y-96778898D02*
X130198428Y-96710326D01*
X130198428Y-96710326D02*
X130164142Y-96573184D01*
X130164142Y-96573184D02*
X130164142Y-96401755D01*
X130164142Y-96401755D02*
X130198428Y-96264612D01*
X130198428Y-96264612D02*
X130232714Y-96196041D01*
X130232714Y-96196041D02*
X130267000Y-96161755D01*
X130267000Y-96161755D02*
X130335571Y-96127469D01*
X103981943Y-116456269D02*
X103741943Y-116113412D01*
X103570514Y-116456269D02*
X103570514Y-115736269D01*
X103570514Y-115736269D02*
X103844800Y-115736269D01*
X103844800Y-115736269D02*
X103913371Y-115770555D01*
X103913371Y-115770555D02*
X103947657Y-115804841D01*
X103947657Y-115804841D02*
X103981943Y-115873412D01*
X103981943Y-115873412D02*
X103981943Y-115976269D01*
X103981943Y-115976269D02*
X103947657Y-116044841D01*
X103947657Y-116044841D02*
X103913371Y-116079126D01*
X103913371Y-116079126D02*
X103844800Y-116113412D01*
X103844800Y-116113412D02*
X103570514Y-116113412D01*
X104667657Y-116456269D02*
X104256228Y-116456269D01*
X104461943Y-116456269D02*
X104461943Y-115736269D01*
X104461943Y-115736269D02*
X104393371Y-115839126D01*
X104393371Y-115839126D02*
X104324800Y-115907698D01*
X104324800Y-115907698D02*
X104256228Y-115941984D01*
X104907657Y-115736269D02*
X105387657Y-115736269D01*
X105387657Y-115736269D02*
X105079085Y-116456269D01*
X59824000Y-92275469D02*
X59584000Y-91932612D01*
X59412571Y-92275469D02*
X59412571Y-91555469D01*
X59412571Y-91555469D02*
X59686857Y-91555469D01*
X59686857Y-91555469D02*
X59755428Y-91589755D01*
X59755428Y-91589755D02*
X59789714Y-91624041D01*
X59789714Y-91624041D02*
X59824000Y-91692612D01*
X59824000Y-91692612D02*
X59824000Y-91795469D01*
X59824000Y-91795469D02*
X59789714Y-91864041D01*
X59789714Y-91864041D02*
X59755428Y-91898326D01*
X59755428Y-91898326D02*
X59686857Y-91932612D01*
X59686857Y-91932612D02*
X59412571Y-91932612D01*
X60509714Y-92275469D02*
X60098285Y-92275469D01*
X60304000Y-92275469D02*
X60304000Y-91555469D01*
X60304000Y-91555469D02*
X60235428Y-91658326D01*
X60235428Y-91658326D02*
X60166857Y-91726898D01*
X60166857Y-91726898D02*
X60098285Y-91761184D01*
D10*
X104018221Y-112627580D02*
X103970602Y-112675200D01*
X103970602Y-112675200D02*
X103827745Y-112722819D01*
X103827745Y-112722819D02*
X103732507Y-112722819D01*
X103732507Y-112722819D02*
X103589650Y-112675200D01*
X103589650Y-112675200D02*
X103494412Y-112579961D01*
X103494412Y-112579961D02*
X103446793Y-112484723D01*
X103446793Y-112484723D02*
X103399174Y-112294247D01*
X103399174Y-112294247D02*
X103399174Y-112151390D01*
X103399174Y-112151390D02*
X103446793Y-111960914D01*
X103446793Y-111960914D02*
X103494412Y-111865676D01*
X103494412Y-111865676D02*
X103589650Y-111770438D01*
X103589650Y-111770438D02*
X103732507Y-111722819D01*
X103732507Y-111722819D02*
X103827745Y-111722819D01*
X103827745Y-111722819D02*
X103970602Y-111770438D01*
X103970602Y-111770438D02*
X104018221Y-111818057D01*
X104494412Y-112722819D02*
X104684888Y-112722819D01*
X104684888Y-112722819D02*
X104780126Y-112675200D01*
X104780126Y-112675200D02*
X104827745Y-112627580D01*
X104827745Y-112627580D02*
X104922983Y-112484723D01*
X104922983Y-112484723D02*
X104970602Y-112294247D01*
X104970602Y-112294247D02*
X104970602Y-111913295D01*
X104970602Y-111913295D02*
X104922983Y-111818057D01*
X104922983Y-111818057D02*
X104875364Y-111770438D01*
X104875364Y-111770438D02*
X104780126Y-111722819D01*
X104780126Y-111722819D02*
X104589650Y-111722819D01*
X104589650Y-111722819D02*
X104494412Y-111770438D01*
X104494412Y-111770438D02*
X104446793Y-111818057D01*
X104446793Y-111818057D02*
X104399174Y-111913295D01*
X104399174Y-111913295D02*
X104399174Y-112151390D01*
X104399174Y-112151390D02*
X104446793Y-112246628D01*
X104446793Y-112246628D02*
X104494412Y-112294247D01*
X104494412Y-112294247D02*
X104589650Y-112341866D01*
X104589650Y-112341866D02*
X104780126Y-112341866D01*
X104780126Y-112341866D02*
X104875364Y-112294247D01*
X104875364Y-112294247D02*
X104922983Y-112246628D01*
X104922983Y-112246628D02*
X104970602Y-112151390D01*
X120154142Y-108817580D02*
X120106523Y-108865200D01*
X120106523Y-108865200D02*
X119963666Y-108912819D01*
X119963666Y-108912819D02*
X119868428Y-108912819D01*
X119868428Y-108912819D02*
X119725571Y-108865200D01*
X119725571Y-108865200D02*
X119630333Y-108769961D01*
X119630333Y-108769961D02*
X119582714Y-108674723D01*
X119582714Y-108674723D02*
X119535095Y-108484247D01*
X119535095Y-108484247D02*
X119535095Y-108341390D01*
X119535095Y-108341390D02*
X119582714Y-108150914D01*
X119582714Y-108150914D02*
X119630333Y-108055676D01*
X119630333Y-108055676D02*
X119725571Y-107960438D01*
X119725571Y-107960438D02*
X119868428Y-107912819D01*
X119868428Y-107912819D02*
X119963666Y-107912819D01*
X119963666Y-107912819D02*
X120106523Y-107960438D01*
X120106523Y-107960438D02*
X120154142Y-108008057D01*
X121106523Y-108912819D02*
X120535095Y-108912819D01*
X120820809Y-108912819D02*
X120820809Y-107912819D01*
X120820809Y-107912819D02*
X120725571Y-108055676D01*
X120725571Y-108055676D02*
X120630333Y-108150914D01*
X120630333Y-108150914D02*
X120535095Y-108198533D01*
X121963666Y-108246152D02*
X121963666Y-108912819D01*
X121725571Y-107865200D02*
X121487476Y-108579485D01*
X121487476Y-108579485D02*
X122106523Y-108579485D01*
D11*
X89288000Y-95069469D02*
X89048000Y-94726612D01*
X88876571Y-95069469D02*
X88876571Y-94349469D01*
X88876571Y-94349469D02*
X89150857Y-94349469D01*
X89150857Y-94349469D02*
X89219428Y-94383755D01*
X89219428Y-94383755D02*
X89253714Y-94418041D01*
X89253714Y-94418041D02*
X89288000Y-94486612D01*
X89288000Y-94486612D02*
X89288000Y-94589469D01*
X89288000Y-94589469D02*
X89253714Y-94658041D01*
X89253714Y-94658041D02*
X89219428Y-94692326D01*
X89219428Y-94692326D02*
X89150857Y-94726612D01*
X89150857Y-94726612D02*
X88876571Y-94726612D01*
X89528000Y-94349469D02*
X90008000Y-94349469D01*
X90008000Y-94349469D02*
X89699428Y-95069469D01*
X89288000Y-92783469D02*
X89048000Y-92440612D01*
X88876571Y-92783469D02*
X88876571Y-92063469D01*
X88876571Y-92063469D02*
X89150857Y-92063469D01*
X89150857Y-92063469D02*
X89219428Y-92097755D01*
X89219428Y-92097755D02*
X89253714Y-92132041D01*
X89253714Y-92132041D02*
X89288000Y-92200612D01*
X89288000Y-92200612D02*
X89288000Y-92303469D01*
X89288000Y-92303469D02*
X89253714Y-92372041D01*
X89253714Y-92372041D02*
X89219428Y-92406326D01*
X89219428Y-92406326D02*
X89150857Y-92440612D01*
X89150857Y-92440612D02*
X88876571Y-92440612D01*
X89905143Y-92063469D02*
X89768000Y-92063469D01*
X89768000Y-92063469D02*
X89699428Y-92097755D01*
X89699428Y-92097755D02*
X89665143Y-92132041D01*
X89665143Y-92132041D02*
X89596571Y-92234898D01*
X89596571Y-92234898D02*
X89562285Y-92372041D01*
X89562285Y-92372041D02*
X89562285Y-92646326D01*
X89562285Y-92646326D02*
X89596571Y-92714898D01*
X89596571Y-92714898D02*
X89630857Y-92749184D01*
X89630857Y-92749184D02*
X89699428Y-92783469D01*
X89699428Y-92783469D02*
X89836571Y-92783469D01*
X89836571Y-92783469D02*
X89905143Y-92749184D01*
X89905143Y-92749184D02*
X89939428Y-92714898D01*
X89939428Y-92714898D02*
X89973714Y-92646326D01*
X89973714Y-92646326D02*
X89973714Y-92474898D01*
X89973714Y-92474898D02*
X89939428Y-92406326D01*
X89939428Y-92406326D02*
X89905143Y-92372041D01*
X89905143Y-92372041D02*
X89836571Y-92337755D01*
X89836571Y-92337755D02*
X89699428Y-92337755D01*
X89699428Y-92337755D02*
X89630857Y-92372041D01*
X89630857Y-92372041D02*
X89596571Y-92406326D01*
X89596571Y-92406326D02*
X89562285Y-92474898D01*
D10*
X87227580Y-101452666D02*
X87275200Y-101500285D01*
X87275200Y-101500285D02*
X87322819Y-101643142D01*
X87322819Y-101643142D02*
X87322819Y-101738380D01*
X87322819Y-101738380D02*
X87275200Y-101881237D01*
X87275200Y-101881237D02*
X87179961Y-101976475D01*
X87179961Y-101976475D02*
X87084723Y-102024094D01*
X87084723Y-102024094D02*
X86894247Y-102071713D01*
X86894247Y-102071713D02*
X86751390Y-102071713D01*
X86751390Y-102071713D02*
X86560914Y-102024094D01*
X86560914Y-102024094D02*
X86465676Y-101976475D01*
X86465676Y-101976475D02*
X86370438Y-101881237D01*
X86370438Y-101881237D02*
X86322819Y-101738380D01*
X86322819Y-101738380D02*
X86322819Y-101643142D01*
X86322819Y-101643142D02*
X86370438Y-101500285D01*
X86370438Y-101500285D02*
X86418057Y-101452666D01*
X86322819Y-101119332D02*
X86322819Y-100500285D01*
X86322819Y-100500285D02*
X86703771Y-100833618D01*
X86703771Y-100833618D02*
X86703771Y-100690761D01*
X86703771Y-100690761D02*
X86751390Y-100595523D01*
X86751390Y-100595523D02*
X86799009Y-100547904D01*
X86799009Y-100547904D02*
X86894247Y-100500285D01*
X86894247Y-100500285D02*
X87132342Y-100500285D01*
X87132342Y-100500285D02*
X87227580Y-100547904D01*
X87227580Y-100547904D02*
X87275200Y-100595523D01*
X87275200Y-100595523D02*
X87322819Y-100690761D01*
X87322819Y-100690761D02*
X87322819Y-100976475D01*
X87322819Y-100976475D02*
X87275200Y-101071713D01*
X87275200Y-101071713D02*
X87227580Y-101119332D01*
X81946761Y-94276057D02*
X81851523Y-94228438D01*
X81851523Y-94228438D02*
X81756285Y-94133200D01*
X81756285Y-94133200D02*
X81613428Y-93990342D01*
X81613428Y-93990342D02*
X81518190Y-93942723D01*
X81518190Y-93942723D02*
X81422952Y-93942723D01*
X81470571Y-94180819D02*
X81375333Y-94133200D01*
X81375333Y-94133200D02*
X81280095Y-94037961D01*
X81280095Y-94037961D02*
X81232476Y-93847485D01*
X81232476Y-93847485D02*
X81232476Y-93514152D01*
X81232476Y-93514152D02*
X81280095Y-93323676D01*
X81280095Y-93323676D02*
X81375333Y-93228438D01*
X81375333Y-93228438D02*
X81470571Y-93180819D01*
X81470571Y-93180819D02*
X81661047Y-93180819D01*
X81661047Y-93180819D02*
X81756285Y-93228438D01*
X81756285Y-93228438D02*
X81851523Y-93323676D01*
X81851523Y-93323676D02*
X81899142Y-93514152D01*
X81899142Y-93514152D02*
X81899142Y-93847485D01*
X81899142Y-93847485D02*
X81851523Y-94037961D01*
X81851523Y-94037961D02*
X81756285Y-94133200D01*
X81756285Y-94133200D02*
X81661047Y-94180819D01*
X81661047Y-94180819D02*
X81470571Y-94180819D01*
X82232476Y-93180819D02*
X82851523Y-93180819D01*
X82851523Y-93180819D02*
X82518190Y-93561771D01*
X82518190Y-93561771D02*
X82661047Y-93561771D01*
X82661047Y-93561771D02*
X82756285Y-93609390D01*
X82756285Y-93609390D02*
X82803904Y-93657009D01*
X82803904Y-93657009D02*
X82851523Y-93752247D01*
X82851523Y-93752247D02*
X82851523Y-93990342D01*
X82851523Y-93990342D02*
X82803904Y-94085580D01*
X82803904Y-94085580D02*
X82756285Y-94133200D01*
X82756285Y-94133200D02*
X82661047Y-94180819D01*
X82661047Y-94180819D02*
X82375333Y-94180819D01*
X82375333Y-94180819D02*
X82280095Y-94133200D01*
X82280095Y-94133200D02*
X82232476Y-94085580D01*
D11*
X129204143Y-99133469D02*
X128964143Y-98790612D01*
X128792714Y-99133469D02*
X128792714Y-98413469D01*
X128792714Y-98413469D02*
X129067000Y-98413469D01*
X129067000Y-98413469D02*
X129135571Y-98447755D01*
X129135571Y-98447755D02*
X129169857Y-98482041D01*
X129169857Y-98482041D02*
X129204143Y-98550612D01*
X129204143Y-98550612D02*
X129204143Y-98653469D01*
X129204143Y-98653469D02*
X129169857Y-98722041D01*
X129169857Y-98722041D02*
X129135571Y-98756326D01*
X129135571Y-98756326D02*
X129067000Y-98790612D01*
X129067000Y-98790612D02*
X128792714Y-98790612D01*
X129478428Y-98482041D02*
X129512714Y-98447755D01*
X129512714Y-98447755D02*
X129581286Y-98413469D01*
X129581286Y-98413469D02*
X129752714Y-98413469D01*
X129752714Y-98413469D02*
X129821286Y-98447755D01*
X129821286Y-98447755D02*
X129855571Y-98482041D01*
X129855571Y-98482041D02*
X129889857Y-98550612D01*
X129889857Y-98550612D02*
X129889857Y-98619184D01*
X129889857Y-98619184D02*
X129855571Y-98722041D01*
X129855571Y-98722041D02*
X129444143Y-99133469D01*
X129444143Y-99133469D02*
X129889857Y-99133469D01*
X130301285Y-98722041D02*
X130232714Y-98687755D01*
X130232714Y-98687755D02*
X130198428Y-98653469D01*
X130198428Y-98653469D02*
X130164142Y-98584898D01*
X130164142Y-98584898D02*
X130164142Y-98550612D01*
X130164142Y-98550612D02*
X130198428Y-98482041D01*
X130198428Y-98482041D02*
X130232714Y-98447755D01*
X130232714Y-98447755D02*
X130301285Y-98413469D01*
X130301285Y-98413469D02*
X130438428Y-98413469D01*
X130438428Y-98413469D02*
X130507000Y-98447755D01*
X130507000Y-98447755D02*
X130541285Y-98482041D01*
X130541285Y-98482041D02*
X130575571Y-98550612D01*
X130575571Y-98550612D02*
X130575571Y-98584898D01*
X130575571Y-98584898D02*
X130541285Y-98653469D01*
X130541285Y-98653469D02*
X130507000Y-98687755D01*
X130507000Y-98687755D02*
X130438428Y-98722041D01*
X130438428Y-98722041D02*
X130301285Y-98722041D01*
X130301285Y-98722041D02*
X130232714Y-98756326D01*
X130232714Y-98756326D02*
X130198428Y-98790612D01*
X130198428Y-98790612D02*
X130164142Y-98859184D01*
X130164142Y-98859184D02*
X130164142Y-98996326D01*
X130164142Y-98996326D02*
X130198428Y-99064898D01*
X130198428Y-99064898D02*
X130232714Y-99099184D01*
X130232714Y-99099184D02*
X130301285Y-99133469D01*
X130301285Y-99133469D02*
X130438428Y-99133469D01*
X130438428Y-99133469D02*
X130507000Y-99099184D01*
X130507000Y-99099184D02*
X130541285Y-99064898D01*
X130541285Y-99064898D02*
X130575571Y-98996326D01*
X130575571Y-98996326D02*
X130575571Y-98859184D01*
X130575571Y-98859184D02*
X130541285Y-98790612D01*
X130541285Y-98790612D02*
X130507000Y-98756326D01*
X130507000Y-98756326D02*
X130438428Y-98722041D01*
X116659469Y-95458856D02*
X116316612Y-95698856D01*
X116659469Y-95870285D02*
X115939469Y-95870285D01*
X115939469Y-95870285D02*
X115939469Y-95595999D01*
X115939469Y-95595999D02*
X115973755Y-95527428D01*
X115973755Y-95527428D02*
X116008041Y-95493142D01*
X116008041Y-95493142D02*
X116076612Y-95458856D01*
X116076612Y-95458856D02*
X116179469Y-95458856D01*
X116179469Y-95458856D02*
X116248041Y-95493142D01*
X116248041Y-95493142D02*
X116282326Y-95527428D01*
X116282326Y-95527428D02*
X116316612Y-95595999D01*
X116316612Y-95595999D02*
X116316612Y-95870285D01*
X116659469Y-94773142D02*
X116659469Y-95184571D01*
X116659469Y-94978856D02*
X115939469Y-94978856D01*
X115939469Y-94978856D02*
X116042326Y-95047428D01*
X116042326Y-95047428D02*
X116110898Y-95115999D01*
X116110898Y-95115999D02*
X116145184Y-95184571D01*
X116008041Y-94498857D02*
X115973755Y-94464571D01*
X115973755Y-94464571D02*
X115939469Y-94396000D01*
X115939469Y-94396000D02*
X115939469Y-94224571D01*
X115939469Y-94224571D02*
X115973755Y-94156000D01*
X115973755Y-94156000D02*
X116008041Y-94121714D01*
X116008041Y-94121714D02*
X116076612Y-94087428D01*
X116076612Y-94087428D02*
X116145184Y-94087428D01*
X116145184Y-94087428D02*
X116248041Y-94121714D01*
X116248041Y-94121714D02*
X116659469Y-94533142D01*
X116659469Y-94533142D02*
X116659469Y-94087428D01*
X74556000Y-95069469D02*
X74316000Y-94726612D01*
X74144571Y-95069469D02*
X74144571Y-94349469D01*
X74144571Y-94349469D02*
X74418857Y-94349469D01*
X74418857Y-94349469D02*
X74487428Y-94383755D01*
X74487428Y-94383755D02*
X74521714Y-94418041D01*
X74521714Y-94418041D02*
X74556000Y-94486612D01*
X74556000Y-94486612D02*
X74556000Y-94589469D01*
X74556000Y-94589469D02*
X74521714Y-94658041D01*
X74521714Y-94658041D02*
X74487428Y-94692326D01*
X74487428Y-94692326D02*
X74418857Y-94726612D01*
X74418857Y-94726612D02*
X74144571Y-94726612D01*
X75207428Y-94349469D02*
X74864571Y-94349469D01*
X74864571Y-94349469D02*
X74830285Y-94692326D01*
X74830285Y-94692326D02*
X74864571Y-94658041D01*
X74864571Y-94658041D02*
X74933143Y-94623755D01*
X74933143Y-94623755D02*
X75104571Y-94623755D01*
X75104571Y-94623755D02*
X75173143Y-94658041D01*
X75173143Y-94658041D02*
X75207428Y-94692326D01*
X75207428Y-94692326D02*
X75241714Y-94760898D01*
X75241714Y-94760898D02*
X75241714Y-94932326D01*
X75241714Y-94932326D02*
X75207428Y-95000898D01*
X75207428Y-95000898D02*
X75173143Y-95035184D01*
X75173143Y-95035184D02*
X75104571Y-95069469D01*
X75104571Y-95069469D02*
X74933143Y-95069469D01*
X74933143Y-95069469D02*
X74864571Y-95035184D01*
X74864571Y-95035184D02*
X74830285Y-95000898D01*
D10*
X78956819Y-102107904D02*
X79766342Y-102107904D01*
X79766342Y-102107904D02*
X79861580Y-102060285D01*
X79861580Y-102060285D02*
X79909200Y-102012666D01*
X79909200Y-102012666D02*
X79956819Y-101917428D01*
X79956819Y-101917428D02*
X79956819Y-101726952D01*
X79956819Y-101726952D02*
X79909200Y-101631714D01*
X79909200Y-101631714D02*
X79861580Y-101584095D01*
X79861580Y-101584095D02*
X79766342Y-101536476D01*
X79766342Y-101536476D02*
X78956819Y-101536476D01*
X79052057Y-101107904D02*
X79004438Y-101060285D01*
X79004438Y-101060285D02*
X78956819Y-100965047D01*
X78956819Y-100965047D02*
X78956819Y-100726952D01*
X78956819Y-100726952D02*
X79004438Y-100631714D01*
X79004438Y-100631714D02*
X79052057Y-100584095D01*
X79052057Y-100584095D02*
X79147295Y-100536476D01*
X79147295Y-100536476D02*
X79242533Y-100536476D01*
X79242533Y-100536476D02*
X79385390Y-100584095D01*
X79385390Y-100584095D02*
X79956819Y-101155523D01*
X79956819Y-101155523D02*
X79956819Y-100536476D01*
D11*
X130347143Y-117167469D02*
X130107143Y-116824612D01*
X129935714Y-117167469D02*
X129935714Y-116447469D01*
X129935714Y-116447469D02*
X130210000Y-116447469D01*
X130210000Y-116447469D02*
X130278571Y-116481755D01*
X130278571Y-116481755D02*
X130312857Y-116516041D01*
X130312857Y-116516041D02*
X130347143Y-116584612D01*
X130347143Y-116584612D02*
X130347143Y-116687469D01*
X130347143Y-116687469D02*
X130312857Y-116756041D01*
X130312857Y-116756041D02*
X130278571Y-116790326D01*
X130278571Y-116790326D02*
X130210000Y-116824612D01*
X130210000Y-116824612D02*
X129935714Y-116824612D01*
X130621428Y-116516041D02*
X130655714Y-116481755D01*
X130655714Y-116481755D02*
X130724286Y-116447469D01*
X130724286Y-116447469D02*
X130895714Y-116447469D01*
X130895714Y-116447469D02*
X130964286Y-116481755D01*
X130964286Y-116481755D02*
X130998571Y-116516041D01*
X130998571Y-116516041D02*
X131032857Y-116584612D01*
X131032857Y-116584612D02*
X131032857Y-116653184D01*
X131032857Y-116653184D02*
X130998571Y-116756041D01*
X130998571Y-116756041D02*
X130587143Y-117167469D01*
X130587143Y-117167469D02*
X131032857Y-117167469D01*
X131650000Y-116447469D02*
X131512857Y-116447469D01*
X131512857Y-116447469D02*
X131444285Y-116481755D01*
X131444285Y-116481755D02*
X131410000Y-116516041D01*
X131410000Y-116516041D02*
X131341428Y-116618898D01*
X131341428Y-116618898D02*
X131307142Y-116756041D01*
X131307142Y-116756041D02*
X131307142Y-117030326D01*
X131307142Y-117030326D02*
X131341428Y-117098898D01*
X131341428Y-117098898D02*
X131375714Y-117133184D01*
X131375714Y-117133184D02*
X131444285Y-117167469D01*
X131444285Y-117167469D02*
X131581428Y-117167469D01*
X131581428Y-117167469D02*
X131650000Y-117133184D01*
X131650000Y-117133184D02*
X131684285Y-117098898D01*
X131684285Y-117098898D02*
X131718571Y-117030326D01*
X131718571Y-117030326D02*
X131718571Y-116858898D01*
X131718571Y-116858898D02*
X131684285Y-116790326D01*
X131684285Y-116790326D02*
X131650000Y-116756041D01*
X131650000Y-116756041D02*
X131581428Y-116721755D01*
X131581428Y-116721755D02*
X131444285Y-116721755D01*
X131444285Y-116721755D02*
X131375714Y-116756041D01*
X131375714Y-116756041D02*
X131341428Y-116790326D01*
X131341428Y-116790326D02*
X131307142Y-116858898D01*
X80083469Y-111674856D02*
X79740612Y-111914856D01*
X80083469Y-112086285D02*
X79363469Y-112086285D01*
X79363469Y-112086285D02*
X79363469Y-111811999D01*
X79363469Y-111811999D02*
X79397755Y-111743428D01*
X79397755Y-111743428D02*
X79432041Y-111709142D01*
X79432041Y-111709142D02*
X79500612Y-111674856D01*
X79500612Y-111674856D02*
X79603469Y-111674856D01*
X79603469Y-111674856D02*
X79672041Y-111709142D01*
X79672041Y-111709142D02*
X79706326Y-111743428D01*
X79706326Y-111743428D02*
X79740612Y-111811999D01*
X79740612Y-111811999D02*
X79740612Y-112086285D01*
X80083469Y-110989142D02*
X80083469Y-111400571D01*
X80083469Y-111194856D02*
X79363469Y-111194856D01*
X79363469Y-111194856D02*
X79466326Y-111263428D01*
X79466326Y-111263428D02*
X79534898Y-111331999D01*
X79534898Y-111331999D02*
X79569184Y-111400571D01*
X79363469Y-110543428D02*
X79363469Y-110474857D01*
X79363469Y-110474857D02*
X79397755Y-110406285D01*
X79397755Y-110406285D02*
X79432041Y-110372000D01*
X79432041Y-110372000D02*
X79500612Y-110337714D01*
X79500612Y-110337714D02*
X79637755Y-110303428D01*
X79637755Y-110303428D02*
X79809184Y-110303428D01*
X79809184Y-110303428D02*
X79946326Y-110337714D01*
X79946326Y-110337714D02*
X80014898Y-110372000D01*
X80014898Y-110372000D02*
X80049184Y-110406285D01*
X80049184Y-110406285D02*
X80083469Y-110474857D01*
X80083469Y-110474857D02*
X80083469Y-110543428D01*
X80083469Y-110543428D02*
X80049184Y-110612000D01*
X80049184Y-110612000D02*
X80014898Y-110646285D01*
X80014898Y-110646285D02*
X79946326Y-110680571D01*
X79946326Y-110680571D02*
X79809184Y-110714857D01*
X79809184Y-110714857D02*
X79637755Y-110714857D01*
X79637755Y-110714857D02*
X79500612Y-110680571D01*
X79500612Y-110680571D02*
X79432041Y-110646285D01*
X79432041Y-110646285D02*
X79397755Y-110612000D01*
X79397755Y-110612000D02*
X79363469Y-110543428D01*
X65351469Y-111714856D02*
X65008612Y-111954856D01*
X65351469Y-112126285D02*
X64631469Y-112126285D01*
X64631469Y-112126285D02*
X64631469Y-111851999D01*
X64631469Y-111851999D02*
X64665755Y-111783428D01*
X64665755Y-111783428D02*
X64700041Y-111749142D01*
X64700041Y-111749142D02*
X64768612Y-111714856D01*
X64768612Y-111714856D02*
X64871469Y-111714856D01*
X64871469Y-111714856D02*
X64940041Y-111749142D01*
X64940041Y-111749142D02*
X64974326Y-111783428D01*
X64974326Y-111783428D02*
X65008612Y-111851999D01*
X65008612Y-111851999D02*
X65008612Y-112126285D01*
X64700041Y-111440571D02*
X64665755Y-111406285D01*
X64665755Y-111406285D02*
X64631469Y-111337714D01*
X64631469Y-111337714D02*
X64631469Y-111166285D01*
X64631469Y-111166285D02*
X64665755Y-111097714D01*
X64665755Y-111097714D02*
X64700041Y-111063428D01*
X64700041Y-111063428D02*
X64768612Y-111029142D01*
X64768612Y-111029142D02*
X64837184Y-111029142D01*
X64837184Y-111029142D02*
X64940041Y-111063428D01*
X64940041Y-111063428D02*
X65351469Y-111474856D01*
X65351469Y-111474856D02*
X65351469Y-111029142D01*
X64631469Y-110789142D02*
X64631469Y-110309142D01*
X64631469Y-110309142D02*
X65351469Y-110617714D01*
D10*
X69509142Y-114793819D02*
X69699618Y-114793819D01*
X69699618Y-114793819D02*
X69794856Y-114746200D01*
X69794856Y-114746200D02*
X69842475Y-114698580D01*
X69842475Y-114698580D02*
X69937713Y-114555723D01*
X69937713Y-114555723D02*
X69985332Y-114365247D01*
X69985332Y-114365247D02*
X69985332Y-113984295D01*
X69985332Y-113984295D02*
X69937713Y-113889057D01*
X69937713Y-113889057D02*
X69890094Y-113841438D01*
X69890094Y-113841438D02*
X69794856Y-113793819D01*
X69794856Y-113793819D02*
X69604380Y-113793819D01*
X69604380Y-113793819D02*
X69509142Y-113841438D01*
X69509142Y-113841438D02*
X69461523Y-113889057D01*
X69461523Y-113889057D02*
X69413904Y-113984295D01*
X69413904Y-113984295D02*
X69413904Y-114222390D01*
X69413904Y-114222390D02*
X69461523Y-114317628D01*
X69461523Y-114317628D02*
X69509142Y-114365247D01*
X69509142Y-114365247D02*
X69604380Y-114412866D01*
X69604380Y-114412866D02*
X69794856Y-114412866D01*
X69794856Y-114412866D02*
X69890094Y-114365247D01*
X69890094Y-114365247D02*
X69937713Y-114317628D01*
X69937713Y-114317628D02*
X69985332Y-114222390D01*
X70271047Y-113793819D02*
X70604380Y-114793819D01*
X70604380Y-114793819D02*
X70937713Y-113793819D01*
X72366285Y-114270009D02*
X72509142Y-114317628D01*
X72509142Y-114317628D02*
X72556761Y-114365247D01*
X72556761Y-114365247D02*
X72604380Y-114460485D01*
X72604380Y-114460485D02*
X72604380Y-114603342D01*
X72604380Y-114603342D02*
X72556761Y-114698580D01*
X72556761Y-114698580D02*
X72509142Y-114746200D01*
X72509142Y-114746200D02*
X72413904Y-114793819D01*
X72413904Y-114793819D02*
X72032952Y-114793819D01*
X72032952Y-114793819D02*
X72032952Y-113793819D01*
X72032952Y-113793819D02*
X72366285Y-113793819D01*
X72366285Y-113793819D02*
X72461523Y-113841438D01*
X72461523Y-113841438D02*
X72509142Y-113889057D01*
X72509142Y-113889057D02*
X72556761Y-113984295D01*
X72556761Y-113984295D02*
X72556761Y-114079533D01*
X72556761Y-114079533D02*
X72509142Y-114174771D01*
X72509142Y-114174771D02*
X72461523Y-114222390D01*
X72461523Y-114222390D02*
X72366285Y-114270009D01*
X72366285Y-114270009D02*
X72032952Y-114270009D01*
X73461523Y-114793819D02*
X73461523Y-114270009D01*
X73461523Y-114270009D02*
X73413904Y-114174771D01*
X73413904Y-114174771D02*
X73318666Y-114127152D01*
X73318666Y-114127152D02*
X73128190Y-114127152D01*
X73128190Y-114127152D02*
X73032952Y-114174771D01*
X73461523Y-114746200D02*
X73366285Y-114793819D01*
X73366285Y-114793819D02*
X73128190Y-114793819D01*
X73128190Y-114793819D02*
X73032952Y-114746200D01*
X73032952Y-114746200D02*
X72985333Y-114650961D01*
X72985333Y-114650961D02*
X72985333Y-114555723D01*
X72985333Y-114555723D02*
X73032952Y-114460485D01*
X73032952Y-114460485D02*
X73128190Y-114412866D01*
X73128190Y-114412866D02*
X73366285Y-114412866D01*
X73366285Y-114412866D02*
X73461523Y-114365247D01*
X73794857Y-114127152D02*
X74175809Y-114127152D01*
X73937714Y-113793819D02*
X73937714Y-114650961D01*
X73937714Y-114650961D02*
X73985333Y-114746200D01*
X73985333Y-114746200D02*
X74080571Y-114793819D01*
X74080571Y-114793819D02*
X74175809Y-114793819D01*
X74366286Y-114127152D02*
X74747238Y-114127152D01*
X74509143Y-113793819D02*
X74509143Y-114650961D01*
X74509143Y-114650961D02*
X74556762Y-114746200D01*
X74556762Y-114746200D02*
X74652000Y-114793819D01*
X74652000Y-114793819D02*
X74747238Y-114793819D01*
X75461524Y-114746200D02*
X75366286Y-114793819D01*
X75366286Y-114793819D02*
X75175810Y-114793819D01*
X75175810Y-114793819D02*
X75080572Y-114746200D01*
X75080572Y-114746200D02*
X75032953Y-114650961D01*
X75032953Y-114650961D02*
X75032953Y-114270009D01*
X75032953Y-114270009D02*
X75080572Y-114174771D01*
X75080572Y-114174771D02*
X75175810Y-114127152D01*
X75175810Y-114127152D02*
X75366286Y-114127152D01*
X75366286Y-114127152D02*
X75461524Y-114174771D01*
X75461524Y-114174771D02*
X75509143Y-114270009D01*
X75509143Y-114270009D02*
X75509143Y-114365247D01*
X75509143Y-114365247D02*
X75032953Y-114460485D01*
X75937715Y-114793819D02*
X75937715Y-114127152D01*
X75937715Y-114317628D02*
X75985334Y-114222390D01*
X75985334Y-114222390D02*
X76032953Y-114174771D01*
X76032953Y-114174771D02*
X76128191Y-114127152D01*
X76128191Y-114127152D02*
X76223429Y-114127152D01*
X76461525Y-114127152D02*
X76699620Y-114793819D01*
X76937715Y-114127152D02*
X76699620Y-114793819D01*
X76699620Y-114793819D02*
X76604382Y-115031914D01*
X76604382Y-115031914D02*
X76556763Y-115079533D01*
X76556763Y-115079533D02*
X76461525Y-115127152D01*
X73083009Y-111524714D02*
X73130628Y-111381857D01*
X73130628Y-111381857D02*
X73178247Y-111334238D01*
X73178247Y-111334238D02*
X73273485Y-111286619D01*
X73273485Y-111286619D02*
X73416342Y-111286619D01*
X73416342Y-111286619D02*
X73511580Y-111334238D01*
X73511580Y-111334238D02*
X73559200Y-111381857D01*
X73559200Y-111381857D02*
X73606819Y-111477095D01*
X73606819Y-111477095D02*
X73606819Y-111858047D01*
X73606819Y-111858047D02*
X72606819Y-111858047D01*
X72606819Y-111858047D02*
X72606819Y-111524714D01*
X72606819Y-111524714D02*
X72654438Y-111429476D01*
X72654438Y-111429476D02*
X72702057Y-111381857D01*
X72702057Y-111381857D02*
X72797295Y-111334238D01*
X72797295Y-111334238D02*
X72892533Y-111334238D01*
X72892533Y-111334238D02*
X72987771Y-111381857D01*
X72987771Y-111381857D02*
X73035390Y-111429476D01*
X73035390Y-111429476D02*
X73083009Y-111524714D01*
X73083009Y-111524714D02*
X73083009Y-111858047D01*
X72606819Y-111000904D02*
X72606819Y-110429476D01*
X73606819Y-110715190D02*
X72606819Y-110715190D01*
X73606819Y-109572333D02*
X73606819Y-110143761D01*
X73606819Y-109858047D02*
X72606819Y-109858047D01*
X72606819Y-109858047D02*
X72749676Y-109953285D01*
X72749676Y-109953285D02*
X72844914Y-110048523D01*
X72844914Y-110048523D02*
X72892533Y-110143761D01*
X77557809Y-119549104D02*
X78033999Y-119549104D01*
X77462571Y-119834819D02*
X77795904Y-118834819D01*
X77795904Y-118834819D02*
X78129237Y-119834819D01*
X78891142Y-119168152D02*
X78891142Y-119834819D01*
X78462571Y-119168152D02*
X78462571Y-119691961D01*
X78462571Y-119691961D02*
X78510190Y-119787200D01*
X78510190Y-119787200D02*
X78605428Y-119834819D01*
X78605428Y-119834819D02*
X78748285Y-119834819D01*
X78748285Y-119834819D02*
X78843523Y-119787200D01*
X78843523Y-119787200D02*
X78891142Y-119739580D01*
X79795904Y-119834819D02*
X79795904Y-118834819D01*
X79795904Y-119787200D02*
X79700666Y-119834819D01*
X79700666Y-119834819D02*
X79510190Y-119834819D01*
X79510190Y-119834819D02*
X79414952Y-119787200D01*
X79414952Y-119787200D02*
X79367333Y-119739580D01*
X79367333Y-119739580D02*
X79319714Y-119644342D01*
X79319714Y-119644342D02*
X79319714Y-119358628D01*
X79319714Y-119358628D02*
X79367333Y-119263390D01*
X79367333Y-119263390D02*
X79414952Y-119215771D01*
X79414952Y-119215771D02*
X79510190Y-119168152D01*
X79510190Y-119168152D02*
X79700666Y-119168152D01*
X79700666Y-119168152D02*
X79795904Y-119215771D01*
X80272095Y-119834819D02*
X80272095Y-119168152D01*
X80272095Y-118834819D02*
X80224476Y-118882438D01*
X80224476Y-118882438D02*
X80272095Y-118930057D01*
X80272095Y-118930057D02*
X80319714Y-118882438D01*
X80319714Y-118882438D02*
X80272095Y-118834819D01*
X80272095Y-118834819D02*
X80272095Y-118930057D01*
X80891142Y-119834819D02*
X80795904Y-119787200D01*
X80795904Y-119787200D02*
X80748285Y-119739580D01*
X80748285Y-119739580D02*
X80700666Y-119644342D01*
X80700666Y-119644342D02*
X80700666Y-119358628D01*
X80700666Y-119358628D02*
X80748285Y-119263390D01*
X80748285Y-119263390D02*
X80795904Y-119215771D01*
X80795904Y-119215771D02*
X80891142Y-119168152D01*
X80891142Y-119168152D02*
X81033999Y-119168152D01*
X81033999Y-119168152D02*
X81129237Y-119215771D01*
X81129237Y-119215771D02*
X81176856Y-119263390D01*
X81176856Y-119263390D02*
X81224475Y-119358628D01*
X81224475Y-119358628D02*
X81224475Y-119644342D01*
X81224475Y-119644342D02*
X81176856Y-119739580D01*
X81176856Y-119739580D02*
X81129237Y-119787200D01*
X81129237Y-119787200D02*
X81033999Y-119834819D01*
X81033999Y-119834819D02*
X80891142Y-119834819D01*
X81938761Y-118834819D02*
X81938761Y-119549104D01*
X81938761Y-119549104D02*
X81891142Y-119691961D01*
X81891142Y-119691961D02*
X81795904Y-119787200D01*
X81795904Y-119787200D02*
X81653047Y-119834819D01*
X81653047Y-119834819D02*
X81557809Y-119834819D01*
X82843523Y-119834819D02*
X82843523Y-119311009D01*
X82843523Y-119311009D02*
X82795904Y-119215771D01*
X82795904Y-119215771D02*
X82700666Y-119168152D01*
X82700666Y-119168152D02*
X82510190Y-119168152D01*
X82510190Y-119168152D02*
X82414952Y-119215771D01*
X82843523Y-119787200D02*
X82748285Y-119834819D01*
X82748285Y-119834819D02*
X82510190Y-119834819D01*
X82510190Y-119834819D02*
X82414952Y-119787200D01*
X82414952Y-119787200D02*
X82367333Y-119691961D01*
X82367333Y-119691961D02*
X82367333Y-119596723D01*
X82367333Y-119596723D02*
X82414952Y-119501485D01*
X82414952Y-119501485D02*
X82510190Y-119453866D01*
X82510190Y-119453866D02*
X82748285Y-119453866D01*
X82748285Y-119453866D02*
X82843523Y-119406247D01*
X83748285Y-119787200D02*
X83653047Y-119834819D01*
X83653047Y-119834819D02*
X83462571Y-119834819D01*
X83462571Y-119834819D02*
X83367333Y-119787200D01*
X83367333Y-119787200D02*
X83319714Y-119739580D01*
X83319714Y-119739580D02*
X83272095Y-119644342D01*
X83272095Y-119644342D02*
X83272095Y-119358628D01*
X83272095Y-119358628D02*
X83319714Y-119263390D01*
X83319714Y-119263390D02*
X83367333Y-119215771D01*
X83367333Y-119215771D02*
X83462571Y-119168152D01*
X83462571Y-119168152D02*
X83653047Y-119168152D01*
X83653047Y-119168152D02*
X83748285Y-119215771D01*
X84176857Y-119834819D02*
X84176857Y-118834819D01*
X84272095Y-119453866D02*
X84557809Y-119834819D01*
X84557809Y-119168152D02*
X84176857Y-119549104D01*
X84891143Y-118834819D02*
X85510190Y-118834819D01*
X85510190Y-118834819D02*
X85176857Y-119215771D01*
X85176857Y-119215771D02*
X85319714Y-119215771D01*
X85319714Y-119215771D02*
X85414952Y-119263390D01*
X85414952Y-119263390D02*
X85462571Y-119311009D01*
X85462571Y-119311009D02*
X85510190Y-119406247D01*
X85510190Y-119406247D02*
X85510190Y-119644342D01*
X85510190Y-119644342D02*
X85462571Y-119739580D01*
X85462571Y-119739580D02*
X85414952Y-119787200D01*
X85414952Y-119787200D02*
X85319714Y-119834819D01*
X85319714Y-119834819D02*
X85034000Y-119834819D01*
X85034000Y-119834819D02*
X84938762Y-119787200D01*
X84938762Y-119787200D02*
X84891143Y-119739580D01*
X79930666Y-116294819D02*
X79930666Y-117009104D01*
X79930666Y-117009104D02*
X79883047Y-117151961D01*
X79883047Y-117151961D02*
X79787809Y-117247200D01*
X79787809Y-117247200D02*
X79644952Y-117294819D01*
X79644952Y-117294819D02*
X79549714Y-117294819D01*
X80930666Y-117294819D02*
X80359238Y-117294819D01*
X80644952Y-117294819D02*
X80644952Y-116294819D01*
X80644952Y-116294819D02*
X80549714Y-116437676D01*
X80549714Y-116437676D02*
X80454476Y-116532914D01*
X80454476Y-116532914D02*
X80359238Y-116580533D01*
X93688819Y-102107904D02*
X94498342Y-102107904D01*
X94498342Y-102107904D02*
X94593580Y-102060285D01*
X94593580Y-102060285D02*
X94641200Y-102012666D01*
X94641200Y-102012666D02*
X94688819Y-101917428D01*
X94688819Y-101917428D02*
X94688819Y-101726952D01*
X94688819Y-101726952D02*
X94641200Y-101631714D01*
X94641200Y-101631714D02*
X94593580Y-101584095D01*
X94593580Y-101584095D02*
X94498342Y-101536476D01*
X94498342Y-101536476D02*
X93688819Y-101536476D01*
X93688819Y-101155523D02*
X93688819Y-100536476D01*
X93688819Y-100536476D02*
X94069771Y-100869809D01*
X94069771Y-100869809D02*
X94069771Y-100726952D01*
X94069771Y-100726952D02*
X94117390Y-100631714D01*
X94117390Y-100631714D02*
X94165009Y-100584095D01*
X94165009Y-100584095D02*
X94260247Y-100536476D01*
X94260247Y-100536476D02*
X94498342Y-100536476D01*
X94498342Y-100536476D02*
X94593580Y-100584095D01*
X94593580Y-100584095D02*
X94641200Y-100631714D01*
X94641200Y-100631714D02*
X94688819Y-100726952D01*
X94688819Y-100726952D02*
X94688819Y-101012666D01*
X94688819Y-101012666D02*
X94641200Y-101107904D01*
X94641200Y-101107904D02*
X94593580Y-101155523D01*
D11*
X77543469Y-111331999D02*
X77200612Y-111571999D01*
X77543469Y-111743428D02*
X76823469Y-111743428D01*
X76823469Y-111743428D02*
X76823469Y-111469142D01*
X76823469Y-111469142D02*
X76857755Y-111400571D01*
X76857755Y-111400571D02*
X76892041Y-111366285D01*
X76892041Y-111366285D02*
X76960612Y-111331999D01*
X76960612Y-111331999D02*
X77063469Y-111331999D01*
X77063469Y-111331999D02*
X77132041Y-111366285D01*
X77132041Y-111366285D02*
X77166326Y-111400571D01*
X77166326Y-111400571D02*
X77200612Y-111469142D01*
X77200612Y-111469142D02*
X77200612Y-111743428D01*
X76892041Y-111057714D02*
X76857755Y-111023428D01*
X76857755Y-111023428D02*
X76823469Y-110954857D01*
X76823469Y-110954857D02*
X76823469Y-110783428D01*
X76823469Y-110783428D02*
X76857755Y-110714857D01*
X76857755Y-110714857D02*
X76892041Y-110680571D01*
X76892041Y-110680571D02*
X76960612Y-110646285D01*
X76960612Y-110646285D02*
X77029184Y-110646285D01*
X77029184Y-110646285D02*
X77132041Y-110680571D01*
X77132041Y-110680571D02*
X77543469Y-111091999D01*
X77543469Y-111091999D02*
X77543469Y-110646285D01*
X136570143Y-99133469D02*
X136330143Y-98790612D01*
X136158714Y-99133469D02*
X136158714Y-98413469D01*
X136158714Y-98413469D02*
X136433000Y-98413469D01*
X136433000Y-98413469D02*
X136501571Y-98447755D01*
X136501571Y-98447755D02*
X136535857Y-98482041D01*
X136535857Y-98482041D02*
X136570143Y-98550612D01*
X136570143Y-98550612D02*
X136570143Y-98653469D01*
X136570143Y-98653469D02*
X136535857Y-98722041D01*
X136535857Y-98722041D02*
X136501571Y-98756326D01*
X136501571Y-98756326D02*
X136433000Y-98790612D01*
X136433000Y-98790612D02*
X136158714Y-98790612D01*
X136810143Y-98413469D02*
X137255857Y-98413469D01*
X137255857Y-98413469D02*
X137015857Y-98687755D01*
X137015857Y-98687755D02*
X137118714Y-98687755D01*
X137118714Y-98687755D02*
X137187286Y-98722041D01*
X137187286Y-98722041D02*
X137221571Y-98756326D01*
X137221571Y-98756326D02*
X137255857Y-98824898D01*
X137255857Y-98824898D02*
X137255857Y-98996326D01*
X137255857Y-98996326D02*
X137221571Y-99064898D01*
X137221571Y-99064898D02*
X137187286Y-99099184D01*
X137187286Y-99099184D02*
X137118714Y-99133469D01*
X137118714Y-99133469D02*
X136913000Y-99133469D01*
X136913000Y-99133469D02*
X136844428Y-99099184D01*
X136844428Y-99099184D02*
X136810143Y-99064898D01*
X137701571Y-98413469D02*
X137770142Y-98413469D01*
X137770142Y-98413469D02*
X137838714Y-98447755D01*
X137838714Y-98447755D02*
X137873000Y-98482041D01*
X137873000Y-98482041D02*
X137907285Y-98550612D01*
X137907285Y-98550612D02*
X137941571Y-98687755D01*
X137941571Y-98687755D02*
X137941571Y-98859184D01*
X137941571Y-98859184D02*
X137907285Y-98996326D01*
X137907285Y-98996326D02*
X137873000Y-99064898D01*
X137873000Y-99064898D02*
X137838714Y-99099184D01*
X137838714Y-99099184D02*
X137770142Y-99133469D01*
X137770142Y-99133469D02*
X137701571Y-99133469D01*
X137701571Y-99133469D02*
X137633000Y-99099184D01*
X137633000Y-99099184D02*
X137598714Y-99064898D01*
X137598714Y-99064898D02*
X137564428Y-98996326D01*
X137564428Y-98996326D02*
X137530142Y-98859184D01*
X137530142Y-98859184D02*
X137530142Y-98687755D01*
X137530142Y-98687755D02*
X137564428Y-98550612D01*
X137564428Y-98550612D02*
X137598714Y-98482041D01*
X137598714Y-98482041D02*
X137633000Y-98447755D01*
X137633000Y-98447755D02*
X137701571Y-98413469D01*
D10*
X84605904Y-118624819D02*
X84129714Y-118624819D01*
X84129714Y-118624819D02*
X84082095Y-119101009D01*
X84082095Y-119101009D02*
X84129714Y-119053390D01*
X84129714Y-119053390D02*
X84224952Y-119005771D01*
X84224952Y-119005771D02*
X84463047Y-119005771D01*
X84463047Y-119005771D02*
X84558285Y-119053390D01*
X84558285Y-119053390D02*
X84605904Y-119101009D01*
X84605904Y-119101009D02*
X84653523Y-119196247D01*
X84653523Y-119196247D02*
X84653523Y-119434342D01*
X84653523Y-119434342D02*
X84605904Y-119529580D01*
X84605904Y-119529580D02*
X84558285Y-119577200D01*
X84558285Y-119577200D02*
X84463047Y-119624819D01*
X84463047Y-119624819D02*
X84224952Y-119624819D01*
X84224952Y-119624819D02*
X84129714Y-119577200D01*
X84129714Y-119577200D02*
X84082095Y-119529580D01*
X85272571Y-118624819D02*
X85367809Y-118624819D01*
X85367809Y-118624819D02*
X85463047Y-118672438D01*
X85463047Y-118672438D02*
X85510666Y-118720057D01*
X85510666Y-118720057D02*
X85558285Y-118815295D01*
X85558285Y-118815295D02*
X85605904Y-119005771D01*
X85605904Y-119005771D02*
X85605904Y-119243866D01*
X85605904Y-119243866D02*
X85558285Y-119434342D01*
X85558285Y-119434342D02*
X85510666Y-119529580D01*
X85510666Y-119529580D02*
X85463047Y-119577200D01*
X85463047Y-119577200D02*
X85367809Y-119624819D01*
X85367809Y-119624819D02*
X85272571Y-119624819D01*
X85272571Y-119624819D02*
X85177333Y-119577200D01*
X85177333Y-119577200D02*
X85129714Y-119529580D01*
X85129714Y-119529580D02*
X85082095Y-119434342D01*
X85082095Y-119434342D02*
X85034476Y-119243866D01*
X85034476Y-119243866D02*
X85034476Y-119005771D01*
X85034476Y-119005771D02*
X85082095Y-118815295D01*
X85082095Y-118815295D02*
X85129714Y-118720057D01*
X85129714Y-118720057D02*
X85177333Y-118672438D01*
X85177333Y-118672438D02*
X85272571Y-118624819D01*
X86034476Y-119624819D02*
X86034476Y-118624819D01*
X86605904Y-119624819D02*
X86177333Y-119053390D01*
X86605904Y-118624819D02*
X86034476Y-119196247D01*
X85798819Y-116165238D02*
X85322628Y-116498571D01*
X85798819Y-116736666D02*
X84798819Y-116736666D01*
X84798819Y-116736666D02*
X84798819Y-116355714D01*
X84798819Y-116355714D02*
X84846438Y-116260476D01*
X84846438Y-116260476D02*
X84894057Y-116212857D01*
X84894057Y-116212857D02*
X84989295Y-116165238D01*
X84989295Y-116165238D02*
X85132152Y-116165238D01*
X85132152Y-116165238D02*
X85227390Y-116212857D01*
X85227390Y-116212857D02*
X85275009Y-116260476D01*
X85275009Y-116260476D02*
X85322628Y-116355714D01*
X85322628Y-116355714D02*
X85322628Y-116736666D01*
X84798819Y-115879523D02*
X85798819Y-115546190D01*
X85798819Y-115546190D02*
X84798819Y-115212857D01*
X85798819Y-114355714D02*
X85798819Y-114927142D01*
X85798819Y-114641428D02*
X84798819Y-114641428D01*
X84798819Y-114641428D02*
X84941676Y-114736666D01*
X84941676Y-114736666D02*
X85036914Y-114831904D01*
X85036914Y-114831904D02*
X85084533Y-114927142D01*
D13*
G04 #@! TO.C,Q7*
X93256000Y-117172000D02*
X96756000Y-117172000D01*
X93242375Y-117175625D02*
G75*
G02*
X94996000Y-112942000I1753625J1753625D01*
G01*
X94996000Y-112942000D02*
G75*
G02*
X96749625Y-117175625I0J-2480000D01*
G01*
G04 #@! TO.C,R21*
X134493000Y-96520000D02*
X135233000Y-96520000D01*
X135233000Y-95720000D02*
X135233000Y-97320000D01*
X135233000Y-97320000D02*
X138833000Y-97320000D01*
X138833000Y-95720000D02*
X135233000Y-95720000D01*
X138833000Y-97320000D02*
X138833000Y-95720000D01*
X139573000Y-96520000D02*
X138833000Y-96520000D01*
G04 #@! TO.C,SW2*
X88138000Y-113665000D02*
X88773000Y-113030000D01*
X88138000Y-118110000D02*
X88138000Y-113665000D01*
X88773000Y-113030000D02*
X90678000Y-113030000D01*
X90678000Y-113030000D02*
X90678000Y-118110000D01*
X90678000Y-118110000D02*
X88138000Y-118110000D01*
G04 #@! TO.C,R31*
X134493000Y-101092000D02*
X135233000Y-101092000D01*
X135233000Y-100292000D02*
X135233000Y-101892000D01*
X135233000Y-101892000D02*
X138833000Y-101892000D01*
X138833000Y-100292000D02*
X135233000Y-100292000D01*
X138833000Y-101892000D02*
X138833000Y-100292000D01*
X139573000Y-101092000D02*
X138833000Y-101092000D01*
G04 #@! TO.C,R22*
X134493000Y-103378000D02*
X135233000Y-103378000D01*
X135233000Y-102578000D02*
X135233000Y-104178000D01*
X135233000Y-104178000D02*
X138833000Y-104178000D01*
X138833000Y-102578000D02*
X135233000Y-102578000D01*
X138833000Y-104178000D02*
X138833000Y-102578000D01*
X139573000Y-103378000D02*
X138833000Y-103378000D01*
G04 #@! TO.C,U1*
X59630000Y-96266000D02*
X59630000Y-106426000D01*
X59630000Y-106426000D02*
X69910000Y-106426000D01*
X59690000Y-98171000D02*
X68850000Y-98171000D01*
X59690000Y-104521000D02*
X59690000Y-98171000D01*
X68850000Y-98171000D02*
X69850000Y-99171000D01*
X69850000Y-99171000D02*
X69850000Y-104521000D01*
X69850000Y-104521000D02*
X59690000Y-104521000D01*
X69910000Y-96266000D02*
X59630000Y-96266000D01*
X69910000Y-106426000D02*
X69910000Y-96266000D01*
G04 #@! TO.C,Q2*
X65570000Y-95476000D02*
X69070000Y-95476000D01*
X65556375Y-95479625D02*
G75*
G02*
X67310000Y-91246000I1753625J1753625D01*
G01*
X67310000Y-91246000D02*
G75*
G02*
X69063625Y-95479625I0J-2480000D01*
G01*
G04 #@! TO.C,R15*
X66764000Y-109452000D02*
X66764000Y-113052000D01*
X66764000Y-113052000D02*
X68364000Y-113052000D01*
X67564000Y-108712000D02*
X67564000Y-109452000D01*
X67564000Y-113792000D02*
X67564000Y-113052000D01*
X68364000Y-109452000D02*
X66764000Y-109452000D01*
X68364000Y-113052000D02*
X68364000Y-109452000D01*
G04 #@! TO.C,R9*
X101600000Y-94742000D02*
X102340000Y-94742000D01*
X102340000Y-93942000D02*
X102340000Y-95542000D01*
X102340000Y-95542000D02*
X105940000Y-95542000D01*
X105940000Y-93942000D02*
X102340000Y-93942000D01*
X105940000Y-95542000D02*
X105940000Y-93942000D01*
X106680000Y-94742000D02*
X105940000Y-94742000D01*
G04 #@! TO.C,R24*
X138773000Y-107166000D02*
X138773000Y-110766000D01*
X138773000Y-110766000D02*
X140373000Y-110766000D01*
X139573000Y-106426000D02*
X139573000Y-107166000D01*
X139573000Y-111506000D02*
X139573000Y-110766000D01*
X140373000Y-107166000D02*
X138773000Y-107166000D01*
X140373000Y-110766000D02*
X140373000Y-107166000D01*
G04 #@! TO.C,C12*
X134975000Y-107636000D02*
X134975000Y-112736000D01*
X134975000Y-112736000D02*
X138075000Y-112736000D01*
X136525000Y-106436000D02*
X136525000Y-107636000D01*
X136525000Y-113936000D02*
X136525000Y-112736000D01*
X138075000Y-107636000D02*
X134975000Y-107636000D01*
X138075000Y-112736000D02*
X138075000Y-107636000D01*
G04 #@! TO.C,R25*
X127127000Y-103378000D02*
X127867000Y-103378000D01*
X127867000Y-102578000D02*
X127867000Y-104178000D01*
X127867000Y-104178000D02*
X131467000Y-104178000D01*
X131467000Y-102578000D02*
X127867000Y-102578000D01*
X131467000Y-104178000D02*
X131467000Y-102578000D01*
X132207000Y-103378000D02*
X131467000Y-103378000D01*
G04 #@! TO.C,C10*
X108222339Y-110258300D02*
X109222339Y-110258300D01*
X108722339Y-109758300D02*
X108722339Y-110758300D01*
X117511200Y-112445800D02*
G75*
G02*
X107511200Y-112445800I-5000000J0D01*
G01*
X107511200Y-112445800D02*
G75*
G02*
X117511200Y-112445800I5000000J0D01*
G01*
G04 #@! TO.C,C1*
X55854000Y-99558000D02*
X55854000Y-104658000D01*
X55854000Y-104658000D02*
X58954000Y-104658000D01*
X57404000Y-98358000D02*
X57404000Y-99558000D01*
X57404000Y-105858000D02*
X57404000Y-104658000D01*
X58954000Y-99558000D02*
X55854000Y-99558000D01*
X58954000Y-104658000D02*
X58954000Y-99558000D01*
G04 #@! TO.C,R4*
X72136000Y-92456000D02*
X72876000Y-92456000D01*
X72876000Y-91656000D02*
X72876000Y-93256000D01*
X72876000Y-93256000D02*
X76476000Y-93256000D01*
X76476000Y-91656000D02*
X72876000Y-91656000D01*
X76476000Y-93256000D02*
X76476000Y-91656000D01*
X77216000Y-92456000D02*
X76476000Y-92456000D01*
G04 #@! TO.C,R18*
X110998000Y-118872000D02*
X111738000Y-118872000D01*
X111738000Y-118072000D02*
X111738000Y-119672000D01*
X111738000Y-119672000D02*
X115338000Y-119672000D01*
X115338000Y-118072000D02*
X111738000Y-118072000D01*
X115338000Y-119672000D02*
X115338000Y-118072000D01*
X116078000Y-118872000D02*
X115338000Y-118872000D01*
G04 #@! TO.C,RV3*
X118484000Y-95819000D02*
X118484000Y-105349000D01*
X118484000Y-105349000D02*
X123314000Y-105349000D01*
X118669000Y-104079000D02*
X120838000Y-104080000D01*
X118669000Y-104079000D02*
X120838000Y-104080000D01*
X123314000Y-95819000D02*
X118484000Y-95819000D01*
X123314000Y-105349000D02*
X123314000Y-95819000D01*
X120849000Y-104079000D02*
G75*
G02*
X118659000Y-104079000I-1095000J0D01*
G01*
X118659000Y-104079000D02*
G75*
G02*
X120849000Y-104079000I1095000J0D01*
G01*
G04 #@! TO.C,U5*
X124009000Y-105166000D02*
X124009000Y-115326000D01*
X124009000Y-115326000D02*
X134289000Y-115326000D01*
X124069000Y-107071000D02*
X133229000Y-107071000D01*
X124069000Y-113421000D02*
X124069000Y-107071000D01*
X133229000Y-107071000D02*
X134229000Y-108071000D01*
X134229000Y-108071000D02*
X134229000Y-113421000D01*
X134229000Y-113421000D02*
X124069000Y-113421000D01*
X134289000Y-105166000D02*
X124009000Y-105166000D01*
X134289000Y-115326000D02*
X134289000Y-105166000D01*
G04 #@! TO.C,Q1*
X96736000Y-107978000D02*
X93236000Y-107978000D01*
X94996000Y-112208000D02*
G75*
G02*
X93242375Y-107974375I0J2480000D01*
G01*
X96749625Y-107974375D02*
G75*
G02*
X94996000Y-112208000I-1753625J-1753625D01*
G01*
G04 #@! TO.C,R14*
X56604000Y-109452000D02*
X56604000Y-113052000D01*
X56604000Y-113052000D02*
X58204000Y-113052000D01*
X57404000Y-108712000D02*
X57404000Y-109452000D01*
X57404000Y-113792000D02*
X57404000Y-113052000D01*
X58204000Y-109452000D02*
X56604000Y-109452000D01*
X58204000Y-113052000D02*
X58204000Y-109452000D01*
G04 #@! TO.C,Q4*
X95034000Y-95476000D02*
X98534000Y-95476000D01*
X95020375Y-95479625D02*
G75*
G02*
X96774000Y-91246000I1753625J1753625D01*
G01*
X96774000Y-91246000D02*
G75*
G02*
X98527625Y-95479625I0J-2480000D01*
G01*
G04 #@! TO.C,RV2*
X135382000Y-115570000D02*
X139827000Y-115570000D01*
X135382000Y-118110000D02*
X135382000Y-115570000D01*
X139827000Y-115570000D02*
X140462000Y-116205000D01*
X140462000Y-116205000D02*
X140462000Y-118110000D01*
X140462000Y-118110000D02*
X135382000Y-118110000D01*
G04 #@! TO.C,Q6*
X58956000Y-109512000D02*
X58956000Y-113012000D01*
X58952375Y-109498375D02*
G75*
G02*
X63186000Y-111252000I1753625J-1753625D01*
G01*
X63186000Y-111252000D02*
G75*
G02*
X58952375Y-113005625I-2480000J0D01*
G01*
G04 #@! TO.C,R13*
X115532000Y-100562000D02*
X115532000Y-104162000D01*
X115532000Y-104162000D02*
X117132000Y-104162000D01*
X116332000Y-99822000D02*
X116332000Y-100562000D01*
X116332000Y-104902000D02*
X116332000Y-104162000D01*
X117132000Y-100562000D02*
X115532000Y-100562000D01*
X117132000Y-104162000D02*
X117132000Y-100562000D01*
G04 #@! TO.C,R16*
X99822000Y-108458000D02*
X100562000Y-108458000D01*
X100562000Y-107658000D02*
X100562000Y-109258000D01*
X100562000Y-109258000D02*
X104162000Y-109258000D01*
X104162000Y-107658000D02*
X100562000Y-107658000D01*
X104162000Y-109258000D02*
X104162000Y-107658000D01*
X104902000Y-108458000D02*
X104162000Y-108458000D01*
G04 #@! TO.C,R29*
X127127000Y-101092000D02*
X127867000Y-101092000D01*
X127867000Y-100292000D02*
X127867000Y-101892000D01*
X127867000Y-101892000D02*
X131467000Y-101892000D01*
X131467000Y-100292000D02*
X127867000Y-100292000D01*
X131467000Y-101892000D02*
X131467000Y-100292000D01*
X132207000Y-101092000D02*
X131467000Y-101092000D01*
G04 #@! TO.C,C5*
X89116000Y-108462000D02*
X89116000Y-111462000D01*
X89116000Y-111462000D02*
X90716000Y-111462000D01*
X90716000Y-108462000D02*
X89116000Y-108462000D01*
X90716000Y-111462000D02*
X90716000Y-108462000D01*
G04 #@! TO.C,D1*
X99822000Y-118872000D02*
X101032000Y-118872000D01*
X101032000Y-117522000D02*
X101032000Y-120222000D01*
X101032000Y-120222000D02*
X106232000Y-120222000D01*
X101712000Y-117522000D02*
X101712000Y-120222000D01*
X101812000Y-117522000D02*
X101812000Y-120222000D01*
X101912000Y-117522000D02*
X101912000Y-120222000D01*
X106232000Y-117522000D02*
X101032000Y-117522000D01*
X106232000Y-120222000D02*
X106232000Y-117522000D01*
X107442000Y-118872000D02*
X106232000Y-118872000D01*
G04 #@! TO.C,R8*
X101600000Y-92456000D02*
X102340000Y-92456000D01*
X102340000Y-91656000D02*
X102340000Y-93256000D01*
X102340000Y-93256000D02*
X105940000Y-93256000D01*
X105940000Y-91656000D02*
X102340000Y-91656000D01*
X105940000Y-93256000D02*
X105940000Y-91656000D01*
X106680000Y-92456000D02*
X105940000Y-92456000D01*
G04 #@! TO.C,J2*
X66817000Y-115570000D02*
X74437000Y-115570000D01*
X66817000Y-117475000D02*
X66817000Y-115570000D01*
X67452000Y-118110000D02*
X66817000Y-117475000D01*
X74437000Y-115570000D02*
X74437000Y-118110000D01*
X74437000Y-118110000D02*
X67452000Y-118110000D01*
G04 #@! TO.C,R11*
X81496000Y-109412000D02*
X81496000Y-113012000D01*
X81496000Y-113012000D02*
X83096000Y-113012000D01*
X82296000Y-108672000D02*
X82296000Y-109412000D01*
X82296000Y-113752000D02*
X82296000Y-113012000D01*
X83096000Y-109412000D02*
X81496000Y-109412000D01*
X83096000Y-113012000D02*
X83096000Y-109412000D01*
G04 #@! TO.C,C11*
X124168000Y-96270000D02*
X124168000Y-99270000D01*
X124168000Y-99270000D02*
X125768000Y-99270000D01*
X125768000Y-96270000D02*
X124168000Y-96270000D01*
X125768000Y-99270000D02*
X125768000Y-96270000D01*
G04 #@! TO.C,R19*
X99022000Y-111844000D02*
X99022000Y-115444000D01*
X99022000Y-115444000D02*
X100622000Y-115444000D01*
X99822000Y-111104000D02*
X99822000Y-111844000D01*
X99822000Y-116184000D02*
X99822000Y-115444000D01*
X100622000Y-111844000D02*
X99022000Y-111844000D01*
X100622000Y-115444000D02*
X100622000Y-111844000D01*
G04 #@! TO.C,C7*
X69304000Y-108502000D02*
X69304000Y-111502000D01*
X69304000Y-111502000D02*
X70904000Y-111502000D01*
X70904000Y-108502000D02*
X69304000Y-108502000D01*
X70904000Y-111502000D02*
X70904000Y-108502000D01*
G04 #@! TO.C,Q5*
X109766000Y-95476000D02*
X113266000Y-95476000D01*
X109752375Y-95479625D02*
G75*
G02*
X111506000Y-91246000I1753625J1753625D01*
G01*
X111506000Y-91246000D02*
G75*
G02*
X113259625Y-95479625I0J-2480000D01*
G01*
G04 #@! TO.C,C8*
X57404000Y-116840000D02*
X58604000Y-116840000D01*
X58604000Y-115290000D02*
X58604000Y-118390000D01*
X58604000Y-118390000D02*
X63704000Y-118390000D01*
X63704000Y-115290000D02*
X58604000Y-115290000D01*
X63704000Y-118390000D02*
X63704000Y-115290000D01*
X64904000Y-116840000D02*
X63704000Y-116840000D01*
G04 #@! TO.C,C6*
X84036000Y-108462000D02*
X84036000Y-111462000D01*
X84036000Y-111462000D02*
X85636000Y-111462000D01*
X85636000Y-108462000D02*
X84036000Y-108462000D01*
X85636000Y-111462000D02*
X85636000Y-108462000D01*
G04 #@! TO.C,C2*
X70586000Y-98736000D02*
X70586000Y-103836000D01*
X70586000Y-103836000D02*
X73686000Y-103836000D01*
X72136000Y-97536000D02*
X72136000Y-98736000D01*
X72136000Y-105036000D02*
X72136000Y-103836000D01*
X73686000Y-98736000D02*
X70586000Y-98736000D01*
X73686000Y-103836000D02*
X73686000Y-98736000D01*
G04 #@! TO.C,R3*
X57404000Y-94234000D02*
X58144000Y-94234000D01*
X58144000Y-93434000D02*
X58144000Y-95034000D01*
X58144000Y-95034000D02*
X61744000Y-95034000D01*
X61744000Y-93434000D02*
X58144000Y-93434000D01*
X61744000Y-95034000D02*
X61744000Y-93434000D01*
X62484000Y-94234000D02*
X61744000Y-94234000D01*
G04 #@! TO.C,R23*
X120777000Y-116840000D02*
X121517000Y-116840000D01*
X121517000Y-116040000D02*
X121517000Y-117640000D01*
X121517000Y-117640000D02*
X125117000Y-117640000D01*
X125117000Y-116040000D02*
X121517000Y-116040000D01*
X125117000Y-117640000D02*
X125117000Y-116040000D01*
X125857000Y-116840000D02*
X125117000Y-116840000D01*
G04 #@! TO.C,C4*
X100050000Y-98736000D02*
X100050000Y-103836000D01*
X100050000Y-103836000D02*
X103150000Y-103836000D01*
X101600000Y-97536000D02*
X101600000Y-98736000D01*
X101600000Y-105036000D02*
X101600000Y-103836000D01*
X103150000Y-98736000D02*
X100050000Y-98736000D01*
X103150000Y-103836000D02*
X103150000Y-98736000D01*
G04 #@! TO.C,U4*
X103826000Y-96266000D02*
X103826000Y-106426000D01*
X103826000Y-106426000D02*
X114106000Y-106426000D01*
X103886000Y-98171000D02*
X113046000Y-98171000D01*
X103886000Y-104521000D02*
X103886000Y-98171000D01*
X113046000Y-98171000D02*
X114046000Y-99171000D01*
X114046000Y-99171000D02*
X114046000Y-104521000D01*
X114046000Y-104521000D02*
X103886000Y-104521000D01*
X114106000Y-96266000D02*
X103826000Y-96266000D01*
X114106000Y-106426000D02*
X114106000Y-96266000D01*
G04 #@! TO.C,R20*
X127127000Y-96520000D02*
X127867000Y-96520000D01*
X127867000Y-95720000D02*
X127867000Y-97320000D01*
X127867000Y-97320000D02*
X131467000Y-97320000D01*
X131467000Y-95720000D02*
X127867000Y-95720000D01*
X131467000Y-97320000D02*
X131467000Y-95720000D01*
X132207000Y-96520000D02*
X131467000Y-96520000D01*
G04 #@! TO.C,R17*
X101904800Y-116128800D02*
X102644800Y-116128800D01*
X102644800Y-115328800D02*
X102644800Y-116928800D01*
X102644800Y-116928800D02*
X106244800Y-116928800D01*
X106244800Y-115328800D02*
X102644800Y-115328800D01*
X106244800Y-116928800D02*
X106244800Y-115328800D01*
X106984800Y-116128800D02*
X106244800Y-116128800D01*
G04 #@! TO.C,R1*
X57404000Y-91948000D02*
X58144000Y-91948000D01*
X58144000Y-91148000D02*
X58144000Y-92748000D01*
X58144000Y-92748000D02*
X61744000Y-92748000D01*
X61744000Y-91148000D02*
X58144000Y-91148000D01*
X61744000Y-92748000D02*
X61744000Y-91148000D01*
X62484000Y-91948000D02*
X61744000Y-91948000D01*
G04 #@! TO.C,C9*
X102051283Y-111180500D02*
X102551283Y-111180500D01*
X102301283Y-110930500D02*
X102301283Y-111430500D01*
X106684888Y-112268000D02*
G75*
G02*
X101684888Y-112268000I-2500000J0D01*
G01*
X101684888Y-112268000D02*
G75*
G02*
X106684888Y-112268000I2500000J0D01*
G01*
G04 #@! TO.C,C14*
X118663395Y-107370500D02*
X119163395Y-107370500D01*
X118913395Y-107120500D02*
X118913395Y-107620500D01*
X123297000Y-108458000D02*
G75*
G02*
X118297000Y-108458000I-2500000J0D01*
G01*
X118297000Y-108458000D02*
G75*
G02*
X123297000Y-108458000I2500000J0D01*
G01*
G04 #@! TO.C,R7*
X86868000Y-94742000D02*
X87608000Y-94742000D01*
X87608000Y-93942000D02*
X87608000Y-95542000D01*
X87608000Y-95542000D02*
X91208000Y-95542000D01*
X91208000Y-93942000D02*
X87608000Y-93942000D01*
X91208000Y-95542000D02*
X91208000Y-93942000D01*
X91948000Y-94742000D02*
X91208000Y-94742000D01*
G04 #@! TO.C,R6*
X86868000Y-92456000D02*
X87608000Y-92456000D01*
X87608000Y-91656000D02*
X87608000Y-93256000D01*
X87608000Y-93256000D02*
X91208000Y-93256000D01*
X91208000Y-91656000D02*
X87608000Y-91656000D01*
X91208000Y-93256000D02*
X91208000Y-91656000D01*
X91948000Y-92456000D02*
X91208000Y-92456000D01*
G04 #@! TO.C,C3*
X85318000Y-98736000D02*
X85318000Y-103836000D01*
X85318000Y-103836000D02*
X88418000Y-103836000D01*
X86868000Y-97536000D02*
X86868000Y-98736000D01*
X86868000Y-105036000D02*
X86868000Y-103836000D01*
X88418000Y-98736000D02*
X85318000Y-98736000D01*
X88418000Y-103836000D02*
X88418000Y-98736000D01*
G04 #@! TO.C,Q3*
X80302000Y-95476000D02*
X83802000Y-95476000D01*
X80288375Y-95479625D02*
G75*
G02*
X82042000Y-91246000I1753625J1753625D01*
G01*
X82042000Y-91246000D02*
G75*
G02*
X83795625Y-95479625I0J-2480000D01*
G01*
G04 #@! TO.C,R28*
X127127000Y-98806000D02*
X127867000Y-98806000D01*
X127867000Y-98006000D02*
X127867000Y-99606000D01*
X127867000Y-99606000D02*
X131467000Y-99606000D01*
X131467000Y-98006000D02*
X127867000Y-98006000D01*
X131467000Y-99606000D02*
X131467000Y-98006000D01*
X132207000Y-98806000D02*
X131467000Y-98806000D01*
G04 #@! TO.C,R12*
X115532000Y-93196000D02*
X115532000Y-96796000D01*
X115532000Y-96796000D02*
X117132000Y-96796000D01*
X116332000Y-92456000D02*
X116332000Y-93196000D01*
X116332000Y-97536000D02*
X116332000Y-96796000D01*
X117132000Y-93196000D02*
X115532000Y-93196000D01*
X117132000Y-96796000D02*
X117132000Y-93196000D01*
G04 #@! TO.C,R5*
X72136000Y-94742000D02*
X72876000Y-94742000D01*
X72876000Y-93942000D02*
X72876000Y-95542000D01*
X72876000Y-95542000D02*
X76476000Y-95542000D01*
X76476000Y-93942000D02*
X72876000Y-93942000D01*
X76476000Y-95542000D02*
X76476000Y-93942000D01*
X77216000Y-94742000D02*
X76476000Y-94742000D01*
G04 #@! TO.C,U2*
X74362000Y-96266000D02*
X74362000Y-106426000D01*
X74362000Y-106426000D02*
X84642000Y-106426000D01*
X74422000Y-98171000D02*
X83582000Y-98171000D01*
X74422000Y-104521000D02*
X74422000Y-98171000D01*
X83582000Y-98171000D02*
X84582000Y-99171000D01*
X84582000Y-99171000D02*
X84582000Y-104521000D01*
X84582000Y-104521000D02*
X74422000Y-104521000D01*
X84642000Y-96266000D02*
X74362000Y-96266000D01*
X84642000Y-106426000D02*
X84642000Y-96266000D01*
G04 #@! TO.C,R26*
X128270000Y-116840000D02*
X129010000Y-116840000D01*
X129010000Y-116040000D02*
X129010000Y-117640000D01*
X129010000Y-117640000D02*
X132610000Y-117640000D01*
X132610000Y-116040000D02*
X129010000Y-116040000D01*
X132610000Y-117640000D02*
X132610000Y-116040000D01*
X133350000Y-116840000D02*
X132610000Y-116840000D01*
G04 #@! TO.C,R10*
X78956000Y-109412000D02*
X78956000Y-113012000D01*
X78956000Y-113012000D02*
X80556000Y-113012000D01*
X79756000Y-108672000D02*
X79756000Y-109412000D01*
X79756000Y-113752000D02*
X79756000Y-113012000D01*
X80556000Y-109412000D02*
X78956000Y-109412000D01*
X80556000Y-113012000D02*
X80556000Y-109412000D01*
G04 #@! TO.C,R27*
X64224000Y-109452000D02*
X64224000Y-113052000D01*
X64224000Y-113052000D02*
X65824000Y-113052000D01*
X65024000Y-108712000D02*
X65024000Y-109452000D01*
X65024000Y-113792000D02*
X65024000Y-113052000D01*
X65824000Y-109452000D02*
X64224000Y-109452000D01*
X65824000Y-113052000D02*
X65824000Y-109452000D01*
G04 #@! TO.C,BT1*
X71882000Y-108834000D02*
X72517000Y-108199000D01*
X71882000Y-113279000D02*
X71882000Y-108834000D01*
X72517000Y-108199000D02*
X74422000Y-108199000D01*
X74422000Y-108199000D02*
X74422000Y-113279000D01*
X74422000Y-113279000D02*
X71882000Y-113279000D01*
G04 #@! TO.C,J1*
X77724000Y-115570000D02*
X82804000Y-115570000D01*
X77724000Y-117475000D02*
X77724000Y-115570000D01*
X78359000Y-118110000D02*
X77724000Y-117475000D01*
X82804000Y-115570000D02*
X82804000Y-118110000D01*
X82804000Y-118110000D02*
X78359000Y-118110000D01*
G04 #@! TO.C,U3*
X89094000Y-96266000D02*
X89094000Y-106426000D01*
X89094000Y-106426000D02*
X99374000Y-106426000D01*
X89154000Y-98171000D02*
X98314000Y-98171000D01*
X89154000Y-104521000D02*
X89154000Y-98171000D01*
X98314000Y-98171000D02*
X99314000Y-99171000D01*
X99314000Y-99171000D02*
X99314000Y-104521000D01*
X99314000Y-104521000D02*
X89154000Y-104521000D01*
X99374000Y-96266000D02*
X89094000Y-96266000D01*
X99374000Y-106426000D02*
X99374000Y-96266000D01*
G04 #@! TO.C,R2*
X76416000Y-109412000D02*
X76416000Y-113012000D01*
X76416000Y-113012000D02*
X78016000Y-113012000D01*
X77216000Y-108672000D02*
X77216000Y-109412000D01*
X77216000Y-113752000D02*
X77216000Y-113012000D01*
X78016000Y-109412000D02*
X76416000Y-109412000D01*
X78016000Y-113012000D02*
X78016000Y-109412000D01*
G04 #@! TO.C,R30*
X134493000Y-98806000D02*
X135233000Y-98806000D01*
X135233000Y-98006000D02*
X135233000Y-99606000D01*
X135233000Y-99606000D02*
X138833000Y-99606000D01*
X138833000Y-98006000D02*
X135233000Y-98006000D01*
X138833000Y-99606000D02*
X138833000Y-98006000D01*
X139573000Y-98806000D02*
X138833000Y-98806000D01*
G04 #@! TO.C,RV1*
X84074000Y-113665000D02*
X84709000Y-113030000D01*
X84074000Y-118110000D02*
X84074000Y-113665000D01*
X84709000Y-113030000D02*
X86614000Y-113030000D01*
X86614000Y-113030000D02*
X86614000Y-118110000D01*
X86614000Y-118110000D02*
X84074000Y-118110000D01*
G04 #@! TD*
M02*
