G04 #@! TF.GenerationSoftware,KiCad,Pcbnew,8.0.2-8.0.2-0~ubuntu22.04.1*
G04 #@! TF.CreationDate,2024-06-08T14:45:23+02:00*
G04 #@! TF.ProjectId,schematic,73636865-6d61-4746-9963-2e6b69636164,rev?*
G04 #@! TF.SameCoordinates,Original*
G04 #@! TF.FileFunction,Other,User*
%FSLAX46Y46*%
G04 Gerber Fmt 4.6, Leading zero omitted, Abs format (unit mm)*
G04 Created by KiCad (PCBNEW 8.0.2-8.0.2-0~ubuntu22.04.1) date 2024-06-08 14:45:23*
%MOMM*%
%LPD*%
G01*
G04 APERTURE LIST*
%ADD10C,0.050000*%
G04 APERTURE END LIST*
D10*
G04 #@! TO.C,Q7*
X91446000Y-112692000D02*
X91446000Y-117432000D01*
X91446000Y-112692000D02*
X98546000Y-112692000D01*
X98546000Y-117432000D02*
X91446000Y-117432000D01*
X98546000Y-117432000D02*
X98546000Y-112692000D01*
G04 #@! TO.C,R21*
X133543000Y-95470000D02*
X133543000Y-97570000D01*
X133543000Y-97570000D02*
X140523000Y-97570000D01*
X140523000Y-95470000D02*
X133543000Y-95470000D01*
X140523000Y-97570000D02*
X140523000Y-95470000D01*
G04 #@! TO.C,SW2*
X87608000Y-112500000D02*
X87608000Y-118650000D01*
X87608000Y-118650000D02*
X91208000Y-118650000D01*
X91208000Y-112500000D02*
X87608000Y-112500000D01*
X91208000Y-118650000D02*
X91208000Y-112500000D01*
G04 #@! TO.C,R31*
X133543000Y-100042000D02*
X133543000Y-102142000D01*
X133543000Y-102142000D02*
X140523000Y-102142000D01*
X140523000Y-100042000D02*
X133543000Y-100042000D01*
X140523000Y-102142000D02*
X140523000Y-100042000D01*
G04 #@! TO.C,R22*
X133543000Y-102328000D02*
X133543000Y-104428000D01*
X133543000Y-104428000D02*
X140523000Y-104428000D01*
X140523000Y-102328000D02*
X133543000Y-102328000D01*
X140523000Y-104428000D02*
X140523000Y-102328000D01*
G04 #@! TO.C,U1*
X59380000Y-95986000D02*
X59380000Y-106686000D01*
X59380000Y-106686000D02*
X70180000Y-106686000D01*
X70180000Y-95986000D02*
X59380000Y-95986000D01*
X70180000Y-106686000D02*
X70180000Y-95986000D01*
G04 #@! TO.C,Q2*
X63760000Y-90996000D02*
X63760000Y-95736000D01*
X63760000Y-90996000D02*
X70860000Y-90996000D01*
X70860000Y-95736000D02*
X63760000Y-95736000D01*
X70860000Y-95736000D02*
X70860000Y-90996000D01*
G04 #@! TO.C,R15*
X66514000Y-107762000D02*
X66514000Y-114742000D01*
X66514000Y-114742000D02*
X68614000Y-114742000D01*
X68614000Y-107762000D02*
X66514000Y-107762000D01*
X68614000Y-114742000D02*
X68614000Y-107762000D01*
G04 #@! TO.C,R9*
X100650000Y-93692000D02*
X100650000Y-95792000D01*
X100650000Y-95792000D02*
X107630000Y-95792000D01*
X107630000Y-93692000D02*
X100650000Y-93692000D01*
X107630000Y-95792000D02*
X107630000Y-93692000D01*
G04 #@! TO.C,R24*
X138523000Y-105476000D02*
X138523000Y-112456000D01*
X138523000Y-112456000D02*
X140623000Y-112456000D01*
X140623000Y-105476000D02*
X138523000Y-105476000D01*
X140623000Y-112456000D02*
X140623000Y-105476000D01*
G04 #@! TO.C,C12*
X134725000Y-105386000D02*
X134725000Y-114986000D01*
X134725000Y-114986000D02*
X138325000Y-114986000D01*
X138325000Y-105386000D02*
X134725000Y-105386000D01*
X138325000Y-114986000D02*
X138325000Y-105386000D01*
G04 #@! TO.C,R25*
X126177000Y-102328000D02*
X126177000Y-104428000D01*
X126177000Y-104428000D02*
X133157000Y-104428000D01*
X133157000Y-102328000D02*
X126177000Y-102328000D01*
X133157000Y-104428000D02*
X133157000Y-102328000D01*
G04 #@! TO.C,C10*
X117761200Y-112445800D02*
G75*
G02*
X107261200Y-112445800I-5250000J0D01*
G01*
X107261200Y-112445800D02*
G75*
G02*
X117761200Y-112445800I5250000J0D01*
G01*
G04 #@! TO.C,C1*
X55604000Y-97308000D02*
X55604000Y-106908000D01*
X55604000Y-106908000D02*
X59204000Y-106908000D01*
X59204000Y-97308000D02*
X55604000Y-97308000D01*
X59204000Y-106908000D02*
X59204000Y-97308000D01*
G04 #@! TO.C,R4*
X71186000Y-91406000D02*
X71186000Y-93506000D01*
X71186000Y-93506000D02*
X78166000Y-93506000D01*
X78166000Y-91406000D02*
X71186000Y-91406000D01*
X78166000Y-93506000D02*
X78166000Y-91406000D01*
G04 #@! TO.C,R18*
X110048000Y-117822000D02*
X110048000Y-119922000D01*
X110048000Y-119922000D02*
X117028000Y-119922000D01*
X117028000Y-117822000D02*
X110048000Y-117822000D01*
X117028000Y-119922000D02*
X117028000Y-117822000D01*
G04 #@! TO.C,RV3*
X118224000Y-95524000D02*
X118224000Y-105624000D01*
X118224000Y-105624000D02*
X123574000Y-105624000D01*
X123574000Y-95524000D02*
X118224000Y-95524000D01*
X123574000Y-105624000D02*
X123574000Y-95524000D01*
G04 #@! TO.C,U5*
X123759000Y-104886000D02*
X123759000Y-115586000D01*
X123759000Y-115586000D02*
X134559000Y-115586000D01*
X134559000Y-104886000D02*
X123759000Y-104886000D01*
X134559000Y-115586000D02*
X134559000Y-104886000D01*
G04 #@! TO.C,Q1*
X91446000Y-107718000D02*
X91446000Y-112458000D01*
X91446000Y-107718000D02*
X98546000Y-107718000D01*
X98546000Y-112458000D02*
X91446000Y-112458000D01*
X98546000Y-112458000D02*
X98546000Y-107718000D01*
G04 #@! TO.C,R14*
X56354000Y-107762000D02*
X56354000Y-114742000D01*
X56354000Y-114742000D02*
X58454000Y-114742000D01*
X58454000Y-107762000D02*
X56354000Y-107762000D01*
X58454000Y-114742000D02*
X58454000Y-107762000D01*
G04 #@! TO.C,Q4*
X93224000Y-90996000D02*
X93224000Y-95736000D01*
X93224000Y-90996000D02*
X100324000Y-90996000D01*
X100324000Y-95736000D02*
X93224000Y-95736000D01*
X100324000Y-95736000D02*
X100324000Y-90996000D01*
G04 #@! TO.C,RV2*
X134842000Y-115040000D02*
X134842000Y-118640000D01*
X134842000Y-118640000D02*
X140992000Y-118640000D01*
X140992000Y-115040000D02*
X134842000Y-115040000D01*
X140992000Y-118640000D02*
X140992000Y-115040000D01*
G04 #@! TO.C,Q6*
X58696000Y-114802000D02*
X58696000Y-107702000D01*
X58696000Y-114802000D02*
X63436000Y-114802000D01*
X63436000Y-107702000D02*
X58696000Y-107702000D01*
X63436000Y-107702000D02*
X63436000Y-114802000D01*
G04 #@! TO.C,R13*
X115282000Y-98872000D02*
X115282000Y-105852000D01*
X115282000Y-105852000D02*
X117382000Y-105852000D01*
X117382000Y-98872000D02*
X115282000Y-98872000D01*
X117382000Y-105852000D02*
X117382000Y-98872000D01*
G04 #@! TO.C,R16*
X98872000Y-107408000D02*
X98872000Y-109508000D01*
X98872000Y-109508000D02*
X105852000Y-109508000D01*
X105852000Y-107408000D02*
X98872000Y-107408000D01*
X105852000Y-109508000D02*
X105852000Y-107408000D01*
G04 #@! TO.C,R29*
X126177000Y-100042000D02*
X126177000Y-102142000D01*
X126177000Y-102142000D02*
X133157000Y-102142000D01*
X133157000Y-100042000D02*
X126177000Y-100042000D01*
X133157000Y-102142000D02*
X133157000Y-100042000D01*
G04 #@! TO.C,C5*
X88866000Y-107662000D02*
X88866000Y-112262000D01*
X88866000Y-112262000D02*
X90966000Y-112262000D01*
X90966000Y-107662000D02*
X88866000Y-107662000D01*
X90966000Y-112262000D02*
X90966000Y-107662000D01*
G04 #@! TO.C,D1*
X98672000Y-117272000D02*
X98672000Y-120472000D01*
X98672000Y-120472000D02*
X108592000Y-120472000D01*
X108592000Y-117272000D02*
X98672000Y-117272000D01*
X108592000Y-120472000D02*
X108592000Y-117272000D01*
G04 #@! TO.C,R8*
X100650000Y-91406000D02*
X100650000Y-93506000D01*
X100650000Y-93506000D02*
X107630000Y-93506000D01*
X107630000Y-91406000D02*
X100650000Y-91406000D01*
X107630000Y-93506000D02*
X107630000Y-91406000D01*
G04 #@! TO.C,J2*
X66287000Y-115040000D02*
X66287000Y-118640000D01*
X66287000Y-118640000D02*
X74937000Y-118640000D01*
X74937000Y-115040000D02*
X66287000Y-115040000D01*
X74937000Y-118640000D02*
X74937000Y-115040000D01*
G04 #@! TO.C,R11*
X81246000Y-107722000D02*
X81246000Y-114702000D01*
X81246000Y-114702000D02*
X83346000Y-114702000D01*
X83346000Y-107722000D02*
X81246000Y-107722000D01*
X83346000Y-114702000D02*
X83346000Y-107722000D01*
G04 #@! TO.C,C11*
X123918000Y-95470000D02*
X123918000Y-100070000D01*
X123918000Y-100070000D02*
X126018000Y-100070000D01*
X126018000Y-95470000D02*
X123918000Y-95470000D01*
X126018000Y-100070000D02*
X126018000Y-95470000D01*
G04 #@! TO.C,R19*
X98772000Y-110154000D02*
X98772000Y-117134000D01*
X98772000Y-117134000D02*
X100872000Y-117134000D01*
X100872000Y-110154000D02*
X98772000Y-110154000D01*
X100872000Y-117134000D02*
X100872000Y-110154000D01*
G04 #@! TO.C,C7*
X69054000Y-107702000D02*
X69054000Y-112302000D01*
X69054000Y-112302000D02*
X71154000Y-112302000D01*
X71154000Y-107702000D02*
X69054000Y-107702000D01*
X71154000Y-112302000D02*
X71154000Y-107702000D01*
G04 #@! TO.C,Q5*
X107956000Y-90996000D02*
X107956000Y-95736000D01*
X107956000Y-90996000D02*
X115056000Y-90996000D01*
X115056000Y-95736000D02*
X107956000Y-95736000D01*
X115056000Y-95736000D02*
X115056000Y-90996000D01*
G04 #@! TO.C,C8*
X56354000Y-115040000D02*
X56354000Y-118640000D01*
X56354000Y-118640000D02*
X65954000Y-118640000D01*
X65954000Y-115040000D02*
X56354000Y-115040000D01*
X65954000Y-118640000D02*
X65954000Y-115040000D01*
G04 #@! TO.C,C6*
X83786000Y-107662000D02*
X83786000Y-112262000D01*
X83786000Y-112262000D02*
X85886000Y-112262000D01*
X85886000Y-107662000D02*
X83786000Y-107662000D01*
X85886000Y-112262000D02*
X85886000Y-107662000D01*
G04 #@! TO.C,C2*
X70336000Y-96486000D02*
X70336000Y-106086000D01*
X70336000Y-106086000D02*
X73936000Y-106086000D01*
X73936000Y-96486000D02*
X70336000Y-96486000D01*
X73936000Y-106086000D02*
X73936000Y-96486000D01*
G04 #@! TO.C,R3*
X56454000Y-93184000D02*
X56454000Y-95284000D01*
X56454000Y-95284000D02*
X63434000Y-95284000D01*
X63434000Y-93184000D02*
X56454000Y-93184000D01*
X63434000Y-95284000D02*
X63434000Y-93184000D01*
G04 #@! TO.C,R23*
X119827000Y-115790000D02*
X119827000Y-117890000D01*
X119827000Y-117890000D02*
X126807000Y-117890000D01*
X126807000Y-115790000D02*
X119827000Y-115790000D01*
X126807000Y-117890000D02*
X126807000Y-115790000D01*
G04 #@! TO.C,C4*
X99800000Y-96486000D02*
X99800000Y-106086000D01*
X99800000Y-106086000D02*
X103400000Y-106086000D01*
X103400000Y-96486000D02*
X99800000Y-96486000D01*
X103400000Y-106086000D02*
X103400000Y-96486000D01*
G04 #@! TO.C,U4*
X103576000Y-95986000D02*
X103576000Y-106686000D01*
X103576000Y-106686000D02*
X114376000Y-106686000D01*
X114376000Y-95986000D02*
X103576000Y-95986000D01*
X114376000Y-106686000D02*
X114376000Y-95986000D01*
G04 #@! TO.C,R20*
X126177000Y-95470000D02*
X126177000Y-97570000D01*
X126177000Y-97570000D02*
X133157000Y-97570000D01*
X133157000Y-95470000D02*
X126177000Y-95470000D01*
X133157000Y-97570000D02*
X133157000Y-95470000D01*
G04 #@! TO.C,R17*
X100954800Y-115078800D02*
X100954800Y-117178800D01*
X100954800Y-117178800D02*
X107934800Y-117178800D01*
X107934800Y-115078800D02*
X100954800Y-115078800D01*
X107934800Y-117178800D02*
X107934800Y-115078800D01*
G04 #@! TO.C,R1*
X56454000Y-90898000D02*
X56454000Y-92998000D01*
X56454000Y-92998000D02*
X63434000Y-92998000D01*
X63434000Y-90898000D02*
X56454000Y-90898000D01*
X63434000Y-92998000D02*
X63434000Y-90898000D01*
G04 #@! TO.C,C9*
X106934888Y-112268000D02*
G75*
G02*
X101434888Y-112268000I-2750000J0D01*
G01*
X101434888Y-112268000D02*
G75*
G02*
X106934888Y-112268000I2750000J0D01*
G01*
G04 #@! TO.C,C14*
X123547000Y-108458000D02*
G75*
G02*
X118047000Y-108458000I-2750000J0D01*
G01*
X118047000Y-108458000D02*
G75*
G02*
X123547000Y-108458000I2750000J0D01*
G01*
G04 #@! TO.C,R7*
X85918000Y-93692000D02*
X85918000Y-95792000D01*
X85918000Y-95792000D02*
X92898000Y-95792000D01*
X92898000Y-93692000D02*
X85918000Y-93692000D01*
X92898000Y-95792000D02*
X92898000Y-93692000D01*
G04 #@! TO.C,R6*
X85918000Y-91406000D02*
X85918000Y-93506000D01*
X85918000Y-93506000D02*
X92898000Y-93506000D01*
X92898000Y-91406000D02*
X85918000Y-91406000D01*
X92898000Y-93506000D02*
X92898000Y-91406000D01*
G04 #@! TO.C,C3*
X85068000Y-96486000D02*
X85068000Y-106086000D01*
X85068000Y-106086000D02*
X88668000Y-106086000D01*
X88668000Y-96486000D02*
X85068000Y-96486000D01*
X88668000Y-106086000D02*
X88668000Y-96486000D01*
G04 #@! TO.C,Q3*
X78492000Y-90996000D02*
X78492000Y-95736000D01*
X78492000Y-90996000D02*
X85592000Y-90996000D01*
X85592000Y-95736000D02*
X78492000Y-95736000D01*
X85592000Y-95736000D02*
X85592000Y-90996000D01*
G04 #@! TO.C,R28*
X126177000Y-97756000D02*
X126177000Y-99856000D01*
X126177000Y-99856000D02*
X133157000Y-99856000D01*
X133157000Y-97756000D02*
X126177000Y-97756000D01*
X133157000Y-99856000D02*
X133157000Y-97756000D01*
G04 #@! TO.C,R12*
X115282000Y-91506000D02*
X115282000Y-98486000D01*
X115282000Y-98486000D02*
X117382000Y-98486000D01*
X117382000Y-91506000D02*
X115282000Y-91506000D01*
X117382000Y-98486000D02*
X117382000Y-91506000D01*
G04 #@! TO.C,R5*
X71186000Y-93692000D02*
X71186000Y-95792000D01*
X71186000Y-95792000D02*
X78166000Y-95792000D01*
X78166000Y-93692000D02*
X71186000Y-93692000D01*
X78166000Y-95792000D02*
X78166000Y-93692000D01*
G04 #@! TO.C,U2*
X74112000Y-95986000D02*
X74112000Y-106686000D01*
X74112000Y-106686000D02*
X84912000Y-106686000D01*
X84912000Y-95986000D02*
X74112000Y-95986000D01*
X84912000Y-106686000D02*
X84912000Y-95986000D01*
G04 #@! TO.C,R26*
X127320000Y-115790000D02*
X127320000Y-117890000D01*
X127320000Y-117890000D02*
X134300000Y-117890000D01*
X134300000Y-115790000D02*
X127320000Y-115790000D01*
X134300000Y-117890000D02*
X134300000Y-115790000D01*
G04 #@! TO.C,R10*
X78706000Y-107722000D02*
X78706000Y-114702000D01*
X78706000Y-114702000D02*
X80806000Y-114702000D01*
X80806000Y-107722000D02*
X78706000Y-107722000D01*
X80806000Y-114702000D02*
X80806000Y-107722000D01*
G04 #@! TO.C,R27*
X63974000Y-107762000D02*
X63974000Y-114742000D01*
X63974000Y-114742000D02*
X66074000Y-114742000D01*
X66074000Y-107762000D02*
X63974000Y-107762000D01*
X66074000Y-114742000D02*
X66074000Y-107762000D01*
G04 #@! TO.C,BT1*
X71352000Y-107669000D02*
X71352000Y-113819000D01*
X71352000Y-113819000D02*
X74952000Y-113819000D01*
X74952000Y-107669000D02*
X71352000Y-107669000D01*
X74952000Y-113819000D02*
X74952000Y-107669000D01*
G04 #@! TO.C,J1*
X77194000Y-115040000D02*
X77194000Y-118640000D01*
X77194000Y-118640000D02*
X83344000Y-118640000D01*
X83344000Y-115040000D02*
X77194000Y-115040000D01*
X83344000Y-118640000D02*
X83344000Y-115040000D01*
G04 #@! TO.C,U3*
X88844000Y-95986000D02*
X88844000Y-106686000D01*
X88844000Y-106686000D02*
X99644000Y-106686000D01*
X99644000Y-95986000D02*
X88844000Y-95986000D01*
X99644000Y-106686000D02*
X99644000Y-95986000D01*
G04 #@! TO.C,R2*
X76166000Y-107722000D02*
X76166000Y-114702000D01*
X76166000Y-114702000D02*
X78266000Y-114702000D01*
X78266000Y-107722000D02*
X76166000Y-107722000D01*
X78266000Y-114702000D02*
X78266000Y-107722000D01*
G04 #@! TO.C,R30*
X133543000Y-97756000D02*
X133543000Y-99856000D01*
X133543000Y-99856000D02*
X140523000Y-99856000D01*
X140523000Y-97756000D02*
X133543000Y-97756000D01*
X140523000Y-99856000D02*
X140523000Y-97756000D01*
G04 #@! TO.C,RV1*
X83544000Y-112500000D02*
X83544000Y-118650000D01*
X83544000Y-118650000D02*
X87144000Y-118650000D01*
X87144000Y-112500000D02*
X83544000Y-112500000D01*
X87144000Y-118650000D02*
X87144000Y-112500000D01*
G04 #@! TD*
M02*
