G04 #@! TF.GenerationSoftware,KiCad,Pcbnew,8.0.2-8.0.2-0~ubuntu22.04.1*
G04 #@! TF.CreationDate,2024-06-08T14:45:23+02:00*
G04 #@! TF.ProjectId,schematic,73636865-6d61-4746-9963-2e6b69636164,rev?*
G04 #@! TF.SameCoordinates,Original*
G04 #@! TF.FileFunction,Copper,L1,Top*
G04 #@! TF.FilePolarity,Positive*
%FSLAX46Y46*%
G04 Gerber Fmt 4.6, Leading zero omitted, Abs format (unit mm)*
G04 Created by KiCad (PCBNEW 8.0.2-8.0.2-0~ubuntu22.04.1) date 2024-06-08 14:45:23*
%MOMM*%
%LPD*%
G01*
G04 APERTURE LIST*
G04 #@! TA.AperFunction,ComponentPad*
%ADD10R,1.500000X1.500000*%
G04 #@! TD*
G04 #@! TA.AperFunction,ComponentPad*
%ADD11C,1.500000*%
G04 #@! TD*
G04 #@! TA.AperFunction,ComponentPad*
%ADD12C,1.400000*%
G04 #@! TD*
G04 #@! TA.AperFunction,ComponentPad*
%ADD13O,1.400000X1.400000*%
G04 #@! TD*
G04 #@! TA.AperFunction,ComponentPad*
%ADD14R,1.700000X1.700000*%
G04 #@! TD*
G04 #@! TA.AperFunction,ComponentPad*
%ADD15O,1.700000X1.700000*%
G04 #@! TD*
G04 #@! TA.AperFunction,ComponentPad*
%ADD16R,1.600000X1.600000*%
G04 #@! TD*
G04 #@! TA.AperFunction,ComponentPad*
%ADD17O,1.600000X1.600000*%
G04 #@! TD*
G04 #@! TA.AperFunction,ComponentPad*
%ADD18C,1.600000*%
G04 #@! TD*
G04 #@! TA.AperFunction,ComponentPad*
%ADD19R,2.000000X2.000000*%
G04 #@! TD*
G04 #@! TA.AperFunction,ComponentPad*
%ADD20C,2.000000*%
G04 #@! TD*
G04 #@! TA.AperFunction,ComponentPad*
%ADD21C,1.440000*%
G04 #@! TD*
G04 #@! TA.AperFunction,ComponentPad*
%ADD22R,1.800000X1.800000*%
G04 #@! TD*
G04 #@! TA.AperFunction,ComponentPad*
%ADD23O,1.800000X1.800000*%
G04 #@! TD*
G04 #@! TA.AperFunction,ViaPad*
%ADD24C,0.600000*%
G04 #@! TD*
G04 #@! TA.AperFunction,Conductor*
%ADD25C,0.200000*%
G04 #@! TD*
G04 APERTURE END LIST*
D10*
G04 #@! TO.P,Q7,1,E*
G04 #@! TO.N,+7V*
X92456000Y-115422000D03*
D11*
G04 #@! TO.P,Q7,2,B*
G04 #@! TO.N,Net-(D1-K)*
X94996000Y-115422000D03*
G04 #@! TO.P,Q7,3,C*
G04 #@! TO.N,+9V*
X97536000Y-115422000D03*
G04 #@! TD*
D12*
G04 #@! TO.P,R21,1*
G04 #@! TO.N,Net-(R21-Pad1)*
X139573000Y-96520000D03*
D13*
G04 #@! TO.P,R21,2*
G04 #@! TO.N,LFO_OUT1*
X134493000Y-96520000D03*
G04 #@! TD*
D14*
G04 #@! TO.P,SW2,2,B*
G04 #@! TO.N,Net-(SW2A-B)*
X89408000Y-114300000D03*
D15*
G04 #@! TO.P,SW2,3,C*
G04 #@! TO.N,Net-(SW2A-C)*
X89408000Y-116840000D03*
G04 #@! TD*
D12*
G04 #@! TO.P,R31,1*
G04 #@! TO.N,Net-(R22-Pad1)*
X139573000Y-101092000D03*
D13*
G04 #@! TO.P,R31,2*
G04 #@! TO.N,Net-(R30-Pad1)*
X134493000Y-101092000D03*
G04 #@! TD*
D12*
G04 #@! TO.P,R22,1*
G04 #@! TO.N,Net-(R22-Pad1)*
X139573000Y-103378000D03*
D13*
G04 #@! TO.P,R22,2*
G04 #@! TO.N,Net-(C14-Pad1)*
X134493000Y-103378000D03*
G04 #@! TD*
D16*
G04 #@! TO.P,U1,1,NULL*
G04 #@! TO.N,unconnected-(U1-NULL-Pad1)*
X68580000Y-97536000D03*
D17*
G04 #@! TO.P,U1,2,-*
G04 #@! TO.N,Net-(U1--)*
X66040000Y-97536000D03*
G04 #@! TO.P,U1,3,+*
G04 #@! TO.N,Net-(U1-+)*
X63500000Y-97536000D03*
G04 #@! TO.P,U1,4,V-*
G04 #@! TO.N,GND*
X60960000Y-97536000D03*
G04 #@! TO.P,U1,5,NULL*
G04 #@! TO.N,unconnected-(U1-NULL-Pad5)*
X60960000Y-105156000D03*
G04 #@! TO.P,U1,6*
G04 #@! TO.N,Net-(Q3-D)*
X63500000Y-105156000D03*
G04 #@! TO.P,U1,7,V+*
G04 #@! TO.N,+7V*
X66040000Y-105156000D03*
G04 #@! TO.P,U1,8,NC*
G04 #@! TO.N,unconnected-(U1-NC-Pad8)*
X68580000Y-105156000D03*
G04 #@! TD*
D10*
G04 #@! TO.P,Q2,1,D*
G04 #@! TO.N,A_DRY*
X64770000Y-93726000D03*
D11*
G04 #@! TO.P,Q2,2,S*
G04 #@! TO.N,4V*
X67310000Y-93726000D03*
G04 #@! TO.P,Q2,3,G*
G04 #@! TO.N,LFO_OUT1*
X69850000Y-93726000D03*
G04 #@! TD*
D12*
G04 #@! TO.P,R15,1*
G04 #@! TO.N,GND*
X67564000Y-113792000D03*
D13*
G04 #@! TO.P,R15,2*
G04 #@! TO.N,Net-(Q6-B)*
X67564000Y-108712000D03*
G04 #@! TD*
D12*
G04 #@! TO.P,R9,1*
G04 #@! TO.N,Net-(U4--)*
X106680000Y-94742000D03*
D13*
G04 #@! TO.P,R9,2*
G04 #@! TO.N,Net-(R12-Pad1)*
X101600000Y-94742000D03*
G04 #@! TD*
D12*
G04 #@! TO.P,R24,1*
G04 #@! TO.N,Net-(U5-+)*
X139573000Y-106426000D03*
D13*
G04 #@! TO.P,R24,2*
G04 #@! TO.N,Net-(C12-Pad2)*
X139573000Y-111506000D03*
G04 #@! TD*
D18*
G04 #@! TO.P,C12,1*
G04 #@! TO.N,Net-(U5--)*
X136525000Y-106436000D03*
D17*
G04 #@! TO.P,C12,2*
G04 #@! TO.N,Net-(C12-Pad2)*
X136525000Y-113936000D03*
G04 #@! TD*
D12*
G04 #@! TO.P,R25,1*
G04 #@! TO.N,Net-(C14-Pad1)*
X132207000Y-103378000D03*
D13*
G04 #@! TO.P,R25,2*
G04 #@! TO.N,Net-(U5--)*
X127127000Y-103378000D03*
G04 #@! TD*
D19*
G04 #@! TO.P,C10,1*
G04 #@! TO.N,+7V*
X110011200Y-112445800D03*
D20*
G04 #@! TO.P,C10,2*
G04 #@! TO.N,GND*
X115011200Y-112445800D03*
G04 #@! TD*
D18*
G04 #@! TO.P,C1,1*
G04 #@! TO.N,A_DRY*
X57404000Y-98358000D03*
D17*
G04 #@! TO.P,C1,2*
G04 #@! TO.N,Net-(U1-+)*
X57404000Y-105858000D03*
G04 #@! TD*
D12*
G04 #@! TO.P,R4,1*
G04 #@! TO.N,Net-(Q3-D)*
X72136000Y-92456000D03*
D13*
G04 #@! TO.P,R4,2*
G04 #@! TO.N,Net-(U2--)*
X77216000Y-92456000D03*
G04 #@! TD*
D12*
G04 #@! TO.P,R18,1*
G04 #@! TO.N,+7V*
X116078000Y-118872000D03*
D13*
G04 #@! TO.P,R18,2*
G04 #@! TO.N,Net-(Q1-B)*
X110998000Y-118872000D03*
G04 #@! TD*
D21*
G04 #@! TO.P,RV3,1,1*
G04 #@! TO.N,+4V*
X122174000Y-103124000D03*
G04 #@! TO.P,RV3,2,2*
G04 #@! TO.N,Net-(R20-Pad2)*
X119634000Y-100584000D03*
G04 #@! TO.P,RV3,3,3*
G04 #@! TO.N,GND*
X122174000Y-98044000D03*
G04 #@! TD*
D16*
G04 #@! TO.P,U5,1,NULL*
G04 #@! TO.N,unconnected-(U5-NULL-Pad1)*
X132959000Y-106436000D03*
D17*
G04 #@! TO.P,U5,2,-*
G04 #@! TO.N,Net-(U5--)*
X130419000Y-106436000D03*
G04 #@! TO.P,U5,3,+*
G04 #@! TO.N,Net-(U5-+)*
X127879000Y-106436000D03*
G04 #@! TO.P,U5,4,V-*
G04 #@! TO.N,GND*
X125339000Y-106436000D03*
G04 #@! TO.P,U5,5,NULL*
G04 #@! TO.N,unconnected-(U5-NULL-Pad5)*
X125339000Y-114056000D03*
G04 #@! TO.P,U5,6*
G04 #@! TO.N,Net-(R26-Pad2)*
X127879000Y-114056000D03*
G04 #@! TO.P,U5,7,V+*
G04 #@! TO.N,+4V*
X130419000Y-114056000D03*
G04 #@! TO.P,U5,8,NC*
G04 #@! TO.N,unconnected-(U5-NC-Pad8)*
X132959000Y-114056000D03*
G04 #@! TD*
D10*
G04 #@! TO.P,Q1,1,E*
G04 #@! TO.N,+4V*
X97536000Y-109728000D03*
D11*
G04 #@! TO.P,Q1,2,B*
G04 #@! TO.N,Net-(Q1-B)*
X94996000Y-109728000D03*
G04 #@! TO.P,Q1,3,C*
G04 #@! TO.N,+7V*
X92456000Y-109728000D03*
G04 #@! TD*
D12*
G04 #@! TO.P,R14,1*
G04 #@! TO.N,GND*
X57404000Y-108712000D03*
D13*
G04 #@! TO.P,R14,2*
G04 #@! TO.N,A_DRY*
X57404000Y-113792000D03*
G04 #@! TD*
D10*
G04 #@! TO.P,Q4,1,D*
G04 #@! TO.N,Net-(Q4-D)*
X94234000Y-93726000D03*
D11*
G04 #@! TO.P,Q4,2,S*
G04 #@! TO.N,4V*
X96774000Y-93726000D03*
G04 #@! TO.P,Q4,3,G*
G04 #@! TO.N,LFO_OUT1*
X99314000Y-93726000D03*
G04 #@! TD*
D14*
G04 #@! TO.P,RV2,1,1*
G04 #@! TO.N,Net-(R22-Pad1)*
X139192000Y-116840000D03*
D15*
G04 #@! TO.P,RV2,2,2*
G04 #@! TO.N,Net-(R26-Pad1)*
X136652000Y-116840000D03*
G04 #@! TD*
D10*
G04 #@! TO.P,Q6,1,E*
G04 #@! TO.N,A_DRY*
X60706000Y-108712000D03*
D11*
G04 #@! TO.P,Q6,2,B*
G04 #@! TO.N,Net-(Q6-B)*
X60706000Y-111252000D03*
G04 #@! TO.P,Q6,3,C*
G04 #@! TO.N,+7V*
X60706000Y-113792000D03*
G04 #@! TD*
D12*
G04 #@! TO.P,R13,1*
G04 #@! TO.N,4V*
X116332000Y-99822000D03*
D13*
G04 #@! TO.P,R13,2*
G04 #@! TO.N,Net-(R12-Pad1)*
X116332000Y-104902000D03*
G04 #@! TD*
D12*
G04 #@! TO.P,R16,1*
G04 #@! TO.N,+4V*
X99822000Y-108458000D03*
D13*
G04 #@! TO.P,R16,2*
G04 #@! TO.N,GND*
X104902000Y-108458000D03*
G04 #@! TD*
D12*
G04 #@! TO.P,R29,1*
G04 #@! TO.N,LFO_OUT1*
X132207000Y-101092000D03*
D13*
G04 #@! TO.P,R29,2*
G04 #@! TO.N,Net-(R28-Pad1)*
X127127000Y-101092000D03*
G04 #@! TD*
D18*
G04 #@! TO.P,C5,1*
G04 #@! TO.N,Net-(C5-Pad1)*
X89916000Y-108712000D03*
G04 #@! TO.P,C5,2*
G04 #@! TO.N,A_DRY*
X89916000Y-111212000D03*
G04 #@! TD*
D22*
G04 #@! TO.P,D1,1,K*
G04 #@! TO.N,Net-(D1-K)*
X99822000Y-118872000D03*
D23*
G04 #@! TO.P,D1,2,A*
G04 #@! TO.N,GND*
X107442000Y-118872000D03*
G04 #@! TD*
D12*
G04 #@! TO.P,R8,1*
G04 #@! TO.N,Net-(Q5-D)*
X101600000Y-92456000D03*
D13*
G04 #@! TO.P,R8,2*
G04 #@! TO.N,Net-(U4--)*
X106680000Y-92456000D03*
G04 #@! TD*
D15*
G04 #@! TO.P,J2,R*
G04 #@! TO.N,GND*
X70627000Y-116840000D03*
G04 #@! TO.P,J2,S*
G04 #@! TO.N,Net-(BT1--)*
X73167000Y-116840000D03*
D14*
G04 #@! TO.P,J2,T*
G04 #@! TO.N,Net-(C7-Pad2)*
X68087000Y-116840000D03*
G04 #@! TD*
D12*
G04 #@! TO.P,R11,1*
G04 #@! TO.N,Net-(SW2A-B)*
X82296000Y-108672000D03*
D13*
G04 #@! TO.P,R11,2*
G04 #@! TO.N,GND*
X82296000Y-113752000D03*
G04 #@! TD*
D18*
G04 #@! TO.P,C11,1*
G04 #@! TO.N,GND*
X124968000Y-96520000D03*
G04 #@! TO.P,C11,2*
G04 #@! TO.N,LFO_OUT1*
X124968000Y-99020000D03*
G04 #@! TD*
D12*
G04 #@! TO.P,R19,1*
G04 #@! TO.N,+9V*
X99822000Y-111104000D03*
D13*
G04 #@! TO.P,R19,2*
G04 #@! TO.N,Net-(D1-K)*
X99822000Y-116184000D03*
G04 #@! TD*
D18*
G04 #@! TO.P,C7,1*
G04 #@! TO.N,Net-(Q6-B)*
X70104000Y-108752000D03*
G04 #@! TO.P,C7,2*
G04 #@! TO.N,Net-(C7-Pad2)*
X70104000Y-111252000D03*
G04 #@! TD*
D10*
G04 #@! TO.P,Q5,1,D*
G04 #@! TO.N,Net-(Q5-D)*
X108966000Y-93726000D03*
D11*
G04 #@! TO.P,Q5,2,S*
G04 #@! TO.N,4V*
X111506000Y-93726000D03*
G04 #@! TO.P,Q5,3,G*
G04 #@! TO.N,LFO_OUT1*
X114046000Y-93726000D03*
G04 #@! TD*
D18*
G04 #@! TO.P,C8,1*
G04 #@! TO.N,GND*
X64904000Y-116840000D03*
D17*
G04 #@! TO.P,C8,2*
G04 #@! TO.N,Net-(Q6-B)*
X57404000Y-116840000D03*
G04 #@! TD*
D18*
G04 #@! TO.P,C6,1*
G04 #@! TO.N,A_WET*
X84836000Y-108712000D03*
G04 #@! TO.P,C6,2*
G04 #@! TO.N,Net-(SW2A-B)*
X84836000Y-111212000D03*
G04 #@! TD*
G04 #@! TO.P,C2,1*
G04 #@! TO.N,Net-(Q3-D)*
X72136000Y-105036000D03*
D17*
G04 #@! TO.P,C2,2*
G04 #@! TO.N,Net-(U2-+)*
X72136000Y-97536000D03*
G04 #@! TD*
D12*
G04 #@! TO.P,R3,1*
G04 #@! TO.N,Net-(U1--)*
X62484000Y-94234000D03*
D13*
G04 #@! TO.P,R3,2*
G04 #@! TO.N,Net-(Q3-D)*
X57404000Y-94234000D03*
G04 #@! TD*
D12*
G04 #@! TO.P,R23,1*
G04 #@! TO.N,Net-(U5-+)*
X120777000Y-116840000D03*
D13*
G04 #@! TO.P,R23,2*
G04 #@! TO.N,+4V*
X125857000Y-116840000D03*
G04 #@! TD*
D18*
G04 #@! TO.P,C4,1*
G04 #@! TO.N,Net-(Q5-D)*
X101600000Y-105036000D03*
D17*
G04 #@! TO.P,C4,2*
G04 #@! TO.N,Net-(U4-+)*
X101600000Y-97536000D03*
G04 #@! TD*
D16*
G04 #@! TO.P,U4,1,NULL*
G04 #@! TO.N,unconnected-(U4-NULL-Pad1)*
X112776000Y-97536000D03*
D17*
G04 #@! TO.P,U4,2,-*
G04 #@! TO.N,Net-(U4--)*
X110236000Y-97536000D03*
G04 #@! TO.P,U4,3,+*
G04 #@! TO.N,Net-(U4-+)*
X107696000Y-97536000D03*
G04 #@! TO.P,U4,4,V-*
G04 #@! TO.N,GND*
X105156000Y-97536000D03*
G04 #@! TO.P,U4,5,NULL*
G04 #@! TO.N,unconnected-(U4-NULL-Pad5)*
X105156000Y-105156000D03*
G04 #@! TO.P,U4,6*
G04 #@! TO.N,A_WET*
X107696000Y-105156000D03*
G04 #@! TO.P,U4,7,V+*
G04 #@! TO.N,+7V*
X110236000Y-105156000D03*
G04 #@! TO.P,U4,8,NC*
G04 #@! TO.N,unconnected-(U4-NC-Pad8)*
X112776000Y-105156000D03*
G04 #@! TD*
D12*
G04 #@! TO.P,R20,1*
G04 #@! TO.N,Net-(R20-Pad1)*
X132207000Y-96520000D03*
D13*
G04 #@! TO.P,R20,2*
G04 #@! TO.N,Net-(R20-Pad2)*
X127127000Y-96520000D03*
G04 #@! TD*
D12*
G04 #@! TO.P,R17,1*
G04 #@! TO.N,Net-(Q1-B)*
X101904800Y-116128800D03*
D13*
G04 #@! TO.P,R17,2*
G04 #@! TO.N,GND*
X106984800Y-116128800D03*
G04 #@! TD*
D12*
G04 #@! TO.P,R1,1*
G04 #@! TO.N,A_DRY*
X57404000Y-91948000D03*
D13*
G04 #@! TO.P,R1,2*
G04 #@! TO.N,Net-(U1--)*
X62484000Y-91948000D03*
G04 #@! TD*
D16*
G04 #@! TO.P,C9,1*
G04 #@! TO.N,+4V*
X102934888Y-112268000D03*
D18*
G04 #@! TO.P,C9,2*
G04 #@! TO.N,GND*
X105434888Y-112268000D03*
G04 #@! TD*
D16*
G04 #@! TO.P,C14,1*
G04 #@! TO.N,Net-(C14-Pad1)*
X119547000Y-108458000D03*
D18*
G04 #@! TO.P,C14,2*
G04 #@! TO.N,GND*
X122047000Y-108458000D03*
G04 #@! TD*
D12*
G04 #@! TO.P,R7,1*
G04 #@! TO.N,Net-(U3--)*
X91948000Y-94742000D03*
D13*
G04 #@! TO.P,R7,2*
G04 #@! TO.N,Net-(Q5-D)*
X86868000Y-94742000D03*
G04 #@! TD*
D12*
G04 #@! TO.P,R6,1*
G04 #@! TO.N,Net-(Q4-D)*
X86868000Y-92456000D03*
D13*
G04 #@! TO.P,R6,2*
G04 #@! TO.N,Net-(U3--)*
X91948000Y-92456000D03*
G04 #@! TD*
D18*
G04 #@! TO.P,C3,1*
G04 #@! TO.N,Net-(Q4-D)*
X86868000Y-105036000D03*
D17*
G04 #@! TO.P,C3,2*
G04 #@! TO.N,Net-(U3-+)*
X86868000Y-97536000D03*
G04 #@! TD*
D10*
G04 #@! TO.P,Q3,1,D*
G04 #@! TO.N,Net-(Q3-D)*
X79502000Y-93726000D03*
D11*
G04 #@! TO.P,Q3,2,S*
G04 #@! TO.N,4V*
X82042000Y-93726000D03*
G04 #@! TO.P,Q3,3,G*
G04 #@! TO.N,LFO_OUT1*
X84582000Y-93726000D03*
G04 #@! TD*
D12*
G04 #@! TO.P,R28,1*
G04 #@! TO.N,Net-(R28-Pad1)*
X132207000Y-98806000D03*
D13*
G04 #@! TO.P,R28,2*
G04 #@! TO.N,Net-(R20-Pad1)*
X127127000Y-98806000D03*
G04 #@! TD*
D12*
G04 #@! TO.P,R12,1*
G04 #@! TO.N,Net-(R12-Pad1)*
X116332000Y-92456000D03*
D13*
G04 #@! TO.P,R12,2*
G04 #@! TO.N,A_WET*
X116332000Y-97536000D03*
G04 #@! TD*
D12*
G04 #@! TO.P,R5,1*
G04 #@! TO.N,Net-(U2--)*
X77216000Y-94742000D03*
D13*
G04 #@! TO.P,R5,2*
G04 #@! TO.N,Net-(Q4-D)*
X72136000Y-94742000D03*
G04 #@! TD*
D16*
G04 #@! TO.P,U2,1,NULL*
G04 #@! TO.N,unconnected-(U2-NULL-Pad1)*
X83312000Y-97536000D03*
D17*
G04 #@! TO.P,U2,2,-*
G04 #@! TO.N,Net-(U2--)*
X80772000Y-97536000D03*
G04 #@! TO.P,U2,3,+*
G04 #@! TO.N,Net-(U2-+)*
X78232000Y-97536000D03*
G04 #@! TO.P,U2,4,V-*
G04 #@! TO.N,GND*
X75692000Y-97536000D03*
G04 #@! TO.P,U2,5,NULL*
G04 #@! TO.N,unconnected-(U2-NULL-Pad5)*
X75692000Y-105156000D03*
G04 #@! TO.P,U2,6*
G04 #@! TO.N,Net-(Q4-D)*
X78232000Y-105156000D03*
G04 #@! TO.P,U2,7,V+*
G04 #@! TO.N,+7V*
X80772000Y-105156000D03*
G04 #@! TO.P,U2,8,NC*
G04 #@! TO.N,unconnected-(U2-NC-Pad8)*
X83312000Y-105156000D03*
G04 #@! TD*
D12*
G04 #@! TO.P,R26,1*
G04 #@! TO.N,Net-(R26-Pad1)*
X133350000Y-116840000D03*
D13*
G04 #@! TO.P,R26,2*
G04 #@! TO.N,Net-(R26-Pad2)*
X128270000Y-116840000D03*
G04 #@! TD*
D12*
G04 #@! TO.P,R10,1*
G04 #@! TO.N,GND*
X79756000Y-113752000D03*
D13*
G04 #@! TO.P,R10,2*
G04 #@! TO.N,Net-(C5-Pad1)*
X79756000Y-108672000D03*
G04 #@! TD*
D12*
G04 #@! TO.P,R27,1*
G04 #@! TO.N,Net-(Q6-B)*
X65024000Y-108712000D03*
D13*
G04 #@! TO.P,R27,2*
G04 #@! TO.N,+7V*
X65024000Y-113792000D03*
G04 #@! TD*
D14*
G04 #@! TO.P,BT1,1,+*
G04 #@! TO.N,+9V*
X73152000Y-109469000D03*
D15*
G04 #@! TO.P,BT1,2,-*
G04 #@! TO.N,Net-(BT1--)*
X73152000Y-112009000D03*
G04 #@! TD*
G04 #@! TO.P,J1,R*
G04 #@! TO.N,GND*
X81534000Y-116840000D03*
D14*
G04 #@! TO.P,J1,T*
G04 #@! TO.N,Net-(J1-PadT)*
X78994000Y-116840000D03*
G04 #@! TD*
D16*
G04 #@! TO.P,U3,1,NULL*
G04 #@! TO.N,unconnected-(U3-NULL-Pad1)*
X98044000Y-97536000D03*
D17*
G04 #@! TO.P,U3,2,-*
G04 #@! TO.N,Net-(U3--)*
X95504000Y-97536000D03*
G04 #@! TO.P,U3,3,+*
G04 #@! TO.N,Net-(U3-+)*
X92964000Y-97536000D03*
G04 #@! TO.P,U3,4,V-*
G04 #@! TO.N,GND*
X90424000Y-97536000D03*
G04 #@! TO.P,U3,5,NULL*
G04 #@! TO.N,unconnected-(U3-NULL-Pad5)*
X90424000Y-105156000D03*
G04 #@! TO.P,U3,6*
G04 #@! TO.N,Net-(Q5-D)*
X92964000Y-105156000D03*
G04 #@! TO.P,U3,7,V+*
G04 #@! TO.N,+7V*
X95504000Y-105156000D03*
G04 #@! TO.P,U3,8,NC*
G04 #@! TO.N,unconnected-(U3-NC-Pad8)*
X98044000Y-105156000D03*
G04 #@! TD*
D12*
G04 #@! TO.P,R2,1*
G04 #@! TO.N,Net-(J1-PadT)*
X77216000Y-113752000D03*
D13*
G04 #@! TO.P,R2,2*
G04 #@! TO.N,Net-(C5-Pad1)*
X77216000Y-108672000D03*
G04 #@! TD*
D12*
G04 #@! TO.P,R30,1*
G04 #@! TO.N,Net-(R30-Pad1)*
X134493000Y-98806000D03*
D13*
G04 #@! TO.P,R30,2*
G04 #@! TO.N,Net-(R21-Pad1)*
X139573000Y-98806000D03*
G04 #@! TD*
D14*
G04 #@! TO.P,RV1,1,1*
G04 #@! TO.N,Net-(SW2A-C)*
X85344000Y-114300000D03*
D15*
G04 #@! TO.P,RV1,2,2*
G04 #@! TO.N,Net-(J1-PadT)*
X85344000Y-116840000D03*
G04 #@! TD*
D24*
G04 #@! TO.N,4V*
X83439000Y-92329000D03*
G04 #@! TO.N,Net-(Q5-D)*
X98425000Y-103124000D03*
G04 #@! TO.N,+7V*
X91694000Y-106807000D03*
X117221000Y-114046000D03*
G04 #@! TD*
D25*
G04 #@! TO.N,+4V*
X105795688Y-115128800D02*
X117602000Y-115128800D01*
X122174000Y-103124000D02*
X118447000Y-106851000D01*
X117602000Y-115128800D02*
X117651586Y-115128800D01*
X118447000Y-106851000D02*
X118447000Y-114283800D01*
X118447000Y-114283800D02*
X117602000Y-115128800D01*
G04 #@! TO.N,Net-(R26-Pad1)*
X133350000Y-116840000D02*
X136652000Y-116840000D01*
G04 #@! TO.N,4V*
X82042000Y-93726000D02*
X83439000Y-92329000D01*
G04 #@! TO.N,Net-(Q5-D)*
X94996000Y-103124000D02*
X98425000Y-103124000D01*
X92964000Y-105156000D02*
X94996000Y-103124000D01*
G04 #@! TO.N,+7V*
X82423000Y-106807000D02*
X91694000Y-106807000D01*
X80772000Y-105156000D02*
X82423000Y-106807000D01*
X117221000Y-112776000D02*
X117221000Y-114046000D01*
X115590800Y-111145800D02*
X117221000Y-112776000D01*
X111311200Y-111145800D02*
X115590800Y-111145800D01*
X110011200Y-112445800D02*
X111311200Y-111145800D01*
G04 #@! TO.N,+4V*
X120378786Y-117856000D02*
X118418893Y-115896107D01*
X102934888Y-112268000D02*
X105795688Y-115128800D01*
X117651586Y-115128800D02*
X118418893Y-115896107D01*
G04 #@! TO.N,A_WET*
X107696000Y-105156000D02*
X106316000Y-106536000D01*
X94064000Y-105834000D02*
X92286000Y-107612000D01*
X106316000Y-106536000D02*
X100978679Y-106536000D01*
X100978679Y-106536000D02*
X99144000Y-104701321D01*
X99144000Y-104701321D02*
X99144000Y-104700365D01*
X99144000Y-104700365D02*
X98456635Y-104013000D01*
X98456635Y-104013000D02*
X94751365Y-104013000D01*
X85936000Y-107612000D02*
X84836000Y-108712000D01*
X94751365Y-104013000D02*
X94064000Y-104700365D01*
X94064000Y-104700365D02*
X94064000Y-105834000D01*
X92286000Y-107612000D02*
X85936000Y-107612000D01*
G04 #@! TO.N,4V*
X113876000Y-96096000D02*
X113876000Y-98636000D01*
X113876000Y-98636000D02*
X109134000Y-103378000D01*
X100100000Y-105091635D02*
X100100000Y-103529000D01*
X109134000Y-103378000D02*
X104813635Y-103378000D01*
X104813635Y-103378000D02*
X102055635Y-106136000D01*
X102055635Y-106136000D02*
X101144365Y-106136000D01*
X101144365Y-106136000D02*
X100100000Y-105091635D01*
X100100000Y-103529000D02*
X96774000Y-100203000D01*
X96774000Y-100203000D02*
X96774000Y-93726000D01*
G04 #@! TO.N,+7V*
X110011200Y-112445800D02*
X110011200Y-108995200D01*
X110011200Y-108995200D02*
X108204000Y-107188000D01*
G04 #@! TO.N,Net-(C5-Pad1)*
X77216000Y-108672000D02*
X78212000Y-107676000D01*
X78212000Y-107676000D02*
X78216000Y-107672000D01*
X79756000Y-108672000D02*
X78760000Y-107676000D01*
X78760000Y-107676000D02*
X78212000Y-107676000D01*
G04 #@! TO.N,Net-(SW2A-B)*
X89408000Y-114300000D02*
X91016000Y-112692000D01*
X91016000Y-112692000D02*
X91016000Y-110756365D01*
X91016000Y-110756365D02*
X90371635Y-110112000D01*
X90371635Y-110112000D02*
X89405000Y-110112000D01*
X89405000Y-110112000D02*
X88305000Y-111212000D01*
X88305000Y-111212000D02*
X84836000Y-111212000D01*
G04 #@! TO.N,A_DRY*
X89916000Y-111212000D02*
X88816000Y-112312000D01*
X88816000Y-112312000D02*
X84380365Y-112312000D01*
X70559635Y-109852000D02*
X69549786Y-109852000D01*
X84380365Y-112312000D02*
X83797022Y-111728657D01*
X83797022Y-111728657D02*
X77572657Y-111728657D01*
X65438214Y-114792000D02*
X64589686Y-114792000D01*
X77572657Y-111728657D02*
X74140365Y-108296365D01*
X66024000Y-113377786D02*
X66024000Y-114206214D01*
X74140365Y-108296365D02*
X72115270Y-108296365D01*
X72115270Y-108296365D02*
X70559635Y-109852000D01*
X69549786Y-109852000D02*
X66024000Y-113377786D01*
X66024000Y-114206214D02*
X65438214Y-114792000D01*
X64589686Y-114792000D02*
X61041686Y-118340000D01*
X61041686Y-118340000D02*
X56782679Y-118340000D01*
X56782679Y-118340000D02*
X55904000Y-117461321D01*
X55904000Y-117461321D02*
X55904000Y-113514000D01*
X55904000Y-113514000D02*
X60706000Y-108712000D01*
G04 #@! TO.N,Net-(U3-+)*
X86868000Y-97536000D02*
X87968000Y-98636000D01*
X87968000Y-98636000D02*
X91864000Y-98636000D01*
X91864000Y-98636000D02*
X92964000Y-97536000D01*
G04 #@! TO.N,Net-(Q5-D)*
X92964000Y-105156000D02*
X92221000Y-105156000D01*
X92221000Y-105156000D02*
X85768000Y-98703000D01*
X85768000Y-98703000D02*
X85768000Y-95842000D01*
X85768000Y-95842000D02*
X86868000Y-94742000D01*
G04 #@! TO.N,Net-(Q4-D)*
X86868000Y-105036000D02*
X85768000Y-103936000D01*
X85768000Y-103936000D02*
X85768000Y-99865000D01*
X85768000Y-99865000D02*
X85090000Y-99187000D01*
X85090000Y-99187000D02*
X85090000Y-94702925D01*
X85090000Y-94702925D02*
X85632000Y-94160925D01*
X85632000Y-94160925D02*
X85632000Y-93692000D01*
X85632000Y-93692000D02*
X86868000Y-92456000D01*
X78232000Y-105156000D02*
X79332000Y-104056000D01*
X79332000Y-104056000D02*
X85888000Y-104056000D01*
X85888000Y-104056000D02*
X86868000Y-105036000D01*
G04 #@! TO.N,+9V*
X96486000Y-114372000D02*
X94561075Y-114372000D01*
X88399000Y-115570000D02*
X86494000Y-113665000D01*
X94561075Y-114372000D02*
X93599000Y-115334075D01*
X93599000Y-115334075D02*
X93599000Y-116379000D01*
X93599000Y-116379000D02*
X93392000Y-116586000D01*
X93392000Y-116586000D02*
X90780346Y-116586000D01*
X90780346Y-116586000D02*
X89764346Y-115570000D01*
X82931000Y-112395000D02*
X76078000Y-112395000D01*
X89764346Y-115570000D02*
X88399000Y-115570000D01*
X86494000Y-113665000D02*
X86494000Y-113150000D01*
X86494000Y-113150000D02*
X83686000Y-113150000D01*
X83686000Y-113150000D02*
X82931000Y-112395000D01*
X76078000Y-112395000D02*
X73152000Y-109469000D01*
G04 #@! TO.N,Net-(C5-Pad1)*
X78216000Y-107672000D02*
X82736000Y-107672000D01*
X82736000Y-107672000D02*
X83736000Y-108672000D01*
X83736000Y-108672000D02*
X83736000Y-109167635D01*
X88816000Y-109812000D02*
X89916000Y-108712000D01*
X83736000Y-109167635D02*
X84380365Y-109812000D01*
X84380365Y-109812000D02*
X88816000Y-109812000D01*
G04 #@! TO.N,Net-(U4-+)*
X101600000Y-97536000D02*
X102700000Y-98636000D01*
X102700000Y-98636000D02*
X106596000Y-98636000D01*
X106596000Y-98636000D02*
X107696000Y-97536000D01*
G04 #@! TO.N,LFO_OUT1*
X69850000Y-93726000D02*
X74785786Y-93726000D01*
X76963786Y-95904000D02*
X78495635Y-95904000D01*
X74785786Y-93726000D02*
X76963786Y-95904000D01*
X81450000Y-98636000D02*
X82212000Y-97874000D01*
X78495635Y-95904000D02*
X79672000Y-97080365D01*
X79672000Y-97991635D02*
X80316365Y-98636000D01*
X79672000Y-97080365D02*
X79672000Y-97991635D01*
X80316365Y-98636000D02*
X81450000Y-98636000D01*
X82212000Y-97874000D02*
X82212000Y-96096000D01*
X82212000Y-96096000D02*
X84582000Y-93726000D01*
G04 #@! TO.N,Net-(U2--)*
X77216000Y-94742000D02*
X77978000Y-95504000D01*
X77978000Y-95504000D02*
X79629000Y-95504000D01*
X80772000Y-96647000D02*
X80772000Y-97536000D01*
X79629000Y-95504000D02*
X80772000Y-96647000D01*
G04 #@! TO.N,Net-(Q3-D)*
X64770000Y-97250365D02*
X64770000Y-97409000D01*
X64770000Y-97409000D02*
X64770000Y-102884000D01*
X64770000Y-97917000D02*
X64770000Y-97409000D01*
X72136000Y-92456000D02*
X69635075Y-92456000D01*
X69635075Y-92456000D02*
X68580000Y-93511075D01*
X68580000Y-93511075D02*
X68580000Y-95504001D01*
X68580000Y-95504001D02*
X67140000Y-96944001D01*
X67140000Y-96944001D02*
X67140000Y-98087000D01*
X67140000Y-98087000D02*
X66591000Y-98636000D01*
X66591000Y-98636000D02*
X65489000Y-98636000D01*
X65489000Y-98636000D02*
X64770000Y-97917000D01*
X72136000Y-92456000D02*
X73136000Y-91456000D01*
X73136000Y-91456000D02*
X78182000Y-91456000D01*
X78182000Y-91456000D02*
X79502000Y-92776000D01*
X79502000Y-92776000D02*
X79502000Y-93726000D01*
G04 #@! TO.N,4V*
X67310000Y-93726000D02*
X70012000Y-91024000D01*
X70012000Y-91024000D02*
X79340000Y-91024000D01*
X79340000Y-91024000D02*
X82042000Y-93726000D01*
G04 #@! TO.N,Net-(Q4-D)*
X94234000Y-93726000D02*
X94234000Y-92776000D01*
X94234000Y-92776000D02*
X92898000Y-91440000D01*
X92898000Y-91440000D02*
X87884000Y-91440000D01*
X87884000Y-91440000D02*
X86868000Y-92456000D01*
G04 #@! TO.N,LFO_OUT1*
X99314000Y-93726000D02*
X96612000Y-91024000D01*
X96612000Y-91024000D02*
X86395000Y-91024000D01*
X86395000Y-91024000D02*
X84582000Y-92837000D01*
X84582000Y-92837000D02*
X84582000Y-93726000D01*
G04 #@! TO.N,Net-(Q5-D)*
X101600000Y-92456000D02*
X102600000Y-91456000D01*
X102600000Y-91456000D02*
X107204000Y-91456000D01*
X107204000Y-91456000D02*
X108966000Y-93218000D01*
X108966000Y-93218000D02*
X108966000Y-93726000D01*
G04 #@! TO.N,LFO_OUT1*
X114046000Y-93726000D02*
X111344000Y-91024000D01*
X111344000Y-91024000D02*
X101617786Y-91024000D01*
X101617786Y-91024000D02*
X99314000Y-93327786D01*
X99314000Y-93327786D02*
X99314000Y-93726000D01*
X133207000Y-97806000D02*
X133207000Y-96105786D01*
X133207000Y-96105786D02*
X132605214Y-95504000D01*
X132605214Y-95504000D02*
X129557214Y-95504000D01*
X129557214Y-95504000D02*
X128127000Y-96934214D01*
G04 #@! TO.N,Net-(C14-Pad1)*
X132207000Y-103378000D02*
X131207000Y-102378000D01*
X131207000Y-102378000D02*
X125627000Y-102378000D01*
X125627000Y-102378000D02*
X119547000Y-108458000D01*
G04 #@! TO.N,Net-(U5--)*
X130419000Y-106436000D02*
X127361000Y-103378000D01*
X127361000Y-103378000D02*
X127127000Y-103378000D01*
G04 #@! TO.N,Net-(U3--)*
X91948000Y-94742000D02*
X91948000Y-92456000D01*
X95504000Y-97536000D02*
X92710000Y-94742000D01*
X92710000Y-94742000D02*
X91948000Y-94742000D01*
G04 #@! TO.N,+7V*
X92456000Y-109728000D02*
X95504000Y-106680000D01*
X95504000Y-106680000D02*
X95504000Y-105156000D01*
G04 #@! TO.N,4V*
X111506000Y-93726000D02*
X113876000Y-96096000D01*
G04 #@! TO.N,+7V*
X110236000Y-105156000D02*
X108204000Y-107188000D01*
X97536000Y-107188000D02*
X95504000Y-105156000D01*
G04 #@! TO.N,Net-(R12-Pad1)*
X101600000Y-94742000D02*
X102600000Y-95742000D01*
X102600000Y-95742000D02*
X107797635Y-95742000D01*
X111379000Y-97948635D02*
X111379000Y-95083925D01*
X107797635Y-95742000D02*
X109136000Y-97080365D01*
X109136000Y-97080365D02*
X109136000Y-97991635D01*
X109136000Y-97991635D02*
X109780365Y-98636000D01*
X116332000Y-93218000D02*
X116332000Y-92456000D01*
X109780365Y-98636000D02*
X110691635Y-98636000D01*
X110691635Y-98636000D02*
X111379000Y-97948635D01*
X111379000Y-95083925D02*
X110456000Y-94160925D01*
X110456000Y-94160925D02*
X110456000Y-93291075D01*
X110456000Y-93291075D02*
X111071075Y-92676000D01*
X111071075Y-92676000D02*
X111940925Y-92676000D01*
X111940925Y-92676000D02*
X112776000Y-93511075D01*
X112776000Y-93511075D02*
X112776000Y-94107000D01*
X112776000Y-94107000D02*
X113445000Y-94776000D01*
X113445000Y-94776000D02*
X114774000Y-94776000D01*
X114774000Y-94776000D02*
X116332000Y-93218000D01*
G04 #@! TO.N,Net-(U4--)*
X106680000Y-92456000D02*
X106680000Y-94742000D01*
X110236000Y-97536000D02*
X107442000Y-94742000D01*
X107442000Y-94742000D02*
X106680000Y-94742000D01*
G04 #@! TO.N,Net-(Q5-D)*
X101600000Y-105036000D02*
X100500000Y-103936000D01*
X100500000Y-103936000D02*
X100500000Y-93556000D01*
X100500000Y-93556000D02*
X101600000Y-92456000D01*
G04 #@! TO.N,Net-(R12-Pad1)*
X116332000Y-104902000D02*
X117732000Y-103502000D01*
X117732000Y-103502000D02*
X117732000Y-93856000D01*
X117732000Y-93856000D02*
X116332000Y-92456000D01*
G04 #@! TO.N,A_WET*
X107696000Y-105156000D02*
X108796000Y-104056000D01*
X117332000Y-98536000D02*
X116332000Y-97536000D01*
X108796000Y-104056000D02*
X113622000Y-104056000D01*
X113622000Y-104056000D02*
X117332000Y-100346000D01*
X117332000Y-100346000D02*
X117332000Y-98536000D01*
G04 #@! TO.N,+4V*
X99822000Y-108458000D02*
X98806000Y-108458000D01*
X98806000Y-108458000D02*
X97536000Y-109728000D01*
X99822000Y-108458000D02*
X102934888Y-111570888D01*
X102934888Y-111570888D02*
X102934888Y-112268000D01*
G04 #@! TO.N,Net-(U1--)*
X62484000Y-94234000D02*
X62484000Y-93244051D01*
X62484000Y-93244051D02*
X63052051Y-92676000D01*
X63052051Y-92676000D02*
X65820000Y-92676000D01*
X65820000Y-92676000D02*
X66040000Y-92896000D01*
X66040000Y-92896000D02*
X66040000Y-97536000D01*
G04 #@! TO.N,A_DRY*
X57404000Y-91948000D02*
X58783786Y-91948000D01*
X62085786Y-95250000D02*
X63246000Y-95250000D01*
X58783786Y-91948000D02*
X62085786Y-95250000D01*
X63246000Y-95250000D02*
X64770000Y-93726000D01*
G04 #@! TO.N,Net-(Q3-D)*
X57404000Y-94234000D02*
X58404000Y-95234000D01*
X58404000Y-95234000D02*
X60690000Y-95234000D01*
X60690000Y-95234000D02*
X61892000Y-96436000D01*
X64770000Y-102884000D02*
X65271000Y-103385000D01*
X61892000Y-96436000D02*
X63955635Y-96436000D01*
X63955635Y-96436000D02*
X64770000Y-97250365D01*
G04 #@! TO.N,Net-(U1-+)*
X63500000Y-97536000D02*
X63500000Y-99762000D01*
X63500000Y-99762000D02*
X57404000Y-105858000D01*
G04 #@! TO.N,A_DRY*
X57404000Y-98358000D02*
X56404000Y-97358000D01*
X56404000Y-97358000D02*
X56404000Y-92948000D01*
X56404000Y-92948000D02*
X57404000Y-91948000D01*
X60706000Y-108712000D02*
X58404000Y-108712000D01*
X58404000Y-108712000D02*
X58404000Y-108297786D01*
X58404000Y-108297786D02*
X57818214Y-107712000D01*
X57818214Y-107712000D02*
X56912000Y-107712000D01*
X56007000Y-99755000D02*
X57404000Y-98358000D01*
X56912000Y-107712000D02*
X56007000Y-106807000D01*
X56007000Y-106807000D02*
X56007000Y-99755000D01*
G04 #@! TO.N,Net-(Q3-D)*
X65271000Y-103385000D02*
X65405000Y-103385000D01*
X65405000Y-103385000D02*
X70485000Y-103385000D01*
X63500000Y-105156000D02*
X65271000Y-103385000D01*
G04 #@! TO.N,+7V*
X66040000Y-105156000D02*
X67140000Y-104056000D01*
X67140000Y-104056000D02*
X69035635Y-104056000D01*
X69035635Y-104056000D02*
X71235635Y-106256000D01*
X71235635Y-106256000D02*
X79672000Y-106256000D01*
X79672000Y-106256000D02*
X80772000Y-105156000D01*
G04 #@! TO.N,Net-(Q3-D)*
X70485000Y-103385000D02*
X72136000Y-105036000D01*
G04 #@! TO.N,Net-(Q4-D)*
X72136000Y-94742000D02*
X71036000Y-95842000D01*
X71036000Y-95842000D02*
X71036000Y-97991635D01*
X71036000Y-97991635D02*
X78200365Y-105156000D01*
X78200365Y-105156000D02*
X78232000Y-105156000D01*
G04 #@! TO.N,Net-(U2-+)*
X72136000Y-97536000D02*
X73236000Y-98636000D01*
X73236000Y-98636000D02*
X77132000Y-98636000D01*
X77132000Y-98636000D02*
X78232000Y-97536000D01*
G04 #@! TO.N,Net-(U2--)*
X77216000Y-92456000D02*
X77216000Y-94742000D01*
G04 #@! TO.N,4V*
X116332000Y-99822000D02*
X113876000Y-97366000D01*
X113876000Y-97366000D02*
X113876000Y-96096000D01*
G04 #@! TO.N,Net-(C14-Pad1)*
X134493000Y-103378000D02*
X132207000Y-103378000D01*
G04 #@! TO.N,Net-(R28-Pad1)*
X127127000Y-101092000D02*
X129921000Y-101092000D01*
X129921000Y-101092000D02*
X132207000Y-98806000D01*
G04 #@! TO.N,Net-(R20-Pad1)*
X132207000Y-96520000D02*
X129413000Y-96520000D01*
X129413000Y-96520000D02*
X127127000Y-98806000D01*
G04 #@! TO.N,Net-(R30-Pad1)*
X134493000Y-98806000D02*
X134493000Y-101092000D01*
G04 #@! TO.N,LFO_OUT1*
X134493000Y-96520000D02*
X133207000Y-97806000D01*
X133207000Y-97806000D02*
X133207000Y-100092000D01*
X133207000Y-100092000D02*
X132207000Y-101092000D01*
G04 #@! TO.N,Net-(R21-Pad1)*
X139573000Y-98806000D02*
X139573000Y-96520000D01*
G04 #@! TO.N,Net-(C12-Pad2)*
X136525000Y-113936000D02*
X138955000Y-111506000D01*
X138955000Y-111506000D02*
X139573000Y-111506000D01*
G04 #@! TO.N,Net-(R22-Pad1)*
X139573000Y-103378000D02*
X139573000Y-101092000D01*
X139192000Y-116840000D02*
X140573000Y-115459000D01*
X140573000Y-115459000D02*
X140573000Y-104378000D01*
X140573000Y-104378000D02*
X139573000Y-103378000D01*
G04 #@! TO.N,Net-(U5--)*
X130419000Y-106436000D02*
X131519000Y-105336000D01*
X131519000Y-105336000D02*
X135425000Y-105336000D01*
X135425000Y-105336000D02*
X136525000Y-106436000D01*
G04 #@! TO.N,Net-(U5-+)*
X127879000Y-106436000D02*
X128979000Y-107536000D01*
X128979000Y-107536000D02*
X138463000Y-107536000D01*
X138463000Y-107536000D02*
X139573000Y-106426000D01*
X127879000Y-106436000D02*
X120777000Y-113538000D01*
X120777000Y-113538000D02*
X120777000Y-116840000D01*
G04 #@! TO.N,+4V*
X130419000Y-114056000D02*
X129319000Y-112956000D01*
X129319000Y-112956000D02*
X124883365Y-112956000D01*
X124883365Y-112956000D02*
X121793000Y-116046365D01*
X121175214Y-117856000D02*
X120378786Y-117856000D01*
X121793000Y-116046365D02*
X121793000Y-117238214D01*
X121793000Y-117238214D02*
X121175214Y-117856000D01*
G04 #@! TO.N,Net-(R26-Pad2)*
X128270000Y-116840000D02*
X128270000Y-114447000D01*
X128270000Y-114447000D02*
X127879000Y-114056000D01*
G04 #@! TO.N,+4V*
X125857000Y-116840000D02*
X126857000Y-117840000D01*
X126857000Y-117840000D02*
X129048000Y-117840000D01*
X129048000Y-117840000D02*
X130419000Y-116469000D01*
X130419000Y-116469000D02*
X130419000Y-114056000D01*
G04 #@! TO.N,Net-(Q1-B)*
X101904800Y-116128800D02*
X103448000Y-117672000D01*
X103448000Y-117672000D02*
X109798000Y-117672000D01*
X109798000Y-117672000D02*
X110998000Y-118872000D01*
G04 #@! TO.N,+9V*
X99822000Y-111104000D02*
X96554000Y-114372000D01*
X96554000Y-114372000D02*
X96486000Y-114372000D01*
G04 #@! TO.N,Net-(Q1-B)*
X101904800Y-116128800D02*
X101204800Y-115428800D01*
X101204800Y-115428800D02*
X101204800Y-110983800D01*
X101204800Y-110983800D02*
X100325000Y-110104000D01*
X100325000Y-110104000D02*
X99319000Y-110104000D01*
X99319000Y-110104000D02*
X98645000Y-110778000D01*
X98645000Y-110778000D02*
X96046000Y-110778000D01*
X96046000Y-110778000D02*
X94996000Y-109728000D01*
G04 #@! TO.N,+7V*
X92456000Y-115422000D02*
X92456000Y-109728000D01*
G04 #@! TO.N,+9V*
X97536000Y-115422000D02*
X96486000Y-114372000D01*
G04 #@! TO.N,Net-(SW2A-C)*
X85344000Y-114300000D02*
X85852000Y-114300000D01*
X85852000Y-114300000D02*
X88392000Y-116840000D01*
X88392000Y-116840000D02*
X89408000Y-116840000D01*
G04 #@! TO.N,Net-(D1-K)*
X99822000Y-116184000D02*
X99122000Y-116884000D01*
X99122000Y-116884000D02*
X96458000Y-116884000D01*
X96458000Y-116884000D02*
X94996000Y-115422000D01*
X99822000Y-118872000D02*
X99822000Y-116184000D01*
G04 #@! TO.N,Net-(J1-PadT)*
X78994000Y-116840000D02*
X80144000Y-117990000D01*
X80144000Y-117990000D02*
X84194000Y-117990000D01*
X84194000Y-117990000D02*
X85344000Y-116840000D01*
X77216000Y-113752000D02*
X77216000Y-115062000D01*
X77216000Y-115062000D02*
X78994000Y-116840000D01*
G04 #@! TO.N,Net-(BT1--)*
X73167000Y-116840000D02*
X73167000Y-112024000D01*
X73167000Y-112024000D02*
X73152000Y-112009000D01*
G04 #@! TO.N,Net-(C7-Pad2)*
X70104000Y-111252000D02*
X70104000Y-114823000D01*
X70104000Y-114823000D02*
X68087000Y-116840000D01*
G04 #@! TO.N,Net-(Q6-B)*
X67564000Y-108712000D02*
X70064000Y-108712000D01*
X70064000Y-108712000D02*
X70104000Y-108752000D01*
X65024000Y-108712000D02*
X67564000Y-108712000D01*
X60706000Y-111252000D02*
X62484000Y-111252000D01*
X62484000Y-111252000D02*
X65024000Y-108712000D01*
G04 #@! TO.N,+7V*
X65024000Y-113792000D02*
X60876000Y-117940000D01*
X60876000Y-117940000D02*
X56948365Y-117940000D01*
X56948365Y-117940000D02*
X56304000Y-117295635D01*
X59182000Y-113506365D02*
X59182000Y-111291075D01*
X56304000Y-117295635D02*
X56304000Y-116384365D01*
X56304000Y-116384365D02*
X59182000Y-113506365D01*
X59182000Y-111291075D02*
X60618075Y-109855000D01*
X60618075Y-109855000D02*
X61722000Y-109855000D01*
X61722000Y-109855000D02*
X66040000Y-105537000D01*
X66040000Y-105537000D02*
X66040000Y-105156000D01*
G04 #@! TO.N,Net-(Q6-B)*
X57404000Y-116840000D02*
X57531000Y-116967000D01*
X57531000Y-116967000D02*
X60325000Y-116967000D01*
X60325000Y-116967000D02*
X59656000Y-116298000D01*
X59656000Y-116298000D02*
X59656000Y-112302000D01*
X59656000Y-112302000D02*
X60706000Y-111252000D01*
G04 #@! TO.N,+7V*
X60706000Y-113792000D02*
X65024000Y-113792000D01*
G04 #@! TO.N,A_DRY*
X60706000Y-108712000D02*
X57404000Y-112014000D01*
X57404000Y-112014000D02*
X57404000Y-113792000D01*
G04 #@! TO.N,Net-(U1--)*
X62484000Y-91948000D02*
X62484000Y-94234000D01*
X65786000Y-97536000D02*
X66040000Y-97536000D01*
G04 #@! TO.N,LFO_OUT1*
X126198000Y-97790000D02*
X124968000Y-99020000D01*
X127271214Y-97790000D02*
X126198000Y-97790000D01*
X128127000Y-96934214D02*
X127271214Y-97790000D01*
X123080214Y-91059000D02*
X128127000Y-96105786D01*
X115316000Y-91059000D02*
X123080214Y-91059000D01*
X114046000Y-92329000D02*
X115316000Y-91059000D01*
X114046000Y-93726000D02*
X114046000Y-92329000D01*
X128127000Y-96105786D02*
X128127000Y-96934214D01*
G04 #@! TO.N,Net-(SW2A-B)*
X84836000Y-111212000D02*
X82296000Y-108672000D01*
G04 #@! TO.N,+7V*
X108204000Y-107188000D02*
X97536000Y-107188000D01*
G04 #@! TO.N,Net-(R20-Pad2)*
X125744657Y-97677657D02*
X126902314Y-96520000D01*
X126902314Y-96520000D02*
X127127000Y-96520000D01*
X124754708Y-97677657D02*
X125744657Y-97677657D01*
X121848365Y-100584000D02*
X124754708Y-97677657D01*
X119634000Y-100584000D02*
X121848365Y-100584000D01*
G04 #@! TD*
M02*
