%TF.GenerationSoftware,KiCad,Pcbnew,8.0.2-8.0.2-0~ubuntu22.04.1*%
%TF.CreationDate,2024-06-08T14:45:23+02:00*%
%TF.ProjectId,schematic,73636865-6d61-4746-9963-2e6b69636164,rev?*%
%TF.SameCoordinates,Original*%
%TF.FileFunction,Drillmap*%
%TF.FilePolarity,Positive*%
%FSLAX45Y45*%
G04 Gerber Fmt 4.5, Leading zero omitted, Abs format (unit mm)*
G04 Created by KiCad (PCBNEW 8.0.2-8.0.2-0~ubuntu22.04.1) date 2024-06-08 14:45:23*
%MOMM*%
%LPD*%
G01*
G04 APERTURE LIST*
%ADD10C,0.050000*%
%ADD11C,0.200000*%
%ADD12C,0.100000*%
G04 APERTURE END LIST*
D10*
X5511800Y-9042400D02*
X14147800Y-9042400D01*
X14147800Y-12042400D01*
X5511800Y-12042400D01*
X5511800Y-9042400D01*
D11*
D12*
X8328900Y-9217900D02*
X8358900Y-9247900D01*
X8358900Y-9217900D02*
X8328900Y-9247900D01*
X9154400Y-10665700D02*
X9184400Y-10695700D01*
X9184400Y-10665700D02*
X9154400Y-10695700D01*
X9827500Y-10297400D02*
X9857500Y-10327400D01*
X9857500Y-10297400D02*
X9827500Y-10327400D01*
X11707100Y-11389600D02*
X11737100Y-11419600D01*
X11737100Y-11389600D02*
X11707100Y-11419600D01*
X5775400Y-9194800D02*
G75*
G02*
X5705400Y-9194800I-35000J0D01*
G01*
X5705400Y-9194800D02*
G75*
G02*
X5775400Y-9194800I35000J0D01*
G01*
X5775400Y-9423400D02*
G75*
G02*
X5705400Y-9423400I-35000J0D01*
G01*
X5705400Y-9423400D02*
G75*
G02*
X5775400Y-9423400I35000J0D01*
G01*
X5775400Y-10871200D02*
G75*
G02*
X5705400Y-10871200I-35000J0D01*
G01*
X5705400Y-10871200D02*
G75*
G02*
X5775400Y-10871200I35000J0D01*
G01*
X5775400Y-11379200D02*
G75*
G02*
X5705400Y-11379200I-35000J0D01*
G01*
X5705400Y-11379200D02*
G75*
G02*
X5775400Y-11379200I35000J0D01*
G01*
X6283400Y-9194800D02*
G75*
G02*
X6213400Y-9194800I-35000J0D01*
G01*
X6213400Y-9194800D02*
G75*
G02*
X6283400Y-9194800I35000J0D01*
G01*
X6283400Y-9423400D02*
G75*
G02*
X6213400Y-9423400I-35000J0D01*
G01*
X6213400Y-9423400D02*
G75*
G02*
X6283400Y-9423400I35000J0D01*
G01*
X6537400Y-10871200D02*
G75*
G02*
X6467400Y-10871200I-35000J0D01*
G01*
X6467400Y-10871200D02*
G75*
G02*
X6537400Y-10871200I35000J0D01*
G01*
X6537400Y-11379200D02*
G75*
G02*
X6467400Y-11379200I-35000J0D01*
G01*
X6467400Y-11379200D02*
G75*
G02*
X6537400Y-11379200I35000J0D01*
G01*
X6791400Y-10871200D02*
G75*
G02*
X6721400Y-10871200I-35000J0D01*
G01*
X6721400Y-10871200D02*
G75*
G02*
X6791400Y-10871200I35000J0D01*
G01*
X6791400Y-11379200D02*
G75*
G02*
X6721400Y-11379200I-35000J0D01*
G01*
X6721400Y-11379200D02*
G75*
G02*
X6791400Y-11379200I35000J0D01*
G01*
X7248600Y-9245600D02*
G75*
G02*
X7178600Y-9245600I-35000J0D01*
G01*
X7178600Y-9245600D02*
G75*
G02*
X7248600Y-9245600I35000J0D01*
G01*
X7248600Y-9474200D02*
G75*
G02*
X7178600Y-9474200I-35000J0D01*
G01*
X7178600Y-9474200D02*
G75*
G02*
X7248600Y-9474200I35000J0D01*
G01*
X7756600Y-9245600D02*
G75*
G02*
X7686600Y-9245600I-35000J0D01*
G01*
X7686600Y-9245600D02*
G75*
G02*
X7756600Y-9245600I35000J0D01*
G01*
X7756600Y-9474200D02*
G75*
G02*
X7686600Y-9474200I-35000J0D01*
G01*
X7686600Y-9474200D02*
G75*
G02*
X7756600Y-9474200I35000J0D01*
G01*
X7756600Y-10867200D02*
G75*
G02*
X7686600Y-10867200I-35000J0D01*
G01*
X7686600Y-10867200D02*
G75*
G02*
X7756600Y-10867200I35000J0D01*
G01*
X7756600Y-11375200D02*
G75*
G02*
X7686600Y-11375200I-35000J0D01*
G01*
X7686600Y-11375200D02*
G75*
G02*
X7756600Y-11375200I35000J0D01*
G01*
X8010600Y-10867200D02*
G75*
G02*
X7940600Y-10867200I-35000J0D01*
G01*
X7940600Y-10867200D02*
G75*
G02*
X8010600Y-10867200I35000J0D01*
G01*
X8010600Y-11375200D02*
G75*
G02*
X7940600Y-11375200I-35000J0D01*
G01*
X7940600Y-11375200D02*
G75*
G02*
X8010600Y-11375200I35000J0D01*
G01*
X8264600Y-10867200D02*
G75*
G02*
X8194600Y-10867200I-35000J0D01*
G01*
X8194600Y-10867200D02*
G75*
G02*
X8264600Y-10867200I35000J0D01*
G01*
X8264600Y-11375200D02*
G75*
G02*
X8194600Y-11375200I-35000J0D01*
G01*
X8194600Y-11375200D02*
G75*
G02*
X8264600Y-11375200I35000J0D01*
G01*
X8721800Y-9245600D02*
G75*
G02*
X8651800Y-9245600I-35000J0D01*
G01*
X8651800Y-9245600D02*
G75*
G02*
X8721800Y-9245600I35000J0D01*
G01*
X8721800Y-9474200D02*
G75*
G02*
X8651800Y-9474200I-35000J0D01*
G01*
X8651800Y-9474200D02*
G75*
G02*
X8721800Y-9474200I35000J0D01*
G01*
X9229800Y-9245600D02*
G75*
G02*
X9159800Y-9245600I-35000J0D01*
G01*
X9159800Y-9245600D02*
G75*
G02*
X9229800Y-9245600I35000J0D01*
G01*
X9229800Y-9474200D02*
G75*
G02*
X9159800Y-9474200I-35000J0D01*
G01*
X9159800Y-9474200D02*
G75*
G02*
X9229800Y-9474200I35000J0D01*
G01*
X10017200Y-10845800D02*
G75*
G02*
X9947200Y-10845800I-35000J0D01*
G01*
X9947200Y-10845800D02*
G75*
G02*
X10017200Y-10845800I35000J0D01*
G01*
X10017200Y-11110400D02*
G75*
G02*
X9947200Y-11110400I-35000J0D01*
G01*
X9947200Y-11110400D02*
G75*
G02*
X10017200Y-11110400I35000J0D01*
G01*
X10017200Y-11618400D02*
G75*
G02*
X9947200Y-11618400I-35000J0D01*
G01*
X9947200Y-11618400D02*
G75*
G02*
X10017200Y-11618400I35000J0D01*
G01*
X10195000Y-9245600D02*
G75*
G02*
X10125000Y-9245600I-35000J0D01*
G01*
X10125000Y-9245600D02*
G75*
G02*
X10195000Y-9245600I35000J0D01*
G01*
X10195000Y-9474200D02*
G75*
G02*
X10125000Y-9474200I-35000J0D01*
G01*
X10125000Y-9474200D02*
G75*
G02*
X10195000Y-9474200I35000J0D01*
G01*
X10225480Y-11612880D02*
G75*
G02*
X10155480Y-11612880I-35000J0D01*
G01*
X10155480Y-11612880D02*
G75*
G02*
X10225480Y-11612880I35000J0D01*
G01*
X10525200Y-10845800D02*
G75*
G02*
X10455200Y-10845800I-35000J0D01*
G01*
X10455200Y-10845800D02*
G75*
G02*
X10525200Y-10845800I35000J0D01*
G01*
X10703000Y-9245600D02*
G75*
G02*
X10633000Y-9245600I-35000J0D01*
G01*
X10633000Y-9245600D02*
G75*
G02*
X10703000Y-9245600I35000J0D01*
G01*
X10703000Y-9474200D02*
G75*
G02*
X10633000Y-9474200I-35000J0D01*
G01*
X10633000Y-9474200D02*
G75*
G02*
X10703000Y-9474200I35000J0D01*
G01*
X10733480Y-11612880D02*
G75*
G02*
X10663480Y-11612880I-35000J0D01*
G01*
X10663480Y-11612880D02*
G75*
G02*
X10733480Y-11612880I35000J0D01*
G01*
X11134800Y-11887200D02*
G75*
G02*
X11064800Y-11887200I-35000J0D01*
G01*
X11064800Y-11887200D02*
G75*
G02*
X11134800Y-11887200I35000J0D01*
G01*
X11642800Y-11887200D02*
G75*
G02*
X11572800Y-11887200I-35000J0D01*
G01*
X11572800Y-11887200D02*
G75*
G02*
X11642800Y-11887200I35000J0D01*
G01*
X11668200Y-9245600D02*
G75*
G02*
X11598200Y-9245600I-35000J0D01*
G01*
X11598200Y-9245600D02*
G75*
G02*
X11668200Y-9245600I35000J0D01*
G01*
X11668200Y-9753600D02*
G75*
G02*
X11598200Y-9753600I-35000J0D01*
G01*
X11598200Y-9753600D02*
G75*
G02*
X11668200Y-9753600I35000J0D01*
G01*
X11668200Y-9982200D02*
G75*
G02*
X11598200Y-9982200I-35000J0D01*
G01*
X11598200Y-9982200D02*
G75*
G02*
X11668200Y-9982200I35000J0D01*
G01*
X11668200Y-10490200D02*
G75*
G02*
X11598200Y-10490200I-35000J0D01*
G01*
X11598200Y-10490200D02*
G75*
G02*
X11668200Y-10490200I35000J0D01*
G01*
X12112700Y-11684000D02*
G75*
G02*
X12042700Y-11684000I-35000J0D01*
G01*
X12042700Y-11684000D02*
G75*
G02*
X12112700Y-11684000I35000J0D01*
G01*
X12620700Y-11684000D02*
G75*
G02*
X12550700Y-11684000I-35000J0D01*
G01*
X12550700Y-11684000D02*
G75*
G02*
X12620700Y-11684000I35000J0D01*
G01*
X12747700Y-9652000D02*
G75*
G02*
X12677700Y-9652000I-35000J0D01*
G01*
X12677700Y-9652000D02*
G75*
G02*
X12747700Y-9652000I35000J0D01*
G01*
X12747700Y-9880600D02*
G75*
G02*
X12677700Y-9880600I-35000J0D01*
G01*
X12677700Y-9880600D02*
G75*
G02*
X12747700Y-9880600I35000J0D01*
G01*
X12747700Y-10109200D02*
G75*
G02*
X12677700Y-10109200I-35000J0D01*
G01*
X12677700Y-10109200D02*
G75*
G02*
X12747700Y-10109200I35000J0D01*
G01*
X12747700Y-10337800D02*
G75*
G02*
X12677700Y-10337800I-35000J0D01*
G01*
X12677700Y-10337800D02*
G75*
G02*
X12747700Y-10337800I35000J0D01*
G01*
X12862000Y-11684000D02*
G75*
G02*
X12792000Y-11684000I-35000J0D01*
G01*
X12792000Y-11684000D02*
G75*
G02*
X12862000Y-11684000I35000J0D01*
G01*
X13255700Y-9652000D02*
G75*
G02*
X13185700Y-9652000I-35000J0D01*
G01*
X13185700Y-9652000D02*
G75*
G02*
X13255700Y-9652000I35000J0D01*
G01*
X13255700Y-9880600D02*
G75*
G02*
X13185700Y-9880600I-35000J0D01*
G01*
X13185700Y-9880600D02*
G75*
G02*
X13255700Y-9880600I35000J0D01*
G01*
X13255700Y-10109200D02*
G75*
G02*
X13185700Y-10109200I-35000J0D01*
G01*
X13185700Y-10109200D02*
G75*
G02*
X13255700Y-10109200I35000J0D01*
G01*
X13255700Y-10337800D02*
G75*
G02*
X13185700Y-10337800I-35000J0D01*
G01*
X13185700Y-10337800D02*
G75*
G02*
X13255700Y-10337800I35000J0D01*
G01*
X13370000Y-11684000D02*
G75*
G02*
X13300000Y-11684000I-35000J0D01*
G01*
X13300000Y-11684000D02*
G75*
G02*
X13370000Y-11684000I35000J0D01*
G01*
X13484300Y-9652000D02*
G75*
G02*
X13414300Y-9652000I-35000J0D01*
G01*
X13414300Y-9652000D02*
G75*
G02*
X13484300Y-9652000I35000J0D01*
G01*
X13484300Y-9880600D02*
G75*
G02*
X13414300Y-9880600I-35000J0D01*
G01*
X13414300Y-9880600D02*
G75*
G02*
X13484300Y-9880600I35000J0D01*
G01*
X13484300Y-10109200D02*
G75*
G02*
X13414300Y-10109200I-35000J0D01*
G01*
X13414300Y-10109200D02*
G75*
G02*
X13484300Y-10109200I35000J0D01*
G01*
X13484300Y-10337800D02*
G75*
G02*
X13414300Y-10337800I-35000J0D01*
G01*
X13414300Y-10337800D02*
G75*
G02*
X13484300Y-10337800I35000J0D01*
G01*
X13992300Y-9652000D02*
G75*
G02*
X13922300Y-9652000I-35000J0D01*
G01*
X13922300Y-9652000D02*
G75*
G02*
X13992300Y-9652000I35000J0D01*
G01*
X13992300Y-9880600D02*
G75*
G02*
X13922300Y-9880600I-35000J0D01*
G01*
X13922300Y-9880600D02*
G75*
G02*
X13992300Y-9880600I35000J0D01*
G01*
X13992300Y-10109200D02*
G75*
G02*
X13922300Y-10109200I-35000J0D01*
G01*
X13922300Y-10109200D02*
G75*
G02*
X13992300Y-10109200I35000J0D01*
G01*
X13992300Y-10337800D02*
G75*
G02*
X13922300Y-10337800I-35000J0D01*
G01*
X13922300Y-10337800D02*
G75*
G02*
X13992300Y-10337800I35000J0D01*
G01*
X13992300Y-10642600D02*
G75*
G02*
X13922300Y-10642600I-35000J0D01*
G01*
X13922300Y-10642600D02*
G75*
G02*
X13992300Y-10642600I35000J0D01*
G01*
X13992300Y-11150600D02*
G75*
G02*
X13922300Y-11150600I-35000J0D01*
G01*
X13922300Y-11150600D02*
G75*
G02*
X13992300Y-11150600I35000J0D01*
G01*
X5740400Y-9795800D02*
X5740400Y-9875800D01*
X5700400Y-9835800D02*
X5780400Y-9835800D01*
X5740400Y-10545800D02*
X5740400Y-10625800D01*
X5700400Y-10585800D02*
X5780400Y-10585800D01*
X5740400Y-11644000D02*
X5740400Y-11724000D01*
X5700400Y-11684000D02*
X5780400Y-11684000D01*
X6070600Y-10831200D02*
X6070600Y-10911200D01*
X6030600Y-10871200D02*
X6110600Y-10871200D01*
X6070600Y-11085200D02*
X6070600Y-11165200D01*
X6030600Y-11125200D02*
X6110600Y-11125200D01*
X6070600Y-11339200D02*
X6070600Y-11419200D01*
X6030600Y-11379200D02*
X6110600Y-11379200D01*
X6096000Y-9713600D02*
X6096000Y-9793600D01*
X6056000Y-9753600D02*
X6136000Y-9753600D01*
X6096000Y-10475600D02*
X6096000Y-10555600D01*
X6056000Y-10515600D02*
X6136000Y-10515600D01*
X6350000Y-9713600D02*
X6350000Y-9793600D01*
X6310000Y-9753600D02*
X6390000Y-9753600D01*
X6350000Y-10475600D02*
X6350000Y-10555600D01*
X6310000Y-10515600D02*
X6390000Y-10515600D01*
X6477000Y-9332600D02*
X6477000Y-9412600D01*
X6437000Y-9372600D02*
X6517000Y-9372600D01*
X6490400Y-11644000D02*
X6490400Y-11724000D01*
X6450400Y-11684000D02*
X6530400Y-11684000D01*
X6604000Y-9713600D02*
X6604000Y-9793600D01*
X6564000Y-9753600D02*
X6644000Y-9753600D01*
X6604000Y-10475600D02*
X6604000Y-10555600D01*
X6564000Y-10515600D02*
X6644000Y-10515600D01*
X6731000Y-9332600D02*
X6731000Y-9412600D01*
X6691000Y-9372600D02*
X6771000Y-9372600D01*
X6858000Y-9713600D02*
X6858000Y-9793600D01*
X6818000Y-9753600D02*
X6898000Y-9753600D01*
X6858000Y-10475600D02*
X6858000Y-10555600D01*
X6818000Y-10515600D02*
X6898000Y-10515600D01*
X6985000Y-9332600D02*
X6985000Y-9412600D01*
X6945000Y-9372600D02*
X7025000Y-9372600D01*
X7010400Y-10835200D02*
X7010400Y-10915200D01*
X6970400Y-10875200D02*
X7050400Y-10875200D01*
X7010400Y-11085200D02*
X7010400Y-11165200D01*
X6970400Y-11125200D02*
X7050400Y-11125200D01*
X7213600Y-9713600D02*
X7213600Y-9793600D01*
X7173600Y-9753600D02*
X7253600Y-9753600D01*
X7213600Y-10463600D02*
X7213600Y-10543600D01*
X7173600Y-10503600D02*
X7253600Y-10503600D01*
X7569200Y-9713600D02*
X7569200Y-9793600D01*
X7529200Y-9753600D02*
X7609200Y-9753600D01*
X7569200Y-10475600D02*
X7569200Y-10555600D01*
X7529200Y-10515600D02*
X7609200Y-10515600D01*
X7823200Y-9713600D02*
X7823200Y-9793600D01*
X7783200Y-9753600D02*
X7863200Y-9753600D01*
X7823200Y-10475600D02*
X7823200Y-10555600D01*
X7783200Y-10515600D02*
X7863200Y-10515600D01*
X7950200Y-9332600D02*
X7950200Y-9412600D01*
X7910200Y-9372600D02*
X7990200Y-9372600D01*
X8077200Y-9713600D02*
X8077200Y-9793600D01*
X8037200Y-9753600D02*
X8117200Y-9753600D01*
X8077200Y-10475600D02*
X8077200Y-10555600D01*
X8037200Y-10515600D02*
X8117200Y-10515600D01*
X8204200Y-9332600D02*
X8204200Y-9412600D01*
X8164200Y-9372600D02*
X8244200Y-9372600D01*
X8331200Y-9713600D02*
X8331200Y-9793600D01*
X8291200Y-9753600D02*
X8371200Y-9753600D01*
X8331200Y-10475600D02*
X8331200Y-10555600D01*
X8291200Y-10515600D02*
X8371200Y-10515600D01*
X8458200Y-9332600D02*
X8458200Y-9412600D01*
X8418200Y-9372600D02*
X8498200Y-9372600D01*
X8483600Y-10831200D02*
X8483600Y-10911200D01*
X8443600Y-10871200D02*
X8523600Y-10871200D01*
X8483600Y-11081200D02*
X8483600Y-11161200D01*
X8443600Y-11121200D02*
X8523600Y-11121200D01*
X8686800Y-9713600D02*
X8686800Y-9793600D01*
X8646800Y-9753600D02*
X8726800Y-9753600D01*
X8686800Y-10463600D02*
X8686800Y-10543600D01*
X8646800Y-10503600D02*
X8726800Y-10503600D01*
X8991600Y-10831200D02*
X8991600Y-10911200D01*
X8951600Y-10871200D02*
X9031600Y-10871200D01*
X8991600Y-11081200D02*
X8991600Y-11161200D01*
X8951600Y-11121200D02*
X9031600Y-11121200D01*
X9042400Y-9713600D02*
X9042400Y-9793600D01*
X9002400Y-9753600D02*
X9082400Y-9753600D01*
X9042400Y-10475600D02*
X9042400Y-10555600D01*
X9002400Y-10515600D02*
X9082400Y-10515600D01*
X9245600Y-10932800D02*
X9245600Y-11012800D01*
X9205600Y-10972800D02*
X9285600Y-10972800D01*
X9245600Y-11502200D02*
X9245600Y-11582200D01*
X9205600Y-11542200D02*
X9285600Y-11542200D01*
X9296400Y-9713600D02*
X9296400Y-9793600D01*
X9256400Y-9753600D02*
X9336400Y-9753600D01*
X9296400Y-10475600D02*
X9296400Y-10555600D01*
X9256400Y-10515600D02*
X9336400Y-10515600D01*
X9423400Y-9332600D02*
X9423400Y-9412600D01*
X9383400Y-9372600D02*
X9463400Y-9372600D01*
X9499600Y-10932800D02*
X9499600Y-11012800D01*
X9459600Y-10972800D02*
X9539600Y-10972800D01*
X9499600Y-11502200D02*
X9499600Y-11582200D01*
X9459600Y-11542200D02*
X9539600Y-11542200D01*
X9550400Y-9713600D02*
X9550400Y-9793600D01*
X9510400Y-9753600D02*
X9590400Y-9753600D01*
X9550400Y-10475600D02*
X9550400Y-10555600D01*
X9510400Y-10515600D02*
X9590400Y-10515600D01*
X9677400Y-9332600D02*
X9677400Y-9412600D01*
X9637400Y-9372600D02*
X9717400Y-9372600D01*
X9753600Y-10932800D02*
X9753600Y-11012800D01*
X9713600Y-10972800D02*
X9793600Y-10972800D01*
X9753600Y-11502200D02*
X9753600Y-11582200D01*
X9713600Y-11542200D02*
X9793600Y-11542200D01*
X9804400Y-9713600D02*
X9804400Y-9793600D01*
X9764400Y-9753600D02*
X9844400Y-9753600D01*
X9804400Y-10475600D02*
X9804400Y-10555600D01*
X9764400Y-10515600D02*
X9844400Y-10515600D01*
X9931400Y-9332600D02*
X9931400Y-9412600D01*
X9891400Y-9372600D02*
X9971400Y-9372600D01*
X10160000Y-9713600D02*
X10160000Y-9793600D01*
X10120000Y-9753600D02*
X10200000Y-9753600D01*
X10160000Y-10463600D02*
X10160000Y-10543600D01*
X10120000Y-10503600D02*
X10200000Y-10503600D01*
X10293489Y-11186800D02*
X10293489Y-11266800D01*
X10253489Y-11226800D02*
X10333489Y-11226800D01*
X10515600Y-9713600D02*
X10515600Y-9793600D01*
X10475600Y-9753600D02*
X10555600Y-9753600D01*
X10515600Y-10475600D02*
X10515600Y-10555600D01*
X10475600Y-10515600D02*
X10555600Y-10515600D01*
X10543489Y-11186800D02*
X10543489Y-11266800D01*
X10503489Y-11226800D02*
X10583489Y-11226800D01*
X10769600Y-9713600D02*
X10769600Y-9793600D01*
X10729600Y-9753600D02*
X10809600Y-9753600D01*
X10769600Y-10475600D02*
X10769600Y-10555600D01*
X10729600Y-10515600D02*
X10809600Y-10515600D01*
X10896600Y-9332600D02*
X10896600Y-9412600D01*
X10856600Y-9372600D02*
X10936600Y-9372600D01*
X11023600Y-9713600D02*
X11023600Y-9793600D01*
X10983600Y-9753600D02*
X11063600Y-9753600D01*
X11023600Y-10475600D02*
X11023600Y-10555600D01*
X10983600Y-10515600D02*
X11063600Y-10515600D01*
X11150600Y-9332600D02*
X11150600Y-9412600D01*
X11110600Y-9372600D02*
X11190600Y-9372600D01*
X11277600Y-9713600D02*
X11277600Y-9793600D01*
X11237600Y-9753600D02*
X11317600Y-9753600D01*
X11277600Y-10475600D02*
X11277600Y-10555600D01*
X11237600Y-10515600D02*
X11317600Y-10515600D01*
X11404600Y-9332600D02*
X11404600Y-9412600D01*
X11364600Y-9372600D02*
X11444600Y-9372600D01*
X11954700Y-10805800D02*
X11954700Y-10885800D01*
X11914700Y-10845800D02*
X11994700Y-10845800D01*
X11963400Y-10018400D02*
X11963400Y-10098400D01*
X11923400Y-10058400D02*
X12003400Y-10058400D01*
X12204700Y-10805800D02*
X12204700Y-10885800D01*
X12164700Y-10845800D02*
X12244700Y-10845800D01*
X12217400Y-9764400D02*
X12217400Y-9844400D01*
X12177400Y-9804400D02*
X12257400Y-9804400D01*
X12217400Y-10272400D02*
X12217400Y-10352400D01*
X12177400Y-10312400D02*
X12257400Y-10312400D01*
X12496800Y-9612000D02*
X12496800Y-9692000D01*
X12456800Y-9652000D02*
X12536800Y-9652000D01*
X12496800Y-9862000D02*
X12496800Y-9942000D01*
X12456800Y-9902000D02*
X12536800Y-9902000D01*
X12533900Y-10603600D02*
X12533900Y-10683600D01*
X12493900Y-10643600D02*
X12573900Y-10643600D01*
X12533900Y-11365600D02*
X12533900Y-11445600D01*
X12493900Y-11405600D02*
X12573900Y-11405600D01*
X12787900Y-10603600D02*
X12787900Y-10683600D01*
X12747900Y-10643600D02*
X12827900Y-10643600D01*
X12787900Y-11365600D02*
X12787900Y-11445600D01*
X12747900Y-11405600D02*
X12827900Y-11405600D01*
X13041900Y-10603600D02*
X13041900Y-10683600D01*
X13001900Y-10643600D02*
X13081900Y-10643600D01*
X13041900Y-11365600D02*
X13041900Y-11445600D01*
X13001900Y-11405600D02*
X13081900Y-11405600D01*
X13295900Y-10603600D02*
X13295900Y-10683600D01*
X13255900Y-10643600D02*
X13335900Y-10643600D01*
X13295900Y-11365600D02*
X13295900Y-11445600D01*
X13255900Y-11405600D02*
X13335900Y-11405600D01*
X13652500Y-10603600D02*
X13652500Y-10683600D01*
X13612500Y-10643600D02*
X13692500Y-10643600D01*
X13652500Y-11353600D02*
X13652500Y-11433600D01*
X13612500Y-11393600D02*
X13692500Y-11393600D01*
X10014020Y-11919020D02*
X10014020Y-11855380D01*
X9950380Y-11855380D01*
X9950380Y-11919020D01*
X10014020Y-11919020D01*
X10776020Y-11919020D02*
X10776020Y-11855380D01*
X10712380Y-11855380D01*
X10712380Y-11919020D01*
X10776020Y-11919020D01*
X6808700Y-11734000D02*
X6858700Y-11684000D01*
X6808700Y-11634000D01*
X6758700Y-11684000D01*
X6808700Y-11734000D01*
X7062700Y-11734000D02*
X7112700Y-11684000D01*
X7062700Y-11634000D01*
X7012700Y-11684000D01*
X7062700Y-11734000D01*
X7315200Y-10996900D02*
X7365200Y-10946900D01*
X7315200Y-10896900D01*
X7265200Y-10946900D01*
X7315200Y-10996900D01*
X7315200Y-11250900D02*
X7365200Y-11200900D01*
X7315200Y-11150900D01*
X7265200Y-11200900D01*
X7315200Y-11250900D01*
X7316700Y-11734000D02*
X7366700Y-11684000D01*
X7316700Y-11634000D01*
X7266700Y-11684000D01*
X7316700Y-11734000D01*
X7899400Y-11734000D02*
X7949400Y-11684000D01*
X7899400Y-11634000D01*
X7849400Y-11684000D01*
X7899400Y-11734000D01*
X8153400Y-11734000D02*
X8203400Y-11684000D01*
X8153400Y-11634000D01*
X8103400Y-11684000D01*
X8153400Y-11734000D01*
X8534400Y-11480000D02*
X8584400Y-11430000D01*
X8534400Y-11380000D01*
X8484400Y-11430000D01*
X8534400Y-11480000D01*
X8534400Y-11734000D02*
X8584400Y-11684000D01*
X8534400Y-11634000D01*
X8484400Y-11684000D01*
X8534400Y-11734000D01*
X8940800Y-11480000D02*
X8990800Y-11430000D01*
X8940800Y-11380000D01*
X8890800Y-11430000D01*
X8940800Y-11480000D01*
X8940800Y-11734000D02*
X8990800Y-11684000D01*
X8940800Y-11634000D01*
X8890800Y-11684000D01*
X8940800Y-11734000D01*
X11001120Y-11294580D02*
X11051120Y-11244580D01*
X11001120Y-11194580D01*
X10951120Y-11244580D01*
X11001120Y-11294580D01*
X11501120Y-11294580D02*
X11551120Y-11244580D01*
X11501120Y-11194580D01*
X11451120Y-11244580D01*
X11501120Y-11294580D01*
X13665200Y-11734000D02*
X13715200Y-11684000D01*
X13665200Y-11634000D01*
X13615200Y-11684000D01*
X13665200Y-11734000D01*
X13919200Y-11734000D02*
X13969200Y-11684000D01*
X13919200Y-11634000D01*
X13869200Y-11684000D01*
X13919200Y-11734000D01*
D11*
X5770077Y-12356384D02*
X5770077Y-12156384D01*
X5770077Y-12156384D02*
X5817696Y-12156384D01*
X5817696Y-12156384D02*
X5846267Y-12165908D01*
X5846267Y-12165908D02*
X5865315Y-12184955D01*
X5865315Y-12184955D02*
X5874839Y-12204003D01*
X5874839Y-12204003D02*
X5884362Y-12242098D01*
X5884362Y-12242098D02*
X5884362Y-12270669D01*
X5884362Y-12270669D02*
X5874839Y-12308765D01*
X5874839Y-12308765D02*
X5865315Y-12327812D01*
X5865315Y-12327812D02*
X5846267Y-12346860D01*
X5846267Y-12346860D02*
X5817696Y-12356384D01*
X5817696Y-12356384D02*
X5770077Y-12356384D01*
X5970077Y-12356384D02*
X5970077Y-12223050D01*
X5970077Y-12261146D02*
X5979601Y-12242098D01*
X5979601Y-12242098D02*
X5989124Y-12232574D01*
X5989124Y-12232574D02*
X6008172Y-12223050D01*
X6008172Y-12223050D02*
X6027220Y-12223050D01*
X6093886Y-12356384D02*
X6093886Y-12223050D01*
X6093886Y-12156384D02*
X6084362Y-12165908D01*
X6084362Y-12165908D02*
X6093886Y-12175431D01*
X6093886Y-12175431D02*
X6103410Y-12165908D01*
X6103410Y-12165908D02*
X6093886Y-12156384D01*
X6093886Y-12156384D02*
X6093886Y-12175431D01*
X6217696Y-12356384D02*
X6198648Y-12346860D01*
X6198648Y-12346860D02*
X6189124Y-12327812D01*
X6189124Y-12327812D02*
X6189124Y-12156384D01*
X6322458Y-12356384D02*
X6303410Y-12346860D01*
X6303410Y-12346860D02*
X6293886Y-12327812D01*
X6293886Y-12327812D02*
X6293886Y-12156384D01*
X6551029Y-12356384D02*
X6551029Y-12156384D01*
X6551029Y-12156384D02*
X6617696Y-12299241D01*
X6617696Y-12299241D02*
X6684362Y-12156384D01*
X6684362Y-12156384D02*
X6684362Y-12356384D01*
X6865315Y-12356384D02*
X6865315Y-12251622D01*
X6865315Y-12251622D02*
X6855791Y-12232574D01*
X6855791Y-12232574D02*
X6836743Y-12223050D01*
X6836743Y-12223050D02*
X6798648Y-12223050D01*
X6798648Y-12223050D02*
X6779601Y-12232574D01*
X6865315Y-12346860D02*
X6846267Y-12356384D01*
X6846267Y-12356384D02*
X6798648Y-12356384D01*
X6798648Y-12356384D02*
X6779601Y-12346860D01*
X6779601Y-12346860D02*
X6770077Y-12327812D01*
X6770077Y-12327812D02*
X6770077Y-12308765D01*
X6770077Y-12308765D02*
X6779601Y-12289717D01*
X6779601Y-12289717D02*
X6798648Y-12280193D01*
X6798648Y-12280193D02*
X6846267Y-12280193D01*
X6846267Y-12280193D02*
X6865315Y-12270669D01*
X6960553Y-12223050D02*
X6960553Y-12423050D01*
X6960553Y-12232574D02*
X6979601Y-12223050D01*
X6979601Y-12223050D02*
X7017696Y-12223050D01*
X7017696Y-12223050D02*
X7036743Y-12232574D01*
X7036743Y-12232574D02*
X7046267Y-12242098D01*
X7046267Y-12242098D02*
X7055791Y-12261146D01*
X7055791Y-12261146D02*
X7055791Y-12318288D01*
X7055791Y-12318288D02*
X7046267Y-12337336D01*
X7046267Y-12337336D02*
X7036743Y-12346860D01*
X7036743Y-12346860D02*
X7017696Y-12356384D01*
X7017696Y-12356384D02*
X6979601Y-12356384D01*
X6979601Y-12356384D02*
X6960553Y-12346860D01*
X7141505Y-12337336D02*
X7151029Y-12346860D01*
X7151029Y-12346860D02*
X7141505Y-12356384D01*
X7141505Y-12356384D02*
X7131982Y-12346860D01*
X7131982Y-12346860D02*
X7141505Y-12337336D01*
X7141505Y-12337336D02*
X7141505Y-12356384D01*
X7141505Y-12232574D02*
X7151029Y-12242098D01*
X7151029Y-12242098D02*
X7141505Y-12251622D01*
X7141505Y-12251622D02*
X7131982Y-12242098D01*
X7131982Y-12242098D02*
X7141505Y-12232574D01*
X7141505Y-12232574D02*
X7141505Y-12251622D01*
D12*
X5479300Y-12669900D02*
X5509300Y-12699900D01*
X5509300Y-12669900D02*
X5479300Y-12699900D01*
D11*
X5808172Y-12576384D02*
X5827220Y-12576384D01*
X5827220Y-12576384D02*
X5846267Y-12585908D01*
X5846267Y-12585908D02*
X5855791Y-12595431D01*
X5855791Y-12595431D02*
X5865315Y-12614479D01*
X5865315Y-12614479D02*
X5874839Y-12652574D01*
X5874839Y-12652574D02*
X5874839Y-12700193D01*
X5874839Y-12700193D02*
X5865315Y-12738288D01*
X5865315Y-12738288D02*
X5855791Y-12757336D01*
X5855791Y-12757336D02*
X5846267Y-12766860D01*
X5846267Y-12766860D02*
X5827220Y-12776384D01*
X5827220Y-12776384D02*
X5808172Y-12776384D01*
X5808172Y-12776384D02*
X5789124Y-12766860D01*
X5789124Y-12766860D02*
X5779601Y-12757336D01*
X5779601Y-12757336D02*
X5770077Y-12738288D01*
X5770077Y-12738288D02*
X5760553Y-12700193D01*
X5760553Y-12700193D02*
X5760553Y-12652574D01*
X5760553Y-12652574D02*
X5770077Y-12614479D01*
X5770077Y-12614479D02*
X5779601Y-12595431D01*
X5779601Y-12595431D02*
X5789124Y-12585908D01*
X5789124Y-12585908D02*
X5808172Y-12576384D01*
X5960553Y-12757336D02*
X5970077Y-12766860D01*
X5970077Y-12766860D02*
X5960553Y-12776384D01*
X5960553Y-12776384D02*
X5951029Y-12766860D01*
X5951029Y-12766860D02*
X5960553Y-12757336D01*
X5960553Y-12757336D02*
X5960553Y-12776384D01*
X6036743Y-12576384D02*
X6160553Y-12576384D01*
X6160553Y-12576384D02*
X6093886Y-12652574D01*
X6093886Y-12652574D02*
X6122458Y-12652574D01*
X6122458Y-12652574D02*
X6141505Y-12662098D01*
X6141505Y-12662098D02*
X6151029Y-12671622D01*
X6151029Y-12671622D02*
X6160553Y-12690669D01*
X6160553Y-12690669D02*
X6160553Y-12738288D01*
X6160553Y-12738288D02*
X6151029Y-12757336D01*
X6151029Y-12757336D02*
X6141505Y-12766860D01*
X6141505Y-12766860D02*
X6122458Y-12776384D01*
X6122458Y-12776384D02*
X6065315Y-12776384D01*
X6065315Y-12776384D02*
X6046267Y-12766860D01*
X6046267Y-12766860D02*
X6036743Y-12757336D01*
X6284362Y-12576384D02*
X6303410Y-12576384D01*
X6303410Y-12576384D02*
X6322458Y-12585908D01*
X6322458Y-12585908D02*
X6331982Y-12595431D01*
X6331982Y-12595431D02*
X6341505Y-12614479D01*
X6341505Y-12614479D02*
X6351029Y-12652574D01*
X6351029Y-12652574D02*
X6351029Y-12700193D01*
X6351029Y-12700193D02*
X6341505Y-12738288D01*
X6341505Y-12738288D02*
X6331982Y-12757336D01*
X6331982Y-12757336D02*
X6322458Y-12766860D01*
X6322458Y-12766860D02*
X6303410Y-12776384D01*
X6303410Y-12776384D02*
X6284362Y-12776384D01*
X6284362Y-12776384D02*
X6265315Y-12766860D01*
X6265315Y-12766860D02*
X6255791Y-12757336D01*
X6255791Y-12757336D02*
X6246267Y-12738288D01*
X6246267Y-12738288D02*
X6236743Y-12700193D01*
X6236743Y-12700193D02*
X6236743Y-12652574D01*
X6236743Y-12652574D02*
X6246267Y-12614479D01*
X6246267Y-12614479D02*
X6255791Y-12595431D01*
X6255791Y-12595431D02*
X6265315Y-12585908D01*
X6265315Y-12585908D02*
X6284362Y-12576384D01*
X6474839Y-12576384D02*
X6493886Y-12576384D01*
X6493886Y-12576384D02*
X6512934Y-12585908D01*
X6512934Y-12585908D02*
X6522458Y-12595431D01*
X6522458Y-12595431D02*
X6531982Y-12614479D01*
X6531982Y-12614479D02*
X6541505Y-12652574D01*
X6541505Y-12652574D02*
X6541505Y-12700193D01*
X6541505Y-12700193D02*
X6531982Y-12738288D01*
X6531982Y-12738288D02*
X6522458Y-12757336D01*
X6522458Y-12757336D02*
X6512934Y-12766860D01*
X6512934Y-12766860D02*
X6493886Y-12776384D01*
X6493886Y-12776384D02*
X6474839Y-12776384D01*
X6474839Y-12776384D02*
X6455791Y-12766860D01*
X6455791Y-12766860D02*
X6446267Y-12757336D01*
X6446267Y-12757336D02*
X6436743Y-12738288D01*
X6436743Y-12738288D02*
X6427220Y-12700193D01*
X6427220Y-12700193D02*
X6427220Y-12652574D01*
X6427220Y-12652574D02*
X6436743Y-12614479D01*
X6436743Y-12614479D02*
X6446267Y-12595431D01*
X6446267Y-12595431D02*
X6455791Y-12585908D01*
X6455791Y-12585908D02*
X6474839Y-12576384D01*
X6627220Y-12776384D02*
X6627220Y-12643050D01*
X6627220Y-12662098D02*
X6636743Y-12652574D01*
X6636743Y-12652574D02*
X6655791Y-12643050D01*
X6655791Y-12643050D02*
X6684363Y-12643050D01*
X6684363Y-12643050D02*
X6703410Y-12652574D01*
X6703410Y-12652574D02*
X6712934Y-12671622D01*
X6712934Y-12671622D02*
X6712934Y-12776384D01*
X6712934Y-12671622D02*
X6722458Y-12652574D01*
X6722458Y-12652574D02*
X6741505Y-12643050D01*
X6741505Y-12643050D02*
X6770077Y-12643050D01*
X6770077Y-12643050D02*
X6789124Y-12652574D01*
X6789124Y-12652574D02*
X6798648Y-12671622D01*
X6798648Y-12671622D02*
X6798648Y-12776384D01*
X6893886Y-12776384D02*
X6893886Y-12643050D01*
X6893886Y-12662098D02*
X6903410Y-12652574D01*
X6903410Y-12652574D02*
X6922458Y-12643050D01*
X6922458Y-12643050D02*
X6951029Y-12643050D01*
X6951029Y-12643050D02*
X6970077Y-12652574D01*
X6970077Y-12652574D02*
X6979601Y-12671622D01*
X6979601Y-12671622D02*
X6979601Y-12776384D01*
X6979601Y-12671622D02*
X6989124Y-12652574D01*
X6989124Y-12652574D02*
X7008172Y-12643050D01*
X7008172Y-12643050D02*
X7036743Y-12643050D01*
X7036743Y-12643050D02*
X7055791Y-12652574D01*
X7055791Y-12652574D02*
X7065315Y-12671622D01*
X7065315Y-12671622D02*
X7065315Y-12776384D01*
X7455791Y-12566860D02*
X7284363Y-12824003D01*
X7712934Y-12576384D02*
X7731982Y-12576384D01*
X7731982Y-12576384D02*
X7751029Y-12585908D01*
X7751029Y-12585908D02*
X7760553Y-12595431D01*
X7760553Y-12595431D02*
X7770077Y-12614479D01*
X7770077Y-12614479D02*
X7779601Y-12652574D01*
X7779601Y-12652574D02*
X7779601Y-12700193D01*
X7779601Y-12700193D02*
X7770077Y-12738288D01*
X7770077Y-12738288D02*
X7760553Y-12757336D01*
X7760553Y-12757336D02*
X7751029Y-12766860D01*
X7751029Y-12766860D02*
X7731982Y-12776384D01*
X7731982Y-12776384D02*
X7712934Y-12776384D01*
X7712934Y-12776384D02*
X7693886Y-12766860D01*
X7693886Y-12766860D02*
X7684363Y-12757336D01*
X7684363Y-12757336D02*
X7674839Y-12738288D01*
X7674839Y-12738288D02*
X7665315Y-12700193D01*
X7665315Y-12700193D02*
X7665315Y-12652574D01*
X7665315Y-12652574D02*
X7674839Y-12614479D01*
X7674839Y-12614479D02*
X7684363Y-12595431D01*
X7684363Y-12595431D02*
X7693886Y-12585908D01*
X7693886Y-12585908D02*
X7712934Y-12576384D01*
X7865315Y-12757336D02*
X7874839Y-12766860D01*
X7874839Y-12766860D02*
X7865315Y-12776384D01*
X7865315Y-12776384D02*
X7855791Y-12766860D01*
X7855791Y-12766860D02*
X7865315Y-12757336D01*
X7865315Y-12757336D02*
X7865315Y-12776384D01*
X7998648Y-12576384D02*
X8017696Y-12576384D01*
X8017696Y-12576384D02*
X8036744Y-12585908D01*
X8036744Y-12585908D02*
X8046267Y-12595431D01*
X8046267Y-12595431D02*
X8055791Y-12614479D01*
X8055791Y-12614479D02*
X8065315Y-12652574D01*
X8065315Y-12652574D02*
X8065315Y-12700193D01*
X8065315Y-12700193D02*
X8055791Y-12738288D01*
X8055791Y-12738288D02*
X8046267Y-12757336D01*
X8046267Y-12757336D02*
X8036744Y-12766860D01*
X8036744Y-12766860D02*
X8017696Y-12776384D01*
X8017696Y-12776384D02*
X7998648Y-12776384D01*
X7998648Y-12776384D02*
X7979601Y-12766860D01*
X7979601Y-12766860D02*
X7970077Y-12757336D01*
X7970077Y-12757336D02*
X7960553Y-12738288D01*
X7960553Y-12738288D02*
X7951029Y-12700193D01*
X7951029Y-12700193D02*
X7951029Y-12652574D01*
X7951029Y-12652574D02*
X7960553Y-12614479D01*
X7960553Y-12614479D02*
X7970077Y-12595431D01*
X7970077Y-12595431D02*
X7979601Y-12585908D01*
X7979601Y-12585908D02*
X7998648Y-12576384D01*
X8255791Y-12776384D02*
X8141506Y-12776384D01*
X8198648Y-12776384D02*
X8198648Y-12576384D01*
X8198648Y-12576384D02*
X8179601Y-12604955D01*
X8179601Y-12604955D02*
X8160553Y-12624003D01*
X8160553Y-12624003D02*
X8141506Y-12633527D01*
X8446268Y-12776384D02*
X8331982Y-12776384D01*
X8389125Y-12776384D02*
X8389125Y-12576384D01*
X8389125Y-12576384D02*
X8370077Y-12604955D01*
X8370077Y-12604955D02*
X8351029Y-12624003D01*
X8351029Y-12624003D02*
X8331982Y-12633527D01*
X8560553Y-12662098D02*
X8541506Y-12652574D01*
X8541506Y-12652574D02*
X8531982Y-12643050D01*
X8531982Y-12643050D02*
X8522458Y-12624003D01*
X8522458Y-12624003D02*
X8522458Y-12614479D01*
X8522458Y-12614479D02*
X8531982Y-12595431D01*
X8531982Y-12595431D02*
X8541506Y-12585908D01*
X8541506Y-12585908D02*
X8560553Y-12576384D01*
X8560553Y-12576384D02*
X8598649Y-12576384D01*
X8598649Y-12576384D02*
X8617696Y-12585908D01*
X8617696Y-12585908D02*
X8627220Y-12595431D01*
X8627220Y-12595431D02*
X8636744Y-12614479D01*
X8636744Y-12614479D02*
X8636744Y-12624003D01*
X8636744Y-12624003D02*
X8627220Y-12643050D01*
X8627220Y-12643050D02*
X8617696Y-12652574D01*
X8617696Y-12652574D02*
X8598649Y-12662098D01*
X8598649Y-12662098D02*
X8560553Y-12662098D01*
X8560553Y-12662098D02*
X8541506Y-12671622D01*
X8541506Y-12671622D02*
X8531982Y-12681146D01*
X8531982Y-12681146D02*
X8522458Y-12700193D01*
X8522458Y-12700193D02*
X8522458Y-12738288D01*
X8522458Y-12738288D02*
X8531982Y-12757336D01*
X8531982Y-12757336D02*
X8541506Y-12766860D01*
X8541506Y-12766860D02*
X8560553Y-12776384D01*
X8560553Y-12776384D02*
X8598649Y-12776384D01*
X8598649Y-12776384D02*
X8617696Y-12766860D01*
X8617696Y-12766860D02*
X8627220Y-12757336D01*
X8627220Y-12757336D02*
X8636744Y-12738288D01*
X8636744Y-12738288D02*
X8636744Y-12700193D01*
X8636744Y-12700193D02*
X8627220Y-12681146D01*
X8627220Y-12681146D02*
X8617696Y-12671622D01*
X8617696Y-12671622D02*
X8598649Y-12662098D01*
X8712934Y-12576384D02*
X8712934Y-12614479D01*
X8789125Y-12576384D02*
X8789125Y-12614479D01*
X9084363Y-12852574D02*
X9074839Y-12843050D01*
X9074839Y-12843050D02*
X9055791Y-12814479D01*
X9055791Y-12814479D02*
X9046268Y-12795431D01*
X9046268Y-12795431D02*
X9036744Y-12766860D01*
X9036744Y-12766860D02*
X9027220Y-12719241D01*
X9027220Y-12719241D02*
X9027220Y-12681146D01*
X9027220Y-12681146D02*
X9036744Y-12633527D01*
X9036744Y-12633527D02*
X9046268Y-12604955D01*
X9046268Y-12604955D02*
X9055791Y-12585908D01*
X9055791Y-12585908D02*
X9074839Y-12557336D01*
X9074839Y-12557336D02*
X9084363Y-12547812D01*
X9246268Y-12643050D02*
X9246268Y-12776384D01*
X9198649Y-12566860D02*
X9151030Y-12709717D01*
X9151030Y-12709717D02*
X9274839Y-12709717D01*
X9503411Y-12776384D02*
X9503411Y-12576384D01*
X9589125Y-12776384D02*
X9589125Y-12671622D01*
X9589125Y-12671622D02*
X9579601Y-12652574D01*
X9579601Y-12652574D02*
X9560553Y-12643050D01*
X9560553Y-12643050D02*
X9531982Y-12643050D01*
X9531982Y-12643050D02*
X9512934Y-12652574D01*
X9512934Y-12652574D02*
X9503411Y-12662098D01*
X9712934Y-12776384D02*
X9693887Y-12766860D01*
X9693887Y-12766860D02*
X9684363Y-12757336D01*
X9684363Y-12757336D02*
X9674839Y-12738288D01*
X9674839Y-12738288D02*
X9674839Y-12681146D01*
X9674839Y-12681146D02*
X9684363Y-12662098D01*
X9684363Y-12662098D02*
X9693887Y-12652574D01*
X9693887Y-12652574D02*
X9712934Y-12643050D01*
X9712934Y-12643050D02*
X9741506Y-12643050D01*
X9741506Y-12643050D02*
X9760553Y-12652574D01*
X9760553Y-12652574D02*
X9770077Y-12662098D01*
X9770077Y-12662098D02*
X9779601Y-12681146D01*
X9779601Y-12681146D02*
X9779601Y-12738288D01*
X9779601Y-12738288D02*
X9770077Y-12757336D01*
X9770077Y-12757336D02*
X9760553Y-12766860D01*
X9760553Y-12766860D02*
X9741506Y-12776384D01*
X9741506Y-12776384D02*
X9712934Y-12776384D01*
X9893887Y-12776384D02*
X9874839Y-12766860D01*
X9874839Y-12766860D02*
X9865315Y-12747812D01*
X9865315Y-12747812D02*
X9865315Y-12576384D01*
X10046268Y-12766860D02*
X10027220Y-12776384D01*
X10027220Y-12776384D02*
X9989125Y-12776384D01*
X9989125Y-12776384D02*
X9970077Y-12766860D01*
X9970077Y-12766860D02*
X9960553Y-12747812D01*
X9960553Y-12747812D02*
X9960553Y-12671622D01*
X9960553Y-12671622D02*
X9970077Y-12652574D01*
X9970077Y-12652574D02*
X9989125Y-12643050D01*
X9989125Y-12643050D02*
X10027220Y-12643050D01*
X10027220Y-12643050D02*
X10046268Y-12652574D01*
X10046268Y-12652574D02*
X10055792Y-12671622D01*
X10055792Y-12671622D02*
X10055792Y-12690669D01*
X10055792Y-12690669D02*
X9960553Y-12709717D01*
X10131982Y-12766860D02*
X10151030Y-12776384D01*
X10151030Y-12776384D02*
X10189125Y-12776384D01*
X10189125Y-12776384D02*
X10208173Y-12766860D01*
X10208173Y-12766860D02*
X10217696Y-12747812D01*
X10217696Y-12747812D02*
X10217696Y-12738288D01*
X10217696Y-12738288D02*
X10208173Y-12719241D01*
X10208173Y-12719241D02*
X10189125Y-12709717D01*
X10189125Y-12709717D02*
X10160553Y-12709717D01*
X10160553Y-12709717D02*
X10141506Y-12700193D01*
X10141506Y-12700193D02*
X10131982Y-12681146D01*
X10131982Y-12681146D02*
X10131982Y-12671622D01*
X10131982Y-12671622D02*
X10141506Y-12652574D01*
X10141506Y-12652574D02*
X10160553Y-12643050D01*
X10160553Y-12643050D02*
X10189125Y-12643050D01*
X10189125Y-12643050D02*
X10208173Y-12652574D01*
X10284363Y-12852574D02*
X10293887Y-12843050D01*
X10293887Y-12843050D02*
X10312934Y-12814479D01*
X10312934Y-12814479D02*
X10322458Y-12795431D01*
X10322458Y-12795431D02*
X10331982Y-12766860D01*
X10331982Y-12766860D02*
X10341506Y-12719241D01*
X10341506Y-12719241D02*
X10341506Y-12681146D01*
X10341506Y-12681146D02*
X10331982Y-12633527D01*
X10331982Y-12633527D02*
X10322458Y-12604955D01*
X10322458Y-12604955D02*
X10312934Y-12585908D01*
X10312934Y-12585908D02*
X10293887Y-12557336D01*
X10293887Y-12557336D02*
X10284363Y-12547812D01*
D12*
X5509300Y-12948900D02*
G75*
G02*
X5439300Y-12948900I-35000J0D01*
G01*
X5439300Y-12948900D02*
G75*
G02*
X5509300Y-12948900I35000J0D01*
G01*
D11*
X5808172Y-12840384D02*
X5827220Y-12840384D01*
X5827220Y-12840384D02*
X5846267Y-12849908D01*
X5846267Y-12849908D02*
X5855791Y-12859431D01*
X5855791Y-12859431D02*
X5865315Y-12878479D01*
X5865315Y-12878479D02*
X5874839Y-12916574D01*
X5874839Y-12916574D02*
X5874839Y-12964193D01*
X5874839Y-12964193D02*
X5865315Y-13002288D01*
X5865315Y-13002288D02*
X5855791Y-13021336D01*
X5855791Y-13021336D02*
X5846267Y-13030860D01*
X5846267Y-13030860D02*
X5827220Y-13040384D01*
X5827220Y-13040384D02*
X5808172Y-13040384D01*
X5808172Y-13040384D02*
X5789124Y-13030860D01*
X5789124Y-13030860D02*
X5779601Y-13021336D01*
X5779601Y-13021336D02*
X5770077Y-13002288D01*
X5770077Y-13002288D02*
X5760553Y-12964193D01*
X5760553Y-12964193D02*
X5760553Y-12916574D01*
X5760553Y-12916574D02*
X5770077Y-12878479D01*
X5770077Y-12878479D02*
X5779601Y-12859431D01*
X5779601Y-12859431D02*
X5789124Y-12849908D01*
X5789124Y-12849908D02*
X5808172Y-12840384D01*
X5960553Y-13021336D02*
X5970077Y-13030860D01*
X5970077Y-13030860D02*
X5960553Y-13040384D01*
X5960553Y-13040384D02*
X5951029Y-13030860D01*
X5951029Y-13030860D02*
X5960553Y-13021336D01*
X5960553Y-13021336D02*
X5960553Y-13040384D01*
X6036743Y-12840384D02*
X6170077Y-12840384D01*
X6170077Y-12840384D02*
X6084362Y-13040384D01*
X6284362Y-12840384D02*
X6303410Y-12840384D01*
X6303410Y-12840384D02*
X6322458Y-12849908D01*
X6322458Y-12849908D02*
X6331982Y-12859431D01*
X6331982Y-12859431D02*
X6341505Y-12878479D01*
X6341505Y-12878479D02*
X6351029Y-12916574D01*
X6351029Y-12916574D02*
X6351029Y-12964193D01*
X6351029Y-12964193D02*
X6341505Y-13002288D01*
X6341505Y-13002288D02*
X6331982Y-13021336D01*
X6331982Y-13021336D02*
X6322458Y-13030860D01*
X6322458Y-13030860D02*
X6303410Y-13040384D01*
X6303410Y-13040384D02*
X6284362Y-13040384D01*
X6284362Y-13040384D02*
X6265315Y-13030860D01*
X6265315Y-13030860D02*
X6255791Y-13021336D01*
X6255791Y-13021336D02*
X6246267Y-13002288D01*
X6246267Y-13002288D02*
X6236743Y-12964193D01*
X6236743Y-12964193D02*
X6236743Y-12916574D01*
X6236743Y-12916574D02*
X6246267Y-12878479D01*
X6246267Y-12878479D02*
X6255791Y-12859431D01*
X6255791Y-12859431D02*
X6265315Y-12849908D01*
X6265315Y-12849908D02*
X6284362Y-12840384D01*
X6474839Y-12840384D02*
X6493886Y-12840384D01*
X6493886Y-12840384D02*
X6512934Y-12849908D01*
X6512934Y-12849908D02*
X6522458Y-12859431D01*
X6522458Y-12859431D02*
X6531982Y-12878479D01*
X6531982Y-12878479D02*
X6541505Y-12916574D01*
X6541505Y-12916574D02*
X6541505Y-12964193D01*
X6541505Y-12964193D02*
X6531982Y-13002288D01*
X6531982Y-13002288D02*
X6522458Y-13021336D01*
X6522458Y-13021336D02*
X6512934Y-13030860D01*
X6512934Y-13030860D02*
X6493886Y-13040384D01*
X6493886Y-13040384D02*
X6474839Y-13040384D01*
X6474839Y-13040384D02*
X6455791Y-13030860D01*
X6455791Y-13030860D02*
X6446267Y-13021336D01*
X6446267Y-13021336D02*
X6436743Y-13002288D01*
X6436743Y-13002288D02*
X6427220Y-12964193D01*
X6427220Y-12964193D02*
X6427220Y-12916574D01*
X6427220Y-12916574D02*
X6436743Y-12878479D01*
X6436743Y-12878479D02*
X6446267Y-12859431D01*
X6446267Y-12859431D02*
X6455791Y-12849908D01*
X6455791Y-12849908D02*
X6474839Y-12840384D01*
X6627220Y-13040384D02*
X6627220Y-12907050D01*
X6627220Y-12926098D02*
X6636743Y-12916574D01*
X6636743Y-12916574D02*
X6655791Y-12907050D01*
X6655791Y-12907050D02*
X6684363Y-12907050D01*
X6684363Y-12907050D02*
X6703410Y-12916574D01*
X6703410Y-12916574D02*
X6712934Y-12935622D01*
X6712934Y-12935622D02*
X6712934Y-13040384D01*
X6712934Y-12935622D02*
X6722458Y-12916574D01*
X6722458Y-12916574D02*
X6741505Y-12907050D01*
X6741505Y-12907050D02*
X6770077Y-12907050D01*
X6770077Y-12907050D02*
X6789124Y-12916574D01*
X6789124Y-12916574D02*
X6798648Y-12935622D01*
X6798648Y-12935622D02*
X6798648Y-13040384D01*
X6893886Y-13040384D02*
X6893886Y-12907050D01*
X6893886Y-12926098D02*
X6903410Y-12916574D01*
X6903410Y-12916574D02*
X6922458Y-12907050D01*
X6922458Y-12907050D02*
X6951029Y-12907050D01*
X6951029Y-12907050D02*
X6970077Y-12916574D01*
X6970077Y-12916574D02*
X6979601Y-12935622D01*
X6979601Y-12935622D02*
X6979601Y-13040384D01*
X6979601Y-12935622D02*
X6989124Y-12916574D01*
X6989124Y-12916574D02*
X7008172Y-12907050D01*
X7008172Y-12907050D02*
X7036743Y-12907050D01*
X7036743Y-12907050D02*
X7055791Y-12916574D01*
X7055791Y-12916574D02*
X7065315Y-12935622D01*
X7065315Y-12935622D02*
X7065315Y-13040384D01*
X7455791Y-12830860D02*
X7284363Y-13088003D01*
X7712934Y-12840384D02*
X7731982Y-12840384D01*
X7731982Y-12840384D02*
X7751029Y-12849908D01*
X7751029Y-12849908D02*
X7760553Y-12859431D01*
X7760553Y-12859431D02*
X7770077Y-12878479D01*
X7770077Y-12878479D02*
X7779601Y-12916574D01*
X7779601Y-12916574D02*
X7779601Y-12964193D01*
X7779601Y-12964193D02*
X7770077Y-13002288D01*
X7770077Y-13002288D02*
X7760553Y-13021336D01*
X7760553Y-13021336D02*
X7751029Y-13030860D01*
X7751029Y-13030860D02*
X7731982Y-13040384D01*
X7731982Y-13040384D02*
X7712934Y-13040384D01*
X7712934Y-13040384D02*
X7693886Y-13030860D01*
X7693886Y-13030860D02*
X7684363Y-13021336D01*
X7684363Y-13021336D02*
X7674839Y-13002288D01*
X7674839Y-13002288D02*
X7665315Y-12964193D01*
X7665315Y-12964193D02*
X7665315Y-12916574D01*
X7665315Y-12916574D02*
X7674839Y-12878479D01*
X7674839Y-12878479D02*
X7684363Y-12859431D01*
X7684363Y-12859431D02*
X7693886Y-12849908D01*
X7693886Y-12849908D02*
X7712934Y-12840384D01*
X7865315Y-13021336D02*
X7874839Y-13030860D01*
X7874839Y-13030860D02*
X7865315Y-13040384D01*
X7865315Y-13040384D02*
X7855791Y-13030860D01*
X7855791Y-13030860D02*
X7865315Y-13021336D01*
X7865315Y-13021336D02*
X7865315Y-13040384D01*
X7998648Y-12840384D02*
X8017696Y-12840384D01*
X8017696Y-12840384D02*
X8036744Y-12849908D01*
X8036744Y-12849908D02*
X8046267Y-12859431D01*
X8046267Y-12859431D02*
X8055791Y-12878479D01*
X8055791Y-12878479D02*
X8065315Y-12916574D01*
X8065315Y-12916574D02*
X8065315Y-12964193D01*
X8065315Y-12964193D02*
X8055791Y-13002288D01*
X8055791Y-13002288D02*
X8046267Y-13021336D01*
X8046267Y-13021336D02*
X8036744Y-13030860D01*
X8036744Y-13030860D02*
X8017696Y-13040384D01*
X8017696Y-13040384D02*
X7998648Y-13040384D01*
X7998648Y-13040384D02*
X7979601Y-13030860D01*
X7979601Y-13030860D02*
X7970077Y-13021336D01*
X7970077Y-13021336D02*
X7960553Y-13002288D01*
X7960553Y-13002288D02*
X7951029Y-12964193D01*
X7951029Y-12964193D02*
X7951029Y-12916574D01*
X7951029Y-12916574D02*
X7960553Y-12878479D01*
X7960553Y-12878479D02*
X7970077Y-12859431D01*
X7970077Y-12859431D02*
X7979601Y-12849908D01*
X7979601Y-12849908D02*
X7998648Y-12840384D01*
X8141506Y-12859431D02*
X8151029Y-12849908D01*
X8151029Y-12849908D02*
X8170077Y-12840384D01*
X8170077Y-12840384D02*
X8217696Y-12840384D01*
X8217696Y-12840384D02*
X8236744Y-12849908D01*
X8236744Y-12849908D02*
X8246267Y-12859431D01*
X8246267Y-12859431D02*
X8255791Y-12878479D01*
X8255791Y-12878479D02*
X8255791Y-12897527D01*
X8255791Y-12897527D02*
X8246267Y-12926098D01*
X8246267Y-12926098D02*
X8131982Y-13040384D01*
X8131982Y-13040384D02*
X8255791Y-13040384D01*
X8322458Y-12840384D02*
X8455791Y-12840384D01*
X8455791Y-12840384D02*
X8370077Y-13040384D01*
X8617696Y-12840384D02*
X8579601Y-12840384D01*
X8579601Y-12840384D02*
X8560553Y-12849908D01*
X8560553Y-12849908D02*
X8551029Y-12859431D01*
X8551029Y-12859431D02*
X8531982Y-12888003D01*
X8531982Y-12888003D02*
X8522458Y-12926098D01*
X8522458Y-12926098D02*
X8522458Y-13002288D01*
X8522458Y-13002288D02*
X8531982Y-13021336D01*
X8531982Y-13021336D02*
X8541506Y-13030860D01*
X8541506Y-13030860D02*
X8560553Y-13040384D01*
X8560553Y-13040384D02*
X8598649Y-13040384D01*
X8598649Y-13040384D02*
X8617696Y-13030860D01*
X8617696Y-13030860D02*
X8627220Y-13021336D01*
X8627220Y-13021336D02*
X8636744Y-13002288D01*
X8636744Y-13002288D02*
X8636744Y-12954669D01*
X8636744Y-12954669D02*
X8627220Y-12935622D01*
X8627220Y-12935622D02*
X8617696Y-12926098D01*
X8617696Y-12926098D02*
X8598649Y-12916574D01*
X8598649Y-12916574D02*
X8560553Y-12916574D01*
X8560553Y-12916574D02*
X8541506Y-12926098D01*
X8541506Y-12926098D02*
X8531982Y-12935622D01*
X8531982Y-12935622D02*
X8522458Y-12954669D01*
X8712934Y-12840384D02*
X8712934Y-12878479D01*
X8789125Y-12840384D02*
X8789125Y-12878479D01*
X9084363Y-13116574D02*
X9074839Y-13107050D01*
X9074839Y-13107050D02*
X9055791Y-13078479D01*
X9055791Y-13078479D02*
X9046268Y-13059431D01*
X9046268Y-13059431D02*
X9036744Y-13030860D01*
X9036744Y-13030860D02*
X9027220Y-12983241D01*
X9027220Y-12983241D02*
X9027220Y-12945146D01*
X9027220Y-12945146D02*
X9036744Y-12897527D01*
X9036744Y-12897527D02*
X9046268Y-12868955D01*
X9046268Y-12868955D02*
X9055791Y-12849908D01*
X9055791Y-12849908D02*
X9074839Y-12821336D01*
X9074839Y-12821336D02*
X9084363Y-12811812D01*
X9246268Y-12840384D02*
X9208172Y-12840384D01*
X9208172Y-12840384D02*
X9189125Y-12849908D01*
X9189125Y-12849908D02*
X9179601Y-12859431D01*
X9179601Y-12859431D02*
X9160553Y-12888003D01*
X9160553Y-12888003D02*
X9151030Y-12926098D01*
X9151030Y-12926098D02*
X9151030Y-13002288D01*
X9151030Y-13002288D02*
X9160553Y-13021336D01*
X9160553Y-13021336D02*
X9170077Y-13030860D01*
X9170077Y-13030860D02*
X9189125Y-13040384D01*
X9189125Y-13040384D02*
X9227220Y-13040384D01*
X9227220Y-13040384D02*
X9246268Y-13030860D01*
X9246268Y-13030860D02*
X9255791Y-13021336D01*
X9255791Y-13021336D02*
X9265315Y-13002288D01*
X9265315Y-13002288D02*
X9265315Y-12954669D01*
X9265315Y-12954669D02*
X9255791Y-12935622D01*
X9255791Y-12935622D02*
X9246268Y-12926098D01*
X9246268Y-12926098D02*
X9227220Y-12916574D01*
X9227220Y-12916574D02*
X9189125Y-12916574D01*
X9189125Y-12916574D02*
X9170077Y-12926098D01*
X9170077Y-12926098D02*
X9160553Y-12935622D01*
X9160553Y-12935622D02*
X9151030Y-12954669D01*
X9341506Y-12859431D02*
X9351030Y-12849908D01*
X9351030Y-12849908D02*
X9370077Y-12840384D01*
X9370077Y-12840384D02*
X9417696Y-12840384D01*
X9417696Y-12840384D02*
X9436744Y-12849908D01*
X9436744Y-12849908D02*
X9446268Y-12859431D01*
X9446268Y-12859431D02*
X9455791Y-12878479D01*
X9455791Y-12878479D02*
X9455791Y-12897527D01*
X9455791Y-12897527D02*
X9446268Y-12926098D01*
X9446268Y-12926098D02*
X9331982Y-13040384D01*
X9331982Y-13040384D02*
X9455791Y-13040384D01*
X9693887Y-13040384D02*
X9693887Y-12840384D01*
X9779601Y-13040384D02*
X9779601Y-12935622D01*
X9779601Y-12935622D02*
X9770077Y-12916574D01*
X9770077Y-12916574D02*
X9751030Y-12907050D01*
X9751030Y-12907050D02*
X9722458Y-12907050D01*
X9722458Y-12907050D02*
X9703411Y-12916574D01*
X9703411Y-12916574D02*
X9693887Y-12926098D01*
X9903411Y-13040384D02*
X9884363Y-13030860D01*
X9884363Y-13030860D02*
X9874839Y-13021336D01*
X9874839Y-13021336D02*
X9865315Y-13002288D01*
X9865315Y-13002288D02*
X9865315Y-12945146D01*
X9865315Y-12945146D02*
X9874839Y-12926098D01*
X9874839Y-12926098D02*
X9884363Y-12916574D01*
X9884363Y-12916574D02*
X9903411Y-12907050D01*
X9903411Y-12907050D02*
X9931982Y-12907050D01*
X9931982Y-12907050D02*
X9951030Y-12916574D01*
X9951030Y-12916574D02*
X9960553Y-12926098D01*
X9960553Y-12926098D02*
X9970077Y-12945146D01*
X9970077Y-12945146D02*
X9970077Y-13002288D01*
X9970077Y-13002288D02*
X9960553Y-13021336D01*
X9960553Y-13021336D02*
X9951030Y-13030860D01*
X9951030Y-13030860D02*
X9931982Y-13040384D01*
X9931982Y-13040384D02*
X9903411Y-13040384D01*
X10084363Y-13040384D02*
X10065315Y-13030860D01*
X10065315Y-13030860D02*
X10055792Y-13011812D01*
X10055792Y-13011812D02*
X10055792Y-12840384D01*
X10236744Y-13030860D02*
X10217696Y-13040384D01*
X10217696Y-13040384D02*
X10179601Y-13040384D01*
X10179601Y-13040384D02*
X10160553Y-13030860D01*
X10160553Y-13030860D02*
X10151030Y-13011812D01*
X10151030Y-13011812D02*
X10151030Y-12935622D01*
X10151030Y-12935622D02*
X10160553Y-12916574D01*
X10160553Y-12916574D02*
X10179601Y-12907050D01*
X10179601Y-12907050D02*
X10217696Y-12907050D01*
X10217696Y-12907050D02*
X10236744Y-12916574D01*
X10236744Y-12916574D02*
X10246268Y-12935622D01*
X10246268Y-12935622D02*
X10246268Y-12954669D01*
X10246268Y-12954669D02*
X10151030Y-12973717D01*
X10322458Y-13030860D02*
X10341506Y-13040384D01*
X10341506Y-13040384D02*
X10379601Y-13040384D01*
X10379601Y-13040384D02*
X10398649Y-13030860D01*
X10398649Y-13030860D02*
X10408173Y-13011812D01*
X10408173Y-13011812D02*
X10408173Y-13002288D01*
X10408173Y-13002288D02*
X10398649Y-12983241D01*
X10398649Y-12983241D02*
X10379601Y-12973717D01*
X10379601Y-12973717D02*
X10351030Y-12973717D01*
X10351030Y-12973717D02*
X10331982Y-12964193D01*
X10331982Y-12964193D02*
X10322458Y-12945146D01*
X10322458Y-12945146D02*
X10322458Y-12935622D01*
X10322458Y-12935622D02*
X10331982Y-12916574D01*
X10331982Y-12916574D02*
X10351030Y-12907050D01*
X10351030Y-12907050D02*
X10379601Y-12907050D01*
X10379601Y-12907050D02*
X10398649Y-12916574D01*
X10474839Y-13116574D02*
X10484363Y-13107050D01*
X10484363Y-13107050D02*
X10503411Y-13078479D01*
X10503411Y-13078479D02*
X10512934Y-13059431D01*
X10512934Y-13059431D02*
X10522458Y-13030860D01*
X10522458Y-13030860D02*
X10531982Y-12983241D01*
X10531982Y-12983241D02*
X10531982Y-12945146D01*
X10531982Y-12945146D02*
X10522458Y-12897527D01*
X10522458Y-12897527D02*
X10512934Y-12868955D01*
X10512934Y-12868955D02*
X10503411Y-12849908D01*
X10503411Y-12849908D02*
X10484363Y-12821336D01*
X10484363Y-12821336D02*
X10474839Y-12811812D01*
D12*
X5469300Y-13172900D02*
X5469300Y-13252900D01*
X5429300Y-13212900D02*
X5509300Y-13212900D01*
D11*
X5808172Y-13104384D02*
X5827220Y-13104384D01*
X5827220Y-13104384D02*
X5846267Y-13113908D01*
X5846267Y-13113908D02*
X5855791Y-13123431D01*
X5855791Y-13123431D02*
X5865315Y-13142479D01*
X5865315Y-13142479D02*
X5874839Y-13180574D01*
X5874839Y-13180574D02*
X5874839Y-13228193D01*
X5874839Y-13228193D02*
X5865315Y-13266288D01*
X5865315Y-13266288D02*
X5855791Y-13285336D01*
X5855791Y-13285336D02*
X5846267Y-13294860D01*
X5846267Y-13294860D02*
X5827220Y-13304384D01*
X5827220Y-13304384D02*
X5808172Y-13304384D01*
X5808172Y-13304384D02*
X5789124Y-13294860D01*
X5789124Y-13294860D02*
X5779601Y-13285336D01*
X5779601Y-13285336D02*
X5770077Y-13266288D01*
X5770077Y-13266288D02*
X5760553Y-13228193D01*
X5760553Y-13228193D02*
X5760553Y-13180574D01*
X5760553Y-13180574D02*
X5770077Y-13142479D01*
X5770077Y-13142479D02*
X5779601Y-13123431D01*
X5779601Y-13123431D02*
X5789124Y-13113908D01*
X5789124Y-13113908D02*
X5808172Y-13104384D01*
X5960553Y-13285336D02*
X5970077Y-13294860D01*
X5970077Y-13294860D02*
X5960553Y-13304384D01*
X5960553Y-13304384D02*
X5951029Y-13294860D01*
X5951029Y-13294860D02*
X5960553Y-13285336D01*
X5960553Y-13285336D02*
X5960553Y-13304384D01*
X6084362Y-13190098D02*
X6065315Y-13180574D01*
X6065315Y-13180574D02*
X6055791Y-13171050D01*
X6055791Y-13171050D02*
X6046267Y-13152003D01*
X6046267Y-13152003D02*
X6046267Y-13142479D01*
X6046267Y-13142479D02*
X6055791Y-13123431D01*
X6055791Y-13123431D02*
X6065315Y-13113908D01*
X6065315Y-13113908D02*
X6084362Y-13104384D01*
X6084362Y-13104384D02*
X6122458Y-13104384D01*
X6122458Y-13104384D02*
X6141505Y-13113908D01*
X6141505Y-13113908D02*
X6151029Y-13123431D01*
X6151029Y-13123431D02*
X6160553Y-13142479D01*
X6160553Y-13142479D02*
X6160553Y-13152003D01*
X6160553Y-13152003D02*
X6151029Y-13171050D01*
X6151029Y-13171050D02*
X6141505Y-13180574D01*
X6141505Y-13180574D02*
X6122458Y-13190098D01*
X6122458Y-13190098D02*
X6084362Y-13190098D01*
X6084362Y-13190098D02*
X6065315Y-13199622D01*
X6065315Y-13199622D02*
X6055791Y-13209146D01*
X6055791Y-13209146D02*
X6046267Y-13228193D01*
X6046267Y-13228193D02*
X6046267Y-13266288D01*
X6046267Y-13266288D02*
X6055791Y-13285336D01*
X6055791Y-13285336D02*
X6065315Y-13294860D01*
X6065315Y-13294860D02*
X6084362Y-13304384D01*
X6084362Y-13304384D02*
X6122458Y-13304384D01*
X6122458Y-13304384D02*
X6141505Y-13294860D01*
X6141505Y-13294860D02*
X6151029Y-13285336D01*
X6151029Y-13285336D02*
X6160553Y-13266288D01*
X6160553Y-13266288D02*
X6160553Y-13228193D01*
X6160553Y-13228193D02*
X6151029Y-13209146D01*
X6151029Y-13209146D02*
X6141505Y-13199622D01*
X6141505Y-13199622D02*
X6122458Y-13190098D01*
X6284362Y-13104384D02*
X6303410Y-13104384D01*
X6303410Y-13104384D02*
X6322458Y-13113908D01*
X6322458Y-13113908D02*
X6331982Y-13123431D01*
X6331982Y-13123431D02*
X6341505Y-13142479D01*
X6341505Y-13142479D02*
X6351029Y-13180574D01*
X6351029Y-13180574D02*
X6351029Y-13228193D01*
X6351029Y-13228193D02*
X6341505Y-13266288D01*
X6341505Y-13266288D02*
X6331982Y-13285336D01*
X6331982Y-13285336D02*
X6322458Y-13294860D01*
X6322458Y-13294860D02*
X6303410Y-13304384D01*
X6303410Y-13304384D02*
X6284362Y-13304384D01*
X6284362Y-13304384D02*
X6265315Y-13294860D01*
X6265315Y-13294860D02*
X6255791Y-13285336D01*
X6255791Y-13285336D02*
X6246267Y-13266288D01*
X6246267Y-13266288D02*
X6236743Y-13228193D01*
X6236743Y-13228193D02*
X6236743Y-13180574D01*
X6236743Y-13180574D02*
X6246267Y-13142479D01*
X6246267Y-13142479D02*
X6255791Y-13123431D01*
X6255791Y-13123431D02*
X6265315Y-13113908D01*
X6265315Y-13113908D02*
X6284362Y-13104384D01*
X6474839Y-13104384D02*
X6493886Y-13104384D01*
X6493886Y-13104384D02*
X6512934Y-13113908D01*
X6512934Y-13113908D02*
X6522458Y-13123431D01*
X6522458Y-13123431D02*
X6531982Y-13142479D01*
X6531982Y-13142479D02*
X6541505Y-13180574D01*
X6541505Y-13180574D02*
X6541505Y-13228193D01*
X6541505Y-13228193D02*
X6531982Y-13266288D01*
X6531982Y-13266288D02*
X6522458Y-13285336D01*
X6522458Y-13285336D02*
X6512934Y-13294860D01*
X6512934Y-13294860D02*
X6493886Y-13304384D01*
X6493886Y-13304384D02*
X6474839Y-13304384D01*
X6474839Y-13304384D02*
X6455791Y-13294860D01*
X6455791Y-13294860D02*
X6446267Y-13285336D01*
X6446267Y-13285336D02*
X6436743Y-13266288D01*
X6436743Y-13266288D02*
X6427220Y-13228193D01*
X6427220Y-13228193D02*
X6427220Y-13180574D01*
X6427220Y-13180574D02*
X6436743Y-13142479D01*
X6436743Y-13142479D02*
X6446267Y-13123431D01*
X6446267Y-13123431D02*
X6455791Y-13113908D01*
X6455791Y-13113908D02*
X6474839Y-13104384D01*
X6627220Y-13304384D02*
X6627220Y-13171050D01*
X6627220Y-13190098D02*
X6636743Y-13180574D01*
X6636743Y-13180574D02*
X6655791Y-13171050D01*
X6655791Y-13171050D02*
X6684363Y-13171050D01*
X6684363Y-13171050D02*
X6703410Y-13180574D01*
X6703410Y-13180574D02*
X6712934Y-13199622D01*
X6712934Y-13199622D02*
X6712934Y-13304384D01*
X6712934Y-13199622D02*
X6722458Y-13180574D01*
X6722458Y-13180574D02*
X6741505Y-13171050D01*
X6741505Y-13171050D02*
X6770077Y-13171050D01*
X6770077Y-13171050D02*
X6789124Y-13180574D01*
X6789124Y-13180574D02*
X6798648Y-13199622D01*
X6798648Y-13199622D02*
X6798648Y-13304384D01*
X6893886Y-13304384D02*
X6893886Y-13171050D01*
X6893886Y-13190098D02*
X6903410Y-13180574D01*
X6903410Y-13180574D02*
X6922458Y-13171050D01*
X6922458Y-13171050D02*
X6951029Y-13171050D01*
X6951029Y-13171050D02*
X6970077Y-13180574D01*
X6970077Y-13180574D02*
X6979601Y-13199622D01*
X6979601Y-13199622D02*
X6979601Y-13304384D01*
X6979601Y-13199622D02*
X6989124Y-13180574D01*
X6989124Y-13180574D02*
X7008172Y-13171050D01*
X7008172Y-13171050D02*
X7036743Y-13171050D01*
X7036743Y-13171050D02*
X7055791Y-13180574D01*
X7055791Y-13180574D02*
X7065315Y-13199622D01*
X7065315Y-13199622D02*
X7065315Y-13304384D01*
X7455791Y-13094860D02*
X7284363Y-13352003D01*
X7712934Y-13104384D02*
X7731982Y-13104384D01*
X7731982Y-13104384D02*
X7751029Y-13113908D01*
X7751029Y-13113908D02*
X7760553Y-13123431D01*
X7760553Y-13123431D02*
X7770077Y-13142479D01*
X7770077Y-13142479D02*
X7779601Y-13180574D01*
X7779601Y-13180574D02*
X7779601Y-13228193D01*
X7779601Y-13228193D02*
X7770077Y-13266288D01*
X7770077Y-13266288D02*
X7760553Y-13285336D01*
X7760553Y-13285336D02*
X7751029Y-13294860D01*
X7751029Y-13294860D02*
X7731982Y-13304384D01*
X7731982Y-13304384D02*
X7712934Y-13304384D01*
X7712934Y-13304384D02*
X7693886Y-13294860D01*
X7693886Y-13294860D02*
X7684363Y-13285336D01*
X7684363Y-13285336D02*
X7674839Y-13266288D01*
X7674839Y-13266288D02*
X7665315Y-13228193D01*
X7665315Y-13228193D02*
X7665315Y-13180574D01*
X7665315Y-13180574D02*
X7674839Y-13142479D01*
X7674839Y-13142479D02*
X7684363Y-13123431D01*
X7684363Y-13123431D02*
X7693886Y-13113908D01*
X7693886Y-13113908D02*
X7712934Y-13104384D01*
X7865315Y-13285336D02*
X7874839Y-13294860D01*
X7874839Y-13294860D02*
X7865315Y-13304384D01*
X7865315Y-13304384D02*
X7855791Y-13294860D01*
X7855791Y-13294860D02*
X7865315Y-13285336D01*
X7865315Y-13285336D02*
X7865315Y-13304384D01*
X7998648Y-13104384D02*
X8017696Y-13104384D01*
X8017696Y-13104384D02*
X8036744Y-13113908D01*
X8036744Y-13113908D02*
X8046267Y-13123431D01*
X8046267Y-13123431D02*
X8055791Y-13142479D01*
X8055791Y-13142479D02*
X8065315Y-13180574D01*
X8065315Y-13180574D02*
X8065315Y-13228193D01*
X8065315Y-13228193D02*
X8055791Y-13266288D01*
X8055791Y-13266288D02*
X8046267Y-13285336D01*
X8046267Y-13285336D02*
X8036744Y-13294860D01*
X8036744Y-13294860D02*
X8017696Y-13304384D01*
X8017696Y-13304384D02*
X7998648Y-13304384D01*
X7998648Y-13304384D02*
X7979601Y-13294860D01*
X7979601Y-13294860D02*
X7970077Y-13285336D01*
X7970077Y-13285336D02*
X7960553Y-13266288D01*
X7960553Y-13266288D02*
X7951029Y-13228193D01*
X7951029Y-13228193D02*
X7951029Y-13180574D01*
X7951029Y-13180574D02*
X7960553Y-13142479D01*
X7960553Y-13142479D02*
X7970077Y-13123431D01*
X7970077Y-13123431D02*
X7979601Y-13113908D01*
X7979601Y-13113908D02*
X7998648Y-13104384D01*
X8131982Y-13104384D02*
X8255791Y-13104384D01*
X8255791Y-13104384D02*
X8189125Y-13180574D01*
X8189125Y-13180574D02*
X8217696Y-13180574D01*
X8217696Y-13180574D02*
X8236744Y-13190098D01*
X8236744Y-13190098D02*
X8246267Y-13199622D01*
X8246267Y-13199622D02*
X8255791Y-13218669D01*
X8255791Y-13218669D02*
X8255791Y-13266288D01*
X8255791Y-13266288D02*
X8246267Y-13285336D01*
X8246267Y-13285336D02*
X8236744Y-13294860D01*
X8236744Y-13294860D02*
X8217696Y-13304384D01*
X8217696Y-13304384D02*
X8160553Y-13304384D01*
X8160553Y-13304384D02*
X8141506Y-13294860D01*
X8141506Y-13294860D02*
X8131982Y-13285336D01*
X8446268Y-13304384D02*
X8331982Y-13304384D01*
X8389125Y-13304384D02*
X8389125Y-13104384D01*
X8389125Y-13104384D02*
X8370077Y-13132955D01*
X8370077Y-13132955D02*
X8351029Y-13152003D01*
X8351029Y-13152003D02*
X8331982Y-13161527D01*
X8627220Y-13104384D02*
X8531982Y-13104384D01*
X8531982Y-13104384D02*
X8522458Y-13199622D01*
X8522458Y-13199622D02*
X8531982Y-13190098D01*
X8531982Y-13190098D02*
X8551029Y-13180574D01*
X8551029Y-13180574D02*
X8598649Y-13180574D01*
X8598649Y-13180574D02*
X8617696Y-13190098D01*
X8617696Y-13190098D02*
X8627220Y-13199622D01*
X8627220Y-13199622D02*
X8636744Y-13218669D01*
X8636744Y-13218669D02*
X8636744Y-13266288D01*
X8636744Y-13266288D02*
X8627220Y-13285336D01*
X8627220Y-13285336D02*
X8617696Y-13294860D01*
X8617696Y-13294860D02*
X8598649Y-13304384D01*
X8598649Y-13304384D02*
X8551029Y-13304384D01*
X8551029Y-13304384D02*
X8531982Y-13294860D01*
X8531982Y-13294860D02*
X8522458Y-13285336D01*
X8712934Y-13104384D02*
X8712934Y-13142479D01*
X8789125Y-13104384D02*
X8789125Y-13142479D01*
X9084363Y-13380574D02*
X9074839Y-13371050D01*
X9074839Y-13371050D02*
X9055791Y-13342479D01*
X9055791Y-13342479D02*
X9046268Y-13323431D01*
X9046268Y-13323431D02*
X9036744Y-13294860D01*
X9036744Y-13294860D02*
X9027220Y-13247241D01*
X9027220Y-13247241D02*
X9027220Y-13209146D01*
X9027220Y-13209146D02*
X9036744Y-13161527D01*
X9036744Y-13161527D02*
X9046268Y-13132955D01*
X9046268Y-13132955D02*
X9055791Y-13113908D01*
X9055791Y-13113908D02*
X9074839Y-13085336D01*
X9074839Y-13085336D02*
X9084363Y-13075812D01*
X9189125Y-13190098D02*
X9170077Y-13180574D01*
X9170077Y-13180574D02*
X9160553Y-13171050D01*
X9160553Y-13171050D02*
X9151030Y-13152003D01*
X9151030Y-13152003D02*
X9151030Y-13142479D01*
X9151030Y-13142479D02*
X9160553Y-13123431D01*
X9160553Y-13123431D02*
X9170077Y-13113908D01*
X9170077Y-13113908D02*
X9189125Y-13104384D01*
X9189125Y-13104384D02*
X9227220Y-13104384D01*
X9227220Y-13104384D02*
X9246268Y-13113908D01*
X9246268Y-13113908D02*
X9255791Y-13123431D01*
X9255791Y-13123431D02*
X9265315Y-13142479D01*
X9265315Y-13142479D02*
X9265315Y-13152003D01*
X9265315Y-13152003D02*
X9255791Y-13171050D01*
X9255791Y-13171050D02*
X9246268Y-13180574D01*
X9246268Y-13180574D02*
X9227220Y-13190098D01*
X9227220Y-13190098D02*
X9189125Y-13190098D01*
X9189125Y-13190098D02*
X9170077Y-13199622D01*
X9170077Y-13199622D02*
X9160553Y-13209146D01*
X9160553Y-13209146D02*
X9151030Y-13228193D01*
X9151030Y-13228193D02*
X9151030Y-13266288D01*
X9151030Y-13266288D02*
X9160553Y-13285336D01*
X9160553Y-13285336D02*
X9170077Y-13294860D01*
X9170077Y-13294860D02*
X9189125Y-13304384D01*
X9189125Y-13304384D02*
X9227220Y-13304384D01*
X9227220Y-13304384D02*
X9246268Y-13294860D01*
X9246268Y-13294860D02*
X9255791Y-13285336D01*
X9255791Y-13285336D02*
X9265315Y-13266288D01*
X9265315Y-13266288D02*
X9265315Y-13228193D01*
X9265315Y-13228193D02*
X9255791Y-13209146D01*
X9255791Y-13209146D02*
X9246268Y-13199622D01*
X9246268Y-13199622D02*
X9227220Y-13190098D01*
X9379601Y-13190098D02*
X9360553Y-13180574D01*
X9360553Y-13180574D02*
X9351030Y-13171050D01*
X9351030Y-13171050D02*
X9341506Y-13152003D01*
X9341506Y-13152003D02*
X9341506Y-13142479D01*
X9341506Y-13142479D02*
X9351030Y-13123431D01*
X9351030Y-13123431D02*
X9360553Y-13113908D01*
X9360553Y-13113908D02*
X9379601Y-13104384D01*
X9379601Y-13104384D02*
X9417696Y-13104384D01*
X9417696Y-13104384D02*
X9436744Y-13113908D01*
X9436744Y-13113908D02*
X9446268Y-13123431D01*
X9446268Y-13123431D02*
X9455791Y-13142479D01*
X9455791Y-13142479D02*
X9455791Y-13152003D01*
X9455791Y-13152003D02*
X9446268Y-13171050D01*
X9446268Y-13171050D02*
X9436744Y-13180574D01*
X9436744Y-13180574D02*
X9417696Y-13190098D01*
X9417696Y-13190098D02*
X9379601Y-13190098D01*
X9379601Y-13190098D02*
X9360553Y-13199622D01*
X9360553Y-13199622D02*
X9351030Y-13209146D01*
X9351030Y-13209146D02*
X9341506Y-13228193D01*
X9341506Y-13228193D02*
X9341506Y-13266288D01*
X9341506Y-13266288D02*
X9351030Y-13285336D01*
X9351030Y-13285336D02*
X9360553Y-13294860D01*
X9360553Y-13294860D02*
X9379601Y-13304384D01*
X9379601Y-13304384D02*
X9417696Y-13304384D01*
X9417696Y-13304384D02*
X9436744Y-13294860D01*
X9436744Y-13294860D02*
X9446268Y-13285336D01*
X9446268Y-13285336D02*
X9455791Y-13266288D01*
X9455791Y-13266288D02*
X9455791Y-13228193D01*
X9455791Y-13228193D02*
X9446268Y-13209146D01*
X9446268Y-13209146D02*
X9436744Y-13199622D01*
X9436744Y-13199622D02*
X9417696Y-13190098D01*
X9693887Y-13304384D02*
X9693887Y-13104384D01*
X9779601Y-13304384D02*
X9779601Y-13199622D01*
X9779601Y-13199622D02*
X9770077Y-13180574D01*
X9770077Y-13180574D02*
X9751030Y-13171050D01*
X9751030Y-13171050D02*
X9722458Y-13171050D01*
X9722458Y-13171050D02*
X9703411Y-13180574D01*
X9703411Y-13180574D02*
X9693887Y-13190098D01*
X9903411Y-13304384D02*
X9884363Y-13294860D01*
X9884363Y-13294860D02*
X9874839Y-13285336D01*
X9874839Y-13285336D02*
X9865315Y-13266288D01*
X9865315Y-13266288D02*
X9865315Y-13209146D01*
X9865315Y-13209146D02*
X9874839Y-13190098D01*
X9874839Y-13190098D02*
X9884363Y-13180574D01*
X9884363Y-13180574D02*
X9903411Y-13171050D01*
X9903411Y-13171050D02*
X9931982Y-13171050D01*
X9931982Y-13171050D02*
X9951030Y-13180574D01*
X9951030Y-13180574D02*
X9960553Y-13190098D01*
X9960553Y-13190098D02*
X9970077Y-13209146D01*
X9970077Y-13209146D02*
X9970077Y-13266288D01*
X9970077Y-13266288D02*
X9960553Y-13285336D01*
X9960553Y-13285336D02*
X9951030Y-13294860D01*
X9951030Y-13294860D02*
X9931982Y-13304384D01*
X9931982Y-13304384D02*
X9903411Y-13304384D01*
X10084363Y-13304384D02*
X10065315Y-13294860D01*
X10065315Y-13294860D02*
X10055792Y-13275812D01*
X10055792Y-13275812D02*
X10055792Y-13104384D01*
X10236744Y-13294860D02*
X10217696Y-13304384D01*
X10217696Y-13304384D02*
X10179601Y-13304384D01*
X10179601Y-13304384D02*
X10160553Y-13294860D01*
X10160553Y-13294860D02*
X10151030Y-13275812D01*
X10151030Y-13275812D02*
X10151030Y-13199622D01*
X10151030Y-13199622D02*
X10160553Y-13180574D01*
X10160553Y-13180574D02*
X10179601Y-13171050D01*
X10179601Y-13171050D02*
X10217696Y-13171050D01*
X10217696Y-13171050D02*
X10236744Y-13180574D01*
X10236744Y-13180574D02*
X10246268Y-13199622D01*
X10246268Y-13199622D02*
X10246268Y-13218669D01*
X10246268Y-13218669D02*
X10151030Y-13237717D01*
X10322458Y-13294860D02*
X10341506Y-13304384D01*
X10341506Y-13304384D02*
X10379601Y-13304384D01*
X10379601Y-13304384D02*
X10398649Y-13294860D01*
X10398649Y-13294860D02*
X10408173Y-13275812D01*
X10408173Y-13275812D02*
X10408173Y-13266288D01*
X10408173Y-13266288D02*
X10398649Y-13247241D01*
X10398649Y-13247241D02*
X10379601Y-13237717D01*
X10379601Y-13237717D02*
X10351030Y-13237717D01*
X10351030Y-13237717D02*
X10331982Y-13228193D01*
X10331982Y-13228193D02*
X10322458Y-13209146D01*
X10322458Y-13209146D02*
X10322458Y-13199622D01*
X10322458Y-13199622D02*
X10331982Y-13180574D01*
X10331982Y-13180574D02*
X10351030Y-13171050D01*
X10351030Y-13171050D02*
X10379601Y-13171050D01*
X10379601Y-13171050D02*
X10398649Y-13180574D01*
X10474839Y-13380574D02*
X10484363Y-13371050D01*
X10484363Y-13371050D02*
X10503411Y-13342479D01*
X10503411Y-13342479D02*
X10512934Y-13323431D01*
X10512934Y-13323431D02*
X10522458Y-13294860D01*
X10522458Y-13294860D02*
X10531982Y-13247241D01*
X10531982Y-13247241D02*
X10531982Y-13209146D01*
X10531982Y-13209146D02*
X10522458Y-13161527D01*
X10522458Y-13161527D02*
X10512934Y-13132955D01*
X10512934Y-13132955D02*
X10503411Y-13113908D01*
X10503411Y-13113908D02*
X10484363Y-13085336D01*
X10484363Y-13085336D02*
X10474839Y-13075812D01*
D12*
X5496120Y-13508720D02*
X5496120Y-13445080D01*
X5432480Y-13445080D01*
X5432480Y-13508720D01*
X5496120Y-13508720D01*
D11*
X5808172Y-13368384D02*
X5827220Y-13368384D01*
X5827220Y-13368384D02*
X5846267Y-13377908D01*
X5846267Y-13377908D02*
X5855791Y-13387431D01*
X5855791Y-13387431D02*
X5865315Y-13406479D01*
X5865315Y-13406479D02*
X5874839Y-13444574D01*
X5874839Y-13444574D02*
X5874839Y-13492193D01*
X5874839Y-13492193D02*
X5865315Y-13530288D01*
X5865315Y-13530288D02*
X5855791Y-13549336D01*
X5855791Y-13549336D02*
X5846267Y-13558860D01*
X5846267Y-13558860D02*
X5827220Y-13568384D01*
X5827220Y-13568384D02*
X5808172Y-13568384D01*
X5808172Y-13568384D02*
X5789124Y-13558860D01*
X5789124Y-13558860D02*
X5779601Y-13549336D01*
X5779601Y-13549336D02*
X5770077Y-13530288D01*
X5770077Y-13530288D02*
X5760553Y-13492193D01*
X5760553Y-13492193D02*
X5760553Y-13444574D01*
X5760553Y-13444574D02*
X5770077Y-13406479D01*
X5770077Y-13406479D02*
X5779601Y-13387431D01*
X5779601Y-13387431D02*
X5789124Y-13377908D01*
X5789124Y-13377908D02*
X5808172Y-13368384D01*
X5960553Y-13549336D02*
X5970077Y-13558860D01*
X5970077Y-13558860D02*
X5960553Y-13568384D01*
X5960553Y-13568384D02*
X5951029Y-13558860D01*
X5951029Y-13558860D02*
X5960553Y-13549336D01*
X5960553Y-13549336D02*
X5960553Y-13568384D01*
X6065315Y-13568384D02*
X6103410Y-13568384D01*
X6103410Y-13568384D02*
X6122458Y-13558860D01*
X6122458Y-13558860D02*
X6131982Y-13549336D01*
X6131982Y-13549336D02*
X6151029Y-13520765D01*
X6151029Y-13520765D02*
X6160553Y-13482669D01*
X6160553Y-13482669D02*
X6160553Y-13406479D01*
X6160553Y-13406479D02*
X6151029Y-13387431D01*
X6151029Y-13387431D02*
X6141505Y-13377908D01*
X6141505Y-13377908D02*
X6122458Y-13368384D01*
X6122458Y-13368384D02*
X6084362Y-13368384D01*
X6084362Y-13368384D02*
X6065315Y-13377908D01*
X6065315Y-13377908D02*
X6055791Y-13387431D01*
X6055791Y-13387431D02*
X6046267Y-13406479D01*
X6046267Y-13406479D02*
X6046267Y-13454098D01*
X6046267Y-13454098D02*
X6055791Y-13473146D01*
X6055791Y-13473146D02*
X6065315Y-13482669D01*
X6065315Y-13482669D02*
X6084362Y-13492193D01*
X6084362Y-13492193D02*
X6122458Y-13492193D01*
X6122458Y-13492193D02*
X6141505Y-13482669D01*
X6141505Y-13482669D02*
X6151029Y-13473146D01*
X6151029Y-13473146D02*
X6160553Y-13454098D01*
X6284362Y-13368384D02*
X6303410Y-13368384D01*
X6303410Y-13368384D02*
X6322458Y-13377908D01*
X6322458Y-13377908D02*
X6331982Y-13387431D01*
X6331982Y-13387431D02*
X6341505Y-13406479D01*
X6341505Y-13406479D02*
X6351029Y-13444574D01*
X6351029Y-13444574D02*
X6351029Y-13492193D01*
X6351029Y-13492193D02*
X6341505Y-13530288D01*
X6341505Y-13530288D02*
X6331982Y-13549336D01*
X6331982Y-13549336D02*
X6322458Y-13558860D01*
X6322458Y-13558860D02*
X6303410Y-13568384D01*
X6303410Y-13568384D02*
X6284362Y-13568384D01*
X6284362Y-13568384D02*
X6265315Y-13558860D01*
X6265315Y-13558860D02*
X6255791Y-13549336D01*
X6255791Y-13549336D02*
X6246267Y-13530288D01*
X6246267Y-13530288D02*
X6236743Y-13492193D01*
X6236743Y-13492193D02*
X6236743Y-13444574D01*
X6236743Y-13444574D02*
X6246267Y-13406479D01*
X6246267Y-13406479D02*
X6255791Y-13387431D01*
X6255791Y-13387431D02*
X6265315Y-13377908D01*
X6265315Y-13377908D02*
X6284362Y-13368384D01*
X6474839Y-13368384D02*
X6493886Y-13368384D01*
X6493886Y-13368384D02*
X6512934Y-13377908D01*
X6512934Y-13377908D02*
X6522458Y-13387431D01*
X6522458Y-13387431D02*
X6531982Y-13406479D01*
X6531982Y-13406479D02*
X6541505Y-13444574D01*
X6541505Y-13444574D02*
X6541505Y-13492193D01*
X6541505Y-13492193D02*
X6531982Y-13530288D01*
X6531982Y-13530288D02*
X6522458Y-13549336D01*
X6522458Y-13549336D02*
X6512934Y-13558860D01*
X6512934Y-13558860D02*
X6493886Y-13568384D01*
X6493886Y-13568384D02*
X6474839Y-13568384D01*
X6474839Y-13568384D02*
X6455791Y-13558860D01*
X6455791Y-13558860D02*
X6446267Y-13549336D01*
X6446267Y-13549336D02*
X6436743Y-13530288D01*
X6436743Y-13530288D02*
X6427220Y-13492193D01*
X6427220Y-13492193D02*
X6427220Y-13444574D01*
X6427220Y-13444574D02*
X6436743Y-13406479D01*
X6436743Y-13406479D02*
X6446267Y-13387431D01*
X6446267Y-13387431D02*
X6455791Y-13377908D01*
X6455791Y-13377908D02*
X6474839Y-13368384D01*
X6627220Y-13568384D02*
X6627220Y-13435050D01*
X6627220Y-13454098D02*
X6636743Y-13444574D01*
X6636743Y-13444574D02*
X6655791Y-13435050D01*
X6655791Y-13435050D02*
X6684363Y-13435050D01*
X6684363Y-13435050D02*
X6703410Y-13444574D01*
X6703410Y-13444574D02*
X6712934Y-13463622D01*
X6712934Y-13463622D02*
X6712934Y-13568384D01*
X6712934Y-13463622D02*
X6722458Y-13444574D01*
X6722458Y-13444574D02*
X6741505Y-13435050D01*
X6741505Y-13435050D02*
X6770077Y-13435050D01*
X6770077Y-13435050D02*
X6789124Y-13444574D01*
X6789124Y-13444574D02*
X6798648Y-13463622D01*
X6798648Y-13463622D02*
X6798648Y-13568384D01*
X6893886Y-13568384D02*
X6893886Y-13435050D01*
X6893886Y-13454098D02*
X6903410Y-13444574D01*
X6903410Y-13444574D02*
X6922458Y-13435050D01*
X6922458Y-13435050D02*
X6951029Y-13435050D01*
X6951029Y-13435050D02*
X6970077Y-13444574D01*
X6970077Y-13444574D02*
X6979601Y-13463622D01*
X6979601Y-13463622D02*
X6979601Y-13568384D01*
X6979601Y-13463622D02*
X6989124Y-13444574D01*
X6989124Y-13444574D02*
X7008172Y-13435050D01*
X7008172Y-13435050D02*
X7036743Y-13435050D01*
X7036743Y-13435050D02*
X7055791Y-13444574D01*
X7055791Y-13444574D02*
X7065315Y-13463622D01*
X7065315Y-13463622D02*
X7065315Y-13568384D01*
X7455791Y-13358860D02*
X7284363Y-13616003D01*
X7712934Y-13368384D02*
X7731982Y-13368384D01*
X7731982Y-13368384D02*
X7751029Y-13377908D01*
X7751029Y-13377908D02*
X7760553Y-13387431D01*
X7760553Y-13387431D02*
X7770077Y-13406479D01*
X7770077Y-13406479D02*
X7779601Y-13444574D01*
X7779601Y-13444574D02*
X7779601Y-13492193D01*
X7779601Y-13492193D02*
X7770077Y-13530288D01*
X7770077Y-13530288D02*
X7760553Y-13549336D01*
X7760553Y-13549336D02*
X7751029Y-13558860D01*
X7751029Y-13558860D02*
X7731982Y-13568384D01*
X7731982Y-13568384D02*
X7712934Y-13568384D01*
X7712934Y-13568384D02*
X7693886Y-13558860D01*
X7693886Y-13558860D02*
X7684363Y-13549336D01*
X7684363Y-13549336D02*
X7674839Y-13530288D01*
X7674839Y-13530288D02*
X7665315Y-13492193D01*
X7665315Y-13492193D02*
X7665315Y-13444574D01*
X7665315Y-13444574D02*
X7674839Y-13406479D01*
X7674839Y-13406479D02*
X7684363Y-13387431D01*
X7684363Y-13387431D02*
X7693886Y-13377908D01*
X7693886Y-13377908D02*
X7712934Y-13368384D01*
X7865315Y-13549336D02*
X7874839Y-13558860D01*
X7874839Y-13558860D02*
X7865315Y-13568384D01*
X7865315Y-13568384D02*
X7855791Y-13558860D01*
X7855791Y-13558860D02*
X7865315Y-13549336D01*
X7865315Y-13549336D02*
X7865315Y-13568384D01*
X7998648Y-13368384D02*
X8017696Y-13368384D01*
X8017696Y-13368384D02*
X8036744Y-13377908D01*
X8036744Y-13377908D02*
X8046267Y-13387431D01*
X8046267Y-13387431D02*
X8055791Y-13406479D01*
X8055791Y-13406479D02*
X8065315Y-13444574D01*
X8065315Y-13444574D02*
X8065315Y-13492193D01*
X8065315Y-13492193D02*
X8055791Y-13530288D01*
X8055791Y-13530288D02*
X8046267Y-13549336D01*
X8046267Y-13549336D02*
X8036744Y-13558860D01*
X8036744Y-13558860D02*
X8017696Y-13568384D01*
X8017696Y-13568384D02*
X7998648Y-13568384D01*
X7998648Y-13568384D02*
X7979601Y-13558860D01*
X7979601Y-13558860D02*
X7970077Y-13549336D01*
X7970077Y-13549336D02*
X7960553Y-13530288D01*
X7960553Y-13530288D02*
X7951029Y-13492193D01*
X7951029Y-13492193D02*
X7951029Y-13444574D01*
X7951029Y-13444574D02*
X7960553Y-13406479D01*
X7960553Y-13406479D02*
X7970077Y-13387431D01*
X7970077Y-13387431D02*
X7979601Y-13377908D01*
X7979601Y-13377908D02*
X7998648Y-13368384D01*
X8131982Y-13368384D02*
X8255791Y-13368384D01*
X8255791Y-13368384D02*
X8189125Y-13444574D01*
X8189125Y-13444574D02*
X8217696Y-13444574D01*
X8217696Y-13444574D02*
X8236744Y-13454098D01*
X8236744Y-13454098D02*
X8246267Y-13463622D01*
X8246267Y-13463622D02*
X8255791Y-13482669D01*
X8255791Y-13482669D02*
X8255791Y-13530288D01*
X8255791Y-13530288D02*
X8246267Y-13549336D01*
X8246267Y-13549336D02*
X8236744Y-13558860D01*
X8236744Y-13558860D02*
X8217696Y-13568384D01*
X8217696Y-13568384D02*
X8160553Y-13568384D01*
X8160553Y-13568384D02*
X8141506Y-13558860D01*
X8141506Y-13558860D02*
X8131982Y-13549336D01*
X8436744Y-13368384D02*
X8341506Y-13368384D01*
X8341506Y-13368384D02*
X8331982Y-13463622D01*
X8331982Y-13463622D02*
X8341506Y-13454098D01*
X8341506Y-13454098D02*
X8360553Y-13444574D01*
X8360553Y-13444574D02*
X8408172Y-13444574D01*
X8408172Y-13444574D02*
X8427220Y-13454098D01*
X8427220Y-13454098D02*
X8436744Y-13463622D01*
X8436744Y-13463622D02*
X8446268Y-13482669D01*
X8446268Y-13482669D02*
X8446268Y-13530288D01*
X8446268Y-13530288D02*
X8436744Y-13549336D01*
X8436744Y-13549336D02*
X8427220Y-13558860D01*
X8427220Y-13558860D02*
X8408172Y-13568384D01*
X8408172Y-13568384D02*
X8360553Y-13568384D01*
X8360553Y-13568384D02*
X8341506Y-13558860D01*
X8341506Y-13558860D02*
X8331982Y-13549336D01*
X8617696Y-13435050D02*
X8617696Y-13568384D01*
X8570077Y-13358860D02*
X8522458Y-13501717D01*
X8522458Y-13501717D02*
X8646268Y-13501717D01*
X8712934Y-13368384D02*
X8712934Y-13406479D01*
X8789125Y-13368384D02*
X8789125Y-13406479D01*
X9084363Y-13644574D02*
X9074839Y-13635050D01*
X9074839Y-13635050D02*
X9055791Y-13606479D01*
X9055791Y-13606479D02*
X9046268Y-13587431D01*
X9046268Y-13587431D02*
X9036744Y-13558860D01*
X9036744Y-13558860D02*
X9027220Y-13511241D01*
X9027220Y-13511241D02*
X9027220Y-13473146D01*
X9027220Y-13473146D02*
X9036744Y-13425527D01*
X9036744Y-13425527D02*
X9046268Y-13396955D01*
X9046268Y-13396955D02*
X9055791Y-13377908D01*
X9055791Y-13377908D02*
X9074839Y-13349336D01*
X9074839Y-13349336D02*
X9084363Y-13339812D01*
X9151030Y-13387431D02*
X9160553Y-13377908D01*
X9160553Y-13377908D02*
X9179601Y-13368384D01*
X9179601Y-13368384D02*
X9227220Y-13368384D01*
X9227220Y-13368384D02*
X9246268Y-13377908D01*
X9246268Y-13377908D02*
X9255791Y-13387431D01*
X9255791Y-13387431D02*
X9265315Y-13406479D01*
X9265315Y-13406479D02*
X9265315Y-13425527D01*
X9265315Y-13425527D02*
X9255791Y-13454098D01*
X9255791Y-13454098D02*
X9141506Y-13568384D01*
X9141506Y-13568384D02*
X9265315Y-13568384D01*
X9503411Y-13568384D02*
X9503411Y-13368384D01*
X9589125Y-13568384D02*
X9589125Y-13463622D01*
X9589125Y-13463622D02*
X9579601Y-13444574D01*
X9579601Y-13444574D02*
X9560553Y-13435050D01*
X9560553Y-13435050D02*
X9531982Y-13435050D01*
X9531982Y-13435050D02*
X9512934Y-13444574D01*
X9512934Y-13444574D02*
X9503411Y-13454098D01*
X9712934Y-13568384D02*
X9693887Y-13558860D01*
X9693887Y-13558860D02*
X9684363Y-13549336D01*
X9684363Y-13549336D02*
X9674839Y-13530288D01*
X9674839Y-13530288D02*
X9674839Y-13473146D01*
X9674839Y-13473146D02*
X9684363Y-13454098D01*
X9684363Y-13454098D02*
X9693887Y-13444574D01*
X9693887Y-13444574D02*
X9712934Y-13435050D01*
X9712934Y-13435050D02*
X9741506Y-13435050D01*
X9741506Y-13435050D02*
X9760553Y-13444574D01*
X9760553Y-13444574D02*
X9770077Y-13454098D01*
X9770077Y-13454098D02*
X9779601Y-13473146D01*
X9779601Y-13473146D02*
X9779601Y-13530288D01*
X9779601Y-13530288D02*
X9770077Y-13549336D01*
X9770077Y-13549336D02*
X9760553Y-13558860D01*
X9760553Y-13558860D02*
X9741506Y-13568384D01*
X9741506Y-13568384D02*
X9712934Y-13568384D01*
X9893887Y-13568384D02*
X9874839Y-13558860D01*
X9874839Y-13558860D02*
X9865315Y-13539812D01*
X9865315Y-13539812D02*
X9865315Y-13368384D01*
X10046268Y-13558860D02*
X10027220Y-13568384D01*
X10027220Y-13568384D02*
X9989125Y-13568384D01*
X9989125Y-13568384D02*
X9970077Y-13558860D01*
X9970077Y-13558860D02*
X9960553Y-13539812D01*
X9960553Y-13539812D02*
X9960553Y-13463622D01*
X9960553Y-13463622D02*
X9970077Y-13444574D01*
X9970077Y-13444574D02*
X9989125Y-13435050D01*
X9989125Y-13435050D02*
X10027220Y-13435050D01*
X10027220Y-13435050D02*
X10046268Y-13444574D01*
X10046268Y-13444574D02*
X10055792Y-13463622D01*
X10055792Y-13463622D02*
X10055792Y-13482669D01*
X10055792Y-13482669D02*
X9960553Y-13501717D01*
X10131982Y-13558860D02*
X10151030Y-13568384D01*
X10151030Y-13568384D02*
X10189125Y-13568384D01*
X10189125Y-13568384D02*
X10208173Y-13558860D01*
X10208173Y-13558860D02*
X10217696Y-13539812D01*
X10217696Y-13539812D02*
X10217696Y-13530288D01*
X10217696Y-13530288D02*
X10208173Y-13511241D01*
X10208173Y-13511241D02*
X10189125Y-13501717D01*
X10189125Y-13501717D02*
X10160553Y-13501717D01*
X10160553Y-13501717D02*
X10141506Y-13492193D01*
X10141506Y-13492193D02*
X10131982Y-13473146D01*
X10131982Y-13473146D02*
X10131982Y-13463622D01*
X10131982Y-13463622D02*
X10141506Y-13444574D01*
X10141506Y-13444574D02*
X10160553Y-13435050D01*
X10160553Y-13435050D02*
X10189125Y-13435050D01*
X10189125Y-13435050D02*
X10208173Y-13444574D01*
X10284363Y-13644574D02*
X10293887Y-13635050D01*
X10293887Y-13635050D02*
X10312934Y-13606479D01*
X10312934Y-13606479D02*
X10322458Y-13587431D01*
X10322458Y-13587431D02*
X10331982Y-13558860D01*
X10331982Y-13558860D02*
X10341506Y-13511241D01*
X10341506Y-13511241D02*
X10341506Y-13473146D01*
X10341506Y-13473146D02*
X10331982Y-13425527D01*
X10331982Y-13425527D02*
X10322458Y-13396955D01*
X10322458Y-13396955D02*
X10312934Y-13377908D01*
X10312934Y-13377908D02*
X10293887Y-13349336D01*
X10293887Y-13349336D02*
X10284363Y-13339812D01*
D12*
X5459300Y-13790900D02*
X5509300Y-13740900D01*
X5459300Y-13690900D01*
X5409300Y-13740900D01*
X5459300Y-13790900D01*
D11*
X5874839Y-13832384D02*
X5760553Y-13832384D01*
X5817696Y-13832384D02*
X5817696Y-13632384D01*
X5817696Y-13632384D02*
X5798648Y-13660955D01*
X5798648Y-13660955D02*
X5779601Y-13680003D01*
X5779601Y-13680003D02*
X5760553Y-13689527D01*
X5960553Y-13813336D02*
X5970077Y-13822860D01*
X5970077Y-13822860D02*
X5960553Y-13832384D01*
X5960553Y-13832384D02*
X5951029Y-13822860D01*
X5951029Y-13822860D02*
X5960553Y-13813336D01*
X5960553Y-13813336D02*
X5960553Y-13832384D01*
X6093886Y-13632384D02*
X6112934Y-13632384D01*
X6112934Y-13632384D02*
X6131982Y-13641908D01*
X6131982Y-13641908D02*
X6141505Y-13651431D01*
X6141505Y-13651431D02*
X6151029Y-13670479D01*
X6151029Y-13670479D02*
X6160553Y-13708574D01*
X6160553Y-13708574D02*
X6160553Y-13756193D01*
X6160553Y-13756193D02*
X6151029Y-13794288D01*
X6151029Y-13794288D02*
X6141505Y-13813336D01*
X6141505Y-13813336D02*
X6131982Y-13822860D01*
X6131982Y-13822860D02*
X6112934Y-13832384D01*
X6112934Y-13832384D02*
X6093886Y-13832384D01*
X6093886Y-13832384D02*
X6074839Y-13822860D01*
X6074839Y-13822860D02*
X6065315Y-13813336D01*
X6065315Y-13813336D02*
X6055791Y-13794288D01*
X6055791Y-13794288D02*
X6046267Y-13756193D01*
X6046267Y-13756193D02*
X6046267Y-13708574D01*
X6046267Y-13708574D02*
X6055791Y-13670479D01*
X6055791Y-13670479D02*
X6065315Y-13651431D01*
X6065315Y-13651431D02*
X6074839Y-13641908D01*
X6074839Y-13641908D02*
X6093886Y-13632384D01*
X6284362Y-13632384D02*
X6303410Y-13632384D01*
X6303410Y-13632384D02*
X6322458Y-13641908D01*
X6322458Y-13641908D02*
X6331982Y-13651431D01*
X6331982Y-13651431D02*
X6341505Y-13670479D01*
X6341505Y-13670479D02*
X6351029Y-13708574D01*
X6351029Y-13708574D02*
X6351029Y-13756193D01*
X6351029Y-13756193D02*
X6341505Y-13794288D01*
X6341505Y-13794288D02*
X6331982Y-13813336D01*
X6331982Y-13813336D02*
X6322458Y-13822860D01*
X6322458Y-13822860D02*
X6303410Y-13832384D01*
X6303410Y-13832384D02*
X6284362Y-13832384D01*
X6284362Y-13832384D02*
X6265315Y-13822860D01*
X6265315Y-13822860D02*
X6255791Y-13813336D01*
X6255791Y-13813336D02*
X6246267Y-13794288D01*
X6246267Y-13794288D02*
X6236743Y-13756193D01*
X6236743Y-13756193D02*
X6236743Y-13708574D01*
X6236743Y-13708574D02*
X6246267Y-13670479D01*
X6246267Y-13670479D02*
X6255791Y-13651431D01*
X6255791Y-13651431D02*
X6265315Y-13641908D01*
X6265315Y-13641908D02*
X6284362Y-13632384D01*
X6474839Y-13632384D02*
X6493886Y-13632384D01*
X6493886Y-13632384D02*
X6512934Y-13641908D01*
X6512934Y-13641908D02*
X6522458Y-13651431D01*
X6522458Y-13651431D02*
X6531982Y-13670479D01*
X6531982Y-13670479D02*
X6541505Y-13708574D01*
X6541505Y-13708574D02*
X6541505Y-13756193D01*
X6541505Y-13756193D02*
X6531982Y-13794288D01*
X6531982Y-13794288D02*
X6522458Y-13813336D01*
X6522458Y-13813336D02*
X6512934Y-13822860D01*
X6512934Y-13822860D02*
X6493886Y-13832384D01*
X6493886Y-13832384D02*
X6474839Y-13832384D01*
X6474839Y-13832384D02*
X6455791Y-13822860D01*
X6455791Y-13822860D02*
X6446267Y-13813336D01*
X6446267Y-13813336D02*
X6436743Y-13794288D01*
X6436743Y-13794288D02*
X6427220Y-13756193D01*
X6427220Y-13756193D02*
X6427220Y-13708574D01*
X6427220Y-13708574D02*
X6436743Y-13670479D01*
X6436743Y-13670479D02*
X6446267Y-13651431D01*
X6446267Y-13651431D02*
X6455791Y-13641908D01*
X6455791Y-13641908D02*
X6474839Y-13632384D01*
X6627220Y-13832384D02*
X6627220Y-13699050D01*
X6627220Y-13718098D02*
X6636743Y-13708574D01*
X6636743Y-13708574D02*
X6655791Y-13699050D01*
X6655791Y-13699050D02*
X6684363Y-13699050D01*
X6684363Y-13699050D02*
X6703410Y-13708574D01*
X6703410Y-13708574D02*
X6712934Y-13727622D01*
X6712934Y-13727622D02*
X6712934Y-13832384D01*
X6712934Y-13727622D02*
X6722458Y-13708574D01*
X6722458Y-13708574D02*
X6741505Y-13699050D01*
X6741505Y-13699050D02*
X6770077Y-13699050D01*
X6770077Y-13699050D02*
X6789124Y-13708574D01*
X6789124Y-13708574D02*
X6798648Y-13727622D01*
X6798648Y-13727622D02*
X6798648Y-13832384D01*
X6893886Y-13832384D02*
X6893886Y-13699050D01*
X6893886Y-13718098D02*
X6903410Y-13708574D01*
X6903410Y-13708574D02*
X6922458Y-13699050D01*
X6922458Y-13699050D02*
X6951029Y-13699050D01*
X6951029Y-13699050D02*
X6970077Y-13708574D01*
X6970077Y-13708574D02*
X6979601Y-13727622D01*
X6979601Y-13727622D02*
X6979601Y-13832384D01*
X6979601Y-13727622D02*
X6989124Y-13708574D01*
X6989124Y-13708574D02*
X7008172Y-13699050D01*
X7008172Y-13699050D02*
X7036743Y-13699050D01*
X7036743Y-13699050D02*
X7055791Y-13708574D01*
X7055791Y-13708574D02*
X7065315Y-13727622D01*
X7065315Y-13727622D02*
X7065315Y-13832384D01*
X7455791Y-13622860D02*
X7284363Y-13880003D01*
X7712934Y-13632384D02*
X7731982Y-13632384D01*
X7731982Y-13632384D02*
X7751029Y-13641908D01*
X7751029Y-13641908D02*
X7760553Y-13651431D01*
X7760553Y-13651431D02*
X7770077Y-13670479D01*
X7770077Y-13670479D02*
X7779601Y-13708574D01*
X7779601Y-13708574D02*
X7779601Y-13756193D01*
X7779601Y-13756193D02*
X7770077Y-13794288D01*
X7770077Y-13794288D02*
X7760553Y-13813336D01*
X7760553Y-13813336D02*
X7751029Y-13822860D01*
X7751029Y-13822860D02*
X7731982Y-13832384D01*
X7731982Y-13832384D02*
X7712934Y-13832384D01*
X7712934Y-13832384D02*
X7693886Y-13822860D01*
X7693886Y-13822860D02*
X7684363Y-13813336D01*
X7684363Y-13813336D02*
X7674839Y-13794288D01*
X7674839Y-13794288D02*
X7665315Y-13756193D01*
X7665315Y-13756193D02*
X7665315Y-13708574D01*
X7665315Y-13708574D02*
X7674839Y-13670479D01*
X7674839Y-13670479D02*
X7684363Y-13651431D01*
X7684363Y-13651431D02*
X7693886Y-13641908D01*
X7693886Y-13641908D02*
X7712934Y-13632384D01*
X7865315Y-13813336D02*
X7874839Y-13822860D01*
X7874839Y-13822860D02*
X7865315Y-13832384D01*
X7865315Y-13832384D02*
X7855791Y-13822860D01*
X7855791Y-13822860D02*
X7865315Y-13813336D01*
X7865315Y-13813336D02*
X7865315Y-13832384D01*
X7998648Y-13632384D02*
X8017696Y-13632384D01*
X8017696Y-13632384D02*
X8036744Y-13641908D01*
X8036744Y-13641908D02*
X8046267Y-13651431D01*
X8046267Y-13651431D02*
X8055791Y-13670479D01*
X8055791Y-13670479D02*
X8065315Y-13708574D01*
X8065315Y-13708574D02*
X8065315Y-13756193D01*
X8065315Y-13756193D02*
X8055791Y-13794288D01*
X8055791Y-13794288D02*
X8046267Y-13813336D01*
X8046267Y-13813336D02*
X8036744Y-13822860D01*
X8036744Y-13822860D02*
X8017696Y-13832384D01*
X8017696Y-13832384D02*
X7998648Y-13832384D01*
X7998648Y-13832384D02*
X7979601Y-13822860D01*
X7979601Y-13822860D02*
X7970077Y-13813336D01*
X7970077Y-13813336D02*
X7960553Y-13794288D01*
X7960553Y-13794288D02*
X7951029Y-13756193D01*
X7951029Y-13756193D02*
X7951029Y-13708574D01*
X7951029Y-13708574D02*
X7960553Y-13670479D01*
X7960553Y-13670479D02*
X7970077Y-13651431D01*
X7970077Y-13651431D02*
X7979601Y-13641908D01*
X7979601Y-13641908D02*
X7998648Y-13632384D01*
X8131982Y-13632384D02*
X8255791Y-13632384D01*
X8255791Y-13632384D02*
X8189125Y-13708574D01*
X8189125Y-13708574D02*
X8217696Y-13708574D01*
X8217696Y-13708574D02*
X8236744Y-13718098D01*
X8236744Y-13718098D02*
X8246267Y-13727622D01*
X8246267Y-13727622D02*
X8255791Y-13746669D01*
X8255791Y-13746669D02*
X8255791Y-13794288D01*
X8255791Y-13794288D02*
X8246267Y-13813336D01*
X8246267Y-13813336D02*
X8236744Y-13822860D01*
X8236744Y-13822860D02*
X8217696Y-13832384D01*
X8217696Y-13832384D02*
X8160553Y-13832384D01*
X8160553Y-13832384D02*
X8141506Y-13822860D01*
X8141506Y-13822860D02*
X8131982Y-13813336D01*
X8351029Y-13832384D02*
X8389125Y-13832384D01*
X8389125Y-13832384D02*
X8408172Y-13822860D01*
X8408172Y-13822860D02*
X8417696Y-13813336D01*
X8417696Y-13813336D02*
X8436744Y-13784765D01*
X8436744Y-13784765D02*
X8446268Y-13746669D01*
X8446268Y-13746669D02*
X8446268Y-13670479D01*
X8446268Y-13670479D02*
X8436744Y-13651431D01*
X8436744Y-13651431D02*
X8427220Y-13641908D01*
X8427220Y-13641908D02*
X8408172Y-13632384D01*
X8408172Y-13632384D02*
X8370077Y-13632384D01*
X8370077Y-13632384D02*
X8351029Y-13641908D01*
X8351029Y-13641908D02*
X8341506Y-13651431D01*
X8341506Y-13651431D02*
X8331982Y-13670479D01*
X8331982Y-13670479D02*
X8331982Y-13718098D01*
X8331982Y-13718098D02*
X8341506Y-13737146D01*
X8341506Y-13737146D02*
X8351029Y-13746669D01*
X8351029Y-13746669D02*
X8370077Y-13756193D01*
X8370077Y-13756193D02*
X8408172Y-13756193D01*
X8408172Y-13756193D02*
X8427220Y-13746669D01*
X8427220Y-13746669D02*
X8436744Y-13737146D01*
X8436744Y-13737146D02*
X8446268Y-13718098D01*
X8617696Y-13699050D02*
X8617696Y-13832384D01*
X8570077Y-13622860D02*
X8522458Y-13765717D01*
X8522458Y-13765717D02*
X8646268Y-13765717D01*
X8712934Y-13632384D02*
X8712934Y-13670479D01*
X8789125Y-13632384D02*
X8789125Y-13670479D01*
X9084363Y-13908574D02*
X9074839Y-13899050D01*
X9074839Y-13899050D02*
X9055791Y-13870479D01*
X9055791Y-13870479D02*
X9046268Y-13851431D01*
X9046268Y-13851431D02*
X9036744Y-13822860D01*
X9036744Y-13822860D02*
X9027220Y-13775241D01*
X9027220Y-13775241D02*
X9027220Y-13737146D01*
X9027220Y-13737146D02*
X9036744Y-13689527D01*
X9036744Y-13689527D02*
X9046268Y-13660955D01*
X9046268Y-13660955D02*
X9055791Y-13641908D01*
X9055791Y-13641908D02*
X9074839Y-13613336D01*
X9074839Y-13613336D02*
X9084363Y-13603812D01*
X9265315Y-13832384D02*
X9151030Y-13832384D01*
X9208172Y-13832384D02*
X9208172Y-13632384D01*
X9208172Y-13632384D02*
X9189125Y-13660955D01*
X9189125Y-13660955D02*
X9170077Y-13680003D01*
X9170077Y-13680003D02*
X9151030Y-13689527D01*
X9446268Y-13632384D02*
X9351030Y-13632384D01*
X9351030Y-13632384D02*
X9341506Y-13727622D01*
X9341506Y-13727622D02*
X9351030Y-13718098D01*
X9351030Y-13718098D02*
X9370077Y-13708574D01*
X9370077Y-13708574D02*
X9417696Y-13708574D01*
X9417696Y-13708574D02*
X9436744Y-13718098D01*
X9436744Y-13718098D02*
X9446268Y-13727622D01*
X9446268Y-13727622D02*
X9455791Y-13746669D01*
X9455791Y-13746669D02*
X9455791Y-13794288D01*
X9455791Y-13794288D02*
X9446268Y-13813336D01*
X9446268Y-13813336D02*
X9436744Y-13822860D01*
X9436744Y-13822860D02*
X9417696Y-13832384D01*
X9417696Y-13832384D02*
X9370077Y-13832384D01*
X9370077Y-13832384D02*
X9351030Y-13822860D01*
X9351030Y-13822860D02*
X9341506Y-13813336D01*
X9693887Y-13832384D02*
X9693887Y-13632384D01*
X9779601Y-13832384D02*
X9779601Y-13727622D01*
X9779601Y-13727622D02*
X9770077Y-13708574D01*
X9770077Y-13708574D02*
X9751030Y-13699050D01*
X9751030Y-13699050D02*
X9722458Y-13699050D01*
X9722458Y-13699050D02*
X9703411Y-13708574D01*
X9703411Y-13708574D02*
X9693887Y-13718098D01*
X9903411Y-13832384D02*
X9884363Y-13822860D01*
X9884363Y-13822860D02*
X9874839Y-13813336D01*
X9874839Y-13813336D02*
X9865315Y-13794288D01*
X9865315Y-13794288D02*
X9865315Y-13737146D01*
X9865315Y-13737146D02*
X9874839Y-13718098D01*
X9874839Y-13718098D02*
X9884363Y-13708574D01*
X9884363Y-13708574D02*
X9903411Y-13699050D01*
X9903411Y-13699050D02*
X9931982Y-13699050D01*
X9931982Y-13699050D02*
X9951030Y-13708574D01*
X9951030Y-13708574D02*
X9960553Y-13718098D01*
X9960553Y-13718098D02*
X9970077Y-13737146D01*
X9970077Y-13737146D02*
X9970077Y-13794288D01*
X9970077Y-13794288D02*
X9960553Y-13813336D01*
X9960553Y-13813336D02*
X9951030Y-13822860D01*
X9951030Y-13822860D02*
X9931982Y-13832384D01*
X9931982Y-13832384D02*
X9903411Y-13832384D01*
X10084363Y-13832384D02*
X10065315Y-13822860D01*
X10065315Y-13822860D02*
X10055792Y-13803812D01*
X10055792Y-13803812D02*
X10055792Y-13632384D01*
X10236744Y-13822860D02*
X10217696Y-13832384D01*
X10217696Y-13832384D02*
X10179601Y-13832384D01*
X10179601Y-13832384D02*
X10160553Y-13822860D01*
X10160553Y-13822860D02*
X10151030Y-13803812D01*
X10151030Y-13803812D02*
X10151030Y-13727622D01*
X10151030Y-13727622D02*
X10160553Y-13708574D01*
X10160553Y-13708574D02*
X10179601Y-13699050D01*
X10179601Y-13699050D02*
X10217696Y-13699050D01*
X10217696Y-13699050D02*
X10236744Y-13708574D01*
X10236744Y-13708574D02*
X10246268Y-13727622D01*
X10246268Y-13727622D02*
X10246268Y-13746669D01*
X10246268Y-13746669D02*
X10151030Y-13765717D01*
X10322458Y-13822860D02*
X10341506Y-13832384D01*
X10341506Y-13832384D02*
X10379601Y-13832384D01*
X10379601Y-13832384D02*
X10398649Y-13822860D01*
X10398649Y-13822860D02*
X10408173Y-13803812D01*
X10408173Y-13803812D02*
X10408173Y-13794288D01*
X10408173Y-13794288D02*
X10398649Y-13775241D01*
X10398649Y-13775241D02*
X10379601Y-13765717D01*
X10379601Y-13765717D02*
X10351030Y-13765717D01*
X10351030Y-13765717D02*
X10331982Y-13756193D01*
X10331982Y-13756193D02*
X10322458Y-13737146D01*
X10322458Y-13737146D02*
X10322458Y-13727622D01*
X10322458Y-13727622D02*
X10331982Y-13708574D01*
X10331982Y-13708574D02*
X10351030Y-13699050D01*
X10351030Y-13699050D02*
X10379601Y-13699050D01*
X10379601Y-13699050D02*
X10398649Y-13708574D01*
X10474839Y-13908574D02*
X10484363Y-13899050D01*
X10484363Y-13899050D02*
X10503411Y-13870479D01*
X10503411Y-13870479D02*
X10512934Y-13851431D01*
X10512934Y-13851431D02*
X10522458Y-13822860D01*
X10522458Y-13822860D02*
X10531982Y-13775241D01*
X10531982Y-13775241D02*
X10531982Y-13737146D01*
X10531982Y-13737146D02*
X10522458Y-13689527D01*
X10522458Y-13689527D02*
X10512934Y-13660955D01*
X10512934Y-13660955D02*
X10503411Y-13641908D01*
X10503411Y-13641908D02*
X10484363Y-13613336D01*
X10484363Y-13613336D02*
X10474839Y-13603812D01*
M02*
